<svg width="12" height="13" viewBox="0 0 12 13" fill="none" xmlns="http://www.w3.org/2000/svg">
<path d="M1.91667 12.3333C1.59583 12.3333 1.32108 12.2192 1.09242 11.9909C0.864139 11.7623 0.75 11.4875 0.75 11.1667V3.00001C0.75 2.67917 0.864139 2.40462 1.09242 2.17634C1.32108 1.94767 1.59583 1.83334 1.91667 1.83334H2.5V1.23542C2.5 1.07014 2.55581 0.934033 2.66742 0.827088C2.77942 0.720144 2.91806 0.666672 3.08333 0.666672C3.24861 0.666672 3.38725 0.722477 3.49925 0.834088C3.61086 0.946088 3.66667 1.08473 3.66667 1.25001V1.83334H8.33333V1.23542C8.33333 1.07014 8.38933 0.934033 8.50133 0.827088C8.61294 0.720144 8.75139 0.666672 8.91667 0.666672C9.08194 0.666672 9.22039 0.722477 9.332 0.834088C9.444 0.946088 9.5 1.08473 9.5 1.25001V1.83334H10.0833C10.4042 1.83334 10.6789 1.94767 10.9076 2.17634C11.1359 2.40462 11.25 2.67917 11.25 3.00001V11.1667C11.25 11.4875 11.1359 11.7623 10.9076 11.9909C10.6789 12.2192 10.4042 12.3333 10.0833 12.3333H1.91667ZM1.91667 11.1667H10.0833V5.33334H1.91667V11.1667ZM1.91667 4.16667H10.0833V3.00001H1.91667V4.16667ZM1.91667 4.16667V3.00001V4.16667Z" fill="#8B8E91"/>
</svg>
