<svg width="50" height="50" viewBox="0 0 50 50" fill="none" xmlns="http://www.w3.org/2000/svg">
<path d="M17.1154 22.8844C17.8846 22.4037 18.6538 21.9229 19.4231 21.4421C20.1923 20.9613 21.0577 20.4806 21.9231 19.9037C20.8654 19.7113 19.9038 19.8075 18.9423 19.9998C17.9808 20.2883 17.0192 20.6729 16.1538 21.1537C15.2885 21.7306 14.5192 22.4037 13.8462 23.1729C13.2692 24.1344 12.6923 24.9998 12.5 25.9614C13.3654 25.4806 14.1346 24.9037 14.9038 24.4229C15.6731 23.846 16.4423 23.3652 17.1154 22.8844Z" fill="#26848B"/>
<path d="M46.3459 34.7114C46.0575 34.7114 45.8652 34.7114 45.6729 34.7114C45.5767 32.3076 45.0959 29.8076 44.1344 27.5961C43.0767 25.096 41.5382 22.7884 39.6152 20.9614C36.0575 17.4999 31.1536 15.4807 26.3459 15.3845C26.6344 15.2884 26.9229 15.1922 27.1152 14.9999C27.6921 14.5191 28.1729 13.846 28.1729 12.9807C28.269 12.2114 27.9806 11.346 27.4036 10.673C26.8267 9.99989 25.9613 9.71143 25.0959 9.71143C24.2306 9.71143 23.3652 10.096 22.7882 10.673C22.2113 11.346 21.9229 12.1153 22.019 12.9807C22.1152 13.7499 22.4998 14.5191 23.0767 14.9999C23.3652 15.1922 23.5575 15.2884 23.8459 15.3845C18.9421 15.4807 14.1344 17.4037 10.5767 20.9614C8.65363 22.7884 7.11517 25.096 6.05747 27.5961C5.09594 29.8076 4.61517 32.3076 4.51901 34.7114C4.3267 34.7114 4.1344 34.7114 3.84594 34.7114C2.40363 34.9037 1.24978 36.1537 1.34594 37.5961C1.34594 38.9422 2.49978 40.2884 3.84594 40.3845H4.71132H5.48055H7.01901L13.0767 40.1922C17.1152 39.9999 21.1536 39.9037 25.1921 39.7114C21.1536 39.5191 17.1152 39.423 13.0767 39.2307L7.01901 39.0384L3.84594 38.9422C3.17286 38.8461 2.59594 38.2691 2.69209 37.5961C2.69209 36.923 3.26901 36.3461 3.84594 36.3461H5.09594H5.19209C11.8267 36.4422 18.3652 36.4422 24.9998 36.4422H34.9036L44.8075 36.3461H44.9036H46.1536C46.7306 36.3461 47.3075 36.923 47.3075 37.5961C47.3075 38.2691 46.8267 38.8461 46.1536 38.9422L43.1729 39.0384L37.1152 39.2307C33.0767 39.423 29.0382 39.5191 24.9998 39.7114C29.0382 39.9037 33.0767 39.9999 37.1152 40.1922L43.1729 40.3845H44.7113H45.4806H46.3459C47.6921 40.2884 48.8459 39.0384 48.8459 37.5961C48.8459 36.1537 47.6921 34.8076 46.3459 34.7114ZM23.4613 12.9807C23.5575 12.1153 24.3267 11.6345 24.9998 11.6345C25.6729 11.6345 26.4421 12.2114 26.5382 12.9807C26.7306 13.7499 26.1536 14.9037 24.9998 15.2884C23.7498 14.9037 23.269 13.846 23.4613 12.9807ZM11.2498 21.6345C12.9806 19.8076 15.0959 18.2691 17.4036 17.1153C19.519 16.1537 21.8267 15.5768 24.1344 15.3845C24.4229 15.3845 24.7113 15.3845 24.9036 15.2884C25.1921 15.3845 25.4806 15.3845 25.6729 15.3845C27.9806 15.5768 30.2882 16.1537 32.4036 17.1153C34.7113 18.173 36.8267 19.7114 38.5575 21.6345C40.2882 23.4614 41.6344 25.673 42.5959 28.0768C43.3652 30.1922 43.7498 32.4037 43.8459 34.6153H41.8267L37.019 34.5191H35.0959H34.8075H32.7882H24.9036H15.1921C15.0959 34.5191 15.0959 34.5191 14.9998 34.5191H12.7882L7.98055 34.6153C7.30747 34.6153 6.73055 34.6153 6.05747 34.6153C6.05747 32.4037 6.44209 30.1922 7.30747 28.0768C8.17286 25.673 9.51901 23.4614 11.2498 21.6345Z" fill="#26848B"/>
</svg>
