<svg class="element-bg-2" width="289" height="426" viewBox="0 0 289 426" fill="none" xmlns="http://www.w3.org/2000/svg"><path d="M223.764 64.7929L215.672 41.1133L207.833 64.6905C130.654 68.2153 68.5572 130.27 64.9721 207.431L44.1484 214.403L64.9781 221.404C68.515 298.589 130.6 360.704 207.785 364.247L215.654 387.692L223.806 364.169C299.756 359.608 360.552 298.282 364.432 222.157L384.931 215.18L364.517 207.757C361.124 131.15 300.069 69.3481 223.764 64.7929ZM206.369 69.0709L202.995 79.2297C137.529 84.8754 85.3799 137.091 79.6318 202.527L69.3766 205.961C73.6486 132.331 132.721 73.2706 206.369 69.0709ZM123.412 187.879L86.4585 200.243C87.3623 192.085 88.9711 183.956 91.4656 175.949L104.438 180.1C104.523 180.13 104.607 180.142 104.697 180.142C105.059 180.142 105.396 179.913 105.511 179.546C105.655 179.1 105.408 178.618 104.956 178.473L91.9958 174.328C97.0812 158.77 104.92 144.617 115.031 132.337L125.503 141.08C125.659 141.213 125.858 141.279 126.051 141.279C126.292 141.279 126.539 141.17 126.702 140.972C127.009 140.61 126.961 140.074 126.593 139.772L116.067 130.981C126.702 118.413 139.789 107.941 154.798 100.077L161.034 112.17C161.185 112.466 161.486 112.628 161.794 112.628C161.926 112.628 162.059 112.598 162.185 112.532C162.601 112.315 162.77 111.803 162.553 111.381L156.316 99.2941C170.416 92.142 185.413 87.8279 200.681 86.1588L188.408 123.106C157.16 132.126 132.522 156.686 123.412 187.879ZM186.763 128.053L172.314 171.508L128.371 186.216C137.403 158.71 159.203 137.001 186.763 128.053ZM154.756 98.1373C123.689 114.153 100.714 141.315 90.0737 174.611C87.3141 183.245 85.6149 192.024 84.6931 200.833L80.8609 202.117C86.7718 137.67 138.108 86.2914 202.579 80.4769L201.284 84.3693C185.256 86.0263 169.506 90.5333 154.756 98.1373ZM63.6344 214.24L126.129 193.314C126.172 193.374 126.238 193.41 126.28 193.476C126.298 193.398 126.322 193.326 126.346 193.248C126.346 193.248 175.26 176.925 175.531 176.834C176.068 177.431 176.694 177.937 177.321 178.546C178.815 180.01 180.303 181.498 181.798 182.974C181.798 182.974 197.12 198.2 204.14 205.256L206.646 207.775L207.514 208.648L210.274 211.42C210.942 212.083 211.563 212.806 212.382 213.764C212.509 213.914 212.648 214.077 212.792 214.24H63.6344ZM207.996 205.509C206.411 203.918 204.821 202.334 203.236 200.749C202.368 199.875 201.464 198.984 200.591 198.104L214.509 174.84C214.491 181.468 214.491 188.06 214.479 194.676L207.996 205.509ZM214.479 197.001C214.473 201.924 214.455 206.871 214.455 211.769C213.63 211.058 212.949 210.462 212.328 209.847C211.171 208.697 210.02 207.54 208.864 206.383L214.479 197.001ZM157.262 246.084L147.405 242.77L163.378 216.072H175.218L157.262 246.084ZM176.61 216.072H188.45L168.277 249.789L158.419 246.475L176.61 216.072ZM146.248 242.378L136.391 239.064L150.153 216.072H161.992L146.248 242.378ZM135.24 238.679L125.388 235.365L136.933 216.072H148.767L135.24 238.679ZM124.225 234.973L114.368 231.659L123.695 216.072H135.535L124.225 234.973ZM113.211 231.274L102.829 227.785L110.451 216.078H122.303L113.211 231.274ZM101.691 227.399L92.038 224.152L97.2318 216.072H109.066L101.691 227.399ZM91.1643 223.856L80.6802 220.331L84.0001 216.072H96.1714L91.1643 223.856ZM84.5967 228.008C86.2657 243.999 90.8209 259.707 98.4068 274.433C106.649 290.424 117.778 303.951 130.793 314.797C130.823 314.833 130.974 314.96 131.034 314.99C143.964 325.709 158.769 333.741 174.537 338.826C174.64 338.941 192.378 343.544 201.145 344.478L202.447 348.352C138.011 342.471 86.6393 291.172 80.7766 226.73L84.5967 228.008ZM176.224 337.724L180.376 324.751C180.52 324.305 180.273 323.823 179.821 323.678C179.418 323.54 178.893 323.781 178.749 324.233L174.603 337.187C159.046 332.102 144.892 324.263 132.619 314.152L141.356 303.68C141.663 303.313 141.615 302.782 141.247 302.481C140.886 302.174 140.343 302.222 140.048 302.59L131.263 313.116C118.694 302.481 108.216 289.388 100.353 274.379L112.446 268.149C112.868 267.932 113.036 267.42 112.819 267.004C112.596 266.582 112.078 266.425 111.675 266.63L99.5757 272.867C92.4417 258.803 88.1034 243.848 86.4163 228.616L98.2923 232.611L99.4311 232.997L123.43 241.065C132.516 272.186 157.052 296.715 188.16 305.795L200.573 342.773C192.396 341.857 184.25 340.23 176.224 337.724ZM128.491 242.764L171.904 257.357L186.504 300.848C159.124 291.858 137.511 270.167 128.491 242.764ZM176.706 252.736L176.664 252.603L169.434 250.175L189.842 216.072H201.681L184.166 245.331C181.894 247.62 179.635 249.862 177.387 252.157C177.158 252.398 176.935 252.543 176.706 252.736ZM203.067 216.072H212.78C212.599 216.355 209.828 219.53 208.803 220.566C204.134 225.308 199.416 230.014 194.71 234.72C192.396 237.034 190.022 239.45 187.666 241.812L203.067 216.072ZM82.5239 216.072L79.5113 219.94L68.0028 216.072H82.5239ZM69.3163 222.868L79.5233 226.297C85.2233 291.732 137.427 343.851 202.862 349.569L206.333 359.909C132.661 355.697 73.5401 296.534 69.3163 222.868ZM214.564 238.751C214.564 238.751 214.515 239.191 214.564 239.329V327.185L214.491 327.306C214.521 327.336 214.533 327.378 214.564 327.408V365.488L177.646 255.538C177.947 254.712 178.339 253.929 178.827 253.417C186.745 245.222 194.957 237.028 202.892 229.116C205.923 226.098 208.948 223.073 211.973 220.048C212.702 219.313 213.395 218.536 214.292 217.524C214.341 217.469 214.401 217.403 214.449 217.349L214.564 217.433V238.751ZM214.515 172.508L199.723 197.236C197.265 194.772 194.806 192.314 192.318 189.831L214.588 152.613C214.558 159.246 214.533 165.826 214.515 172.508ZM214.648 132.813C214.624 138.561 214.612 144.454 214.588 150.269L191.438 188.957C188.968 186.499 186.473 184.071 183.979 181.631L214.654 130.367C214.654 131.174 214.654 132.006 214.648 132.813ZM214.666 128.029L183.111 180.775C181.719 179.413 180.334 178.027 178.942 176.684C178.52 176.274 177.966 175.834 177.429 175.214L180.966 164.567L214.732 108.133C214.714 114.791 214.69 121.443 214.666 128.029ZM214.744 105.802L182.708 159.343L197.518 114.803L214.799 85.9178C214.78 92.5758 214.768 99.1435 214.744 105.802ZM214.805 83.592L199.259 109.573L214.841 62.7021C214.835 69.6192 214.817 76.5966 214.805 83.592ZM360.16 206.178L349.923 202.46C344.223 137.814 293.14 86.1347 228.771 79.4767L225.234 69.1372C297.979 74.3431 356.045 133.151 360.16 206.178ZM248.902 183.691C250.637 181.98 252.361 180.251 254.096 178.558C254.717 177.937 258.314 175.943 259.181 176.232C260.85 176.78 262.531 177.341 264.206 177.895L242.461 214.24H230.621L248.902 183.691ZM229.229 214.234H218.625C218.745 214.095 218.866 213.951 218.98 213.824C219.83 212.836 220.456 212.101 221.143 211.414L227.542 204.991C233.417 199.086 239.442 193.067 245.486 187.059L229.229 214.234ZM253.24 91.184L249.089 104.163C248.944 104.608 249.191 105.091 249.643 105.235C249.728 105.265 249.812 105.277 249.902 105.277C250.264 105.277 250.601 105.048 250.716 104.681L254.861 91.7202C270.419 96.8056 284.572 104.645 296.852 114.755L288.109 125.233C287.802 125.601 287.85 126.131 288.218 126.432C288.374 126.565 288.573 126.631 288.766 126.631C289.007 126.631 289.254 126.523 289.417 126.324L298.208 115.792C310.776 126.426 321.249 139.519 329.112 154.529L317.019 160.759C316.597 160.976 316.428 161.488 316.645 161.904C316.796 162.199 317.097 162.368 317.404 162.368C317.531 162.368 317.669 162.337 317.79 162.271L329.889 156.035C337.053 170.158 341.235 184.999 342.898 199.9L305.685 186.373C296.533 156.818 273.359 133.404 243.955 123.89L231.145 86.4119C238.569 87.3699 245.956 88.9124 253.24 91.184ZM230.537 84.6284L229.205 80.724C292.568 87.5387 342.831 138.381 348.706 202.02L344.717 200.568C343.072 184.908 338.698 169.297 331.058 154.48C315.042 123.414 287.88 100.439 254.584 89.7982C246.661 87.2615 238.617 85.6105 230.537 84.6284ZM300.335 184.438L259.585 169.628L245.751 129.15C271.25 138.453 291.309 158.819 300.335 184.438ZM265.369 178.274C266.858 178.763 268.346 179.263 269.834 179.751L275.167 181.691L255.693 214.234H243.853L265.369 178.274ZM276.305 182.107L286.024 185.637L268.918 214.234H257.079L276.305 182.107ZM287.169 186.053L296.894 189.59L282.15 214.234H270.31L287.169 186.053ZM298.033 190.006L307.752 193.537L295.37 214.234H283.536L298.033 190.006ZM308.897 193.952L318.621 197.489L308.601 214.234H296.761L308.897 193.952ZM319.766 197.905L329.491 201.442L321.833 214.24H309.993L319.766 197.905ZM330.63 201.852L340.494 205.437L335.059 214.234H323.225L330.63 201.852ZM341.644 205.859L351.327 209.377L348.32 214.234H336.451L341.644 205.859ZM216.956 63.5457H216.962L254.819 174.298L254.946 174.346C254.825 174.701 252.963 176.202 252.463 176.684C244.365 184.511 236.285 192.615 228.47 200.448C225.337 203.587 222.216 206.72 219.071 209.847C218.456 210.462 217.775 211.058 216.956 211.769V63.5457ZM216.962 217.349C217.034 217.427 217.124 217.53 217.191 217.602C218.058 218.572 218.727 219.325 219.438 220.036C220.752 221.356 222.077 222.675 223.397 223.989L216.853 234.931V217.433H216.847L216.962 217.349ZM224.264 224.863C225.698 226.297 227.126 227.731 228.567 229.159C229.591 230.183 230.645 231.237 231.676 232.268L216.853 257.044V237.257H216.847L224.264 224.863ZM216.847 259.37L232.543 233.141C235.008 235.6 237.466 238.052 239.948 240.547L216.847 279.151V259.37ZM216.847 281.477L240.816 241.42C243.28 243.903 245.721 246.409 248.167 248.916L216.847 301.264V281.477ZM216.841 303.59H216.847L249.029 249.802C250.21 251.013 251.409 252.212 252.578 253.423C253.554 254.429 254.229 256.423 254.235 257.924L251.8 264.949L216.841 323.377V303.59ZM339.355 253.881C341.922 245.746 343.735 237.377 344.693 228.869L348.73 227.496C342.62 290.756 292.562 341.224 229.555 348.171C229.531 348.159 229.494 348.147 229.476 348.129C229.446 348.099 229.422 348.069 229.392 348.039L230.724 344.195C245.673 342.375 260.555 338.079 274.709 330.782C290.694 322.54 304.215 311.411 315.054 298.39C315.097 298.354 315.157 298.366 315.193 298.324C315.235 298.269 315.217 298.203 315.247 298.149C325.954 285.237 333.98 270.468 339.072 254.73C339.216 254.628 339.331 254.477 339.385 254.296C339.433 254.152 339.379 254.019 339.355 253.881ZM337.872 252.923L325.02 248.819C324.575 248.669 324.093 248.922 323.948 249.374C323.803 249.82 324.05 250.302 324.502 250.446L337.336 254.549C332.377 269.739 324.641 284.007 314.368 296.534L303.956 287.846C303.594 287.532 303.052 287.587 302.757 287.954C302.449 288.322 302.498 288.852 302.865 289.153L313.295 297.86C302.841 310.266 289.893 320.883 274.673 328.86L268.424 316.749C268.207 316.333 267.695 316.171 267.273 316.382C266.858 316.599 266.689 317.111 266.906 317.533L273.142 329.625C259.838 336.374 245.727 340.555 231.338 342.423L244.359 304.849C273.696 295.209 296.743 271.722 305.769 242.125L342.886 229.49C341.94 237.45 340.253 245.295 337.872 252.923ZM233.622 317.448L216.847 345.478V325.691L249.896 270.462L233.622 317.448ZM246.179 299.589L260.784 257.436L300.539 243.903C291.664 269.643 271.66 290.141 246.179 299.589ZM216.847 365.874V347.804L231.706 322.967L216.847 365.874ZM225.343 359.734L228.651 350.178L229.109 349.413C293.122 342.628 344.006 291.334 349.959 227.08L360.004 223.664C355.442 296.209 297.701 354.492 225.343 359.734ZM255.753 253.543C255.187 253.206 254.614 252.766 254.024 252.157C249.969 248.012 245.865 243.921 241.774 239.824L240.906 238.95C239.539 237.582 238.177 236.196 236.809 234.822C232.067 230.081 227.319 225.345 222.613 220.566C221.589 219.53 218.817 216.355 218.637 216.072H241.37L241.352 216.096C241.437 216.084 241.521 216.078 241.605 216.072H363.619L255.753 253.543ZM349.706 214.234L352.466 209.793L364.691 214.234H349.706Z" fill="#F3FAFC"/><path d="M47.6485 199.817C48.3354 198.269 48.6789 196.72 48.6789 195.172C48.6789 194.696 48.6186 194.226 48.4921 193.762C48.3655 193.298 48.1667 192.888 47.9016 192.52C47.6304 192.159 47.2991 191.864 46.9074 191.635C46.5097 191.412 46.0639 191.297 45.5577 191.297C44.913 191.297 44.3406 191.55 43.8526 192.056C43.3585 192.563 43.1114 193.141 43.1114 193.786C43.1114 194.352 43.2078 194.804 43.3886 195.159C43.5694 195.515 43.8164 195.804 44.1237 196.027C44.1237 198.022 43.7983 199.901 43.1536 201.661C42.5029 203.414 41.6412 205.065 40.5567 206.614C39.4721 208.162 38.2188 209.614 36.7848 210.958C35.3508 212.302 33.8505 213.555 32.2718 214.688C30.6932 215.826 29.1085 216.875 27.5058 217.827C25.903 218.791 24.3846 219.659 22.9506 220.448L22.8602 220.358C23.9026 219.261 24.8064 217.971 25.5837 216.501C26.3549 215.019 27.0418 213.483 27.6504 211.88C28.2589 210.271 28.7952 208.656 29.2531 207.023C29.7171 205.391 30.1569 203.86 30.5666 202.426C30.9703 200.998 31.356 199.733 31.7235 198.63C32.085 197.533 32.4827 196.708 32.8984 196.142C33.0973 195.889 33.4347 195.635 33.9107 195.382C34.3927 195.129 34.8808 194.864 35.3869 194.581C35.8931 194.298 36.351 193.997 36.7426 193.653C37.1403 193.316 37.3331 192.948 37.3331 192.557C37.3331 192.334 37.2608 192.123 37.1222 191.924C36.9836 191.731 36.7607 191.629 36.4534 191.629C36.2003 191.629 35.7243 191.773 35.0375 192.074C34.3445 192.37 33.5733 192.822 32.6996 193.448C31.8259 194.069 30.9101 194.864 29.9581 195.834C29 196.798 28.1384 197.955 27.3792 199.311C26.0054 201.727 24.6738 203.896 23.3965 205.8C22.1191 207.716 20.7694 209.452 19.3715 211.012C17.9676 212.573 16.4613 213.989 14.8585 215.272C13.2558 216.549 11.4422 217.779 9.41763 218.96L9.33328 218.875C10.6528 217.381 11.7615 215.79 12.6412 214.109C13.533 212.416 14.3042 210.711 14.961 208.982C15.6238 207.252 16.2203 205.535 16.7565 203.836C17.2928 202.137 17.8772 200.54 18.5099 199.052C19.1365 197.564 19.8596 196.202 20.679 194.979C21.4924 193.756 22.5047 192.749 23.7158 191.966L23.3663 191.285C22.6915 191.623 21.8299 191.954 20.7754 192.273C19.715 192.599 18.3773 192.996 16.7445 193.478C15.8708 193.731 14.8585 193.997 13.7077 194.28C12.5508 194.563 11.3518 194.894 10.0985 195.268C8.84522 195.654 7.61605 196.087 6.41098 196.581C5.19988 197.07 4.12737 197.648 3.18741 198.305C2.24143 198.967 1.47621 199.727 0.885728 200.582C0.301268 201.438 0 202.414 0 203.517C0 204.077 0.102431 204.619 0.301268 205.137C0.500105 205.662 0.777271 206.12 1.14482 206.511C1.51236 206.903 1.94619 207.222 2.45232 207.463C2.95845 207.698 3.50073 207.825 4.09724 207.825C5.63973 207.825 6.93519 207.391 7.97757 206.511C9.01996 205.638 9.53814 204.432 9.53814 202.884C9.53814 202.516 9.51404 202.179 9.45379 201.854C9.39353 201.528 9.33328 201.215 9.2429 200.902H8.82715C8.90548 201.245 8.95971 201.57 8.98983 201.896C9.01996 202.221 9.03201 202.547 9.03201 202.884C9.03201 203.245 8.98381 203.631 8.86933 204.041C8.75484 204.451 8.57408 204.824 8.32102 205.162C8.06795 205.499 7.74258 205.776 7.35094 205.987C6.95929 206.198 6.47726 206.306 5.9169 206.306C5.0131 206.306 4.32621 205.981 3.8502 205.336C3.36817 204.686 3.13319 203.981 3.13319 203.221C3.13319 201.45 4.01289 199.907 5.77229 198.582C7.52567 197.262 9.95389 196.124 13.0449 195.165L21.0164 192.719L21.1008 192.804C19.0522 194.069 17.3651 195.388 16.0395 196.768C14.7199 198.142 13.6294 199.558 12.7738 201.004C11.9121 202.45 11.2313 203.932 10.7251 205.451C10.219 206.969 9.75505 208.506 9.3393 210.048C8.9115 211.597 8.47768 213.163 8.02578 214.754C7.5799 216.345 6.97134 217.923 6.21214 219.496C6.06753 219.809 5.88677 220.062 5.66384 220.255C5.4409 220.454 5.22398 220.623 5.0131 220.761C4.80221 220.9 4.62145 221.032 4.48287 221.159C4.34428 221.291 4.27198 221.466 4.27198 221.689C4.27198 221.882 4.32621 222.057 4.44069 222.195C4.55517 222.334 4.73593 222.406 4.989 222.406C5.35052 222.406 5.75422 222.28 6.19407 222.027C6.62789 221.773 7.04967 221.484 7.45939 221.147C7.86912 220.803 8.23064 220.484 8.55601 220.177C8.87535 219.869 9.11034 219.659 9.24892 219.544C9.56224 219.321 10.225 218.936 11.2554 218.387C12.2797 217.839 13.533 216.971 15.0092 215.79C16.4854 214.615 18.1002 213.061 19.8596 211.133C21.619 209.211 23.3965 206.764 25.198 203.818L25.2824 203.902C24.5533 205.228 23.9448 206.77 23.4688 208.542C22.9928 210.313 22.5469 212.067 22.1372 213.796C21.7274 215.525 21.2996 217.122 20.8477 218.58C20.4019 220.044 19.8355 221.159 19.1667 221.918L20.0464 222.424C20.2693 222.286 20.5826 222.111 20.9743 221.918C21.3659 221.719 21.9926 221.394 22.8662 220.948C23.1193 220.809 23.6857 220.508 24.5533 220.044C25.421 219.58 26.4875 218.978 27.7347 218.249C28.988 217.52 30.3678 216.652 31.8862 215.652C33.4046 214.658 34.9471 213.555 36.5076 212.362C38.0742 211.169 39.5806 209.898 41.0447 208.542C42.5089 207.198 43.7983 205.788 44.9251 204.33C46.0458 202.866 46.9616 201.366 47.6485 199.817Z" fill="#F3FAFC"/><path d="M187.979 30.0216C188.461 30.4554 189.058 30.8109 189.775 31.0579C190.492 31.305 191.299 31.4315 192.197 31.4315C193.998 31.4315 195.661 31.064 197.198 30.3349C198.728 29.6058 200.132 28.6418 201.409 27.4488C202.693 26.2497 203.874 24.888 204.958 23.3575C206.037 21.8211 207.031 20.2545 207.929 18.6337C208.827 17.0189 209.658 15.4342 210.417 13.8857C211.177 12.3432 211.882 10.9634 212.526 9.75228L212.617 9.87881C212.894 11.5659 213.285 13.2108 213.792 14.7955C214.298 16.3802 214.798 17.9407 215.292 19.4712C215.78 21.0076 216.208 22.5441 216.575 24.0926C216.943 25.6411 217.13 27.2138 217.13 28.8165C217.13 29.4612 217.13 30.0397 217.13 30.5458C217.13 31.0218 217.1 31.5641 217.039 32.1847H217.732C218.07 31.2327 218.582 29.8709 219.275 28.1176C219.962 26.3582 220.793 24.4361 221.757 22.3393C222.727 20.2485 223.812 18.1034 225.005 15.9283C226.198 13.7531 227.451 11.7768 228.759 10.0053C230.072 8.23389 231.398 6.77575 232.765 5.63696C234.133 4.5042 235.489 3.93179 236.839 3.93179C237.851 3.93179 238.652 4.19088 239.261 4.70906C239.863 5.23326 240.165 6.02861 240.165 7.0951C240.165 7.91455 239.893 8.60144 239.339 9.16782C238.791 9.72215 238.11 10.1198 237.297 10.3428L237.507 10.644C238.236 10.5296 238.953 10.3126 239.652 9.98727C240.357 9.66793 240.984 9.25218 241.55 8.74605C242.111 8.23992 242.569 7.64943 242.924 6.97459C243.274 6.29975 243.448 5.58273 243.448 4.82354C243.448 4.09447 243.328 3.48591 243.087 3.00991C242.852 2.5339 242.539 2.14226 242.165 1.82894C241.779 1.52767 241.34 1.30473 240.833 1.1782C240.327 1.05769 239.791 0.991412 239.231 0.991412C237.941 0.991412 236.64 1.41319 235.332 2.25674C234.019 3.10029 232.753 4.17883 231.53 5.5044C230.313 6.82396 229.144 8.31222 228.03 9.95112C226.921 11.596 225.909 13.2289 224.993 14.8618C224.083 16.5007 223.282 18.0191 222.595 19.417C221.902 20.8209 221.378 21.9597 221.01 22.8333H220.926C220.95 21.2366 220.775 19.658 220.395 18.1095C220.016 16.567 219.594 15.0425 219.13 13.5543C218.666 12.066 218.238 10.6139 217.865 9.21C217.479 7.80007 217.292 6.42628 217.292 5.07058C217.292 4.20293 217.455 3.37143 217.78 2.58211C218.106 1.79881 218.515 1.03962 219.022 0.310547C217.817 0.310547 216.786 0.485282 215.943 0.852829C215.093 1.22038 214.418 1.72048 213.894 2.35314C213.382 2.99183 212.996 3.75103 212.761 4.63073C212.52 5.51646 212.4 6.47449 212.4 7.51687C212.4 7.71571 212.406 7.9025 212.418 8.06518C212.436 8.23992 212.454 8.42068 212.484 8.61349C211.863 9.82458 211.177 11.2044 210.417 12.771C209.658 14.3316 208.827 15.9222 207.929 17.5551C207.031 19.188 206.061 20.7787 205.019 22.3453C203.976 23.8998 202.85 25.2917 201.644 26.5148C200.433 27.738 199.132 28.7201 197.746 29.4672C196.354 30.2144 194.89 30.588 193.342 30.588C192.239 30.588 191.371 30.365 190.745 29.9131C190.106 29.4672 189.769 28.8768 189.708 28.1417C190.443 28.0874 190.986 27.8404 191.353 27.4066C191.721 26.9728 191.901 26.3883 191.901 25.6532C191.901 24.9241 191.673 24.3397 191.209 23.9058C190.745 23.472 190.16 23.2551 189.455 23.2551C188.473 23.2551 187.738 23.5986 187.244 24.2854C186.75 24.9784 186.509 25.7858 186.509 26.7137C186.509 27.3343 186.629 27.9248 186.882 28.5032C187.135 29.0816 187.503 29.5878 187.979 30.0216Z" fill="#F3FAFC"/><path d="M232.856 395.645C232.223 395.265 231.518 394.988 230.747 394.825C229.976 394.657 229.205 394.572 228.445 394.572C226.228 394.572 224.342 394.964 222.775 395.747C221.215 396.537 219.938 397.603 218.937 398.935C217.937 400.266 217.208 401.827 216.744 403.61C216.28 405.394 216.051 407.286 216.051 409.28C216.051 410.413 216.015 411.582 215.925 412.805C215.84 414.028 215.684 415.221 215.443 416.39C215.202 417.559 214.864 418.668 214.43 419.722C213.997 420.783 213.418 421.704 212.701 422.512C211.978 423.307 211.104 423.946 210.062 424.428C209.02 424.904 207.772 425.157 206.308 425.187C205.266 425.211 204.356 425.067 203.567 424.741C202.777 424.422 202.127 424.006 201.608 423.5C201.084 422.994 200.699 422.446 200.427 421.837C200.162 421.235 200.03 420.662 200.03 420.132C200.03 419.879 200.036 419.638 200.054 419.415C200.066 419.186 200.108 418.921 200.198 418.607C200.988 418.553 201.59 418.264 202.012 417.746C202.434 417.222 202.645 416.583 202.645 415.824C202.645 415.065 202.38 414.438 201.861 413.944C201.337 413.456 200.687 413.209 199.903 413.209C199.277 413.209 198.746 413.353 198.294 413.649C197.843 413.938 197.481 414.323 197.198 414.787C196.915 415.251 196.71 415.763 196.583 416.324C196.457 416.884 196.396 417.433 196.396 417.969C196.396 419.234 196.674 420.349 197.24 421.301C197.806 422.259 198.548 423.06 199.475 423.705C200.403 424.35 201.47 424.838 202.681 425.181C203.886 425.519 205.151 425.687 206.477 425.687C208.893 425.687 211.038 425.338 212.906 424.651C214.774 423.964 216.346 422.964 217.63 421.656C218.901 420.349 219.877 418.752 220.534 416.872C221.197 414.986 221.528 412.847 221.528 410.461C221.528 408.358 221.601 406.382 221.757 404.538C221.914 402.694 222.185 401.086 222.583 399.706C222.98 398.326 223.517 397.242 224.185 396.44C224.866 395.633 225.734 395.235 226.806 395.235C227.957 395.235 228.795 395.615 229.313 396.356C229.837 397.103 230.096 398.007 230.096 399.079C230.096 399.977 229.916 400.79 229.554 401.526C229.186 402.261 228.662 402.917 227.993 403.508C228.692 403.508 229.452 403.466 230.271 403.363C231.084 403.267 231.844 403.068 232.549 402.773C233.248 402.478 233.832 402.05 234.296 401.507C234.76 400.965 234.989 400.236 234.989 399.338C234.989 398.471 234.79 397.73 234.398 397.121C234.001 396.525 233.489 396.024 232.856 395.645Z" fill="#F3FAFC"/></svg>