<svg width="50" height="50" viewBox="0 0 50 50" fill="none" xmlns="http://www.w3.org/2000/svg">
<path d="M44.384 23.8886C44.4224 21.5219 44.635 10.3821 44.6063 8.55297C44.5659 7.60875 44.1737 6.67358 43.5132 5.98916C42.8609 5.29807 41.9514 4.84869 40.9981 4.75192L40.6406 4.73128L40.3518 4.72767C40.2301 4.72654 38.5539 4.71093 38.6473 4.7118L34.1019 4.69255L25.011 4.66553L15.9202 4.69344L11.3748 4.7143C11.2531 4.71543 9.57699 4.73092 9.67033 4.73008L9.38147 4.73361L9.02425 4.75425C8.07143 4.85096 7.16245 5.30002 6.51049 5.99071C5.85031 6.67469 5.45824 7.60931 5.4179 8.55308C5.38945 10.3651 5.59809 21.2742 5.64029 23.8655C4.24808 24.2883 3.07215 25.3863 2.63315 26.7764C2.49476 27.2149 2.40815 27.6727 2.4082 28.1314L2.41447 29.2826L2.44005 31.5555C2.51501 36.7006 2.49709 35.4705 2.57283 40.6694L2.57294 40.6739C2.58027 41.009 2.85787 41.2746 3.19295 41.2673C4.09993 41.2474 5.00703 41.2305 5.91401 41.2128C5.89681 41.6335 5.878 42.0541 5.87084 42.4747L5.85935 43.3891C5.86978 43.553 5.82784 43.625 5.89392 44.0378C5.96456 44.3702 6.14089 44.6782 6.39141 44.9031C6.63838 45.1314 6.96204 45.2799 7.29712 45.3214C7.37119 45.3326 7.48555 45.3346 7.52672 45.3348L7.64103 45.3339L7.86969 45.3322L8.7841 45.3138C9.39373 45.3063 10.0034 45.2662 10.613 45.2418C11.6835 45.2025 12.0746 45.1566 13.3563 45.062L13.5849 45.0413C13.653 45.0319 13.7312 45.0309 13.8881 45.0056C14.4297 44.9037 14.8421 44.4773 14.9235 43.9489C14.9563 43.6629 14.9145 43.531 14.8992 43.358L14.7629 42.3788L14.5264 41.0135C17.4364 40.9235 22.0612 40.827 26.3662 40.647C22.504 40.4855 18.6418 40.3995 14.7796 40.2867C13.656 40.2511 12.5324 40.2292 11.4088 40.2029C11.2122 40.1789 11.0279 40.1502 10.8273 40.1282C9.52291 39.9774 8.14396 39.8647 6.76323 39.816C6.51909 39.8075 6.30386 39.917 6.15094 40.0858C5.37462 40.0708 4.59842 40.0556 3.82211 40.0392C3.83569 39.0882 3.77293 43.4843 3.95489 30.7385C7.33724 31.0676 10.7196 31.2537 14.1019 31.3776C17.7383 31.5221 21.3747 31.5608 25.011 31.5767C28.6474 31.5586 32.2838 31.5199 35.9201 31.3749C39.3138 31.2501 42.7074 31.0642 46.1011 30.735C46.3077 43.5585 46.2365 39.1357 46.2519 40.0924C44.3104 40.1295 42.3689 40.1828 40.4273 40.2314C40.1577 40.1973 39.9007 40.1586 39.6236 40.1282C38.3192 39.9774 36.9402 39.8647 35.5595 39.816C35.1961 39.8034 34.8916 40.0422 34.7843 40.3741C31.9782 40.4519 29.1722 40.5296 26.3662 40.647C29.1509 40.7634 31.9356 40.8406 34.7203 40.918C34.6956 41.4369 34.6759 41.9558 34.6671 42.4747L34.6556 43.3891C34.6661 43.553 34.6241 43.625 34.6901 44.0378C34.8396 44.7409 35.4246 45.2386 36.0934 45.3214C36.1674 45.3326 36.2818 45.3346 36.323 45.3348L36.4373 45.3339L36.6659 45.3322L37.5803 45.3138C38.19 45.3063 38.7996 45.2662 39.4092 45.2418C40.4818 45.2024 40.8852 45.1555 42.1525 45.062L42.3811 45.0413C42.4493 45.0319 42.5275 45.0309 42.6844 45.0056C43.227 44.9035 43.6384 44.4762 43.7197 43.9489C43.7525 43.6629 43.7107 43.531 43.6954 43.358L43.5591 42.3788L43.3432 41.1321C44.5052 41.1571 45.6672 41.1936 46.8292 41.2153H46.8305C47.1385 41.2203 47.3922 40.9747 47.3972 40.6667C47.6539 24.8898 47.5031 34.1111 47.5787 29.2826L47.5916 28.1318C47.5925 27.6753 47.5056 27.2197 47.3683 26.7833C46.9323 25.4027 45.7659 24.3113 44.384 23.8886ZM6.91587 15.4147L6.97996 10.8693C6.99045 10.1313 6.98623 9.3103 7.00881 8.64053C7.04477 8.07262 7.2863 7.52414 7.68908 7.12447C8.08697 6.72114 8.62386 6.47161 9.18083 6.42439L9.39107 6.41635L9.67033 6.41807L10.2385 6.42334L11.3748 6.43383L15.9202 6.45463L25.011 6.4826L34.1019 6.45558L38.6473 6.43632C38.769 6.43519 40.4451 6.41953 40.3518 6.4204L40.631 6.41868L40.841 6.42672C41.9709 6.52238 42.9344 7.4297 43.0112 8.64064C43.0338 9.31019 43.0297 10.1314 43.0402 10.8693L43.1035 15.4147L43.2481 23.6954C39.5215 23.6133 17.7859 23.5528 6.81106 23.6701C6.79785 23.6703 6.78504 23.6736 6.77183 23.6739L6.91587 15.4147ZM7.52839 43.5286C7.52872 43.5286 7.52889 43.5289 7.52922 43.5289H7.52672C7.49188 43.5271 7.52839 43.5286 7.52839 43.5286ZM14.1626 42.5703L14.0263 43.4201C13.992 43.7678 13.9543 43.7887 13.8572 43.8391C13.815 43.8578 13.7717 43.8558 13.7382 43.8443C13.7438 43.8379 13.669 43.8311 13.5849 43.8224L13.3563 43.8017L12.4418 43.7325C11.8322 43.68 11.2226 43.6444 10.613 43.622C10.0034 43.5975 9.39373 43.5575 8.7841 43.5499L7.86969 43.5316L7.66844 43.5301C7.6493 41.942 7.65743 42.4651 7.61933 41.4191C8.5252 41.3598 9.43851 41.278 10.3986 41.1632L10.8579 41.1047C12.0416 41.0781 13.2251 41.0526 14.4088 41.0164C14.3305 41.5691 14.2426 42.0934 14.1626 42.5703ZM35.9201 29.9614C32.2838 29.8164 28.6474 29.7777 25.011 29.7596C21.3747 29.7755 17.7383 29.8142 14.1019 29.9587C10.7201 30.0826 7.33829 30.2687 3.95644 30.5977C3.95753 30.5043 3.98649 28.0054 3.98469 28.1611C3.98846 27.8606 4.0541 27.5675 4.14621 27.2864C4.52918 26.1535 5.66421 25.3376 6.84557 25.3464L25.011 25.41L43.177 25.3248C44.3673 25.316 45.5108 26.1379 45.8966 27.2794C45.9896 27.5626 46.0551 27.858 46.0597 28.1607L46.0798 29.2826L46.0991 30.6011C42.7061 30.2721 39.3131 30.0862 35.9201 29.9614ZM36.3247 43.5286C36.325 43.5286 36.3252 43.5289 36.3255 43.5289H36.323C36.2882 43.5271 36.3247 43.5286 36.3247 43.5286ZM42.9589 42.5703L42.8225 43.4201C42.7882 43.7678 42.7506 43.7887 42.6535 43.8391C42.6112 43.8578 42.568 43.8558 42.5344 43.8443C42.5401 43.8379 42.4653 43.8311 42.3811 43.8224L42.1525 43.8017C40.9536 43.7133 40.5005 43.662 39.4092 43.622C38.7996 43.5975 38.19 43.5575 37.5803 43.5499L36.6659 43.5316L36.4647 43.5301C36.4456 41.9407 36.4534 42.4592 36.4156 41.4191C37.3214 41.3598 38.2347 41.278 39.1949 41.1632L40.0555 41.0536C41.1 41.0803 42.1444 41.1057 43.1888 41.1284C43.1143 41.6384 43.0334 42.126 42.9589 42.5703Z" fill="#26848B"/>
<path d="M14.4672 17.9137C15.0959 18.6704 15.7 19.4456 16.3564 20.1817L16.4308 20.2654C16.7256 20.5922 17.2492 20.5492 17.4875 20.1817C18.4144 18.752 19.2975 17.2893 20.0886 15.7578C20.7242 16.7158 21.3941 17.6481 22.0456 18.5942L24.2842 21.6608C24.6536 22.1616 25.3849 22.1464 25.7384 21.6608C26.4832 20.6376 27.2398 19.6232 27.9749 18.5927C28.6276 17.6473 29.2962 16.7138 29.9319 15.7558C30.7221 17.2892 31.605 18.7531 32.5329 20.1833C32.7793 20.5585 33.3041 20.5912 33.5954 20.265L33.6683 20.1833C34.3252 19.4477 34.9274 18.6711 35.5573 17.9152C36.1674 17.1445 36.7622 16.3623 37.3633 15.5848C37.6051 15.272 37.6173 14.8215 37.3633 14.495C36.7599 13.7192 36.1683 12.9346 35.5553 12.1662C34.9266 11.4094 34.3224 10.6343 33.6661 9.8982L33.5917 9.81453C33.2985 9.48907 32.7743 9.52921 32.535 9.8982C31.6002 11.34 30.7101 12.8152 29.9139 14.3609C28.3562 12.5046 26.7501 10.6844 25.0113 8.96387C26.1378 11.0478 27.3898 13.0379 28.6885 14.9927C27.9793 15.8395 27.2969 16.7064 26.6011 17.5632C26.0642 18.2456 25.5392 18.9371 25.0118 19.6266L23.4233 17.5617C22.7269 16.7061 22.0461 15.8388 21.3372 14.9926C22.6359 13.0385 23.8867 11.0485 25.0113 8.96387C23.2712 10.6827 21.6648 12.5017 20.1077 14.3576C19.3132 12.812 18.4242 11.3372 17.4896 9.89659C17.2436 9.5219 16.7188 9.48831 16.4272 9.81486L16.3542 9.89659C15.6973 10.6322 15.095 11.4088 14.4652 12.1647C13.855 12.9354 13.2602 13.7176 12.6591 14.495C12.4173 14.8078 12.4051 15.2583 12.6591 15.5848C13.2625 16.3606 13.854 17.1452 14.4672 17.9137ZM33.0203 11.4816C33.4037 12.0557 33.7958 12.6233 34.1816 13.1957C34.618 13.8163 35.0683 14.4265 35.5149 15.0394C35.0678 15.6523 34.6184 16.2636 34.1796 16.8827C33.7953 17.4547 33.4033 18.021 33.0202 18.5939C32.0881 17.5382 31.1183 16.511 30.084 15.5319C30.099 15.5089 30.1152 15.4868 30.1302 15.4638L30.177 15.3921C30.3294 15.1576 30.3189 14.8419 30.1302 14.6161C30.1127 14.5951 30.0947 14.5744 30.0771 14.5535C31.1137 13.571 32.0856 12.5403 33.0203 11.4816ZM17.0023 11.4859C17.9356 12.5431 18.9068 13.5719 19.9429 14.5521C19.9254 14.5729 19.9075 14.5935 19.89 14.6144C19.7104 14.83 19.6825 15.1462 19.8435 15.3938L19.89 15.4654C19.9052 15.4887 19.9217 15.5111 19.9369 15.5344C18.9035 16.5144 17.9342 17.5424 17.0021 18.5983C16.6187 18.0242 16.2266 17.4566 15.8409 16.8842C15.4044 16.2636 14.9543 15.6533 14.5075 15.0404C14.9547 14.4275 15.404 13.8163 15.8428 13.1972C16.2271 12.6251 16.6192 12.0589 17.0023 11.4859Z" fill="#26848B"/>
</svg>
