<svg width="50" height="50" viewBox="0 0 50 50" fill="none" xmlns="http://www.w3.org/2000/svg">
<path d="M35.8089 18.7777C35.7293 18.5116 35.6174 18.3091 35.507 18.1632C35.2815 17.8711 35.0871 17.7962 34.9656 17.7903C34.8391 17.7879 34.7672 17.8564 34.6932 17.9295C34.6191 18.0026 34.5549 18.0792 34.532 18.1861C34.5059 18.2944 34.5232 18.429 34.5508 18.6355C34.5641 18.7391 34.5785 18.8619 34.5813 19.0171C34.5826 19.0938 34.5812 19.1822 34.573 19.2735C34.5638 19.3419 34.5463 19.4153 34.5164 19.4974C34.4609 19.6546 34.3265 19.8785 34.1341 20.0633C34.0155 20.1836 33.6665 20.3418 33.3768 20.3364C33.2191 20.3358 33.0035 20.2921 32.8052 20.1859C32.7563 20.1593 32.7089 20.1297 32.6639 20.0978L32.6007 20.0479C32.5865 20.038 32.5272 19.9803 32.5178 19.9721C32.4331 19.8951 32.3611 19.8016 32.2993 19.6922C32.1817 19.4804 32.1022 19.1399 32.1344 18.9296C32.149 18.805 32.1929 18.6695 32.2581 18.5361C32.3174 18.4104 32.4262 18.2527 32.4902 18.178C32.6554 17.9897 32.939 17.8402 33.1883 17.7722C33.4323 17.7007 33.6886 17.7096 33.9066 17.7476C34.3455 17.8243 34.6132 18.0051 34.6932 17.9295C34.7671 17.8731 34.637 17.5116 34.1225 17.2016C33.87 17.0539 33.516 16.9242 33.0889 16.9347C32.6746 16.9495 32.2293 17.0535 31.7977 17.3667C31.5688 17.5468 31.4294 17.7053 31.272 17.9179C31.1242 18.1257 30.996 18.3661 30.9174 18.6411C30.8329 18.91 30.8222 19.2394 30.846 19.4821C30.8678 19.7446 30.9298 20.0128 31.0343 20.268C31.4908 21.3344 32.5185 21.8453 33.3654 21.8446C33.7633 21.8446 34.0917 21.758 34.3913 21.635C34.6888 21.5099 34.9563 21.3377 35.1831 21.1041C35.5629 20.6943 35.7717 20.2693 35.8645 19.8351C35.9081 19.6209 35.9172 19.4122 35.8983 19.2231C35.8802 19.0567 35.8487 18.9113 35.8089 18.7777Z" fill="#26848B"/>
<path d="M27.8942 31.41C29.2854 31.2886 30.5661 31.0288 31.7183 30.6624C35.2185 29.561 37.9699 27.7181 40.1667 24.5778C40.5062 24.089 40.7612 23.591 40.9373 23.1193C41.1134 22.6464 41.1982 22.1838 41.1942 21.7675C41.1895 21.3496 41.0931 20.9866 40.9672 20.7027C40.6987 20.1399 40.3985 19.8807 40.2065 19.708C39.8042 19.3807 39.7047 19.4373 39.6298 19.5046C39.5499 19.5762 39.5175 19.6706 39.7565 20.0851C39.943 20.5068 40.6335 21.2228 39.9494 22.7171C39.779 23.0833 39.5449 23.4863 39.2101 23.9147C37.0142 26.7481 34.4619 28.3311 31.3019 29.2832C31.2506 29.299 31.1956 29.3114 31.1437 29.3266C30.8694 28.9968 30.4699 28.5313 29.9619 27.8008C27.3382 23.904 26.9158 18.3194 28.001 14.2968C28.0611 14.0691 28.1191 13.8709 28.1702 13.698C28.8351 13.8085 29.4814 13.9519 30.1007 14.114C32.1676 14.6867 33.9382 15.5226 35.3398 16.359C38.147 18.0533 39.5302 19.6106 39.6298 19.5046C39.6644 19.4724 39.3494 19.0639 38.7076 18.3843C38.0528 17.7198 37.047 16.8029 35.6539 15.8629C34.2624 14.9265 32.4721 13.981 30.3375 13.3047C29.2681 12.9819 28.1194 12.7001 26.9013 12.5744C21.7899 11.8011 15.6336 14.5006 11.9721 17.1035C11.4101 17.5041 10.8648 17.9359 10.3556 18.4237C10.2403 18.5349 10.1272 18.6497 10.0159 18.7673C9.88567 18.3834 9.54928 17.6522 8.97894 16.7006C8.20988 15.4321 7.29729 14.2447 6.23685 13.1184C5.82875 12.6983 5.33677 12.2059 4.5795 11.9749C4.196 11.8675 3.78683 11.8527 3.37281 11.9677C2.96455 12.0735 2.53105 12.3773 2.30956 12.8084C2.0892 13.2313 2.05789 13.6628 2.07832 14.0425C2.09627 14.4219 2.1789 14.7887 2.28684 15.1316C2.50632 15.8186 2.82971 16.413 3.09607 16.9706C3.36569 17.5325 3.58065 18.0472 3.65201 18.568C3.81283 19.6261 3.54832 20.7378 3.17822 21.7281C2.80109 22.7256 2.32298 23.6564 1.95589 24.527C1.78658 24.9232 1.6308 25.3198 1.49847 25.7173C1.36749 26.108 1.2369 26.5442 1.21644 27.0389C1.20821 27.2869 1.23075 27.5529 1.30869 27.8159C1.38623 28.0784 1.52155 28.3309 1.68835 28.5354C2.02742 28.9492 2.44856 29.174 2.83432 29.314C3.6264 29.5865 4.32851 29.556 4.96511 29.4722C5.6015 29.3747 6.15658 29.1751 6.6374 28.9432C7.59645 28.4687 8.26351 27.8594 8.73857 27.3202C9.21458 26.7746 9.52188 26.2877 9.744 25.8879C9.98299 25.447 10.1249 25.113 10.2114 24.8569C10.5483 25.1565 10.8946 25.4253 11.2398 25.6821C16.1514 29.3048 21.8382 31.9561 27.8942 31.41ZM6.04957 27.6838C5.6652 27.8502 5.2342 27.9869 4.7655 28.0455C4.30477 28.0987 3.76895 28.0897 3.34137 27.926C3.12621 27.8462 2.94633 27.7271 2.84999 27.6008C2.755 27.477 2.7083 27.3424 2.71589 27.0963C2.72654 26.8527 2.8046 26.5478 2.92653 26.1966C3.04347 25.849 3.1843 25.4907 3.34361 25.1182C3.6864 24.2999 4.16168 23.3595 4.56736 22.2319C4.95875 21.1107 5.2781 19.7668 5.02189 18.3334C4.78223 16.9448 3.87321 15.836 3.47216 14.7325C3.27904 14.2263 3.20537 13.6266 3.34602 13.338C3.40814 13.2032 3.51441 13.1014 3.69964 13.0354C3.87909 12.9716 4.10614 12.9613 4.30805 13.0065C4.73442 13.1005 5.16406 13.4293 5.563 13.8015C6.67644 14.839 7.60296 15.8798 8.4943 17.0319C9.18614 17.935 9.64632 18.6177 9.88716 18.9092C9.55864 19.2708 9.25283 19.6637 8.99745 20.112C8.81997 20.447 8.65577 20.8011 8.57145 21.2C8.51796 21.3941 8.50105 21.6015 8.48636 21.8082C8.47895 22.0172 8.51279 22.2616 8.54889 22.4759C8.75889 23.266 9.19582 23.8172 9.63224 24.2925C9.45775 24.4975 9.22041 24.8225 8.85162 25.3037C8.05316 26.3263 7.22501 27.1594 6.04957 27.6838ZM10.7626 23.3946C10.3686 22.9987 10.0333 22.5453 9.92659 22.1453C9.91827 22.0449 9.89605 21.9672 9.89591 21.8561C9.90545 21.7413 9.90715 21.6255 9.94139 21.506C9.9841 21.2682 10.0934 21.024 10.2155 20.7814C10.7586 19.8053 11.7286 18.9358 12.7499 18.1777C15.5126 16.1385 20.0088 13.7981 25.0417 13.46C25.6381 13.4754 26.2284 13.4591 26.8049 13.5289C27.1128 13.5508 27.4162 13.5845 27.7162 13.6255C27.6317 13.7593 27.5434 13.9107 27.4537 14.0845C25.8226 17.1973 25.2298 24.0737 28.8474 28.6313C29.2019 29.0657 29.5243 29.3963 29.8103 29.6525C22.2935 31.1508 14.0273 26.6115 10.7626 23.3946Z" fill="#26848B"/>
<path d="M48.5783 12.7331C48.3709 11.8552 48.0338 10.97 47.5412 10.1331C47.2227 9.6182 46.7634 9.27007 46.2968 9.02195C46.1079 8.92195 45.9153 8.83677 45.7116 8.77004C45.5857 6.97009 45.4709 5.58861 45.3708 4.5256C45.0375 1.13295 44.8375 1.00709 44.6301 1.01812C44.419 1.03295 44.2449 1.18106 44.3042 4.58492C44.319 5.59964 44.356 6.90335 44.4153 8.57744C44.2375 8.58485 44.056 8.61451 43.8931 8.659C43.6153 8.72935 43.3634 8.84038 43.1338 8.97005C41.9255 9.6732 41.1852 10.88 40.9375 12.1923C40.6857 13.5442 40.9709 14.707 41.2931 15.6183C41.4597 16.0812 41.6523 16.4849 41.8449 16.8515C42.3297 17.7927 43.041 18.7169 44.0005 19.144C44.282 19.2737 44.5597 19.3404 44.8116 19.3663C44.9005 21.8071 44.9968 24.5701 45.0968 27.707C45.1486 29.4959 45.2079 31.5366 45.2746 33.7442C45.319 35.9293 45.3079 38.27 44.6153 40.4812C43.9301 42.6848 42.5264 44.7589 40.6153 46.1368C38.7227 47.5293 36.2931 48.0997 34.0783 47.796C33.5227 47.7219 32.9894 47.5886 32.4746 47.4182C31.9598 47.2405 31.4783 47.0072 31.0227 46.7478C30.1338 46.1997 29.3783 45.4886 28.8153 44.696C27.6598 43.1107 27.2598 41.2775 27.382 39.807C27.482 38.3145 28.1523 37.2144 28.782 36.6923C29.0968 36.4256 29.3968 36.2849 29.6042 36.2145C29.8079 36.1368 29.9264 36.1071 29.9264 36.0774C29.9264 36.0552 29.8005 36.033 29.5672 36.0626C29.3301 36.0923 28.982 36.1959 28.6005 36.4516C27.8375 36.9478 27.0005 38.1183 26.7968 39.7405C26.5709 41.3404 26.9116 43.3738 28.119 45.1738C28.7079 46.0774 29.519 46.907 30.5153 47.5627C31.019 47.8738 31.556 48.1552 32.1264 48.37C32.7005 48.5812 33.3005 48.7478 33.919 48.8514C36.3894 49.2663 39.1523 48.6923 41.3338 47.1589C43.5264 45.6478 45.1301 43.3664 45.9375 40.9107C46.7523 38.4367 46.7746 35.9367 46.7523 33.7181C46.7116 31.4959 46.6597 29.4553 46.6042 27.6625C46.5005 24.3923 46.3894 21.522 46.282 19.0071C46.4264 18.9071 46.5116 18.8145 46.5672 18.7368C46.6746 18.57 46.6264 18.4774 46.5745 18.3923C46.519 18.3035 46.4523 18.2293 46.2783 18.2255H46.2449C46.0671 18.2219 45.7783 18.3071 45.3523 18.2848C45.1783 18.2664 44.982 18.2329 44.7672 18.1403V18.1367C44.7005 18.1071 44.6338 18.0738 44.5634 18.0293C44.2671 17.8477 43.9264 17.5367 43.6042 17.0515C43.2894 16.5811 42.9598 15.9033 42.6857 15.1293C41.6959 12.1314 43.3799 9.00403 45.8116 10.2589C46.0931 10.407 46.3412 10.596 46.4894 10.8107C46.9449 11.4849 47.3042 12.2515 47.5486 13.0108C48.0412 14.5292 47.9894 16.0293 47.5375 16.9515C47.1079 17.896 46.4894 18.2812 46.5745 18.3923C46.6005 18.4367 46.7671 18.3738 47.056 18.2181C47.2042 18.1441 47.3486 18.0034 47.5338 17.8551C47.6301 17.7848 47.7005 17.6774 47.7894 17.5812C47.8746 17.4737 47.9783 17.3737 48.0486 17.2404C48.3968 16.744 48.6449 16.0478 48.7412 15.2663C48.8338 14.4811 48.782 13.6071 48.5783 12.7331Z" fill="#26848B"/>
</svg>
