<svg width="50" height="50" viewBox="0 0 50 50" fill="none" xmlns="http://www.w3.org/2000/svg">
<path d="M46.4444 22.5554C46.5555 21.9628 46.5185 21.1109 46.1111 20.3331C45.7407 19.5924 45.074 18.9628 44.3703 18.6665C43.6666 18.3331 42.9629 18.2961 42.5185 18.3702C42.4815 18.185 42.4074 17.9257 42.2222 17.5554C41.9259 17.0368 41.4074 16.2961 40.2963 15.6665C39.7777 15.3702 39.1111 15.1109 38.2963 14.9628C38.3333 14.5924 38.2222 14.1109 38.1111 13.7405C37.9629 13.2591 37.6666 12.6665 37.1852 11.9257C36.9259 11.5183 36.5185 11.0368 36.037 10.5924C35.5555 10.1479 34.9259 9.7035 34.2222 9.51832C33.5185 9.33313 32.8148 9.51832 32.4444 9.81461C32.4074 9.85165 32.3703 9.88869 32.3333 9.88869C32.2222 9.62943 32 9.33313 31.7037 8.9998C31.2592 8.51832 30.6296 7.92573 29.5555 7.44424C28.9629 7.18499 28.1481 6.96276 27.2592 6.96276C26.3703 6.96276 25.4815 7.22202 24.7407 7.59239C24 7.96276 23.4814 8.51832 23.1852 8.96276C23.037 9.18499 22.9629 9.33313 22.9259 9.48128L22.8889 9.44424C22.7037 9.33313 22.4074 9.22202 21.9629 9.18498C21.5185 9.14795 20.8889 9.18499 20.1481 9.48128C19.3333 9.77758 18.2592 10.6665 17.7407 11.6294C17.4074 12.222 17.2592 12.7776 17.2222 13.1109C17.1481 13.0368 17.074 12.9998 16.9259 12.9257C16.8148 12.8887 16.6666 12.8517 16.5185 12.8146C16.4444 12.8146 16.3333 12.7776 16.2222 12.7776C16.1111 12.7776 16 12.7776 15.8889 12.7776C15.5926 12.7776 15.2222 12.8146 14.8148 12.8887C14.037 11.4442 13.3333 9.9998 12.7777 8.44424C12.8148 8.37017 12.8518 8.2961 12.8518 8.25906C12.8889 8.2961 12.9259 8.33313 13 8.37017C13.1852 8.48128 13.3333 8.59239 13.6666 8.37017C13.8148 8.25906 14.037 8.07387 14.2592 7.77758C14.5185 7.48128 14.8518 7.11091 15.2222 6.40721C15.3333 6.22202 15.4444 5.96276 15.4814 5.66647C15.5555 5.37017 15.5926 5.03684 15.5555 4.7035C15.5185 4.37017 15.4074 3.9998 15.1852 3.7035C14.9629 3.37017 14.6666 3.14795 14.2963 2.9998C13.9259 2.88869 13.5555 2.92573 13.2963 3.03684C13.1852 3.07387 13.074 3.14795 13 3.18499C12.9629 2.9998 12.8889 2.74054 12.7037 2.44425C12.5926 2.22202 12.4074 1.9998 12.1481 1.74054C11.8889 1.48128 11.4444 1.18499 10.8518 1.14795C10.5555 1.14795 10.1481 1.18499 9.81478 1.40721C9.48145 1.59239 9.22219 1.88869 9.037 2.22202C8.85182 2.55536 8.74071 2.88869 8.70367 3.25906C8.66663 3.62943 8.74071 3.96276 8.81478 4.25906C8.92589 4.55536 9.037 4.85165 9.18515 5.03684C8.92589 5.14795 8.59256 5.33313 8.22219 5.77758C7.85182 6.22202 7.40737 6.88869 7.37034 8.03684C7.37034 8.37017 7.48145 8.77758 7.74071 9.14795C7.99996 9.55536 8.40737 9.81461 8.81478 9.92572C9.22219 10.0739 9.62959 10.0739 9.99997 10.0368C10.3703 9.9998 10.7407 9.92572 11.074 9.77758C11.2222 9.7035 11.4074 9.62943 11.5555 9.55535C12.074 10.9257 12.6296 12.185 13.3333 13.4072C13 13.5554 12.6296 13.7776 12.2963 14.0368C11.7777 14.4442 11.2963 14.9257 10.9259 15.4442C10.5555 15.9628 10.3333 16.4813 10.2222 16.8887C10.1852 17.0368 10.1852 17.1479 10.1481 17.2591C10.074 17.222 9.92589 17.185 9.77774 17.185C9.48145 17.1479 9.037 17.185 8.40737 17.3702C7.77774 17.5924 6.96293 17.9628 6.14811 18.7776C5.70367 19.222 5.22219 19.9257 4.92589 20.7405C4.62959 21.5554 4.55552 22.4813 4.66663 23.2961C4.77774 24.1109 5.037 24.7776 5.3333 25.222C5.44441 25.4072 5.55552 25.5183 5.62959 25.6294C5.55552 25.6665 5.51848 25.6665 5.44441 25.7035C5.18515 25.8516 4.81478 26.1479 4.44441 26.7035C4.07404 27.2591 3.70367 28.0368 3.55552 29.1479C3.51848 29.4442 3.48145 29.8146 3.48145 30.185V30.4813C3.48145 30.5924 3.51848 30.7035 3.51848 30.8146C3.55552 31.0368 3.62959 31.2591 3.66663 31.4813C3.96293 32.3331 4.55552 33.0368 5.14811 33.5554C5.74071 34.0739 6.40737 34.4072 6.92589 34.5183C7.07404 34.5554 7.18515 34.5554 7.29626 34.5554C7.37034 34.5554 7.44441 34.5554 7.51848 34.5183C7.22219 35.0368 6.96293 35.5554 6.81478 36.1109C6.37033 37.7776 6.85182 39.3702 7.51848 40.185C7.85182 40.6294 8.22219 40.8887 8.48145 40.9998H8.51848C8.37034 41.0739 8.18515 41.2961 7.99997 41.7035C7.74071 42.2591 7.59256 43.1479 7.81478 44.0739C7.99997 44.9998 8.51848 45.9257 9.18515 46.6665C9.85182 47.3702 10.7777 47.8516 11.5185 47.9998C12.2222 48.1479 12.8889 48.0739 13.3703 47.9257C14.037 47.7405 14.6666 47.3702 15.1111 46.8146C15.4074 47.1109 16.2963 47.6294 17.5185 47.9257C18.2963 48.1109 19.1481 48.185 20.037 48.0739C20.9259 47.9628 21.6666 47.6665 22.1852 47.3702C23.1852 46.8146 23.7777 46.222 24.2222 45.7405C24.6296 45.2591 24.8148 44.8516 24.9259 44.5924C24.9629 44.5183 24.9629 44.4442 25 44.3702C25.6666 45.4813 26.3333 46.3331 27.1852 47.222C27.5926 47.6665 28.037 47.9998 28.5185 48.2961C29 48.5924 29.5185 48.7776 30.074 48.8146C30.6296 48.8516 31.1481 48.7405 31.5926 48.4813C32 48.222 32.2963 47.9257 32.5185 47.5924C32.7407 47.2961 32.8518 46.9628 32.9629 46.7035C33.037 46.4072 33.1111 46.1479 33.1111 45.9257C33.7777 46.4442 34.9629 46.8887 36.2222 46.8887C36.7407 46.8887 37.2963 46.8146 37.8518 46.6665C38.4074 46.5183 38.9259 46.2591 39.4074 45.9628C40.3703 45.3702 41.074 44.4442 41.4074 43.6665C42.037 42.2591 42.037 41.0739 41.8889 40.222C41.7777 39.5553 41.5926 39.1109 41.4074 38.7776C41.4815 38.7776 41.6296 38.7405 41.7778 38.7035C42.1111 38.5924 42.5926 38.4072 43.037 37.9257C43.9629 37.0368 44.5185 35.1479 43.8148 33.2591C43.5555 32.5924 43.1481 31.9628 42.6296 31.4442C43.1111 31.2961 43.7777 30.9998 44.4444 30.3702C44.8148 29.9998 45.1852 29.4442 45.3703 28.7405C45.5555 28.0739 45.5926 27.3331 45.4444 26.7035C45.2963 26.0739 45 25.5554 44.7407 25.2591C44.7037 25.222 44.6666 25.185 44.6296 25.1109C44.8148 24.9998 44.9629 24.8887 45.1481 24.7405C45.6666 24.3702 46.2222 23.6665 46.4444 22.5554ZM11.2592 8.7035C11.1111 8.74054 10.9629 8.77758 10.7777 8.81461C10.2963 8.88869 9.66663 8.85165 9.29626 8.66647C8.92589 8.48128 8.92589 8.2961 8.88885 8.03684C8.88885 7.77758 8.96293 7.48128 9.037 7.25906C9.11108 7.03684 9.22219 6.81461 9.3333 6.66647C9.55552 6.33313 9.70367 6.11091 9.81478 5.96276C9.85182 5.92573 9.85182 5.88869 9.88885 5.85165C9.96293 5.88869 10.037 5.92573 10.074 5.88869C10.1852 5.85165 10.1481 5.59239 10.074 5.25906C9.99997 4.92573 9.88885 4.48128 9.85182 4.03684C9.85182 3.81462 9.85182 3.59239 9.92589 3.44425C9.99997 3.25906 10.074 3.07387 10.1852 2.96276C10.2963 2.81462 10.4074 2.74054 10.5185 2.7035C10.6296 2.66647 10.6666 2.66647 10.7777 2.66647C10.8148 2.66647 10.8518 2.66647 10.8889 2.7035C11.037 2.74054 11.2222 2.88869 11.3703 3.03684C11.4444 3.11091 11.4814 3.18499 11.5555 3.25906C11.7777 3.51832 11.9259 3.74054 12.037 3.85165C12.2592 4.07387 12.4074 4.07387 12.5555 4.03684C12.5926 4.14795 12.6296 4.18499 12.6666 4.22202C12.7777 4.22202 12.8889 4.03684 13.1111 3.96276C13.2222 3.92573 13.3333 3.88869 13.4814 3.88869C13.6296 3.88869 13.7777 3.92573 13.8518 3.9998C14.037 4.14795 14.1481 4.48128 14.1481 4.81462C14.1481 5.14795 14 5.44424 13.8518 5.74054C13.5926 6.22202 13.2592 6.66647 13.074 7.03684C12.8889 7.37017 12.7777 7.62943 12.7407 7.81461C12.7037 7.96276 12.7037 8.07387 12.7407 8.14795C12.7037 8.14795 12.6666 8.14795 12.6296 8.14795C12.5185 8.18498 12.3333 8.25906 12.1481 8.33313C11.8889 8.44424 11.5926 8.59239 11.2592 8.7035ZM15.9629 14.222C16.074 14.185 16.1481 14.185 16.2222 14.185C16.2963 14.185 16.3703 14.1479 16.4444 14.1479C16.5926 14.1109 16.7037 14.0739 16.8148 14.0739C17.1852 13.9628 17.2592 13.7776 17.2963 13.5924C17.5185 13.6665 17.9259 12.9628 18.5555 12.3331C19.1852 11.6665 20.074 11.1479 20.6666 10.9257C21.1852 10.7035 21.5926 10.6665 21.9259 10.6294C22.2592 10.5924 22.4814 10.5924 22.6296 10.5554C22.9629 10.5183 23.037 10.3331 23.1111 10.1479C23.1481 10.0368 23.1852 9.92572 23.1481 9.81461C23.2592 9.74054 23.4444 9.59239 23.6296 9.48128C24 9.22202 24.5555 8.88869 25.1852 8.66647C25.8148 8.44424 26.5555 8.37017 27.2222 8.44424C27.8889 8.48128 28.4814 8.7035 28.9259 8.88869C29.7407 9.25906 30.2963 9.7035 30.7037 10.0368C31.1111 10.3702 31.3703 10.6294 31.5555 10.8146C31.9629 11.1479 32.1111 11.0739 32.2963 10.9998C32.4444 10.9257 32.5926 10.8146 32.5185 10.4442C32.5926 10.4442 32.6296 10.4072 32.7037 10.4072C33.037 10.3331 33.4815 10.3702 33.8889 10.5924C34.2963 10.8146 34.7037 11.185 35.074 11.6294C35.4444 12.0739 35.7407 12.4813 36 12.8146C36.5926 13.6665 36.8889 14.3331 37.1852 14.8887C36.5926 14.8887 35.9629 14.9257 35.2963 15.0739C34.1111 15.3331 32.7037 15.9257 31.4074 16.8146C30.1111 17.7035 28.9259 18.8146 27.8518 19.8146C26.7777 20.8146 25.8518 21.8146 25.3333 22.6665C25.1481 22.9628 25 23.222 24.9259 23.4442C24.8518 23.3702 24.7407 23.2591 24.6296 23.185C24.3703 22.9998 24.074 22.8516 23.7037 22.8146C23.7777 22.4442 23.7777 21.5924 23.8889 20.6294C23.9629 19.9998 24.074 19.3331 24.2222 18.7035C24.3703 18.0739 24.5555 17.5183 24.7037 17.0739C25 16.2591 25.2592 15.6665 25.4815 15.2591C25.5926 15.0368 25.6666 14.8517 25.7407 14.7035C25.8148 14.5554 25.8518 14.4072 25.8889 14.2961C26.037 13.8517 25.9259 13.7035 25.7407 13.5924C25.5926 13.4813 25.4074 13.3702 25 13.6665C24.8889 13.7405 24.7777 13.8517 24.6666 13.9998C24.5185 14.1479 24.4074 14.3331 24.2222 14.5554C23.9259 14.9998 23.5555 15.6665 23.2222 16.5924C23.037 17.1109 22.8518 17.7776 22.7777 18.4813C22.6666 19.222 22.6666 19.9628 22.7407 20.6665C22.8518 21.7035 23.1111 22.5183 23.3333 22.8887C23.074 22.9257 22.7777 22.9998 22.5555 23.1479C22.2592 23.3331 22.037 23.5554 21.8518 23.8146C21.7407 23.9257 21.6666 24.0739 21.5926 24.222C21.4814 24.0368 21.3703 23.7776 21.2222 23.5554C20.7037 22.5924 19.8889 21.2961 19 19.8887C18.1111 18.4813 17.074 16.9628 16.1852 15.5183C15.9629 15.1479 15.7407 14.7776 15.5185 14.4442C15.6666 14.2591 15.8148 14.222 15.9629 14.222ZM25.2592 26.1109V26.222C25.1852 26.3331 25.1111 26.4813 25 26.7035C24.8889 26.9628 24.7037 27.4072 24.2592 27.8146C24.1481 27.9257 24.037 27.9998 23.8889 28.0739C23.8148 28.1109 23.7407 28.1479 23.6666 28.185C23.6296 28.185 23.5926 28.222 23.5555 28.222C23.5185 28.222 23.4814 28.222 23.4444 28.2591C23.2963 28.2961 23.1481 28.2961 23.074 28.2591C22.9629 28.222 22.8518 28.1109 22.7407 27.8887C22.6296 27.6665 22.5185 27.3331 22.4444 26.9628C22.4074 26.5924 22.4074 26.1109 22.4815 25.7035C22.5555 25.2591 22.6666 24.8516 22.8889 24.4813C23 24.2961 23.1481 24.1479 23.2592 24.0368C23.4074 23.9257 23.4814 23.8887 23.6296 23.8887C24.2222 23.8146 24.8889 24.7035 25.1481 25.185C25.2963 25.4813 25.4074 25.7035 25.4815 25.8887C25.2592 25.8887 25.2592 25.9998 25.2592 26.1109ZM7.62959 34.2591C7.55552 34.222 7.51848 34.185 7.44441 34.185C7.37034 34.1479 7.29626 34.1109 7.18515 34.0368C6.81478 33.8146 6.37034 33.4072 5.96293 32.8516C5.55552 32.3331 5.18515 31.7035 5.037 31.1109C4.99996 30.9628 4.96293 30.8146 4.96293 30.7035C4.96293 30.6294 4.96293 30.5924 4.96293 30.5183C4.96293 30.4442 4.96293 30.3702 4.96293 30.2961C4.96293 29.9998 4.99996 29.7035 5.037 29.4813C5.18515 28.5924 5.44441 27.9628 5.62959 27.5183C5.85182 27.0739 6.037 26.8146 6.14811 26.6294C6.25922 26.4442 6.3333 26.3331 6.3333 26.222C6.3333 26.1109 6.29626 26.0368 6.25922 25.9257C6.22219 25.8516 6.14811 25.7405 6.037 25.7035H5.99996C5.99996 25.5554 5.92589 25.3702 5.88885 25.1109C5.81478 24.6665 5.70367 24.0368 5.74071 23.3702C5.77774 22.7035 5.96293 21.9998 6.22219 21.4072C6.48145 20.8146 6.88885 20.3331 7.22219 19.9998C7.85182 19.3702 8.44441 19.0368 8.88885 18.8146C9.3333 18.5924 9.66663 18.4813 9.88885 18.3702C10.3333 18.185 10.3703 17.9998 10.3703 17.7776C10.3703 17.7405 10.3703 17.6665 10.3703 17.6294C10.4814 17.5554 10.5926 17.4442 10.7037 17.2591C10.9629 16.9998 11.2592 16.5924 11.6666 16.2591C12.074 15.8887 12.5185 15.5554 13 15.2961C13.3703 15.0739 13.7037 14.9257 14.037 14.8146C15.2963 16.6665 16.7407 18.5924 18.1111 20.3702C19.1481 21.7035 20.074 22.8887 20.7407 23.7405C21 24.0368 21.1852 24.3331 21.3703 24.5183C21.2963 24.6665 21.2592 24.8146 21.1852 24.9628C21.074 24.8887 21 24.8146 20.8889 24.7405C20.3333 24.3331 19.5555 23.8146 18.4444 23.2961C17.8148 23.0368 17 22.7405 16.1111 22.5554C15.2222 22.3702 14.2592 22.2591 13.3703 22.222C12.4814 22.222 11.7037 22.2961 11.1481 22.4442C10.5926 22.5924 10.2592 22.7035 10.2592 22.8146C10.2592 22.9257 10.6296 22.9628 11.1852 23.0368C11.7407 23.1109 12.4814 23.1479 13.2963 23.2961C14.1111 23.4442 14.9629 23.6294 15.7777 23.8887C16.5926 24.1479 17.2963 24.4442 17.8518 24.7035C18.8518 25.1479 19.5926 25.5924 20.1481 25.9257C20.4074 26.0739 20.6666 26.222 20.8518 26.3331C20.8889 26.3702 20.9629 26.4072 21 26.4072C21 26.7035 21 26.9628 21.037 27.222C20.1481 27.2591 19.037 27.4813 18.1852 27.7405C17 28.0739 15.4444 28.5924 13.5185 29.6294C12.4814 30.185 11.1852 30.9998 9.88885 32.0368C9.25922 32.5554 8.62959 33.1479 8.11108 33.8516C7.99996 33.9998 7.88885 34.1479 7.81478 34.2961C7.70367 34.2591 7.66663 34.2591 7.62959 34.2591ZM24.074 44.0368C23.8889 44.185 23.6296 44.4813 23.2592 44.8146C22.8518 45.185 22.3333 45.6294 21.5185 46.0739C21.074 46.2961 20.4814 46.5924 19.8518 46.7405C19.1852 46.8887 18.4444 46.9257 17.7407 46.8887C16.7037 46.8516 15.8148 46.6294 15.3703 46.6294C15.5555 46.3702 15.6296 46.1479 15.7037 45.9628C15.8148 45.5924 15.7777 45.4072 15.7037 45.2961C15.6296 45.185 15.5555 45.1479 15.4444 45.1479C15.3333 45.1109 15.2592 45.1109 15.1481 45.1479C15.037 45.185 14.9259 45.2961 14.7777 45.4813C14.5926 45.6665 14.3703 45.9257 13.9259 46.185C13.4814 46.4442 12.7777 46.7405 11.9259 46.5553C11.4444 46.4442 10.8148 46.185 10.2592 45.7035C9.70367 45.222 9.22219 44.5183 8.92589 43.8516C8.62959 43.1479 8.59256 42.4442 8.66663 41.9628C8.70367 41.5924 8.77774 41.2961 8.81478 41.185C8.96293 41.222 9.07404 41.2591 9.07404 41.222C9.14811 41.1109 8.55552 40.8146 8.14811 39.9628C7.70367 39.185 7.48145 37.8146 7.96293 36.5183C8.44441 35.222 9.55552 34.0739 10.7407 33.185C11.9629 32.2961 13.2222 31.5554 14.2222 31.0368C16.037 30.0739 17.4814 29.5554 18.5926 29.1479C19.8518 28.7035 20.7407 28.4813 21.2963 28.2591C21.3703 28.4072 21.4074 28.5554 21.4814 28.6665C21.5185 28.7405 21.5926 28.8146 21.6296 28.8887C21.4444 28.9257 21.2222 28.9628 20.9629 29.0368C20.1852 29.2961 19.1852 29.7776 18.1481 30.7035C17.5926 31.222 16.9259 31.8887 16.3333 32.7405C15.7407 33.5554 15.1852 34.5183 14.8148 35.4072C14.037 37.222 13.9259 38.8146 14.1111 38.8516C14.3333 38.8887 14.8148 37.4442 15.7777 35.8887C16.2592 35.1109 16.8148 34.2961 17.4444 33.5924C18.037 32.8887 18.6666 32.2961 19.1852 31.8516C20.1111 31.0368 20.8889 30.6294 21.4814 30.3702C21.8518 30.222 22.1481 30.1109 22.4074 30.0368C22.3703 30.3331 22.3333 30.7035 22.3333 31.1109C22.2592 32.2961 22.2592 33.9257 22.4444 35.7776C22.6296 37.5924 23.037 39.5924 23.7037 41.3702C24.037 42.2591 24.4074 43.0739 24.8148 43.8516C24.5555 43.7405 24.4074 43.7776 24.074 44.0368ZM43.2592 35.9257C43.2222 36.2591 43.1481 36.5924 43.037 36.8887C42.9259 37.185 42.8148 37.4442 42.6296 37.6294C42.3333 38.0739 41.9629 38.3331 41.7037 38.4813C41.5555 38.5554 41.4444 38.6294 41.3703 38.6665C41.3333 38.6294 41.2963 38.5924 41.2963 38.5554C41.074 38.222 40.8889 38.1109 40.7777 38.0739C40.6666 38.0368 40.5555 38.0739 40.4815 38.1479C40.4074 38.222 40.3333 38.2591 40.2963 38.4072C40.2592 38.5183 40.2963 38.7035 40.3703 39.0368C40.4444 39.3331 40.5555 39.7776 40.5926 40.4442C40.6296 41.1109 40.5926 42.0368 40.1111 43.0739C39.8518 43.6294 39.4074 44.3331 38.7037 44.8516C38 45.3702 37.1111 45.7405 36.2222 45.8516C35.3333 45.9998 34.5185 45.8887 33.9259 45.7776C33.6296 45.7035 33.3703 45.6294 33.2222 45.5924C33.2222 45.5183 33.2222 45.4442 33.2222 45.3702C33.1852 44.6665 33.074 44.3331 33 44.185C32.8889 43.9998 32.8148 43.9998 32.7037 43.9998C32.5926 43.9998 32.5185 44.0368 32.4074 44.185C32.3333 44.3702 32.2592 44.7035 32.1852 45.2961C32.1481 45.5924 32.074 45.9628 31.8889 46.2961C31.7407 46.6665 31.4444 47.0739 31.037 47.2591C30.8518 47.3702 30.5926 47.4072 30.3333 47.3702C30.074 47.3331 29.7407 47.222 29.4074 46.9998C29.074 46.8146 28.7037 46.5183 28.3703 46.1479C28 45.7776 27.6666 45.3702 27.2963 44.8887C26.5185 43.8516 25.6296 42.4442 24.9259 40.7776C24.2222 39.1109 23.7407 37.2591 23.4074 35.5183C22.9629 33.1479 22.8518 31.0368 22.7037 29.8516C22.8889 29.8146 23 29.7776 23.1111 29.7405C23.3703 29.7405 23.5926 29.7405 23.7777 29.6665C24.4814 29.4813 24.9629 29.1109 25.2963 28.7405L25.3333 28.7035C25.4074 29.1109 25.9259 30.1479 26.6296 31.3331C27.5185 32.7776 28.7777 34.3702 29.6666 35.2961C31.2963 36.9998 32.2592 37.7035 32.8148 37.9998C33.3703 38.2961 33.5185 38.1479 33.6296 37.9998C33.7777 37.8516 33.8518 37.6665 33.5185 37.185C33.1852 36.7035 32.3333 35.8887 30.7777 34.2591C29.9259 33.3702 28.5926 31.9257 27.5185 30.7035C26.5926 29.6294 25.8148 28.7035 25.5185 28.5554C26.037 27.8887 26.1111 27.2961 26.1481 26.9257C26.1481 26.8146 26.1481 26.7035 26.1481 26.6294C26.7037 26.7405 27.8148 26.8887 29.5185 27.185C30.7407 27.4072 32.4814 27.7776 34.7037 28.5924C35.9259 29.0368 37.4815 29.6665 39.037 30.5183C39.8148 30.9628 40.6296 31.4072 41.2963 31.9257C41.9629 32.4442 42.5555 33.0739 42.8889 33.7776C43.2222 34.4442 43.3333 35.222 43.2592 35.9257ZM44.9629 22.2961C44.8148 22.9998 44.4815 23.4813 44.2222 23.8146C43.9629 24.1479 43.7407 24.3331 43.5926 24.4442C43.2963 24.7405 43.2963 24.8887 43.3703 25.1109C43.4074 25.222 43.4444 25.2961 43.5185 25.3702C43.5926 25.4442 43.7777 25.4813 44.074 25.4072C44.1481 25.4072 44.1852 25.3702 44.2592 25.3702C44.2592 25.4442 44.2963 25.5183 44.2963 25.5924C44.3703 25.9257 44.4815 26.4072 44.4444 26.8887C44.4444 27.3702 44.3333 27.9257 44.1111 28.3331C43.9259 28.7776 43.6296 29.1109 43.4074 29.3702C42.9629 29.8146 42.5185 30.0368 42.1852 30.222C41.9259 30.3702 41.7037 30.4442 41.5555 30.5183C40.9629 30.0739 40.3333 29.6665 39.7407 29.3331C38.1481 28.3702 36.5185 27.6665 35.2222 27.185C32.8889 26.3331 31 25.9998 29.5926 25.8146C28.1852 25.6294 27.2222 25.6294 26.5926 25.6665C26.1852 25.7035 25.9259 25.7405 25.7407 25.7776C25.7777 25.5924 25.7407 25.2961 25.6666 24.9628C25.6296 24.7776 25.5555 24.5924 25.4444 24.4072C25.3703 24.222 25.2592 24.0368 25.1111 23.8146C25.1111 23.8146 25.1111 23.7776 25.074 23.7776C25.2222 23.5924 25.4444 23.3331 25.7037 23.0368C26.3333 22.3331 27.3333 21.5183 28.4815 20.6294C29.6296 19.7405 30.8518 18.7405 32.074 17.9628C33.2963 17.185 34.5555 16.7035 35.5185 16.5183C36.4074 16.3331 37.2222 16.2961 37.8889 16.4072C38.5555 16.5183 39.1111 16.7035 39.5926 16.9257C40.5185 17.3702 41 17.8887 41.2963 18.222C41.5185 18.4442 41.6296 18.5924 41.7407 18.7035C41.7407 18.7405 41.7037 18.7405 41.7407 18.7405C41.7777 18.8517 42.037 18.8887 42.4444 18.9628C42.8518 19.0739 43.3333 19.2591 43.7777 19.5924C44.2222 19.9257 44.6296 20.4442 44.8148 20.9257C45.037 21.4072 45.037 21.9257 44.9629 22.2961Z" fill="#26848B"/>
<path d="M34.8516 22.3702C34.4442 22.2221 33.5553 21.9998 31.8516 22.148C31.3701 22.185 30.7775 22.2591 30.1849 22.4072C29.5553 22.5554 28.9257 22.7406 28.3701 22.9998C27.222 23.4443 26.4072 24.0369 26.4812 24.222C26.5553 24.4072 27.5183 24.222 28.6294 24.0369C29.7775 23.8517 31.1109 23.7406 31.9627 23.6665C33.5183 23.5554 34.3331 23.5924 34.7405 23.4813C35.1479 23.3702 35.222 23.185 35.222 22.9998C35.259 22.7406 35.259 22.5554 34.8516 22.3702Z" fill="#26848B"/>
</svg>
