<svg width="50" height="50" viewBox="0 0 50 50" fill="none" xmlns="http://www.w3.org/2000/svg">
<path d="M9.24504 21.5094C9.05636 21.9811 8.86768 22.5472 8.86768 23.1132C8.86768 23.6793 8.96202 24.151 9.24504 24.717C9.52805 24.2453 9.81107 23.7736 9.99975 23.3962C10.1884 23.0189 10.3771 22.5472 10.5658 22.1698C10.7545 21.7925 10.9431 21.3208 11.1318 20.9434C11.3205 20.4717 11.5092 20.0944 11.6035 19.5283C11.0375 19.6227 10.5658 20 10.1884 20.3774C9.71673 20.5661 9.43371 21.0378 9.24504 21.5094Z" fill="#26848B"/>
<path d="M34.151 5.18885C30.5661 3.3964 25.0944 5.56621 23.585 9.24545C27.4529 6.5096 29.9057 5.66055 34.151 5.18885Z" fill="#26848B"/>
<path d="M29.1509 13.2074C34.9056 15.8489 33.4905 15.4716 35.1886 16.415C34.9999 13.8678 31.415 11.981 29.1509 13.2074Z" fill="#26848B"/>
<path d="M19.9998 27.3583C19.8111 26.0376 19.5281 25.2828 19.3394 23.5847C19.0564 21.7923 19.1507 21.0376 18.9621 19.7168C18.0187 20.7545 17.7356 22.3583 17.9243 23.7734C18.113 25.4715 19.0564 26.7923 19.9998 27.3583Z" fill="#26848B"/>
<path d="M19.4339 42.3584C19.1509 42.3584 18.8679 42.3584 18.5849 42.5471C18.3019 42.6414 18.0189 42.8301 17.7358 43.1131C18.0189 43.3961 18.3019 43.5848 18.5849 43.6792C18.8679 43.7735 19.1509 43.8678 19.4339 43.8678C19.717 43.8678 20 43.8678 20.283 43.6792C20.566 43.5848 20.849 43.3961 21.1321 43.1131C20.849 42.8301 20.566 42.6414 20.283 42.5471C20 42.4527 19.717 42.3584 19.4339 42.3584Z" fill="#26848B"/>
<path d="M37.0753 41.0378C36.5093 40.9435 35.9432 40.8491 35.3772 40.8491C34.8111 40.8491 34.2451 40.8491 33.6791 41.0378C33.113 41.1321 32.547 41.3208 31.981 41.6038C32.547 41.8869 33.113 42.0756 33.6791 42.1699C34.2451 42.2642 34.8111 42.3586 35.3772 42.3586C35.9432 42.3586 36.5093 42.3586 37.0753 42.1699C37.6413 42.0756 38.2074 41.8869 38.7734 41.6038C38.2074 41.3208 37.6413 41.1321 37.0753 41.0378Z" fill="#26848B"/>
<path d="M33.6793 45.0942C33.3963 45.0942 33.2077 45.0942 32.9246 45.2829C32.6416 45.3773 32.4529 45.5659 32.1699 45.849C32.4529 46.132 32.6416 46.3207 32.9246 46.415C33.2077 46.5094 33.3963 46.6037 33.6793 46.6037C33.9624 46.6037 34.151 46.6037 34.4341 46.415C34.7171 46.3207 34.9058 46.132 35.1888 45.849C34.9058 45.5659 34.7171 45.3773 34.4341 45.2829C34.151 45.1886 33.9624 45.0942 33.6793 45.0942Z" fill="#26848B"/>
<path d="M26.2263 36.6981C21.981 36.9811 17.7357 37.9245 13.7735 39.5283C11.7923 40.3773 9.90553 41.3207 8.11308 42.5472C6.32063 43.7736 4.71685 45.283 3.3961 47.0755C3.30176 47.1698 3.30176 47.3585 3.30176 47.5472C3.30176 48.0189 3.67912 48.3019 4.15081 48.3019C8.58478 48.2075 12.9244 48.1132 17.3584 48.0189C19.5282 47.9245 21.7923 47.8302 23.9621 47.8302C26.1319 47.7358 28.3961 47.6415 30.5659 47.5472C28.3961 47.4528 26.1319 47.3585 23.9621 47.2641C21.7923 47.1698 19.5282 47.0755 17.3584 47.0755C13.4904 46.9811 9.62251 46.8868 5.84893 46.7924C6.79232 45.7547 7.9244 44.8113 9.15082 43.9622C10.8489 42.8302 12.6414 41.9811 14.5282 41.2264C16.415 40.4717 18.3961 39.9056 20.3772 39.434C22.3584 38.9623 24.3395 38.6792 26.415 38.4906C28.4904 38.3019 30.4716 38.3019 32.547 38.4906C34.5282 38.6792 36.6036 38.9623 38.4904 39.6226C40.3772 40.283 42.264 41.1321 43.6791 42.3585C44.3395 43.0189 44.9055 43.7736 45.2829 44.6226C45.5659 45.3773 45.6603 46.1321 45.6603 46.8868C43.2074 46.9811 40.8489 46.9811 38.3961 47.0755C35.7546 47.1698 33.2074 47.2641 30.5659 47.3585C33.2074 47.5472 35.7546 47.5472 38.3961 47.6415C41.0376 47.7358 43.5848 47.8302 46.2263 47.9245C46.5093 47.9245 46.698 47.7358 46.7923 47.4528C46.981 46.3207 46.8867 45.1887 46.6036 44.0566C46.3206 43.3962 46.0376 42.8302 45.6603 42.2641C44.6225 37.7358 42.8301 33.3019 40.3772 29.3396C37.0753 24.1509 32.547 19.8113 26.7923 17.4528C28.7735 17.4528 30.6603 17.7358 32.547 18.3019C35.0942 19.0566 37.4527 20.4717 39.1508 22.5472C39.2452 22.6415 39.3395 22.6415 39.4338 22.7358C39.7169 22.8302 39.9999 22.6415 40.0942 22.3585C40.4716 20.9434 40.6603 19.434 40.4716 17.9245C39.9999 14.8113 38.3018 12.2641 35.8489 10.3774C34.9999 9.71698 34.1508 9.24528 33.2074 8.86792C35.1886 7.83018 37.264 7.07547 39.5282 7.16981C39.6225 7.16981 39.8112 7.16981 39.9055 7.07547C40.1886 6.88679 40.2829 6.41509 40.0942 6.13207C38.8678 4.24528 37.0753 2.73585 34.8112 2.07547C32.8301 1.41509 30.1886 1.60377 28.2074 2.26415C27.1697 2.54717 26.1319 3.1132 25.2829 3.67924C22.264 5.75471 20.4716 8.67924 19.9999 11.6038C21.2263 7.26415 24.6225 4.24528 28.4904 3.20754C30.2829 2.64151 32.7357 2.64151 34.4338 3.30188C35.9433 3.77358 37.264 4.81132 38.2074 6.03773C35.6603 6.22641 33.3018 7.26415 31.2263 8.5849C31.1319 8.67924 31.0376 8.77358 30.9433 8.96226C30.8489 9.33962 31.0376 9.71698 31.3206 9.90566C32.6414 10.3774 33.8678 10.9434 34.9055 11.7924C37.0753 13.3962 38.6791 15.6604 39.1508 18.3962C39.3395 19.434 39.3395 20.4717 39.1508 21.4151C37.3584 19.717 34.9999 18.5849 32.7357 18.0189C29.9999 17.3585 27.264 17.3585 24.5282 17.8302C25.2829 17.7358 25.9433 17.7358 26.698 17.7358C31.8867 20.9434 36.0376 25.283 39.1508 30.3773C40.7546 32.9245 42.1697 35.566 43.3018 38.3962C43.6791 39.3396 44.0565 40.283 44.4338 41.2264C42.9244 39.8113 41.0376 38.8679 39.1508 38.2075C38.1131 37.8302 37.0753 37.5472 36.0376 37.3585C35.7546 35.7547 35.3772 34.1509 34.9055 32.5472C34.3395 30.6604 33.4904 28.8679 32.4527 27.2641C31.415 25.566 30.1886 24.0566 28.7735 22.7358C27.3584 21.4151 25.7546 20.283 23.9621 19.5283C24.1508 18.9623 24.3395 18.3962 24.5282 17.8302C23.3961 20.1887 22.6414 22.7358 22.547 25.3773C22.4527 26.6981 22.6414 28.0189 22.9244 29.3396C23.2074 30.283 23.4904 31.3207 23.9621 32.1698C21.698 31.8868 19.6225 30.7547 18.1131 29.0566C16.415 27.0755 15.5659 24.5283 15.3772 21.8868C15.3772 21.7924 15.2829 21.6038 15.1886 21.5094C14.9055 21.2264 14.5282 21.1321 14.2452 21.4151C12.1697 23.0189 10.4716 25.1887 9.43383 27.7358C8.49044 26.4151 7.9244 24.8113 7.83006 23.2075C7.73572 22.1698 7.83006 21.1321 7.9244 20.0943C8.20742 19.0566 8.49044 18.1132 9.05648 17.1698C10.0942 15.3774 11.698 13.9623 13.6791 13.0189C15.5659 12.0755 17.8301 11.7924 19.9999 11.6981C17.8301 11.5094 15.5659 11.6981 13.4904 12.5472C11.415 13.3962 9.52817 14.8113 8.30176 16.7924C7.64138 17.7358 7.26402 18.8679 6.981 19.9057C6.79232 21.0377 6.60364 22.1698 6.69798 23.3019C6.79232 25.566 7.73572 27.8302 9.24515 29.6226C9.33949 29.717 9.43383 29.8113 9.62251 29.8113C9.99987 29.9057 10.3772 29.717 10.4716 29.3396C11.1319 27.0755 12.547 25 14.2452 23.3019C14.6225 25.6604 15.5659 28.0189 17.264 29.8113C18.2074 30.849 19.4338 31.7924 20.7546 32.3585C22.0753 32.9245 23.5848 33.2075 24.9999 33.2075C25.0942 33.2075 25.1886 33.2075 25.2829 33.1132C25.4716 32.9245 25.5659 32.6415 25.3772 32.4528C24.7169 31.4151 24.1508 30.283 23.7735 29.0566C23.3961 27.8302 23.2074 26.6038 23.2074 25.283C23.1131 23.3019 23.3961 21.3207 23.9621 19.434C25.3772 20.6604 26.698 21.9811 27.9244 23.3019C29.1508 24.717 30.2829 26.2264 31.2263 27.8302C32.264 29.434 33.1131 31.1321 33.8678 32.8302C34.5282 34.2453 35.0942 35.7547 35.7546 37.1698C32.4527 36.5094 29.2452 36.4151 26.2263 36.6981Z" fill="#26848B"/>
</svg>
