<svg width="50" height="50" viewBox="0 0 50 50" fill="none" xmlns="http://www.w3.org/2000/svg">
<path d="M4.6152 31.9228C4.99981 32.3075 5.38443 32.7882 5.8652 33.0767C6.44212 33.4613 7.1152 33.5575 7.69212 33.6536C8.26904 33.6536 8.94212 33.5575 9.51904 33.269C10.096 32.9805 10.5767 32.5959 10.9614 32.2113C11.7306 31.4421 12.4998 31.0575 13.3652 31.0575C14.3267 31.0575 14.9037 31.5382 15.6729 32.3075C16.0575 32.6921 16.5383 33.1728 17.1152 33.5575C17.6921 33.9421 18.4614 34.0382 19.1344 34.0382C19.8075 34.0382 20.5767 33.9421 21.1537 33.5575C21.8267 33.269 22.2114 32.7882 22.6921 32.4036C23.4614 31.6344 24.0383 31.2498 24.9037 31.2498C25.769 31.2498 26.346 31.5382 27.1152 32.4036C27.4998 32.7882 27.9806 33.269 28.6537 33.5575C29.3267 33.9421 29.9998 34.0382 30.6729 34.0382C31.346 34.0382 32.019 33.8459 32.6921 33.5575C33.269 33.1728 33.7498 32.7882 34.1344 32.3075C34.9037 31.5382 35.4806 31.0575 36.4421 31.0575C37.4037 30.9613 38.0767 31.4421 38.846 32.2113C39.2306 32.5959 39.7114 32.9805 40.2883 33.269C40.8652 33.5575 41.5383 33.6536 42.1152 33.6536C42.6921 33.6536 43.3652 33.4613 43.846 33.1728C44.3267 32.8844 44.8075 32.4036 45.096 32.019C45.4806 31.6344 45.769 31.2498 46.2498 30.9613C46.7306 30.6728 47.2114 30.4805 47.7883 30.4805C47.2114 30.4805 46.6344 30.4805 46.1537 30.769C45.6729 30.9613 45.1921 31.3459 44.8075 31.7305C44.4229 32.1151 43.9421 32.4036 43.5575 32.5959C43.0767 32.7882 42.596 32.8844 42.1152 32.7882H42.0191C42.596 26.9228 42.8844 19.0382 42.8844 13.0767C42.8844 10.2882 42.8844 8.94207 42.8844 5.48053V4.90361C42.8844 4.7113 42.8844 4.61515 42.8844 4.42284C43.0767 3.4613 43.846 2.78822 44.8075 2.69207C45.4806 2.59591 46.1537 2.78822 46.6344 3.26899C47.1152 3.74976 47.4998 4.42284 47.4998 5.19207C47.596 6.05745 47.6921 6.92284 47.7883 7.69207C47.8844 6.82668 47.9806 5.9613 48.0767 5.19207C48.2691 4.32668 47.9806 3.26899 47.3075 2.49976C46.6344 1.73053 45.6729 1.24976 44.6152 1.24976C43.5575 1.24976 42.4998 1.73053 41.8267 2.59591C41.4421 2.98053 41.2498 3.55745 41.0575 4.03822C40.9614 4.32668 40.9614 4.61515 40.9614 4.80745V5.48053C40.9614 8.74976 40.8652 9.99976 40.9614 12.8844C39.8075 12.5959 38.6537 12.4998 37.4998 12.4036C34.6152 12.1151 31.7306 12.1151 28.6537 12.4036C27.4998 12.4998 26.346 12.6921 25.1921 12.8844C25.1921 12.4036 25.2883 10.2882 25.1921 6.92284V4.61515C25.1921 4.03822 25.4806 3.55745 25.8652 3.17284C26.2498 2.78822 26.8267 2.59591 27.4998 2.59591C28.0767 2.59591 28.6537 2.88438 29.1344 3.36515C29.6152 3.84591 29.8075 4.42284 29.8075 5.28822C29.9037 6.05745 29.9998 6.82668 30.096 7.59591C30.1921 6.82668 30.2883 6.05745 30.3844 5.28822C30.3844 4.90361 30.4806 4.42284 30.3844 4.03822C30.2883 3.55745 30.096 3.17284 29.9037 2.78822C29.4229 2.01899 28.5575 1.44207 27.596 1.24976C26.6344 1.05745 25.5767 1.34591 24.8075 1.92284C24.0383 2.49976 23.4614 3.4613 23.3652 4.51899V4.90361C23.3652 4.99976 23.3652 5.86515 23.3652 5.76899V11.6344C23.3652 17.1151 23.6537 24.1344 24.2306 29.519C23.846 29.6151 23.3652 29.7113 22.9806 29.9036C22.3075 30.2882 21.9229 30.6728 21.5383 31.0575C20.769 31.8267 20.1921 32.2113 19.3267 32.2113C18.4614 32.2113 17.8844 31.9228 17.019 31.1536C16.6344 30.769 16.1537 30.2882 15.5767 29.9998C14.9998 29.7113 14.2306 29.519 13.6537 29.6151C12.9806 29.6151 12.3075 29.8075 11.7306 30.0959C11.1537 30.3844 10.6729 30.8651 10.3844 31.2498C9.42289 32.1151 8.65366 32.6921 7.69212 32.6921C7.21135 32.6921 6.73058 32.6921 6.24981 32.4998C5.76904 32.3075 5.38443 31.9228 4.99981 31.6344C4.6152 31.2498 4.13443 30.8651 3.65366 30.6728C3.17289 30.4805 2.59597 30.3844 2.01904 30.3844C2.59597 30.4805 3.07674 30.5767 3.5575 30.8651C3.94212 31.1536 4.23058 31.5382 4.6152 31.9228ZM24.9037 18.8459C26.1537 19.1344 27.3075 19.3267 28.5575 19.4228C31.6344 19.7113 34.5191 19.7113 37.4037 19.4228C38.5575 19.3267 39.8075 19.1344 40.9614 18.8459C41.0575 22.1151 41.1537 23.269 41.1537 24.9036C39.9037 24.6151 38.6537 24.4228 37.3075 24.3267C34.4229 24.0382 31.6344 24.0382 28.4614 24.3267C27.1152 24.4228 25.8652 24.6151 24.519 24.9998C24.6152 23.6536 24.7114 22.3075 24.7114 21.0575C24.8075 20.2882 24.8075 19.519 24.9037 18.8459ZM28.5575 13.7498C31.6344 14.0382 34.5191 14.0382 37.4037 13.7498C38.5575 13.6536 39.7114 13.4613 40.8652 13.269C40.8652 14.9998 40.8652 16.7305 40.9614 18.5575C39.8075 18.269 38.5575 18.1728 37.4037 17.9805C34.5191 17.6921 31.6344 17.6921 28.5575 17.9805C27.3075 18.0767 26.1537 18.269 24.9037 18.5575C24.9998 16.8267 24.9998 14.9998 24.9998 13.269C26.1537 13.4613 27.3075 13.6536 28.5575 13.7498ZM24.519 25.1921C25.8652 25.4805 27.1152 25.6728 28.4614 25.8651C31.5383 26.1536 34.4229 26.1536 37.3075 25.8651C38.5575 25.769 39.9037 25.5767 41.1537 25.2882C41.2498 27.7882 41.4421 30.2882 41.7306 32.7882C40.8652 32.6921 40.1921 32.2113 39.519 31.4421C39.1344 31.0575 38.7498 30.5767 38.1729 30.2882C37.596 29.9036 36.9229 29.8075 36.2498 29.8075C35.5767 29.8075 34.9037 29.9036 34.3267 30.1921C33.7498 30.4805 33.269 30.9613 32.8844 31.3459C32.1152 32.1151 31.5383 32.4998 30.5767 32.4998C29.7114 32.4998 29.1344 32.1151 28.3652 31.3459C27.9806 30.9613 27.4998 30.4805 26.9229 30.1921C26.2498 29.8075 25.5767 29.7113 24.9037 29.7113C24.7114 29.7113 24.519 29.7113 24.2306 29.8075C24.3267 27.9805 24.4229 26.5382 24.519 25.1921Z" fill="#26848B"/>
<path d="M4.6152 39.3267C4.99981 39.7114 5.38443 40.1921 5.8652 40.4806C6.34597 40.7691 7.01904 40.9614 7.59597 40.9614C8.17289 40.9614 8.84597 40.8652 9.42289 40.5767C9.99981 40.2883 10.4806 39.9037 10.8652 39.519C11.6344 38.7498 12.4037 38.3652 13.269 38.3652C14.2306 38.3652 14.8075 38.846 15.5767 39.6152C15.9614 39.9998 16.4421 40.4806 17.019 40.8652C17.596 41.2498 18.3652 41.346 19.0383 41.346C19.7114 41.346 20.4806 41.2498 21.0575 40.8652C21.7306 40.5767 22.1152 40.096 22.596 39.7114C23.3652 38.9421 23.9421 38.5575 24.8075 38.5575C25.6729 38.5575 26.2498 38.846 27.019 39.7114C27.4037 40.096 27.8844 40.5767 28.5575 40.8652C29.2306 41.2498 29.9037 41.346 30.5767 41.346C31.2498 41.346 31.9229 41.1537 32.596 40.8652C33.1729 40.4806 33.6537 40.096 34.0383 39.6152C34.8075 38.846 35.3844 38.3652 36.346 38.3652C37.3075 38.269 37.9806 38.7498 38.7498 39.519C39.1344 39.9037 39.6152 40.2883 40.1921 40.5767C40.769 40.8652 41.4421 40.9614 42.0191 40.9614C42.596 40.9614 43.269 40.7691 43.7498 40.4806C44.2306 40.1921 44.7114 39.7114 44.9998 39.3267C45.3844 38.9421 45.6729 38.5575 46.1537 38.269C46.6344 37.9806 47.1152 37.7883 47.6921 37.7883C47.1152 37.7883 46.5383 37.7883 46.0575 38.0767C44.9998 38.5575 44.3267 39.519 43.3652 39.9037C42.8844 40.096 42.4037 40.1921 41.9229 40.096C40.9614 40.096 40.1921 39.519 39.519 38.7498C39.1344 38.3652 38.7498 37.8844 38.1729 37.596C37.596 37.2113 36.9229 37.1152 36.2498 37.1152C35.5767 37.1152 34.9037 37.2114 34.3267 37.4998C33.7498 37.7883 33.269 38.269 32.8844 38.6537C32.1152 39.4229 31.5383 39.8075 30.5767 39.8075C29.7114 39.8075 29.1344 39.4229 28.3652 38.6537C27.9806 38.269 27.4998 37.7883 26.9229 37.4998C26.2498 37.1152 25.5767 37.019 24.9037 37.019C24.2306 37.019 23.4614 37.2114 22.8844 37.4998C22.2114 37.8844 21.8267 38.269 21.4421 38.6537C20.6729 39.4229 20.096 39.8075 19.2306 39.8075C18.3652 39.8075 17.7883 39.519 16.9229 38.7498C16.5383 38.3652 16.0575 37.8844 15.4806 37.596C14.9037 37.3075 14.1344 37.1152 13.5575 37.2114C12.8844 37.2114 12.2114 37.4037 11.6344 37.6921C11.0575 37.9806 10.5767 38.4614 10.2883 38.846C9.42289 39.5191 8.65366 40.096 7.69212 40.096C7.21135 40.096 6.73058 40.096 6.24981 39.9037C5.76904 39.7114 5.38443 39.3267 4.99981 39.0383C4.6152 38.6537 4.13443 38.269 3.65366 38.0767C3.17289 37.8844 2.59597 37.7883 2.01904 37.7883C2.59597 37.8844 3.07674 37.9806 3.5575 38.269C3.94212 38.5575 4.23058 38.9421 4.6152 39.3267Z" fill="#26848B"/>
<path d="M4.61516 46.7305C4.99978 47.1152 5.38439 47.5959 5.86516 47.8844C6.34593 48.1729 7.01901 48.3652 7.59593 48.3652C8.17285 48.3652 8.84593 48.269 9.42285 47.9806C9.99978 47.6921 10.4805 47.3075 10.8652 46.9229C11.6344 46.1536 12.4036 45.769 13.269 45.769C14.2305 45.769 14.8075 46.2498 15.5767 47.019C15.9613 47.4036 16.4421 47.8844 17.019 48.269C17.5959 48.6536 18.3652 48.7498 19.0382 48.7498C19.7113 48.7498 20.4805 48.6536 21.0575 48.269C21.7305 47.9806 22.1152 47.4998 22.5959 47.1152C23.3652 46.3459 23.9421 45.9613 24.8075 45.9613C25.6729 45.9613 26.2498 46.2498 27.019 47.1152C27.4036 47.4998 27.8844 47.9806 28.5575 48.269C29.2305 48.6536 29.9036 48.7498 30.5767 48.7498C31.2498 48.7498 31.9229 48.5575 32.5959 48.269C33.1729 47.8844 33.6536 47.4998 34.0382 47.019C34.8075 46.2498 35.3844 45.769 36.3459 45.769C37.3075 45.6729 37.9805 46.1536 38.7498 46.9229C39.1344 47.3075 39.6152 47.6921 40.1921 47.9806C40.769 48.269 41.4421 48.3652 42.019 48.3652C42.5959 48.3652 43.269 48.1729 43.7498 47.8844C44.2305 47.5959 44.7113 47.1152 44.9998 46.7305C45.3844 46.3459 45.6729 45.9613 46.1536 45.6729C46.6344 45.3844 47.1152 45.1921 47.6921 45.1921C47.1152 45.1921 46.5382 45.1921 46.0575 45.4805C45.5767 45.6729 45.0959 46.0575 44.7113 46.4421C44.3267 46.8267 43.8459 47.1152 43.4613 47.3075C42.9806 47.4998 42.4998 47.5959 42.019 47.4998C41.0575 47.4998 40.2882 46.9229 39.6152 46.1536C39.2305 45.769 38.8459 45.2882 38.269 44.9998C37.6921 44.6152 37.019 44.519 36.3459 44.519C35.6729 44.519 34.9998 44.6152 34.4229 44.9036C33.8459 45.1921 33.3652 45.6729 32.9805 46.0575C32.2113 46.8267 31.6344 47.2113 30.6729 47.2113C29.8075 47.2113 29.2305 46.8267 28.4613 46.0575C28.0767 45.6729 27.5959 45.1921 27.019 44.9036C26.3459 44.519 25.6729 44.4229 24.9998 44.4229C24.3267 44.4229 23.5575 44.6152 22.9805 44.9036C22.3075 45.2882 21.9229 45.6729 21.5382 46.0575C20.769 46.8267 20.1921 47.2113 19.3267 47.2113C18.4613 47.2113 17.8844 46.9229 17.019 46.1536C16.6344 45.769 16.1536 45.2882 15.5767 44.9998C14.9998 44.7113 14.2305 44.519 13.6536 44.6152C12.9805 44.6152 12.3075 44.8075 11.7305 45.0959C11.1536 45.3844 10.6729 45.8652 10.3844 46.2498C9.42285 46.9229 8.65362 47.4998 7.69208 47.4998C7.21131 47.4998 6.73054 47.4998 6.24978 47.3075C5.76901 47.1152 5.38439 46.7305 4.99977 46.4421C4.61516 46.0575 4.13439 45.6729 3.65362 45.4805C3.0767 45.1921 2.49977 45.0959 1.92285 45.1921C2.49977 45.2882 2.98054 45.3844 3.46131 45.6729C3.94208 45.9613 4.23054 46.3459 4.61516 46.7305Z" fill="#26848B"/>
</svg>
