<svg width="50" height="50" viewBox="0 0 50 50" fill="none" xmlns="http://www.w3.org/2000/svg">
<path d="M20.0046 12.3023C20.3391 12.0594 18.1651 8.49509 17.0257 6.92595C14.9464 4.06242 14.6317 4.19948 14.2972 4.44236C13.9625 4.68533 13.7348 4.94213 15.8142 7.80575C16.9536 9.37481 19.67 12.5453 20.0046 12.3023Z" fill="#26848B"/>
<path d="M24.2361 2.97623C24.1821 2.58156 24.0032 2.52277 23.8016 2.47754C23.5998 2.4323 23.4145 2.40375 23.1993 2.7618C22.9963 3.12047 22.7318 3.87102 22.5989 5.39663C22.5247 6.23165 22.5773 7.55781 22.7909 8.64397C22.9963 9.73336 23.3318 10.5714 23.5321 10.5374C23.7392 10.5031 23.7781 9.62538 23.8474 8.57522C23.9084 7.52272 24.0224 6.29699 24.0911 5.51879C24.2148 4.09838 24.3014 3.37296 24.2361 2.97623Z" fill="#26848B"/>
<path d="M30.5888 7.78429C32.409 4.95819 32.1653 4.71755 31.8177 4.49369C31.4701 4.26984 31.1503 4.14741 29.33 6.97351C28.3326 8.5221 26.4739 12.027 26.8215 12.2508C27.1691 12.4747 29.5914 9.33288 30.5888 7.78429Z" fill="#26848B"/>
<path d="M48.6178 44.2781C48.5761 44.0756 48.5189 43.8963 47.9712 43.8734C47.4258 43.858 46.3811 43.9803 44.4074 44.5216C44.2286 44.5704 44.0297 44.6301 43.8232 44.6943C43.8203 44.6097 43.814 44.5162 43.8007 44.4046C43.508 42.0544 41.4008 37.2676 39.2417 31.2105C39.0172 30.5711 38.8496 30.1731 38.7449 30.1816C38.9709 30.1092 39.1942 29.9956 39.4012 29.8302C39.6438 29.6439 39.8632 29.3521 40.0106 29.0839C41.1465 27.2195 41.5993 25.0337 44.0404 14.9716C44.0694 14.8694 44.0991 14.6933 44.123 14.5348C44.1364 14.3733 44.1451 14.2065 44.1271 14.043C44.0035 12.558 42.4563 11.2968 40.5789 11.7399C40.5403 11.7546 27.5444 16.2784 25.3046 16.9166C25.149 16.9613 25.0129 16.9932 24.784 17.0923C24.5298 17.2047 24.3047 17.372 24.1512 17.591C23.9956 17.8089 23.9214 18.0741 23.9172 18.3388C23.9119 18.4715 23.9306 18.6046 23.9533 18.7355C23.9784 18.8421 24.0042 18.9452 24.0425 19.0409C24.1884 19.435 24.4378 19.7282 24.662 19.9481C24.7009 19.9855 31.3508 25.6843 34.0404 27.7881C36.156 29.4427 36.3599 29.3718 36.4953 29.2156C36.6307 29.0594 36.672 28.8474 34.7339 26.9881C30.6377 23.0581 25.5354 18.894 25.4297 18.5251C25.4172 18.4978 25.4146 18.4702 25.4064 18.4475L25.4068 18.4454L25.4089 18.4424L25.4121 18.4415C25.4389 18.4286 25.575 18.3847 25.6927 18.3547C29.2701 17.3541 40.8705 13.0472 40.9077 13.0321C41.9967 12.7618 42.8105 13.4411 42.8918 14.1674C42.9046 14.2473 42.8997 14.3298 42.8977 14.4119C42.8832 14.4963 42.8827 14.5647 42.8498 14.7006C40.5988 25.2873 40.4984 26.8541 39.5 28.803C39.2703 29.3305 38.8997 29.6478 38.4942 29.7926C38.0991 29.9335 37.7148 29.8389 37.4226 29.7071C37.1263 29.5775 36.9082 29.4246 36.7537 29.334C36.5999 29.24 36.5126 29.1954 36.4953 29.2156C36.479 29.2346 36.532 29.3171 36.6564 29.4522C36.7833 29.5843 36.9726 29.7812 37.2814 29.9738C37.577 30.1636 38.0597 30.3577 38.6162 30.2209C38.6563 30.211 38.6963 30.1969 38.7363 30.1842C38.6414 30.2157 38.6181 30.6475 38.6721 31.3339C39.007 35.1876 41.9126 43.0342 42.7894 44.7176C42.8447 44.8257 42.8949 44.9103 42.943 44.9853C42.0861 45.2852 41.1421 45.6585 40.3169 46.0431C38.9684 46.6654 37.9368 47.2966 38.0149 47.4856C38.0945 47.6788 39.2585 47.3982 40.6716 47.0405C42.0842 46.6776 43.7521 46.2527 44.8068 45.9645C46.7311 45.4368 47.7125 45.1563 48.1931 44.9086C48.6753 44.6684 48.6595 44.4805 48.6178 44.2781Z" fill="#26848B"/>
<path d="M22.5325 18.4109C22.1816 18.2609 22.1106 18.3436 22.0513 18.4249C21.989 18.5104 21.9711 18.6072 22.1745 18.8709C22.2668 19.0031 22.4218 19.178 22.487 19.4175C22.5634 19.6561 22.5473 19.9829 22.2949 20.4647C22.167 20.7022 21.986 20.9667 21.7503 21.2552C21.1989 21.9125 14.7165 30.1004 11.2866 29.7683C11.1239 29.7617 10.7673 29.6999 10.6321 29.4991C8.90616 27.1517 6.64676 16.6075 6.45934 14.6753C6.41747 14.2772 6.49186 13.9227 6.6056 13.817C6.69112 13.6946 7.02464 13.6226 7.41719 13.673C17.5153 14.8477 21.7793 18.8364 22.0513 18.4249C22.1958 18.2237 16.53 13.8467 7.56666 12.5274C7.30286 12.4888 7.01741 12.4719 6.70364 12.517C6.39503 12.5604 6.02941 12.696 5.75439 12.9714C5.47708 13.2442 5.34063 13.5911 5.27724 13.8925C5.20884 14.202 5.20958 14.4827 5.2204 14.7558C5.38688 17.158 7.71136 29.4979 9.99667 30.9208C10.019 30.9343 10.0421 30.9457 10.0648 30.9585C9.19305 32.893 7.90444 36.3572 7.26768 38.3228C6.33059 41.2154 6.00026 42.5692 5.95843 43.2242C5.28799 43.1354 4.58803 43.0728 3.94052 43.0596C2.51575 43.02 1.36897 43.1786 1.36331 43.381C1.35649 43.5915 2.47137 43.8077 3.81192 44.1105C5.1562 44.4036 6.72063 44.8116 7.71222 45.0766C9.52239 45.5588 10.4359 45.8486 10.9467 45.8892C11.453 45.9427 11.5441 45.7774 11.6215 45.5858C11.6988 45.394 11.7526 45.214 11.3277 44.9015C10.8995 44.6026 9.99418 44.1352 8.09055 43.6279C7.76823 43.5416 7.38028 43.4582 6.96181 43.3818C7.31146 42.7606 7.82637 41.4564 8.69204 38.7842C9.32726 36.8235 10.3114 33.2746 10.7413 31.1944C10.8805 31.224 11.0195 31.25 11.1576 31.258C15.0756 31.5934 20.3753 25.1696 22.6741 21.949C22.9205 21.5954 23.1191 21.2474 23.2588 20.9028C23.3964 20.557 23.4719 20.2092 23.4662 19.8847C23.4629 19.56 23.3688 19.2693 23.2441 19.0605C22.9857 18.6277 22.6978 18.497 22.5325 18.4109Z" fill="#26848B"/>
</svg>
