<svg width="50" height="50" viewBox="0 0 50 50" fill="none" xmlns="http://www.w3.org/2000/svg">
<path d="M13.6923 47.8847C14.3654 48.2693 15.0385 48.4616 15.8077 48.5578H16.7692C16.8654 48.5578 25.5192 48.5578 25.0385 48.5578C25.2308 48.5578 33.7885 48.5578 33.3077 48.5578H34.2692C35.0385 48.4616 35.7115 48.2693 36.3846 47.8847C37.6346 47.2116 38.5962 45.8655 38.9808 44.4232C39.0769 44.0385 39.0769 43.6539 39.0769 43.3655V42.4039C39.0769 42.2116 38.9808 36.827 38.9808 36.9232L38.8846 29.6155L38.7885 22.3078L38.6923 18.6539C38.6923 18.3655 38.6923 17.9808 38.5962 17.6924C38.5 17.0193 38.2115 16.3462 37.7308 15.7693L37.1538 15.0962L34.75 12.3078C34.3654 11.9232 32.9231 10.0962 33.0192 10.1924C32.8269 9.90392 32.5385 9.71161 32.3462 9.51931C31.8654 9.13469 31.1923 8.84623 30.5192 8.84623C29.8462 8.75008 29.2692 8.84623 28.6923 8.84623L26 8.94238C25.9038 6.53854 25.7115 3.84623 25.0385 1.44238C24.3654 3.75008 24.1731 6.53854 24.0769 8.94238L21.3846 8.84623C20.8077 8.84623 20.2308 8.75008 19.5577 8.84623C18.8846 8.94238 18.3077 9.13469 17.7308 9.51931C17.4423 9.71161 17.25 9.90392 17.0577 10.1924C16.9615 10.2885 12.6346 15.4808 12.9231 15.0962L12.3462 15.7693C11.8654 16.3462 11.5769 17.0193 11.4808 17.5962C11.3846 17.9808 11.3846 18.2693 11.3846 18.5578L11.2885 22.2116L11.1923 29.5193L11.0962 36.827C11.0962 37.0193 11 42.6924 11 42.3078V43.2693C11 43.6539 11 44.0385 11.0962 44.327C11.4808 45.8655 12.4423 47.1155 13.6923 47.8847ZM25.7115 15.1924C27.1538 15.7693 28.0192 17.2116 27.8269 18.5578C27.7308 20.0001 26.3846 21.1539 25.0385 21.1539C23.6923 21.1539 22.3462 20.0962 22.25 18.5578C22.0577 17.3078 22.9231 15.8655 24.3654 15.1924C24.4615 16.3462 24.6538 17.4039 25.0385 18.5578C25.3269 17.4039 25.5192 16.3462 25.7115 15.1924ZM12.5385 17.7885C12.5385 17.5001 12.6346 17.3078 12.7308 17.0193C12.8269 16.7308 12.9231 16.5385 13.1154 16.3462L13.6923 15.577C13.7885 15.3847 17.1538 10.8655 16.9615 11.1539C17.3462 10.6732 17.6346 10.0962 18.1154 9.80777C18.5962 9.42315 19.0769 9.23084 19.6538 9.13469C20.2308 9.03854 20.8077 9.03854 21.4808 9.03854L24.0769 8.94238V9.90392C24.0769 11.3462 24.1731 12.7885 24.2692 14.1347C24.2692 14.327 24.3654 14.6155 24.3654 14.8078C23.5962 14.8078 22.8269 15.0962 22.25 15.577C21.3846 16.2501 20.9038 17.3078 20.8077 18.3655C20.7115 19.5193 21.1923 20.6732 21.9615 21.5385C22.7308 22.4039 23.9808 22.8847 25.1346 22.8847C26.2885 22.8847 27.4423 22.4039 28.3077 21.5385C29.0769 20.6732 29.5577 19.5193 29.4615 18.3655C29.3654 17.2116 28.7885 16.1539 28.0192 15.577C27.3462 15.0962 26.5769 14.8078 25.9038 14.8078C25.9038 14.6155 26 14.327 26 14.1347C26.0962 12.6924 26.1923 11.2501 26.1923 9.90392C26.1923 9.61546 26.1923 9.23084 26.1923 8.94238L28.8846 9.03854C29.4615 9.03854 30.1346 9.03854 30.7115 9.13469C31.2885 9.23084 31.7692 9.51931 32.25 9.80777C32.6346 10.1924 33.0192 10.6732 33.4038 11.1539C33.5 11.2501 36.8654 15.8655 36.6731 15.577L37.25 16.3462C37.5385 16.827 37.7308 17.3078 37.8269 17.7885V18.6539L37.5385 22.3078L37.4423 29.6155L37.3462 36.9232C37.3462 37.0193 37.25 42.7885 37.25 42.4039V43.2693C37.25 43.5578 37.25 43.7501 37.1538 43.9424C36.9615 44.9039 36.2885 45.6732 35.4231 46.1539C35.0385 46.3462 34.5577 46.5385 34.0769 46.5385C33.8846 46.5385 33.5962 46.5385 33.2115 46.5385C33.1154 46.5385 24.4615 46.5385 24.9423 46.5385C24.75 46.5385 16.5769 46.5385 16.6731 46.5385C16.3846 46.5385 16.0962 46.5385 15.8077 46.5385C15.3269 46.5385 14.8462 46.3462 14.4615 46.1539C13.5962 45.6732 13.0192 44.9039 12.7308 43.9424C12.6346 43.7501 12.6346 43.4616 12.6346 43.2693V42.4039C12.6346 42.3078 12.5385 36.827 12.5385 36.9232L12.4423 29.6155L12.5385 22.3078L12.4423 18.6539C12.4423 18.2693 12.4423 18.077 12.5385 17.7885Z" fill="#26848B"/>
<path d="M16.9616 42.5963C17.1539 38.5578 17.5385 33.6539 17.6347 30.0962C20.1347 30.1924 22.6347 30.1924 25.0385 30.2886C27.4423 30.2886 29.8462 30.2886 32.1539 30.3847V36.0578L32.25 41.9232C26.0962 42.0193 22.827 42.3078 16.9616 42.5963L24.8462 43.077C27.5385 43.1732 30.327 43.3655 33.1154 43.3655C33.5 43.3655 33.8847 43.077 33.8847 42.5963C33.8847 42.4039 33.9808 35.8655 33.9808 35.9616C33.9808 35.7693 33.9808 28.8462 33.9808 29.327C33.9808 28.8462 33.5 28.3655 33.0193 28.3655C30.327 28.3655 27.6347 28.3655 24.9423 28.4616C19.1731 28.5578 17.1539 28.6539 16.7693 28.6539C16.3847 28.6539 16.0962 28.9424 16.0962 29.327C16.3847 33.8463 16.7693 39.5193 16.9616 42.5963Z" fill="#26848B"/>
</svg>
