<svg width="50" height="50" viewBox="0 0 50 50" fill="none" xmlns="http://www.w3.org/2000/svg">
<path d="M23.3399 36.4574C27.2629 36.7528 31.1981 36.8553 35.1411 36.8437C37.113 36.8287 39.0854 36.7484 41.0622 36.6C42.6138 36.4728 44.1595 36.3152 45.7221 35.96C45.2634 37.157 44.6398 38.2933 43.8853 39.3368C40.8521 39.5845 37.8404 39.5883 34.819 39.6031C31.5927 39.5865 28.3663 39.5683 25.1396 39.4905C21.9125 39.4406 18.6864 39.3438 15.4586 39.2537C12.4505 39.1428 9.45049 39.0529 6.43291 38.7796C5.6151 37.6747 4.89921 36.4932 4.30484 35.2457C4.69918 35.3382 5.09103 35.4132 5.48448 35.4878C6.33725 35.6465 7.18758 35.7549 8.03797 35.8597C9.73797 36.0638 11.4385 36.1924 13.14 36.2765C16.5416 36.4481 19.9413 36.5289 23.3399 36.4574C19.952 36.1907 16.5676 35.9373 13.2041 35.5294C11.5236 35.3226 9.84561 35.1043 8.18435 34.8314C6.54894 34.5401 4.82386 34.2417 3.41351 33.6462L3.40735 33.6436C3.26347 33.5832 3.09734 33.5751 2.93937 33.6332C2.60845 33.7553 2.43911 34.1224 2.56106 34.4533C3.36812 36.6425 4.47729 38.7412 5.92432 40.5998C7.36919 42.4573 9.11957 44.081 11.0847 45.3877C11.5775 45.7105 12.0804 46.0267 12.5959 46.3088C12.8216 46.4369 13.1671 46.6362 13.5322 46.7396C13.8834 46.8501 14.284 46.8984 14.6167 46.8957L18.0254 46.9104L24.8428 46.934L31.6603 46.9205C31.7869 46.92 35.7282 46.9065 35.4951 46.9073C35.6286 46.9053 35.7775 46.9112 35.9814 46.8971C36.3549 46.8697 36.7136 46.7896 37.0679 46.6515C37.6291 46.3942 38.1598 46.1671 38.6879 45.8855C40.781 44.7753 42.7083 43.2999 44.2332 41.4614C45.7586 39.6272 46.8913 37.4766 47.4585 35.1406C47.4891 35.0155 47.4853 34.8799 47.4398 34.7492C47.3143 34.389 46.9205 34.1988 46.5603 34.3243C44.826 34.9285 42.8649 35.2018 40.9459 35.4573C39.0133 35.7025 37.0617 35.8528 35.1081 35.9929C32.2988 36.2047 29.4804 36.3012 26.6578 36.3749C26.9008 34.5437 27.0652 32.7125 27.1881 30.8813C29.3051 31.0342 31.4334 31.0209 33.5645 30.9168C34.7231 30.8595 35.8772 30.7267 37.0304 30.5724C38.1841 30.4177 39.3318 30.2043 40.4699 29.9379C40.918 29.8316 41.1222 29.3193 40.8791 28.9362C40.3824 28.1593 39.1726 26.2424 37.559 23.7991C36.4556 22.1005 35.3373 20.4118 34.2019 18.7348C33.0728 17.0536 31.9504 15.3677 30.7945 13.7047C29.67 12.0827 28.5685 10.445 27.4258 8.83543L27.4771 5.72108C27.4797 5.46695 27.3667 5.21016 27.1492 5.04403C27.0608 4.97656 26.9627 4.93162 26.8617 4.9041C26.7947 4.29141 26.7235 3.67873 26.6403 3.06616C26.5565 3.68373 26.4846 4.30129 26.4172 4.91875C26.2503 4.96646 26.0928 5.05236 25.9794 5.20084L25.9613 5.22448C24.5089 7.12644 23.0986 9.05937 21.6696 10.9786C20.2375 12.8955 18.8301 14.8306 17.4262 16.7682C14.606 20.6344 11.8279 24.5316 9.09055 28.4585L9.06431 28.4958C9.01553 28.5665 8.97947 28.6478 8.96027 28.737C8.88176 29.1015 9.11363 29.4606 9.47812 29.5391C10.9139 29.8483 12.3206 30.0924 13.752 30.2815C15.1788 30.4705 16.6066 30.6401 18.0402 30.7406C19.4739 30.8393 20.908 30.9085 22.3421 30.9275C23.5927 30.963 24.8437 30.9252 26.0915 30.8671C26.2146 32.7035 26.3793 34.5397 26.623 36.376C25.5291 36.4045 24.4347 36.4306 23.3399 36.4574ZM37.9006 44.3536C37.4209 44.5951 36.9011 44.8068 36.4314 45.0257C36.2561 45.093 36.0538 45.1377 35.8606 45.1495C35.781 45.1559 35.6455 45.1522 35.4951 45.1526C35.4035 45.1523 31.4065 45.1385 31.6603 45.1394L24.8428 45.1258C23.7972 45.1297 28.6306 45.1116 14.6167 45.1641C14.3817 45.1697 14.2118 45.1487 14.0184 45.0962C13.8327 45.049 13.6797 44.965 13.4086 44.8201C12.9215 44.567 12.4561 44.2869 11.9922 43.9972C9.90837 42.6731 8.08824 40.9592 6.59166 38.9883C9.43928 39.873 12.4092 40.3178 15.3542 40.6687C18.5941 41.0494 21.8493 41.225 25.1056 41.3074C28.3626 41.3494 31.6239 41.29 34.8771 41.0153C37.8503 40.7566 40.8591 40.395 43.7335 39.5319C43.5044 39.8388 43.2774 40.148 43.0289 40.4371C41.6129 42.0737 39.8385 43.3752 37.9006 44.3536ZM32.7345 19.7322C33.8759 21.4051 35.0343 23.0665 36.2076 24.7177C37.1854 26.1161 38.1823 27.5015 39.1827 28.8847C36.7543 29.5351 35.6142 29.7317 33.4752 30.0934C31.4033 30.4443 29.304 30.633 27.1939 30.8008C27.4597 26.7994 27.5226 23.8471 27.5489 19.7937C27.5362 17.5613 27.4933 15.3291 27.4086 13.0969C27.4171 12.7015 27.4238 12.306 27.4313 11.9105C31.0753 17.3378 29.9121 15.6282 32.7345 19.7322ZM18.1392 29.8881C16.7347 29.6673 15.3346 29.4268 13.9448 29.1418C12.9061 28.9253 11.8662 28.6957 10.8413 28.4468C13.5484 24.9298 16.2244 21.39 18.8603 17.8208C20.2879 15.9006 21.7121 13.9779 23.1115 12.037C24.0202 10.781 24.9329 9.5279 25.8407 8.27124L25.8506 8.87205C25.8135 8.96904 25.7908 9.07346 25.7923 9.18366C25.8114 10.5176 25.8402 11.8516 25.8689 13.1856C25.7869 15.3882 25.7443 17.591 25.7318 19.7937C25.7581 23.8508 25.8211 26.8025 26.0868 30.8003C23.419 30.5881 20.7656 30.3308 18.1392 29.8881Z" fill="#26848B"/>
</svg>
