<svg width="40" height="40" viewBox="0 0 40 40" fill="none" xmlns="http://www.w3.org/2000/svg"> <path d="M0.999549 36.3846C1.38416 37.7693 2.53801 38.7693 3.99955 38.9231C4.46109 39 4.8457 38.9231 5.23032 39C24.6149 39.077 13.7688 39 19.6919 39.077C20.0765 39.077 36.3842 39 35.3073 39H35.6149H35.9226C36.1534 39 36.3842 38.9231 36.6149 38.8462C37.9996 38.4616 38.9996 37.2308 39.1534 35.8462C39.2303 35.3846 39.1534 35 39.1534 34.6154C39.1534 34.4616 39.1534 28.6923 39.1534 29.077C39.1534 26.077 39.1534 23.1539 39.0765 20.1539C38.9996 14.6923 38.9226 10.3077 38.9226 4.5385C38.9996 3.76927 38.6919 2.84619 38.1534 2.23081C37.6149 1.61542 36.8457 1.15388 35.9996 1.07696C35.538 1.00004 35.2303 1.07696 34.8457 1.07696H33.7688C27.9226 1.23081 25.9226 1.23081 20.3842 1.38465C25.9226 1.5385 27.9226 1.5385 33.7688 1.69235H34.8457C35.2303 1.69235 35.6149 1.69235 35.9226 1.76927C36.538 1.84619 37.1534 2.23081 37.538 2.76927C37.9226 3.30773 38.0765 3.92311 38.0765 4.61542C38.0765 4.76927 37.9996 11.3847 37.9996 11.3077L37.9226 20.2308C37.8457 27.4616 37.8457 27.7693 37.8457 33.6154V34.6923V35.6923C37.6919 36.5385 37.1534 37.2308 36.2303 37.5385C36.0765 37.6154 35.9226 37.6154 35.8457 37.6154H35.6149C30.6149 37.6154 28.538 37.6154 28.6919 37.6154H19.7688C19.6919 37.6154 5.23032 37.6923 5.30724 37.6923C4.92263 37.6923 4.53801 37.6923 4.30724 37.6923C3.46109 37.6154 2.76878 37 2.46109 36.1539C2.38417 36 2.38417 35.8462 2.38417 35.7693V35.5385C2.38417 34.7693 2.38417 32.9231 2.38417 33C2.38417 27.3846 2.38417 25.7693 2.30724 19.6154C2.1534 19.2308 1.99955 4.84619 1.99955 5.00004C1.99955 4.61542 1.99955 4.23081 1.99955 3.92311C2.07647 3.30773 2.38417 2.69234 2.92263 2.30773C3.46109 1.92311 4.07647 1.69235 4.76878 1.69235L6.99955 1.61542C12.7688 1.5385 14.8457 1.46158 20.3072 1.30773C17.3072 1.23081 14.3842 1.15388 11.3842 1.07696C11.0765 1.07696 4.30724 0.923114 4.69186 0.923114C3.92263 0.846191 2.99955 1.07696 2.38417 1.61542C1.76878 2.15388 1.30724 2.92311 1.1534 3.76927C1.07647 4.23081 1.1534 4.61542 1.1534 5.00004V6.07696L1.07647 10.5385L0.922626 19.4616C0.922626 22.4616 0.845703 25.3846 0.845703 28.3846C0.845703 28.4616 0.845703 35.4616 0.845703 35.3846V35.6923C0.922626 35.9231 0.922626 36.1539 0.999549 36.3846Z" fill="#26848B"></path> <path d="M4.61493 19.7693C4.53801 23.8462 6.15339 27.8462 9.07647 30.7693C11.9226 33.6923 15.9996 35.3846 20.0765 35.3846C24.1534 35.3846 28.2303 33.6923 30.9996 30.7693C33.8457 27.8462 35.4611 23.8462 35.3842 19.7693C35.3842 15.7693 33.615 11.7693 30.6919 9.07696C27.8457 6.30773 23.8457 4.84619 19.9996 5.00004C21.9226 5.07696 23.8457 5.5385 25.538 6.30773C27.3073 7.07696 28.8457 8.2308 30.1534 9.61542C32.7688 12.3077 34.2303 16.077 34.1534 19.7693C34.0765 23.4616 32.538 27.1539 29.9226 29.6923C27.3073 32.3077 23.6919 33.8462 19.9996 33.7693C16.3072 33.7693 12.6919 32.3077 10.0765 29.6923C7.46109 27.1539 5.92262 23.4616 5.8457 19.7693C5.76878 16.077 7.23032 12.3077 9.8457 9.61542C11.1534 8.2308 12.6919 7.07696 14.4611 6.30773C16.2303 5.5385 18.0765 5.07696 19.9996 5.00004C16.1534 4.84619 12.1534 6.30773 9.30724 9.07696C6.38416 11.8462 4.69185 15.7693 4.61493 19.7693Z" fill="#26848B"></path> <path d="M34.2299 6.69242C34.5375 6.53857 34.6914 6.30781 34.8452 6.15396C34.9222 6.00011 34.9991 5.76934 34.9991 5.6155C34.9991 5.46165 34.9222 5.23088 34.8452 5.07704C34.6914 4.92319 34.5375 4.69242 34.2299 4.53857C33.9222 4.69242 33.7683 4.92319 33.6145 5.07704C33.3837 5.46165 33.3837 5.84627 33.6145 6.15396C33.7683 6.38473 33.9222 6.53857 34.2299 6.69242Z" fill="#26848B"></path> <path d="M5.76893 6.69242C6.07663 6.53857 6.23047 6.38473 6.38432 6.15396C6.61509 5.76934 6.61509 5.38473 6.38432 5.07704C6.23047 4.92319 6.07663 4.69242 5.76893 4.53857C5.46124 4.69242 5.30739 4.92319 5.15355 5.07704C4.92278 5.46165 4.92278 5.84627 5.15355 6.15396C5.30739 6.38473 5.46124 6.53857 5.76893 6.69242Z" fill="#26848B"></path> <path d="M34.2299 32.8462C33.9222 33 33.7683 33.2308 33.6145 33.3847C33.3837 33.7693 33.3837 34.1539 33.6145 34.4616C33.7683 34.6154 33.9222 34.8462 34.2299 35C34.5376 34.8462 34.6914 34.6154 34.8452 34.4616C35.076 34.077 35.076 33.6924 34.8452 33.3847C34.6914 33.2308 34.5376 33.077 34.2299 32.8462Z" fill="#26848B"></path> <path d="M5.76893 32.8462C5.46124 33 5.30739 33.2308 5.15355 33.3847C4.92278 33.7693 4.92278 34.1539 5.15355 34.4616C5.30739 34.6154 5.46124 34.8462 5.76893 35C6.07663 34.8462 6.23047 34.6154 6.38432 34.4616C6.61509 34.077 6.61509 33.6924 6.38432 33.3847C6.23047 33.2308 6.07663 33.077 5.76893 32.8462Z" fill="#26848B"></path> <path d="M17.0766 8.7692C17.7689 9.07689 18.3843 9.46151 18.9227 9.99997C19.4612 10.5384 19.9227 11.1538 20.3074 11.8461C20.9997 13.1538 21.3843 14.6923 21.3074 16.3077C20.9227 16.0769 20.4612 15.923 19.9997 15.923C19.1535 15.8461 18.2304 16.0769 17.4612 16.6154C16.5381 15.6154 15.3843 14.8461 14.1535 14.3077C12.692 13.6923 11.1535 13.3077 9.53813 13.2307C9.30736 13.2307 9.07659 13.3077 8.92275 13.5384C8.53813 14.2307 8.15352 14.923 7.92275 15.6154C7.69198 16.3846 7.46121 17.0769 7.38429 17.923C7.23044 18.6923 7.23044 19.4615 7.30736 20.2307C7.30736 21 7.46121 21.7692 7.69198 22.5384V22.6154C7.7689 22.8461 7.92275 23 8.07659 23.0769C8.46121 23.2307 8.84582 23.0769 8.99967 22.6923C9.30736 22 9.69198 21.3846 10.2304 20.8461C10.7689 20.3077 11.3843 19.8461 12.0766 19.4615C13.2304 18.8461 14.6151 18.5384 16.0766 18.4615C15.9227 18.8461 15.8458 19.3077 15.7689 19.7692C15.7689 20.6923 16.0766 21.6923 16.692 22.4615C15.7689 23.3846 14.9997 24.4615 14.4612 25.6154C13.8458 27.0769 13.4612 28.6154 13.3843 30.2307C13.3843 30.4615 13.4612 30.6923 13.692 30.8461C14.3843 31.2307 15.0766 31.6153 15.7689 31.8461C16.5381 32.0769 17.3074 32.3077 18.0766 32.3846C18.8458 32.5384 19.615 32.5384 20.4612 32.4615C21.8458 32.3846 22.7689 32.1538 22.8458 32.0769C23.0766 32 23.2304 31.8461 23.3074 31.6923C23.4612 31.3077 23.3074 30.923 22.9227 30.7692C22.2304 30.4615 21.615 30.0769 21.0766 29.5384C20.5381 29 20.0766 28.3846 19.692 27.6923C19.0766 26.5384 18.7689 25.1538 18.692 23.7692C19.0766 23.923 19.5381 24 19.9997 23.923C20.9227 23.923 21.8458 23.5384 22.5381 22.923C23.4612 23.8461 24.615 24.6923 25.8458 25.2307C27.3074 25.8461 28.8458 26.2307 30.4612 26.3077C30.692 26.3077 30.9227 26.2307 31.0766 26C31.4612 25.3077 31.8458 24.6154 32.0766 23.923C32.3074 23.1538 32.5381 22.4615 32.615 21.6154C32.7689 20.8461 32.7689 20.0769 32.692 19.3077C32.692 18.5384 32.5381 17.7692 32.3074 17V16.923C32.2304 16.6923 32.0766 16.5384 31.9227 16.4615C31.5381 16.3077 31.1535 16.4615 30.9997 16.8461C30.692 17.5384 30.3074 18.1538 29.7689 18.6923C29.2304 19.2307 28.615 19.6923 27.9227 20.0769C26.692 20.7692 25.2304 21.0769 23.692 21.0769C23.7689 20.6154 23.8458 20.2307 23.8458 19.7692C23.7689 18.923 23.3843 18.1538 22.7689 17.6154C23.9227 16.6154 24.8458 15.3846 25.4612 13.923C26.0766 12.4615 26.4612 10.923 26.5381 9.30766C26.5381 9.07689 26.4612 8.84612 26.2304 8.69228C25.5381 8.30766 24.8458 7.92305 24.1535 7.69228C23.3843 7.46151 22.615 7.23074 21.8458 7.15382C21.0766 6.99997 20.3074 6.99997 19.5381 7.07689C18.7689 7.07689 17.9997 7.23074 17.2304 7.46151H17.1535C16.9227 7.53843 16.7689 7.69228 16.692 7.84612C16.5381 8.15382 16.692 8.61536 17.0766 8.7692ZM11.692 18.6154C10.8458 18.923 10.0766 19.3846 9.38428 20C9.15352 20.1538 8.99967 20.3846 8.84582 20.5384C8.7689 19.7692 8.84582 18.923 8.92275 18.1538C8.99967 17.4615 9.15352 16.7692 9.38428 16.1538C9.53813 15.6154 9.7689 15.0769 9.99967 14.6154C11.3074 14.6154 12.6151 14.7692 13.8458 15.1538C15.0766 15.5384 16.2304 16.0769 17.3843 16.7692C17.3074 16.8461 17.2304 16.8461 17.1535 16.923C16.692 17.3077 16.3843 17.7692 16.1535 18.3077C14.692 18 13.0766 18.0769 11.692 18.6154ZM18.8458 28.1538C19.1535 29 19.615 29.7692 20.2304 30.4615C20.3843 30.6923 20.615 30.8461 20.7689 31C19.9997 31.0769 19.1535 31 18.3843 30.923C17.692 30.8461 16.9997 30.6923 16.3843 30.4615C15.8458 30.3077 15.3074 30.0769 14.8458 29.8461C14.8458 28.5384 14.9997 27.2307 15.3843 26C15.692 24.8461 16.2304 23.6923 16.8458 22.6923C16.9227 22.7692 16.9227 22.8461 16.9997 22.923C17.4612 23.3077 17.9227 23.6923 18.5381 23.8461C18.2304 25.1538 18.3074 26.6923 18.8458 28.1538ZM28.3074 20.923C29.1535 20.6154 29.9227 20.1538 30.615 19.5384C30.8458 19.3846 30.9997 19.1538 31.1535 19C31.2304 19.7692 31.1535 20.6154 31.0766 21.3846C30.9997 22.0769 30.8458 22.7692 30.615 23.3846C30.4612 23.923 30.2304 24.4615 29.9997 24.923C28.692 24.923 27.3843 24.7692 26.1535 24.3846C24.9227 24 23.7689 23.5384 22.692 22.8461C22.7689 22.7692 22.8458 22.6923 22.9227 22.6154C23.3074 22.2307 23.5381 21.6923 23.7689 21.1538C25.2304 21.6154 26.8458 21.5384 28.3074 20.923ZM21.615 8.69228C22.3074 8.7692 22.9997 8.92305 23.615 9.15382C24.1535 9.30766 24.692 9.53843 25.1535 9.7692C25.1535 11.0769 24.9997 12.3846 24.615 13.6154C24.2304 15 23.615 16.3077 22.7689 17.6154C22.692 17.5384 22.5381 17.3846 22.4612 17.3077C22.9997 18.0769 23.2304 18.923 23.0766 19.7692C22.9997 20.6154 22.615 21.3077 21.9997 21.8461C20.8458 22.8461 18.9997 22.7692 17.9997 21.6923C16.9227 20.6923 16.8458 18.8461 17.8458 17.6923C18.3074 17.1538 19.0766 16.6923 19.9227 16.6154C20.7689 16.5384 21.615 16.7692 22.3843 17.2307C22.0766 16.8461 21.7689 16.5384 21.3074 16.2307C21.7689 14.6923 21.692 12.923 21.0766 11.3077C20.7689 10.4615 20.3074 9.69228 19.692 8.99997C19.5381 8.7692 19.3074 8.61536 19.1535 8.46151C20.0766 8.53843 20.8458 8.53843 21.615 8.69228Z" fill="#26848B"></path> </svg>