<svg width="60" height="60" viewBox="0 0 60 60" fill="none" xmlns="http://www.w3.org/2000/svg">
<path d="M53.2606 28.6663C53.3067 25.8263 53.5618 12.4586 53.5273 10.2636C53.4789 9.13051 53.0082 8.0083 52.2157 7.18699C51.4328 6.35769 50.3415 5.81843 49.1975 5.7023L48.7686 5.67753L48.4219 5.67321C48.2759 5.67185 46.2645 5.65312 46.3765 5.65416L40.9221 5.63106L30.013 5.59863L19.1041 5.63212L13.6496 5.65716C13.5036 5.65851 11.4922 5.67711 11.6042 5.67609L11.2576 5.68033L10.8289 5.7051C9.68553 5.82116 8.59475 6.36002 7.81239 7.18885C7.02018 8.00963 6.54969 9.13117 6.50129 10.2637C6.46714 12.4381 6.71751 25.5291 6.76816 28.6386C5.0975 29.146 3.68639 30.4636 3.15958 32.1316C2.99352 32.6578 2.88958 33.2073 2.88965 33.7577L2.89717 35.1391L2.92787 37.8666C3.01782 44.0407 2.99631 42.5646 3.0872 48.8033L3.08734 48.8087C3.09612 49.2108 3.42924 49.5296 3.83134 49.5208C4.91972 49.4969 6.00823 49.4766 7.09661 49.4554C7.07597 49.9602 7.0534 50.4649 7.04481 50.9696L7.03103 52.067C7.04355 52.2636 6.99321 52.35 7.07251 52.8454C7.15727 53.2442 7.36888 53.6139 7.6695 53.8838C7.96587 54.1577 8.35425 54.3359 8.75635 54.3857C8.84524 54.3992 8.98247 54.4016 9.03187 54.4018L9.16903 54.4007L9.44343 54.3986L10.5407 54.3766C11.2723 54.3676 12.0038 54.3195 12.7354 54.2901C14.0199 54.243 14.4893 54.1879 16.0274 54.0745L16.3017 54.0496C16.3835 54.0382 16.4773 54.037 16.6656 54.0067C17.3154 53.8844 17.8103 53.3728 17.908 52.7386C17.9473 52.3955 17.8972 52.2372 17.8788 52.0296L17.7153 50.8546L17.4315 49.2162C20.9235 49.1083 26.4733 48.9924 31.6393 48.7764C27.0046 48.5826 22.3699 48.4794 17.7353 48.344C16.387 48.3014 15.0387 48.2751 13.6904 48.2434C13.4544 48.2147 13.2332 48.1802 12.9926 48.1538C11.4273 47.9728 9.77255 47.8377 8.11568 47.7792C7.82271 47.769 7.56443 47.9004 7.38093 48.103C6.44935 48.0849 5.51791 48.0667 4.58634 48.0471C4.60263 46.9059 4.52732 52.1811 4.74567 36.8862C8.80449 37.2811 12.8633 37.5045 16.9221 37.6531C21.2858 37.8265 25.6494 37.873 30.013 37.8921C34.3767 37.8703 38.7403 37.8239 43.1039 37.6498C47.1763 37.5001 51.2487 37.2771 55.3211 36.882C55.5691 52.2702 55.4835 46.9628 55.502 48.1109C53.1723 48.1553 50.8424 48.2194 48.5126 48.2777C48.1891 48.2368 47.8807 48.1903 47.5481 48.1538C45.9828 47.9728 44.3281 47.8377 42.6711 47.7792C42.2352 47.7641 41.8697 48.0507 41.7409 48.4489C38.3737 48.5423 35.0065 48.6355 31.6393 48.7764C34.9809 48.9161 38.3226 49.0088 41.6642 49.1016C41.6346 49.7243 41.6109 50.347 41.6003 50.9696L41.5865 52.067C41.5991 52.2636 41.5487 52.35 41.628 52.8454C41.8073 53.6891 42.5094 54.2863 43.3119 54.3857C43.4007 54.3992 43.538 54.4016 43.5874 54.4018L43.7246 54.4007L43.9989 54.3986L45.0962 54.3766C45.8278 54.3676 46.5593 54.3195 47.2909 54.2901C48.578 54.2429 49.0621 54.1866 50.5828 54.0745L50.8572 54.0496C50.9389 54.0382 51.0327 54.037 51.221 54.0067C51.8722 53.8842 52.3659 53.3715 52.4635 52.7386C52.5028 52.3955 52.4526 52.2372 52.4343 52.0296L52.2707 50.8546L52.0117 49.3585C53.4061 49.3885 54.8004 49.4323 56.1948 49.4583H56.1964C56.566 49.4643 56.8705 49.1696 56.8765 48.8C57.1844 29.8677 57.0035 40.9333 57.0942 35.1391L57.1097 33.7582C57.1108 33.2104 57.0066 32.6636 56.8417 32.14C56.3186 30.4833 54.9189 29.1735 53.2606 28.6663ZM8.29885 18.4977L8.37576 13.0432C8.38834 12.1576 8.38328 11.1724 8.41038 10.3686C8.45353 9.68715 8.74336 9.02896 9.2267 8.54936C9.70417 8.06536 10.3484 7.76594 11.0168 7.70927L11.2691 7.69962L11.6042 7.70168L12.286 7.70801L13.6496 7.72059L19.1041 7.74556L30.013 7.77912L40.9221 7.74669L46.3765 7.72359C46.5226 7.72222 48.5339 7.70343 48.4219 7.70448L48.757 7.70242L49.0091 7.71207C50.3649 7.82686 51.5211 8.91564 51.6133 10.3688C51.6404 11.1722 51.6354 12.1577 51.648 13.0432L51.7239 18.4977L51.8975 28.4345C47.4256 28.336 21.3429 28.2634 8.17307 28.4041C8.15723 28.4043 8.14185 28.4083 8.126 28.4087L8.29885 18.4977ZM9.03387 52.2343C9.03427 52.2343 9.03447 52.2347 9.03487 52.2347H9.03187C8.99006 52.2325 9.03387 52.2343 9.03387 52.2343ZM16.9949 51.0844L16.8314 52.1041C16.7902 52.5213 16.745 52.5465 16.6285 52.6069C16.5777 52.6293 16.5259 52.627 16.4857 52.6132C16.4924 52.6055 16.4026 52.5973 16.3017 52.5869L16.0274 52.5621L14.93 52.479C14.1984 52.416 13.467 52.3732 12.7354 52.3464C12.0038 52.317 11.2723 52.269 10.5407 52.2599L9.44343 52.2379L9.20193 52.2361C9.17897 50.3304 9.18872 50.9581 9.143 49.7029C10.23 49.6318 11.326 49.5336 12.4781 49.3959L13.0292 49.3257C14.4497 49.2937 15.87 49.2631 17.2904 49.2197C17.1964 49.8829 17.091 50.5121 16.9949 51.0844ZM43.1039 35.9537C38.7403 35.7797 34.3767 35.7333 30.013 35.7115C25.6494 35.7306 21.2858 35.777 16.9221 35.9505C12.8639 36.0992 8.80575 36.3224 4.74754 36.7172C4.74883 36.6052 4.78359 33.6064 4.78143 33.7934C4.78596 33.4327 4.86472 33.081 4.97525 32.7437C5.43481 31.3842 6.79685 30.4051 8.21449 30.4156L30.013 30.492L51.8122 30.3897C53.2405 30.3792 54.6128 31.3655 55.0758 32.7353C55.1874 33.0751 55.2659 33.4296 55.2715 33.7929L55.2956 35.1391L55.3187 36.7214C51.2471 36.3265 47.1755 36.1035 43.1039 35.9537ZM43.5894 52.2343C43.5898 52.2343 43.59 52.2347 43.5904 52.2347H43.5874C43.5456 52.2325 43.5894 52.2343 43.5894 52.2343ZM51.5504 51.0844L51.3868 52.1041C51.3456 52.5213 51.3005 52.5465 51.184 52.6069C51.1332 52.6293 51.0813 52.627 51.0411 52.6132C51.0479 52.6055 50.9581 52.5973 50.8572 52.5869L50.5828 52.5621C49.1442 52.456 48.6004 52.3944 47.2909 52.3464C46.5593 52.317 45.8278 52.269 45.0962 52.2599L43.9989 52.2379L43.7575 52.2361C43.7345 50.3288 43.7439 50.951 43.6985 49.7029C44.7855 49.6318 45.8815 49.5336 47.0337 49.3959L48.0664 49.2644C49.3197 49.2964 50.573 49.3268 51.8264 49.3541C51.7369 49.9661 51.6399 50.5512 51.5504 51.0844Z" fill="#26848B"/>
<path d="M17.3606 21.4964C18.1151 22.4045 18.84 23.3347 19.6277 24.218L19.7169 24.3184C20.0707 24.7106 20.699 24.659 20.985 24.218C22.0973 22.5023 23.157 20.7472 24.1063 18.9093C24.869 20.0589 25.6729 21.1777 26.4548 22.313L29.141 25.9929C29.5843 26.5939 30.4618 26.5757 30.886 25.9929C31.7798 24.765 32.6877 23.5478 33.5698 22.3112C34.3531 21.1767 35.1554 20.0565 35.9183 18.9069C36.8665 20.747 37.926 22.5036 39.0394 24.2199C39.3351 24.6702 39.9649 24.7094 40.3144 24.318L40.402 24.2199C41.1903 23.3372 41.9129 22.4052 42.6687 21.4982C43.4009 20.5733 44.1146 19.6347 44.836 18.7018C45.1261 18.3264 45.1407 17.7858 44.836 17.3939C44.1119 16.463 43.402 15.5215 42.6664 14.5994C41.9119 13.6913 41.1869 12.7611 40.3993 11.8778L40.3101 11.7774C39.9583 11.3868 39.3291 11.435 39.042 11.8778C37.9203 13.608 36.8522 15.3782 35.8967 17.233C34.0274 15.0054 32.1001 12.8213 30.0135 10.7566C31.3653 13.2573 32.8677 15.6454 34.4262 17.9912C33.5752 19.0073 32.7563 20.0476 31.9214 21.0758C31.277 21.8947 30.6471 22.7244 30.0141 23.5519L28.108 21.074C27.2723 20.0473 26.4554 19.0065 25.6047 17.9911C27.1631 15.6461 28.664 13.2581 30.0135 10.7566C27.9254 12.8192 25.9977 15.002 24.1292 17.2291C23.1758 15.3743 22.109 13.6046 20.9876 11.8759C20.6923 11.4262 20.0626 11.3859 19.7126 11.7778L19.6251 11.8759C18.8367 12.7586 18.114 13.6905 17.3582 14.5976C16.6261 15.5224 15.9123 16.461 15.1909 17.3939C14.9007 17.7693 14.8862 18.3099 15.1909 18.7018C15.915 19.6327 16.6249 20.5742 17.3606 21.4964ZM39.6244 13.7778C40.0845 14.4668 40.555 15.1479 41.0179 15.8347C41.5416 16.5795 42.0819 17.3118 42.6179 18.0472C42.0813 18.7827 41.5421 19.5163 41.0155 20.2592C40.5543 20.9456 40.084 21.6252 39.6242 22.3127C38.5058 21.0458 37.342 19.8131 36.1008 18.6382C36.1188 18.6107 36.1382 18.5841 36.1562 18.5565L36.2124 18.4705C36.3953 18.1891 36.3827 17.8103 36.1562 17.5392C36.1352 17.514 36.1136 17.4893 36.0926 17.4641C37.3364 16.2852 38.5027 15.0483 39.6244 13.7778ZM20.4028 13.7831C21.5228 15.0516 22.6881 16.2862 23.9314 17.4624C23.9105 17.4875 23.8889 17.5122 23.868 17.5372C23.6524 17.796 23.619 18.1754 23.8122 18.4725L23.868 18.5585C23.8862 18.5864 23.906 18.6133 23.9242 18.6412C22.6842 19.8172 21.5211 21.0508 20.4026 22.3179C19.9425 21.629 19.4719 20.9478 19.009 20.261C18.4853 19.5162 17.9451 18.7839 17.409 18.0484C17.9456 17.313 18.4848 16.5795 19.0114 15.8365C19.4726 15.1501 19.943 14.4706 20.4028 13.7831Z" fill="#26848B"/>
</svg>
