<svg width="39" height="38" viewBox="0 0 39 38" fill="none" xmlns="http://www.w3.org/2000/svg"> <path d="M38.1539 11.6923L36.6154 7.76919C36.077 6.4615 35.5385 5.15381 35.0001 3.92304L34.2308 1.99996L34.1539 1.76919L34.077 1.61534L34.0001 1.4615C33.8462 1.23073 33.6924 0.999959 33.4616 0.846113C33.0001 0.53842 32.4616 0.384574 31.9231 0.461497C31.6924 0.53842 31.3847 0.615343 31.1539 0.76919C30.9231 0.923036 30.7693 1.15381 30.6924 1.30765L30.0001 2.07688L28.6924 3.76919C27.8462 4.84611 27.0001 5.99996 26.1539 7.07688C26.077 7.15381 26.077 7.23073 26.077 7.38458C23.5385 8.15381 21.0001 8.61535 18.3847 8.84612C17.0001 8.92304 15.6924 8.92304 14.3077 8.92304C12.9231 8.92304 11.4616 9.15381 10.1539 9.4615C8.76928 9.76919 7.46159 10.2307 6.1539 10.923C4.8462 11.5384 3.61543 12.3846 2.69236 13.5384C2.1539 14.0769 1.76928 14.7692 1.46159 15.4615C1.1539 16.1538 0.923126 16.923 0.923126 17.6923C0.76928 19.2307 1.15389 20.6923 1.61543 22.0769C2.1539 23.3846 2.92313 24.7692 4.07697 25.7692C4.61543 26.3077 5.30774 26.6923 6.00005 27C6.69236 27.3077 7.46159 27.4615 8.23082 27.5384C9.76928 27.6923 11.2308 27.4615 12.6154 27C13.0001 26.8461 13.4616 26.6923 13.8462 26.5384C14.5385 28 15.4616 29.3077 16.3077 30.6154C15.5385 31.1538 14.9231 31.6923 14.3077 32.2307C13.5385 32.923 12.8462 33.5384 12.077 34.1538C11.3077 34.7692 10.5385 35.2307 9.69236 35.6154C8.8462 36 7.92313 36.3077 6.8462 36.3846C7.76928 36.923 9.00005 36.923 10.0001 36.6923C11.077 36.4615 12.077 35.923 12.9231 35.2307C13.7693 34.5384 14.4616 33.7692 15.077 32.923C15.5385 32.2307 16.0001 31.4615 16.3847 30.6923C17.2308 32 17.4616 32.4615 17.9231 33.3846C18.2308 33.923 18.4616 34.3846 18.6924 34.923C18.8462 35.1538 18.9231 35.4615 19.0001 35.6923C19.077 35.8461 19.1539 36.0769 19.3077 36.2307C19.4616 36.3846 19.6154 36.5384 19.8462 36.6923C20.6924 37.1538 21.8462 36.9231 22.3847 36.2307C22.6154 36 22.7693 35.7692 22.9231 35.5384C23.4616 36.3077 24.2308 36.923 25.1539 37.2307C26.3077 37.6154 27.6154 37.4615 28.7693 36.923C29.9231 36.3846 30.8462 35.4615 31.3847 34.3077C31.9231 33.1538 32.0001 31.8461 31.7693 30.6154C31.5385 29.3846 30.8462 28.2307 30.0001 27.3846C29.077 26.5384 28.0001 25.923 26.8462 25.6154C24.6924 25 22.4616 25.5384 20.7693 26.6923C20.5385 26.4615 20.3077 26.2307 20.077 26.0769C19.3847 25.4615 18.6154 24.8461 17.9231 24.3077C18.6154 23.8461 19.2308 23.3077 19.8462 22.7692C20.8462 21.7692 21.8462 20.923 22.9231 20.0769C25.0001 18.3846 27.3077 16.923 29.7693 15.7692C31.077 16 32.3847 16.1538 33.6924 16.3846L35.7693 16.6923C35.8462 16.6923 37.0001 16.8461 36.9231 16.8461H37.1539H37.5385C38.3077 16.6923 38.9231 16 39.0001 15.1538C39.0001 14.923 39.0001 14.6153 38.9231 14.3846L38.6924 13.8461L38.1539 11.6923ZM26.5385 26.7692C28.4616 27.5384 30.0001 29.0769 30.3077 31C30.6924 32.923 30.0001 35 28.2308 36C27.3847 36.5384 26.3847 36.7692 25.3847 36.6154C24.5385 36.5384 23.7693 36.0769 23.077 35.5384C23.5385 34.6154 23.7693 33.5384 23.6924 32.6154C23.6154 31.3077 23.2308 30 22.5385 28.923C22.077 28.1538 21.5385 27.5384 20.9231 26.923C22.8462 26.2307 24.8462 26.1538 26.5385 26.7692ZM19.3077 26.8461C20.077 27.6923 20.7693 28.6154 21.3077 29.5384C21.8462 30.4615 22.1539 31.5384 22.1539 32.6154C22.1539 33.6154 21.9231 34.6923 21.3077 35.3846C21.1539 35.6154 20.8462 35.6154 20.6154 35.5384C20.5385 35.5384 20.5385 35.4615 20.4616 35.3846C20.3847 35.3077 20.3847 35.3077 20.3077 35.2307C20.1539 35 20.077 34.6923 19.9231 34.3846C19.6154 33.8461 19.3077 33.3077 19.0001 32.7692C18.6924 32.3077 18.3847 31.7692 18.0001 31.2307C17.3077 30.2307 16.4616 29.3077 15.6924 28.4615C15.077 27.7692 14.4616 27.0769 13.9231 26.3077C15.1539 25.8461 16.1539 25.3077 17.2308 24.6154C18.0001 25.4615 18.6924 26.1538 19.3077 26.8461ZM22.3077 19.1538C21.2308 20 20.077 20.923 19.077 21.7692C18.077 22.6154 17.0001 23.3846 15.7693 24C14.6154 24.6154 13.3847 25.1538 12.1539 25.5384C10.9231 25.923 9.61543 26.0769 8.38467 25.923C7.76928 25.8461 7.1539 25.6923 6.61543 25.4615C6.07697 25.2307 5.53851 24.923 5.07697 24.4615C4.1539 23.6923 3.46159 22.5384 3.00005 21.3846C2.53851 20.1538 2.23082 18.923 2.30774 17.6923C2.30774 17.0769 2.53851 16.4615 2.69236 15.923C2.92313 15.3846 3.23082 14.8461 3.61543 14.3846C3.92313 14 4.30774 13.6153 4.76928 13.2307C5.23082 13.4615 5.69236 13.6153 6.1539 13.8461C8.8462 15.0769 10.3077 16.3846 11.6154 17.3846C11.5385 16.5384 11.1539 15.7692 10.6154 15.1538C9.61544 13.8461 8.07697 12.923 6.46159 12.6923C6.1539 12.6153 5.8462 12.6153 5.53851 12.6153C5.8462 12.3846 6.23082 12.1538 6.61543 12C7.76928 11.3846 9.00005 10.8461 10.3077 10.5384C11.6154 10.1538 12.9231 9.92304 14.2308 9.84612C15.5385 9.76919 17.0001 9.69227 18.3847 9.53842C21.0001 9.15381 23.6154 8.53842 26.0001 7.4615C26.4616 8.4615 27.0001 9.53842 27.4616 10.5384L29.077 15.1538C26.7693 16.1538 24.4616 17.5384 22.3077 19.1538ZM37.6154 15.3077C37.5385 15.3846 37.4616 15.3846 37.3847 15.4615C37.3077 15.4615 37.3078 15.4615 37.2308 15.4615H37.1539C37.077 15.4615 35.9231 15.3846 36.0001 15.3846C35.3077 15.3846 33.077 15.2307 29.9231 15.0769L27.8462 10.4615C27.5385 9.4615 27.1539 8.4615 26.8462 7.38458C27.7693 6.38458 28.6924 5.4615 29.5385 4.4615L30.9231 2.92304L31.6154 2.15381C31.7693 1.99996 31.7693 1.99996 31.8462 1.92304C31.9231 1.84611 32.0001 1.84611 32.077 1.84611C32.2308 1.84611 32.3847 1.84611 32.5385 1.99996C32.6154 1.99996 32.6924 2.07688 32.6924 2.07688V2.15381L32.7693 2.30765L32.8462 2.53842L33.6154 4.4615C34.1539 5.76919 34.6154 7.07688 35.1539 8.38458L36.7693 12.2307L37.6154 14.1538L37.7693 14.6153C37.7693 14.6923 37.8462 14.7692 37.8462 14.8461C37.8462 15 37.7693 15.2307 37.6154 15.3077Z" fill="#26848B"></path> </svg>