<svg width="22" height="38" viewBox="0 0 22 38" fill="none" xmlns="http://www.w3.org/2000/svg"> <path d="M18.0003 9.84612C17.6926 9.76919 17.385 9.76919 17.1542 9.76919C17.0773 9.76919 15.8465 9.76919 15.9234 9.76919C15.9234 9.38458 16.0003 8.92304 16.0003 8.53842V8.07688C16.0003 7.99996 16.0003 7.92304 16.0003 7.76919C15.9234 7.15381 15.6157 6.53842 15.1542 6.23073C14.9234 6.07688 14.6926 5.99996 14.4619 5.92304C14.2311 5.84612 13.9234 5.84612 13.7696 5.84612H13.0003C13.308 3.92304 13.385 2.92304 13.4619 1.53842C15.308 1.4615 17.1542 1.23073 19.0003 0.923039C16.6926 0.461501 14.308 0.307655 12.0003 0.230732C11.0773 0.153809 10.2311 0.153809 9.30804 0.153809H8.53881C8.53881 0.153809 8.53881 0.153809 8.46188 0.153809H6.69265L4.92342 0.230732H4.8465C4.69265 0.230732 4.53881 0.307655 4.46188 0.384578C3.76958 1.15381 3.15419 1.84612 2.53881 2.69227C1.92342 3.4615 1.30804 4.23073 0.769578 5.07688C1.61573 4.53842 2.38496 3.92304 3.15419 3.30765C3.8465 2.76919 4.53881 2.15381 5.15419 1.53842L6.69265 1.61535H7.76957C7.92342 2.23073 7.92342 2.92304 7.92342 3.61535C7.92342 4.30765 8.00034 4.99996 8.07727 5.69227H7.8465C7.69265 5.69227 7.38496 5.69227 7.15419 5.76919C6.38496 5.99996 5.8465 6.53842 5.69265 7.30765C5.69265 7.4615 5.61573 7.53842 5.61573 7.69227V7.99996V8.4615L5.69265 9.69227C5.61573 9.69227 4.76958 9.69227 4.8465 9.69227C4.61573 9.69227 4.30804 9.69227 4.00035 9.76919C3.46188 9.84612 2.92342 10.0769 2.46188 10.3846C1.53881 11 0.846501 11.923 0.615732 13C0.461886 13.5384 0.461885 14.0769 0.538808 14.6153L0.769578 15.923C0.923424 16.8461 1.00035 17.6923 1.07727 18.6153C1.23112 20.3846 1.38496 22.2307 1.38496 24C1.38496 25.7692 1.38496 27.6153 1.23112 29.3846C1.15419 30.3077 1.07727 31.1538 1.00035 32.0769L0.923424 33.6153C0.846501 34.0769 0.846501 34.6153 1.00035 35.1538C1.23112 36.1538 1.92342 37 2.76958 37.4615C3.23112 37.6923 3.69265 37.8461 4.15419 37.923C4.61573 38 5.07727 37.923 5.53881 37.923C7.38496 37.8461 9.15419 37.7692 11.0003 37.6923C9.15419 37.6153 7.38496 37.5384 5.53881 37.4615C5.07727 37.4615 4.61573 37.4615 4.23112 37.3846C3.8465 37.3077 3.38496 37.1538 3.07727 36.923C2.38496 36.4615 1.92342 35.6923 1.76958 34.923C1.69265 34.5384 1.69265 34.1538 1.76958 33.6923L2.00035 32.3077C2.38496 29.5384 2.61573 27.1538 2.69265 24.0769C2.76958 21.1538 2.61573 18.6153 2.23112 15.7692L2.07727 14.3846C2.00035 14 2.00035 13.6153 2.15419 13.3077C2.30804 12.6153 2.76958 12 3.38496 11.6153C3.69265 11.4615 4.00035 11.3077 4.38496 11.2307C4.53881 11.2307 4.69265 11.2307 4.92342 11.1538H5.61573H11.0773H16.5388H17.2311C17.4619 11.1538 17.6157 11.1538 17.7696 11.2307C18.1542 11.3077 18.4619 11.3846 18.7696 11.6153C19.385 12 19.8465 12.6153 20.0003 13.3077C20.0773 13.6923 20.0773 14 20.0773 14.3846L19.9234 15.7692C19.6157 18.5384 19.4619 21.1538 19.4619 24.0769C19.5388 27.0769 19.7696 29.5384 20.1542 32.3077L20.385 33.6923C20.4619 34.0769 20.4619 34.5384 20.385 34.923C20.2311 35.6923 19.7696 36.4615 19.0773 36.923C18.6926 37.1538 18.308 37.3077 17.9234 37.3846C17.308 37.5384 17.0003 37.3846 11.1542 37.6923C13.0003 37.7692 14.7696 37.8461 16.6157 37.923C17.0773 37.923 17.5388 38 18.0003 37.923C18.4619 37.8461 18.9234 37.6923 19.385 37.4615C20.2311 37 20.9234 36.0769 21.1542 35.1538C21.308 34.6923 21.308 34.1538 21.2311 33.6153L21.0773 32.2307C21.0003 31.3077 20.9234 30.4615 20.8465 29.5384C20.6926 27.7692 20.6926 25.923 20.6926 24.1538C20.6926 22.3846 20.8465 20.5384 21.0003 18.7692C21.0773 17.8461 21.2311 17 21.308 16.0769L21.5388 14.7692C21.6157 14.2307 21.6157 13.6923 21.4619 13.1538C21.0003 11.4615 19.6926 10.1538 18.0003 9.84612ZM12.5388 3.4615L12.8465 5.69227H12.7696H10.7696H9.23111C9.30804 4.99996 9.30804 4.30765 9.38496 3.61535C9.38496 2.92304 9.38496 2.23073 9.46188 1.53842C10.308 1.53842 11.2311 1.53842 12.0773 1.4615H12.385C12.385 2.15381 12.4619 2.76919 12.5388 3.4615ZM6.8465 8.53842V8.07688C6.8465 7.99996 6.8465 7.92304 6.8465 7.92304C6.8465 7.84612 6.8465 7.84612 6.8465 7.76919C6.92342 7.53842 7.15419 7.30765 7.38496 7.30765H7.69265H8.69265H10.6927H12.6927H13.6926H14.0003C14.2311 7.38458 14.4619 7.53842 14.5388 7.76919V7.92304V8.07688C14.5388 8.4615 14.6157 9.30765 14.6157 9.84612H10.7696H6.53881L6.8465 8.53842Z" fill="#26848B"></path> <path d="M14.5389 20.5385C13.539 19.6923 12.2313 19.2308 11.0005 19.4615C12.2313 19.6154 13.3082 20.2308 14.0774 21.0769C14.8466 21.9231 15.1543 23.0769 15.0774 24.1539C15.0005 26.3077 13.0774 28.1539 11.0005 28.0769C8.92357 28.1539 7.00049 26.3077 6.92357 24.1539C6.84664 23.0769 7.23126 22 7.92357 21.1539C8.61587 20.3077 9.76972 19.6923 10.9236 19.5385C9.6928 19.3846 8.3851 19.7692 7.3851 20.6154C6.3851 21.4615 5.6928 22.7692 5.6928 24.1539C5.61587 25.5385 6.15433 26.9231 7.15433 28C8.15433 29 9.53895 29.6154 11.0005 29.6154C12.3851 29.6154 13.8466 29 14.8466 28C15.8466 27 16.3851 25.5385 16.3082 24.1539C16.2313 22.7692 15.5389 21.3846 14.5389 20.5385Z" fill="#26848B"></path> </svg>