<svg width="26" height="38" viewBox="0 0 26 38" fill="none" xmlns="http://www.w3.org/2000/svg"> <path d="M23.8252 5.39803C23.93 5.02707 23.932 4.63461 23.8312 4.26256C23.7303 3.8905 23.5303 3.55282 23.2525 3.28556C22.5665 2.66548 21.6875 2.30114 20.764 2.25407C19.3433 2.0905 17.9134 2.02061 16.4835 2.04487C16.8168 -0.264794 14.1799 0.452619 12.7464 0.174287C11.9092 0.130044 10.8729 -0.0383377 10.1428 0.485769C9.66017 0.832181 9.26464 1.66989 9.61367 2.20162C7.4275 2.47938 4.32583 1.45553 2.83063 3.53428C2.68474 3.75008 2.59684 3.99979 2.57539 4.25939C2.55393 4.51899 2.59965 4.77974 2.70813 5.01656C2.25028 5.0691 1.47762 5.018 1.78459 5.70858C1.32458 5.87021 0.946337 6.20585 0.731153 6.64338C0.515968 7.08091 0.48102 7.58539 0.633818 8.04841C0.781623 8.45595 1.04685 8.81056 1.39601 9.06749C1.74518 9.32442 2.16264 9.47216 2.59569 9.49204C2.33717 10.6456 2.27476 11.8344 2.4111 13.0087C2.56037 16.0272 3.27464 19.895 6.65083 20.7903C6.07585 22.7672 5.66858 24.789 5.43333 26.8343C5.17372 26.8607 4.85547 26.9769 4.87665 27.277C1.63097 27.8849 1.19005 32.3689 3.95346 33.9464C3.36929 34.8426 2.85982 36.2354 3.57757 37.1934C3.74045 37.3992 3.95227 37.5608 4.19369 37.6637C4.43512 37.7665 4.69845 37.8073 4.95967 37.7822C5.22089 37.7571 5.47167 37.667 5.68912 37.5202C5.90657 37.3733 6.08377 37.1742 6.20454 36.9413C6.38808 36.5134 6.48556 36.0535 6.49142 35.5879C6.50729 35.4186 6.571 35.2156 6.45851 35.0693C6.42498 35.0162 6.37252 34.9778 6.31175 34.9618C6.25097 34.9459 6.18641 34.9536 6.13112 34.9835C5.86818 35.116 5.86581 35.5797 5.81142 35.8391C5.7685 36.1038 5.68915 36.3613 5.57563 36.6043C5.51241 36.7483 5.40566 36.869 5.27037 36.9494C5.13507 37.0297 4.97801 37.0657 4.82124 37.0522C4.66447 37.0387 4.51585 36.9765 4.39623 36.8743C4.27662 36.772 4.19202 36.6349 4.15431 36.4821C4.0296 35.7139 4.42606 34.9708 4.43862 34.2066C6.64962 35.3423 10.0701 34.2916 10.3282 31.567C10.8345 31.8443 11.5603 31.6965 12.1257 31.7124C13.239 31.7075 14.3506 31.7583 15.4607 31.8648C16.0138 31.897 16.8067 32.2095 17.2385 31.7618C17.8437 33.6832 18.1401 38.0321 20.9625 37.5118C21.0762 37.4862 21.0368 37.3352 20.9372 37.3238C19.3003 37.1357 18.939 34.6606 18.5929 33.405C17.8455 30.7402 17.2406 28.0375 16.7805 25.3084C16.5804 24.0902 16.5786 22.6466 16.1539 21.4691C16.542 21.4437 16.9233 21.4135 17.31 21.3612C18.3198 25.2857 19.3685 29.233 20.6973 33.0718C21.1229 34.3571 22.0923 35.9568 21.4583 37.2896C21.4247 37.3601 21.5265 37.4222 21.5645 37.3517C21.9605 36.4168 22.02 35.3736 21.7328 34.3997C20.6631 29.9649 19.3717 25.5865 17.8637 21.2809C19.6995 20.9815 21.5282 20.2796 22.4419 18.5473C23.7347 15.6934 23.5969 12.4013 23.8956 9.34587C24.3025 9.19545 24.6524 8.92225 24.8971 8.56411C25.1418 8.20598 25.2691 7.78062 25.2614 7.34694C25.2536 6.91327 25.1113 6.49272 24.8539 6.14355C24.5966 5.79437 24.2371 5.53384 23.8252 5.39803ZM10.5174 1.52678C10.9284 0.710756 12.1257 1.05664 12.8626 1.04726C13.5599 1.07043 14.2577 1.04906 14.9555 1.07146C15.6869 1.00942 15.9105 1.36569 15.7912 2.05103C14.0236 2.09027 12.2734 2.09733 10.5128 2.17181C10.5487 1.95161 10.4317 1.74016 10.5174 1.5268L10.5174 1.52678ZM4.39579 3.08697C5.29215 2.80725 6.23521 2.70865 7.17005 2.79693C9.15453 2.77526 11.1361 2.84824 13.1208 2.8379C15.0473 2.8279 16.9789 2.78133 18.9039 2.87784C20.5607 2.96093 23.0939 3.04748 23.0271 5.14679C16.5598 4.60435 10.0619 4.52857 3.58382 4.92004C3.48281 4.13826 3.56421 3.45881 4.39579 3.08697ZM2.57017 6.10028C2.6053 6.08533 2.63618 6.06191 2.66005 6.03212C2.68392 6.00232 2.70004 5.96708 2.70696 5.92953C3.51884 5.91891 4.3324 5.87641 5.14585 5.8249C4.03524 6.46166 2.96061 7.15924 1.92687 7.91443C1.85556 7.96469 1.80481 8.03902 1.78399 8.12374C1.76317 8.20846 1.77367 8.29785 1.81357 8.37543C0.848106 7.66499 1.59594 6.46519 2.57017 6.10028ZM6.034 26.5232C6.44628 24.6619 6.75254 22.7787 6.95132 20.8826C7.47536 21.0273 8.00854 21.1365 8.54724 21.2097C8.03571 23.1084 7.64408 25.0374 7.37467 26.9853C6.92041 26.831 6.44199 26.76 5.96247 26.7758C5.9925 26.6935 6.0164 26.609 6.034 26.5232ZM9.1403 32.4456C8.75647 32.9711 8.22899 33.3745 7.6213 33.6073C7.01362 33.8401 6.35161 33.8925 5.7149 33.758C5.01957 33.6646 4.37598 33.3397 3.88798 32.8357C3.39998 32.3317 3.09605 31.6779 3.02523 30.9799C2.93681 29.3924 4.14137 28.2858 5.54632 27.798C5.61212 27.7771 5.66814 27.7331 5.70402 27.6741C8.38814 27.5496 10.6442 29.8491 9.1403 32.4455V32.4456ZM10.3611 31.2139C10.3815 30.6909 10.3044 30.1687 10.1338 29.6739C10.5612 29.8437 11.021 29.9167 11.48 29.8876C11.2481 30.1379 9.90427 30.8432 10.6337 31.1173C10.5404 31.142 10.4492 31.1743 10.3611 31.2139V31.2139ZM11.9973 30.9712C11.6021 30.971 11.2076 31.0033 10.8178 31.068C11.3922 30.717 11.9405 30.325 12.4585 29.8951C13.0403 29.8867 13.6218 29.8873 14.203 29.8969C13.7353 30.1533 13.338 30.5209 13.0461 30.9673C12.6964 30.9664 12.3466 30.9584 11.9973 30.9712V30.9712ZM13.6392 30.965C14.0519 30.5848 14.6218 30.353 14.908 29.9032C15.3861 29.9375 15.8664 29.9157 16.3394 29.8383C16.0098 30.1598 15.7039 30.5048 15.3978 30.8485C15.3755 30.8751 15.3607 30.9071 15.3549 30.9412C15.3491 30.9754 15.3525 31.0105 15.3648 31.0429C14.7904 31.005 14.215 30.9655 13.6392 30.965L13.6392 30.965ZM15.746 31.0633C16.1318 30.7498 16.5048 30.4223 16.8651 30.0806C16.9576 30.5157 17.0455 30.9509 17.1503 31.3835C16.7261 31.1353 16.2359 31.0235 15.7461 31.0632L15.746 31.0633ZM15.7441 23.5063C15.9633 25.4413 16.295 27.3622 16.6912 29.2684C16.2351 28.9279 15.4979 29.0143 14.9494 28.9875C14.3984 28.9783 13.8474 28.9734 13.2964 28.9727C12.1886 29.0033 11.0195 28.8491 9.99052 29.3267C9.58272 28.4105 8.86433 27.6677 7.96217 27.2297C8.36979 25.2537 8.87823 23.2932 9.27691 21.315C11.3967 21.5771 13.5363 21.6404 15.6679 21.5044C15.6101 22.1723 15.6357 22.8447 15.7441 23.5063ZM22.9786 13.1039C22.5996 15.3201 22.1353 17.9868 20.1758 19.362C19.2656 19.8745 18.2544 20.182 17.213 20.263C14.785 20.5042 12.3395 20.51 9.91047 20.2802C7.58365 20.1008 5.17349 19.7274 4.20322 17.2961C3.19339 14.8396 3.27498 12.1363 3.06327 9.55298C7.63375 9.71923 12.1995 9.80569 16.7716 9.87798C18.8698 9.9884 20.9738 9.90288 23.0561 9.62254C23.1975 10.7807 23.1714 11.9532 22.9786 13.1039V13.1039ZM24.0003 8.35472C23.8771 8.42997 23.7486 8.4963 23.6159 8.55319C23.4978 8.51161 23.3691 8.51177 23.2511 8.55365C23.1332 8.59554 23.0332 8.67661 22.9678 8.78333C22.2923 8.93139 21.6015 8.99829 20.91 8.98262C21.819 8.31037 22.9447 7.74637 23.529 6.74793C23.5624 6.68666 23.5772 6.61701 23.5718 6.54744C23.5663 6.47787 23.5408 6.41139 23.4983 6.35606C23.4557 6.30074 23.398 6.25897 23.3322 6.23583C23.2664 6.21268 23.1952 6.20916 23.1275 6.2257C21.6543 6.70411 20.5638 8.00027 19.4038 8.98223C18.3707 8.99718 17.3369 8.99303 16.303 8.98197C17.2303 8.22987 18.2231 7.56228 19.2694 6.98719C19.7016 6.80801 20.0803 6.5204 20.3688 6.15215C20.3916 6.11225 20.405 6.06769 20.4081 6.02184C20.4111 5.976 20.4037 5.93005 20.3864 5.88749C20.3691 5.84492 20.3423 5.80685 20.3081 5.77615C20.274 5.74545 20.2332 5.72292 20.1891 5.71027C19.2107 5.61235 18.3738 6.35527 17.5839 6.83523C16.796 7.38393 16.0737 8.02112 15.431 8.73433C15.3706 8.79848 15.3352 8.88209 15.3312 8.97005C14.0885 8.9513 12.846 8.93094 11.6036 8.90897C12.9559 8.09658 14.3342 7.3296 15.7161 6.56947C15.9355 6.46852 16.124 6.31072 16.2619 6.11241C16.5333 4.59985 11.2476 8.43311 11.0089 8.90088C9.60707 8.87938 8.20538 8.87145 6.80357 8.84492C8.16205 7.9093 9.7842 7.28848 10.9898 6.16408C11.6046 4.55905 6.04953 8.44367 5.93938 8.83069C4.69185 8.73079 3.34589 8.99624 2.14944 8.56592C3.32394 7.92779 4.44836 7.1661 5.62347 6.51738C6.05399 6.33862 6.44226 6.07159 6.76324 5.73354C12.4341 5.59358 18.2105 5.26229 23.8319 5.99578C24.9719 6.47071 25.1198 7.72178 24.0003 8.35473V8.35472Z" fill="#26848B"></path> <path d="M15.8627 11.7122C15.2514 11.0676 14.2602 11.1281 13.4477 11.1187C12.3777 11.0542 11.3039 11.1255 10.2518 11.3309C10.21 11.3416 10.1738 11.3677 10.1502 11.4039C10.1267 11.4401 10.1177 11.4838 10.1249 11.5264C10.0892 11.5145 10.0511 11.5113 10.0139 11.5172C9.97667 11.523 9.94141 11.5377 9.91108 11.5601C9.88074 11.5824 9.85622 11.6117 9.83958 11.6455C9.82294 11.6793 9.81467 11.7166 9.81546 11.7543C9.86139 13.587 8.94719 15.6815 10.1848 17.3022C11.5159 18.9473 13.8053 18.0263 15.4949 17.7153C15.5759 17.7018 15.6488 17.6583 15.6991 17.5936C15.7277 17.6618 15.7768 17.7195 15.8396 17.7586C15.9025 17.7977 15.9759 17.8162 16.0497 17.8117C16.1236 17.8072 16.1942 17.7799 16.2518 17.7335C16.3094 17.6871 16.3512 17.6239 16.3713 17.5527C16.4871 17.0239 16.533 16.4822 16.508 15.9414C16.5142 15.3964 16.5027 14.8516 16.4735 14.3068C16.429 13.4729 16.4809 12.3641 15.8627 11.7122ZM15.2878 16.9638C12.7843 17.6557 9.78895 18.3157 10.2245 14.5565C10.3388 13.6092 10.5922 12.6383 10.3013 11.6991C10.6651 11.8122 11.044 11.869 11.4249 11.8675C11.0538 12.162 11.0419 18.0863 11.9535 17.1934C12.2464 16.3497 12.1029 15.4079 12.1565 14.5258C12.0832 13.6764 12.3371 12.6661 12.0421 11.8778C12.4605 11.8902 12.8792 11.9039 13.2983 11.891C13.0685 13.1846 13.3599 14.5344 13.3991 15.8433C13.4294 16.2085 13.4372 16.8432 13.7976 17.0441C14.4891 17.2672 14.4064 16.1616 14.3439 15.7499C14.2832 14.4485 14.1107 13.1548 13.8282 11.883C14.3485 11.8064 14.8792 11.9133 15.3291 12.1854C15.5772 12.4633 15.7152 12.8223 15.7173 13.1948C15.7862 14.4905 15.7622 15.7894 15.6454 17.0817C15.601 17.0328 15.5447 16.9963 15.4821 16.9757C15.4194 16.9551 15.3525 16.951 15.2878 16.9638Z" fill="#26848B"></path> </svg>