<svg width="24" height="38" viewBox="0 0 24 38" fill="none" xmlns="http://www.w3.org/2000/svg"> <path d="M23.5762 12.6653C23.655 9.62738 22.4157 6.57735 20.27 4.39402C18.1256 2.20257 15.0734 0.9286 11.9987 0.928467C8.92467 0.930642 5.87127 2.20186 3.72883 4.3954C1.58243 6.57797 0.345125 9.62813 0.423428 12.6653C0.462313 15.7033 1.80118 18.6573 3.96782 20.6958C5.65097 22.2736 7.81574 23.2752 10.0469 23.5813C9.8896 25.1742 9.76815 26.7671 9.69606 28.36C9.62988 29.7345 9.5858 31.109 9.56725 32.4834C8.03484 32.497 7.7518 32.5163 7.44953 32.5234L7.25484 32.5367C7.12571 32.5529 6.99685 32.575 6.87211 32.6134C6.09636 32.8396 5.51333 33.4662 5.34655 34.2105C5.2868 34.4395 5.28467 34.7605 5.29838 34.9104L5.32333 35.4617C5.32664 35.5349 5.37919 36.6946 5.37584 36.6208L5.37615 36.6267C5.39258 36.8871 5.61705 37.085 5.87753 37.0686C6.89773 37.0043 7.91792 36.9547 8.93812 36.8655C9.95832 36.7888 10.9785 36.689 11.9987 36.5644C10.9785 36.4397 9.95832 36.34 8.93812 36.2633C8.09313 36.1894 7.24809 36.1422 6.4031 36.0918L6.43164 35.4617C6.45712 35.1 6.44154 34.6758 6.51514 34.5172C6.5886 34.3052 6.72545 34.1135 6.91451 33.9978C7.00719 33.9391 7.10853 33.8975 7.21298 33.8744C7.26482 33.8609 7.31862 33.8573 7.37176 33.8528L7.58878 33.8558C9.0589 33.9063 10.5291 33.8928 11.9992 33.9144C13.4694 33.895 14.9395 33.9054 16.4097 33.8577L16.6265 33.8546C16.6796 33.8591 16.7333 33.8627 16.785 33.876C16.8892 33.8992 16.9904 33.9406 17.083 33.9992C17.2713 34.1148 17.4094 34.3057 17.4809 34.5178C17.5545 34.6756 17.5391 35.1 17.5647 35.4617L17.5933 36.0901C16.7488 36.1402 15.9043 36.1878 15.0598 36.2617C14.0394 36.339 13.019 36.4387 11.9987 36.5644C13.019 36.6901 14.0394 36.7898 15.0598 36.8671C16.0802 36.9563 17.1005 37.0069 18.1209 37.0704L18.1288 37.0709C18.3907 37.0828 18.6126 36.8802 18.6246 36.6183C18.6279 36.5451 18.6806 35.3878 18.6772 35.4617L18.7024 34.9104C18.7161 34.7607 18.714 34.439 18.6542 34.2099C18.4824 33.456 17.8962 32.8361 17.1268 32.6117C17.002 32.5733 16.873 32.5512 16.7438 32.5349L16.5489 32.5215C16.2857 32.5156 15.9531 32.4963 14.4292 32.4825C14.4102 31.1084 14.3655 29.7342 14.2991 28.36C14.2279 26.7673 14.1055 25.1747 13.9493 23.5821C16.1811 23.2767 18.3469 22.2751 20.031 20.6973C22.1981 18.6583 23.537 15.704 23.5762 12.6653ZM16.1341 22.6495C15.8126 22.7985 15.4873 22.9411 15.1472 23.0449C14.8139 23.1719 14.4708 23.2651 14.1224 23.3438C14.0441 23.366 13.9625 23.375 13.8835 23.3946C13.8366 23.3418 13.7726 23.307 13.6998 23.3267C13.1472 23.4765 12.5792 23.5932 11.9987 23.6752C12.4936 23.7448 12.9979 23.7625 13.5035 23.7473C13.3551 25.2848 13.2368 26.8224 13.168 28.36C13.1018 29.7297 13.0573 31.0994 13.0383 32.4691C12.6919 32.4667 12.3456 32.4654 11.9992 32.4608C11.6529 32.4659 11.3065 32.467 10.9601 32.4695C10.9413 31.0997 10.8975 29.7298 10.8315 28.36C10.7619 26.8228 10.6446 25.2855 10.4952 23.7484C11.0004 23.7631 11.5043 23.7452 11.9987 23.6752C11.4181 23.5927 10.8502 23.4757 10.2978 23.3255L10.2662 23.3197C10.2003 23.3131 10.1475 23.3469 10.108 23.394C10.0309 23.3748 9.95126 23.3661 9.87482 23.3445C9.52645 23.2655 9.18324 23.1726 8.84996 23.0457C8.50971 22.9419 8.18444 22.7994 7.86284 22.6505C6.57857 22.0578 5.40856 21.2285 4.46893 20.1944C2.55362 18.1589 1.49805 15.4035 1.55411 12.6653C1.61306 9.92811 2.74845 7.25184 4.69993 5.3665C6.6254 3.46211 9.29843 2.3606 11.9987 2.38212C14.6983 2.36268 17.3726 3.46145 19.2961 5.36792C21.2482 7.25246 22.3816 9.92891 22.4411 12.6653C22.4974 15.4029 21.4419 18.158 19.527 20.193C18.5878 21.2271 17.4181 22.0566 16.1341 22.6495Z" fill="#26848B"></path> <path d="M12.2443 8.30103H8.86328V18.1487H10.5257V15.2607H12.2724C13.7187 15.2607 14.7917 14.9839 15.4917 14.4295C16.191 13.8752 16.5413 13.0021 16.5413 11.8092C16.5413 10.6163 16.1985 9.73355 15.5129 9.16089C14.8273 8.58765 13.7376 8.30103 12.2443 8.30103ZM14.3366 13.2252C14.003 13.5771 13.3758 13.7531 12.4558 13.7531H10.5257V9.80866H12.2162C13.1179 9.80866 13.78 9.94964 14.2025 10.2311C14.625 10.5132 14.8365 10.9947 14.8365 11.6751C14.8365 12.3561 14.6697 12.8726 14.3366 13.2252Z" fill="#26848B"></path> </svg>