<svg width="36" height="40" viewBox="0 0 36 40" fill="none" xmlns="http://www.w3.org/2000/svg"> <path d="M35.1555 18.0444C35.2444 17.5703 35.2148 16.8888 34.8889 16.2666C34.5926 15.674 34.0592 15.1703 33.4963 14.9333C32.9333 14.6666 32.3703 14.637 32.0148 14.6962C31.9852 14.5481 31.9259 14.3407 31.7778 14.0444C31.5407 13.6296 31.1259 13.037 30.237 12.5333C29.8222 12.2962 29.2889 12.0888 28.637 11.9703C28.6666 11.674 28.5778 11.2888 28.4889 10.9925C28.3703 10.6073 28.1333 10.1333 27.7481 9.54068C27.5407 9.21475 27.2148 8.82957 26.8296 8.47401C26.4444 8.11846 25.9407 7.7629 25.3778 7.61475C24.8148 7.4666 24.2518 7.61475 23.9555 7.85179C23.9259 7.88142 23.8963 7.91105 23.8666 7.91105C23.7778 7.70364 23.6 7.4666 23.3629 7.19994C23.0074 6.81475 22.5037 6.34068 21.6444 5.95549C21.1703 5.74809 20.5185 5.57031 19.8074 5.57031C19.0963 5.57031 18.3852 5.77772 17.7926 6.07401C17.2 6.37031 16.7852 6.81475 16.5481 7.17031C16.4296 7.34809 16.3703 7.4666 16.3407 7.58512L16.3111 7.55549C16.1629 7.4666 15.9259 7.37771 15.5703 7.34808C15.2148 7.31846 14.7111 7.34809 14.1185 7.58512C13.4666 7.82216 12.6074 8.53327 12.1926 9.30364C11.9259 9.77771 11.8074 10.2222 11.7778 10.4888C11.7185 10.4296 11.6592 10.3999 11.5407 10.3407C11.4518 10.311 11.3333 10.2814 11.2148 10.2518C11.1555 10.2518 11.0666 10.2222 10.9778 10.2222C10.8889 10.2222 10.8 10.2222 10.7111 10.2222C10.474 10.2222 10.1778 10.2518 9.85182 10.311C9.2296 9.15549 8.66664 7.99994 8.2222 6.75549C8.25182 6.69623 8.28145 6.63697 8.28145 6.60734C8.31108 6.63697 8.34071 6.6666 8.39997 6.69623C8.54812 6.78512 8.66664 6.87401 8.93331 6.69623C9.05183 6.60734 9.2296 6.4592 9.40738 6.22216C9.61479 5.98512 9.88145 5.68883 10.1778 5.12586C10.2666 4.97772 10.3555 4.77031 10.3852 4.53327C10.4444 4.29623 10.474 4.02957 10.4444 3.7629C10.4148 3.49623 10.3259 3.19994 10.1481 2.9629C9.97034 2.69623 9.73331 2.51846 9.43701 2.39994C9.14071 2.31105 8.84442 2.34068 8.63701 2.42957C8.54812 2.4592 8.45923 2.51846 8.39997 2.54809C8.37034 2.39994 8.31108 2.19253 8.16294 1.95549C8.07405 1.77772 7.9259 1.59994 7.71849 1.39253C7.51108 1.18512 7.15553 0.948087 6.68145 0.918457C6.44442 0.918457 6.11849 0.948087 5.85182 1.12586C5.58516 1.27401 5.37775 1.51105 5.2296 1.77772C5.08145 2.04438 4.99256 2.31105 4.96293 2.60735C4.93331 2.90364 4.99256 3.17031 5.05182 3.40735C5.14071 3.64438 5.2296 3.88142 5.34812 4.02957C5.14071 4.11846 4.87405 4.2666 4.57775 4.62216C4.28145 4.97772 3.9259 5.51105 3.89627 6.42957C3.89627 6.69623 3.98516 7.02216 4.19256 7.31846C4.39997 7.64438 4.7259 7.85179 5.05182 7.94068C5.37775 8.0592 5.70368 8.0592 5.99997 8.02957C6.29627 7.99994 6.59257 7.94068 6.85923 7.82216C6.97775 7.7629 7.1259 7.70364 7.24442 7.64438C7.65923 8.74068 8.10368 9.74809 8.66664 10.7259C8.39997 10.8444 8.10368 11.0222 7.83701 11.2296C7.42219 11.5555 7.03701 11.9407 6.74071 12.3555C6.44442 12.7703 6.26664 13.1851 6.17775 13.511C6.14812 13.6296 6.14812 13.7185 6.11849 13.8073C6.05923 13.7777 5.94071 13.7481 5.82219 13.7481C5.58516 13.7185 5.2296 13.7481 4.7259 13.8962C4.22219 14.074 3.57034 14.3703 2.91849 15.0222C2.56293 15.3777 2.17775 15.9407 1.94071 16.5925C1.70368 17.2444 1.64442 17.9851 1.7333 18.637C1.82219 19.2888 2.0296 19.8222 2.26664 20.1777C2.35553 20.3259 2.44442 20.4147 2.50368 20.5036C2.44442 20.5333 2.41479 20.5333 2.35553 20.5629C2.14812 20.6814 1.85182 20.9185 1.55553 21.3629C1.25923 21.8073 0.962934 22.4296 0.844416 23.3185C0.814786 23.5555 0.785156 23.8518 0.785156 24.1481V24.3851C0.785156 24.474 0.814786 24.5629 0.814786 24.6518C0.844416 24.8296 0.903675 25.0073 0.933304 25.1851C1.17034 25.8666 1.64442 26.4296 2.11849 26.8444C2.59256 27.2592 3.1259 27.5259 3.54071 27.6147C3.65923 27.6444 3.74812 27.6444 3.83701 27.6444C3.89627 27.6444 3.95553 27.6444 4.01479 27.6147C3.77775 28.0296 3.57034 28.4444 3.45182 28.8888C3.09627 30.2222 3.48145 31.4962 4.01479 32.1481C4.28145 32.5036 4.57775 32.711 4.78516 32.7999H4.81479C4.69627 32.8592 4.54812 33.037 4.39997 33.3629C4.19256 33.8073 4.07405 34.5185 4.25182 35.2592C4.39997 35.9999 4.81479 36.7407 5.34812 37.3333C5.88145 37.8962 6.62219 38.2814 7.21479 38.3999C7.77775 38.5185 8.31108 38.4592 8.69627 38.3407C9.2296 38.1925 9.73331 37.8962 10.0889 37.4518C10.3259 37.6888 11.037 38.1036 12.0148 38.3407C12.637 38.4888 13.3185 38.5481 14.0296 38.4592C14.7407 38.3703 15.3333 38.1333 15.7481 37.8962C16.5481 37.4518 17.0222 36.9777 17.3778 36.5925C17.7037 36.2073 17.8518 35.8814 17.9407 35.674C17.9703 35.6147 17.9703 35.5555 18 35.4962C18.5333 36.3851 19.0666 37.0666 19.7481 37.7777C20.074 38.1333 20.4296 38.3999 20.8148 38.637C21.2 38.874 21.6148 39.0222 22.0592 39.0518C22.5037 39.0814 22.9185 38.9925 23.274 38.7851C23.6 38.5777 23.837 38.3407 24.0148 38.074C24.1926 37.837 24.2815 37.5703 24.3703 37.3629C24.4296 37.1259 24.4889 36.9184 24.4889 36.7407C25.0222 37.1555 25.9703 37.511 26.9778 37.511C27.3926 37.511 27.837 37.4518 28.2815 37.3333C28.7259 37.2147 29.1407 37.0073 29.5259 36.7703C30.2963 36.2962 30.8592 35.5555 31.1259 34.9333C31.6296 33.8073 31.6296 32.8592 31.5111 32.1777C31.4222 31.6444 31.2741 31.2888 31.1259 31.0222C31.1852 31.0222 31.3037 30.9925 31.4222 30.9629C31.6889 30.874 32.0741 30.7259 32.4296 30.3407C33.1703 29.6296 33.6148 28.1185 33.0518 26.6073C32.8444 26.074 32.5185 25.5703 32.1037 25.1555C32.4889 25.037 33.0222 24.7999 33.5555 24.2962C33.8518 23.9999 34.1481 23.5555 34.2963 22.9925C34.4444 22.4592 34.4741 21.8666 34.3555 21.3629C34.237 20.8592 34 20.4444 33.7926 20.2073C33.7629 20.1777 33.7333 20.1481 33.7037 20.0888C33.8518 19.9999 33.9703 19.911 34.1185 19.7925C34.5333 19.4962 34.9778 18.9333 35.1555 18.0444ZM7.00738 6.9629C6.88886 6.99253 6.77034 7.02216 6.62219 7.05179C6.23701 7.11105 5.73331 7.08142 5.43701 6.93327C5.14071 6.78512 5.14071 6.63697 5.11108 6.42957C5.11108 6.22216 5.17034 5.98512 5.2296 5.80734C5.28886 5.62957 5.37775 5.45179 5.46664 5.33327C5.64442 5.0666 5.76294 4.88883 5.85182 4.77031C5.88145 4.74068 5.88145 4.71105 5.91108 4.68142C5.97034 4.71105 6.0296 4.74068 6.05923 4.71105C6.14812 4.68142 6.11849 4.47401 6.05923 4.20735C5.99997 3.94068 5.91108 3.58512 5.88145 3.22957C5.88145 3.05179 5.88145 2.87401 5.94071 2.75549C5.99997 2.60735 6.05923 2.4592 6.14812 2.37031C6.23701 2.25179 6.3259 2.19253 6.41479 2.1629C6.50368 2.13327 6.53331 2.13327 6.62219 2.13327C6.65182 2.13327 6.68145 2.13327 6.71108 2.1629C6.8296 2.19253 6.97775 2.31105 7.09627 2.42957C7.15553 2.48883 7.18516 2.54809 7.24442 2.60735C7.42219 2.81475 7.54071 2.99253 7.6296 3.08142C7.80738 3.2592 7.9259 3.2592 8.04442 3.22957C8.07405 3.31846 8.10368 3.34809 8.13331 3.37772C8.2222 3.37772 8.31108 3.22957 8.48886 3.17031C8.57775 3.14068 8.66664 3.11105 8.78516 3.11105C8.90368 3.11105 9.0222 3.14068 9.08146 3.19994C9.2296 3.31846 9.31849 3.58512 9.31849 3.85179C9.31849 4.11846 9.19997 4.35549 9.08146 4.59253C8.87405 4.97772 8.60738 5.33327 8.45923 5.62957C8.31108 5.89623 8.2222 6.10364 8.19257 6.25179C8.16294 6.37031 8.16294 6.4592 8.19257 6.51846C8.16294 6.51846 8.13331 6.51846 8.10368 6.51846C8.01479 6.54809 7.86664 6.60734 7.71849 6.6666C7.51108 6.75549 7.27405 6.87401 7.00738 6.9629ZM10.7703 11.3777C10.8592 11.3481 10.9185 11.3481 10.9778 11.3481C11.037 11.3481 11.0963 11.3185 11.1555 11.3185C11.274 11.2888 11.3629 11.2592 11.4518 11.2592C11.7481 11.1703 11.8074 11.0222 11.837 10.874C12.0148 10.9333 12.3407 10.3703 12.8444 9.8666C13.3481 9.33327 14.0592 8.91846 14.5333 8.74068C14.9481 8.5629 15.274 8.53327 15.5407 8.50364C15.8074 8.47401 15.9852 8.47401 16.1037 8.44438C16.3703 8.41475 16.4296 8.2666 16.4889 8.11846C16.5185 8.02957 16.5481 7.94068 16.5185 7.85179C16.6074 7.79253 16.7555 7.67401 16.9037 7.58512C17.2 7.37772 17.6444 7.11105 18.1481 6.93327C18.6518 6.75549 19.2444 6.69623 19.7778 6.75549C20.3111 6.78512 20.7852 6.9629 21.1407 7.11105C21.7926 7.40734 22.237 7.7629 22.5629 8.02957C22.8889 8.29623 23.0963 8.50364 23.2444 8.65179C23.5703 8.91846 23.6889 8.8592 23.837 8.79994C23.9555 8.74068 24.0741 8.65179 24.0148 8.35549C24.0741 8.35549 24.1037 8.32586 24.1629 8.32586C24.4296 8.2666 24.7852 8.29623 25.1111 8.47401C25.437 8.65179 25.7629 8.94808 26.0592 9.30364C26.3555 9.6592 26.5926 9.98512 26.8 10.2518C27.274 10.9333 27.5111 11.4666 27.7481 11.911C27.274 11.911 26.7703 11.9407 26.237 12.0592C25.2889 12.2666 24.1629 12.7407 23.1259 13.4518C22.0889 14.1629 21.1407 15.0518 20.2815 15.8518C19.4222 16.6518 18.6815 17.4518 18.2666 18.1333C18.1185 18.3703 18 18.5777 17.9407 18.7555C17.8815 18.6962 17.7926 18.6073 17.7037 18.5481C17.4963 18.3999 17.2592 18.2814 16.9629 18.2518C17.0222 17.9555 17.0222 17.274 17.1111 16.5036C17.1703 15.9999 17.2592 15.4666 17.3778 14.9629C17.4963 14.4592 17.6444 14.0148 17.7629 13.6592C18 13.0073 18.2074 12.5333 18.3852 12.2073C18.474 12.0296 18.5333 11.8814 18.5926 11.7629C18.6518 11.6444 18.6815 11.5259 18.7111 11.437C18.8296 11.0814 18.7407 10.9629 18.5926 10.874C18.474 10.7851 18.3259 10.6962 18 10.9333C17.9111 10.9925 17.8222 11.0814 17.7333 11.1999C17.6148 11.3185 17.5259 11.4666 17.3778 11.6444C17.1407 11.9999 16.8444 12.5333 16.5778 13.274C16.4296 13.6888 16.2815 14.2222 16.2222 14.7851C16.1333 15.3777 16.1333 15.9703 16.1926 16.5333C16.2815 17.3629 16.4889 18.0147 16.6666 18.311C16.4592 18.3407 16.2222 18.3999 16.0444 18.5185C15.8074 18.6666 15.6296 18.8444 15.4815 19.0518C15.3926 19.1407 15.3333 19.2592 15.274 19.3777C15.1852 19.2296 15.0963 19.0222 14.9778 18.8444C14.5629 18.074 13.9111 17.037 13.2 15.911C12.4889 14.7851 11.6592 13.5703 10.9481 12.4148C10.7703 12.1185 10.5926 11.8222 10.4148 11.5555C10.5333 11.4073 10.6518 11.3777 10.7703 11.3777ZM18.2074 20.8888V20.9777C18.1481 21.0666 18.0889 21.1851 18 21.3629C17.9111 21.5703 17.7629 21.9259 17.4074 22.2518C17.3185 22.3407 17.2296 22.3999 17.1111 22.4592C17.0518 22.4888 16.9926 22.5185 16.9333 22.5481C16.9037 22.5481 16.874 22.5777 16.8444 22.5777C16.8148 22.5777 16.7852 22.5777 16.7555 22.6073C16.637 22.637 16.5185 22.637 16.4592 22.6073C16.3703 22.5777 16.2815 22.4888 16.1926 22.311C16.1037 22.1333 16.0148 21.8666 15.9555 21.5703C15.9259 21.274 15.9259 20.8888 15.9852 20.5629C16.0444 20.2073 16.1333 19.8814 16.3111 19.5851C16.4 19.437 16.5185 19.3185 16.6074 19.2296C16.7259 19.1407 16.7852 19.111 16.9037 19.111C17.3778 19.0518 17.9111 19.7629 18.1185 20.1481C18.237 20.3851 18.3259 20.5629 18.3852 20.711C18.2074 20.711 18.2074 20.7999 18.2074 20.8888ZM4.10368 27.4073C4.04442 27.3777 4.01479 27.3481 3.95553 27.3481C3.89627 27.3185 3.83701 27.2888 3.74812 27.2296C3.45182 27.0518 3.09627 26.7259 2.77034 26.2814C2.44442 25.8666 2.14812 25.3629 2.0296 24.8888C1.99997 24.7703 1.97034 24.6518 1.97034 24.5629C1.97034 24.5036 1.97034 24.474 1.97034 24.4147C1.97034 24.3555 1.97034 24.2962 1.97034 24.237C1.97034 23.9999 1.99997 23.7629 2.0296 23.5851C2.14812 22.874 2.35553 22.3703 2.50368 22.0148C2.68145 21.6592 2.8296 21.4518 2.91849 21.3036C3.00738 21.1555 3.06664 21.0666 3.06664 20.9777C3.06664 20.8888 3.03701 20.8296 3.00738 20.7407C2.97775 20.6814 2.91849 20.5925 2.8296 20.5629H2.79997C2.79997 20.4444 2.74071 20.2962 2.71108 20.0888C2.65182 19.7333 2.56293 19.2296 2.59256 18.6962C2.62219 18.1629 2.77034 17.5999 2.97775 17.1259C3.18516 16.6518 3.51108 16.2666 3.77775 15.9999C4.28145 15.4962 4.75553 15.2296 5.11108 15.0518C5.46664 14.874 5.73331 14.7851 5.91108 14.6962C6.26664 14.5481 6.29627 14.3999 6.29627 14.2222C6.29627 14.1925 6.29627 14.1333 6.29627 14.1036C6.38516 14.0444 6.47405 13.9555 6.56294 13.8073C6.77034 13.5999 7.00738 13.274 7.33331 13.0073C7.65923 12.711 8.01479 12.4444 8.39997 12.237C8.69627 12.0592 8.96294 11.9407 9.2296 11.8518C10.237 13.3333 11.3926 14.874 12.4889 16.2962C13.3185 17.3629 14.0592 18.311 14.5926 18.9925C14.8 19.2296 14.9481 19.4666 15.0963 19.6147C15.037 19.7333 15.0074 19.8518 14.9481 19.9703C14.8592 19.911 14.8 19.8518 14.7111 19.7925C14.2666 19.4666 13.6444 19.0518 12.7555 18.637C12.2518 18.4296 11.6 18.1925 10.8889 18.0444C10.1778 17.8962 9.40738 17.8073 8.69627 17.7777C7.98516 17.7777 7.36294 17.837 6.91849 17.9555C6.47405 18.074 6.20738 18.1629 6.20738 18.2518C6.20738 18.3407 6.50368 18.3703 6.94812 18.4296C7.39257 18.4888 7.98516 18.5185 8.63701 18.637C9.28886 18.7555 9.97034 18.9036 10.6222 19.111C11.274 19.3185 11.837 19.5555 12.2815 19.7629C13.0815 20.1185 13.674 20.474 14.1185 20.7407C14.3259 20.8592 14.5333 20.9777 14.6815 21.0666C14.7111 21.0962 14.7703 21.1259 14.8 21.1259C14.8 21.3629 14.8 21.5703 14.8296 21.7777C14.1185 21.8073 13.2296 21.9851 12.5481 22.1925C11.6 22.4592 10.3555 22.874 8.81479 23.7036C7.98516 24.1481 6.94812 24.7999 5.91108 25.6296C5.40738 26.0444 4.90368 26.5185 4.48886 27.0814C4.39997 27.1999 4.31108 27.3185 4.25182 27.437C4.16294 27.4073 4.13331 27.4073 4.10368 27.4073ZM17.2592 35.2296C17.1111 35.3481 16.9037 35.5851 16.6074 35.8518C16.2815 36.1481 15.8666 36.5036 15.2148 36.8592C14.8592 37.037 14.3852 37.274 13.8815 37.3925C13.3481 37.511 12.7555 37.5407 12.1926 37.511C11.3629 37.4814 10.6518 37.3036 10.2963 37.3036C10.4444 37.0962 10.5037 36.9184 10.5629 36.7703C10.6518 36.474 10.6222 36.3259 10.5629 36.237C10.5037 36.1481 10.4444 36.1185 10.3555 36.1185C10.2666 36.0888 10.2074 36.0888 10.1185 36.1185C10.0296 36.1481 9.94071 36.237 9.8222 36.3851C9.67405 36.5333 9.49627 36.7407 9.14071 36.9481C8.78516 37.1555 8.2222 37.3925 7.54071 37.2444C7.15553 37.1555 6.65182 36.9481 6.20738 36.5629C5.76294 36.1777 5.37775 35.6147 5.14071 35.0814C4.90368 34.5185 4.87405 33.9555 4.93331 33.5703C4.96293 33.274 5.02219 33.037 5.05182 32.9481C5.17034 32.9777 5.25923 33.0073 5.25923 32.9777C5.31849 32.8888 4.84442 32.6518 4.51849 31.9703C4.16293 31.3481 3.98516 30.2518 4.37034 29.2147C4.75553 28.1777 5.64442 27.2592 6.59257 26.5481C7.57034 25.837 8.57775 25.2444 9.37775 24.8296C10.8296 24.0592 11.9852 23.6444 12.874 23.3185C13.8815 22.9629 14.5926 22.7851 15.037 22.6073C15.0963 22.7259 15.1259 22.8444 15.1852 22.9333C15.2148 22.9925 15.274 23.0518 15.3037 23.111C15.1555 23.1407 14.9778 23.1703 14.7703 23.2296C14.1481 23.437 13.3481 23.8222 12.5185 24.5629C12.074 24.9777 11.5407 25.511 11.0666 26.1925C10.5926 26.8444 10.1481 27.6147 9.85182 28.3259C9.2296 29.7777 9.14071 31.0518 9.28886 31.0814C9.46664 31.111 9.85182 29.9555 10.6222 28.711C11.0074 28.0888 11.4518 27.437 11.9555 26.874C12.4296 26.311 12.9333 25.837 13.3481 25.4814C14.0889 24.8296 14.7111 24.5036 15.1852 24.2962C15.4815 24.1777 15.7185 24.0888 15.9259 24.0296C15.8963 24.2666 15.8666 24.5629 15.8666 24.8888C15.8074 25.837 15.8074 27.1407 15.9555 28.6222C16.1037 30.074 16.4296 31.674 16.9629 33.0962C17.2296 33.8073 17.5259 34.4592 17.8518 35.0814C17.6444 34.9925 17.5259 35.0222 17.2592 35.2296ZM32.6074 28.7407C32.5778 29.0073 32.5185 29.274 32.4296 29.511C32.3407 29.7481 32.2518 29.9555 32.1037 30.1036C31.8666 30.4592 31.5703 30.6666 31.3629 30.7851C31.2444 30.8444 31.1555 30.9036 31.0963 30.9333C31.0666 30.9036 31.037 30.874 31.037 30.8444C30.8592 30.5777 30.7111 30.4888 30.6222 30.4592C30.5333 30.4296 30.4444 30.4592 30.3852 30.5185C30.3259 30.5777 30.2666 30.6073 30.237 30.7259C30.2074 30.8147 30.237 30.9629 30.2963 31.2296C30.3555 31.4666 30.4444 31.8222 30.4741 32.3555C30.5037 32.8888 30.4741 33.6296 30.0889 34.4592C29.8815 34.9036 29.5259 35.4666 28.9629 35.8814C28.4 36.2962 27.6889 36.5925 26.9778 36.6814C26.2666 36.7999 25.6148 36.711 25.1407 36.6222C24.9037 36.5629 24.6963 36.5036 24.5778 36.474C24.5778 36.4147 24.5778 36.3555 24.5778 36.2962C24.5481 35.7333 24.4592 35.4666 24.4 35.3481C24.3111 35.1999 24.2518 35.1999 24.1629 35.1999C24.0741 35.1999 24.0148 35.2296 23.9259 35.3481C23.8666 35.4962 23.8074 35.7629 23.7481 36.237C23.7185 36.474 23.6592 36.7703 23.5111 37.037C23.3926 37.3333 23.1555 37.6592 22.8296 37.8073C22.6815 37.8962 22.4741 37.9259 22.2666 37.8962C22.0592 37.8666 21.7926 37.7777 21.5259 37.5999C21.2592 37.4518 20.9629 37.2147 20.6963 36.9184C20.4 36.6222 20.1333 36.2962 19.837 35.911C19.2148 35.0814 18.5037 33.9555 17.9407 32.6222C17.3778 31.2888 16.9926 29.8073 16.7259 28.4147C16.3703 26.5185 16.2815 24.8296 16.1629 23.8814C16.3111 23.8518 16.4 23.8222 16.4889 23.7925C16.6963 23.7925 16.874 23.7925 17.0222 23.7333C17.5852 23.5851 17.9703 23.2888 18.237 22.9925L18.2666 22.9629C18.3259 23.2888 18.7407 24.1185 19.3037 25.0666C20.0148 26.2222 21.0222 27.4962 21.7333 28.237C23.037 29.5999 23.8074 30.1629 24.2518 30.3999C24.6963 30.637 24.8148 30.5185 24.9037 30.3999C25.0222 30.2814 25.0815 30.1333 24.8148 29.7481C24.5481 29.3629 23.8666 28.711 22.6222 27.4073C21.9407 26.6962 20.8741 25.5407 20.0148 24.5629C19.274 23.7036 18.6518 22.9629 18.4148 22.8444C18.8296 22.311 18.8889 21.837 18.9185 21.5407C18.9185 21.4518 18.9185 21.3629 18.9185 21.3036C19.3629 21.3925 20.2518 21.511 21.6148 21.7481C22.5926 21.9259 23.9852 22.2222 25.7629 22.874C26.7407 23.2296 27.9852 23.7333 29.2296 24.4147C29.8518 24.7703 30.5037 25.1259 31.037 25.5407C31.5703 25.9555 32.0444 26.4592 32.3111 27.0222C32.5778 27.5555 32.6666 28.1777 32.6074 28.7407ZM33.9703 17.837C33.8518 18.3999 33.5852 18.7851 33.3778 19.0518C33.1703 19.3185 32.9926 19.4666 32.8741 19.5555C32.637 19.7925 32.637 19.911 32.6963 20.0888C32.7259 20.1777 32.7555 20.237 32.8148 20.2962C32.8741 20.3555 33.0222 20.3851 33.2592 20.3259C33.3185 20.3259 33.3481 20.2962 33.4074 20.2962C33.4074 20.3555 33.437 20.4147 33.437 20.474C33.4963 20.7407 33.5852 21.1259 33.5555 21.511C33.5555 21.8962 33.4666 22.3407 33.2889 22.6666C33.1407 23.0222 32.9037 23.2888 32.7259 23.4962C32.3703 23.8518 32.0148 24.0296 31.7481 24.1777C31.5407 24.2962 31.3629 24.3555 31.2444 24.4147C30.7703 24.0592 30.2666 23.7333 29.7926 23.4666C28.5185 22.6962 27.2148 22.1333 26.1778 21.7481C24.3111 21.0666 22.8 20.7999 21.674 20.6518C20.5481 20.5036 19.7778 20.5036 19.274 20.5333C18.9481 20.5629 18.7407 20.5925 18.5926 20.6222C18.6222 20.474 18.5926 20.237 18.5333 19.9703C18.5037 19.8222 18.4444 19.674 18.3555 19.5259C18.2963 19.3777 18.2074 19.2296 18.0889 19.0518C18.0889 19.0518 18.0889 19.0222 18.0592 19.0222C18.1778 18.874 18.3555 18.6666 18.5629 18.4296C19.0666 17.8666 19.8666 17.2148 20.7852 16.5036C21.7037 15.7925 22.6815 14.9925 23.6592 14.3703C24.637 13.7481 25.6444 13.3629 26.4148 13.2148C27.1259 13.0666 27.7778 13.037 28.3111 13.1259C28.8444 13.2148 29.2889 13.3629 29.6741 13.5407C30.4148 13.8962 30.8 14.311 31.037 14.5777C31.2148 14.7555 31.3037 14.874 31.3926 14.9629C31.3926 14.9925 31.3629 14.9925 31.3926 14.9925C31.4222 15.0814 31.6296 15.111 31.9555 15.1703C32.2815 15.2592 32.6666 15.4073 33.0222 15.674C33.3778 15.9407 33.7037 16.3555 33.8518 16.7407C34.0296 17.1259 34.0296 17.5407 33.9703 17.837Z" fill="#26848B"></path> <path d="M25.8817 17.8963C25.5557 17.7778 24.8446 17.6 23.4817 17.7185C23.0965 17.7482 22.6224 17.8074 22.1483 17.9259C21.6446 18.0445 21.1409 18.1926 20.6965 18.4C19.778 18.7556 19.1261 19.2296 19.1854 19.3778C19.2446 19.5259 20.015 19.3778 20.9039 19.2296C21.8224 19.0815 22.8891 18.9926 23.5706 18.9333C24.815 18.8445 25.4669 18.8741 25.7928 18.7852C26.1187 18.6963 26.178 18.5482 26.178 18.4C26.2076 18.1926 26.2076 18.0445 25.8817 17.8963V17.8963Z" fill="#26848B"></path> </svg>