<svg width="60" height="60" viewBox="0 0 60 60" fill="none" xmlns="http://www.w3.org/2000/svg">
<path d="M55.7333 27.0666C55.8666 26.3555 55.8222 25.3332 55.3333 24.3999C54.8889 23.511 54.0889 22.7555 53.2444 22.3999C52.4 21.9999 51.5555 21.9555 51.0222 22.0443C50.9777 21.8221 50.8889 21.511 50.6666 21.0666C50.3111 20.4444 49.6889 19.5555 48.3555 18.7999C47.7333 18.4444 46.9333 18.1332 45.9555 17.9555C46 17.511 45.8666 16.9332 45.7333 16.4888C45.5555 15.911 45.2 15.1999 44.6222 14.311C44.3111 13.8221 43.8222 13.2444 43.2444 12.711C42.6666 12.1777 41.9111 11.6444 41.0666 11.4221C40.2222 11.1999 39.3777 11.4221 38.9333 11.7777C38.8889 11.8221 38.8444 11.8666 38.8 11.8666C38.6666 11.5555 38.4 11.1999 38.0444 10.7999C37.5111 10.2221 36.7555 9.51102 35.4666 8.93324C34.7555 8.62213 33.7777 8.35546 32.7111 8.35546C31.6444 8.35546 30.5777 8.66657 29.6889 9.11102C28.8 9.55546 28.1777 10.2221 27.8222 10.7555C27.6444 11.0221 27.5555 11.1999 27.5111 11.3777L27.4666 11.3332C27.2444 11.1999 26.8889 11.0666 26.3555 11.0221C25.8222 10.9777 25.0666 11.0221 24.1777 11.3777C23.2 11.7332 21.9111 12.7999 21.2889 13.9555C20.8888 14.6666 20.7111 15.3332 20.6666 15.7332C20.5777 15.6444 20.4889 15.5999 20.3111 15.511C20.1777 15.4666 20 15.4221 19.8222 15.3777C19.7333 15.3777 19.6 15.3332 19.4666 15.3332C19.3333 15.3332 19.2 15.3332 19.0666 15.3332C18.7111 15.3332 18.2666 15.3777 17.7777 15.4666C16.8444 13.7332 16 11.9999 15.3333 10.1332C15.3777 10.0444 15.4222 9.95546 15.4222 9.91102C15.4666 9.95546 15.5111 9.99991 15.6 10.0444C15.8222 10.1777 16 10.311 16.4 10.0444C16.5777 9.91102 16.8444 9.6888 17.1111 9.33324C17.4222 8.97768 17.8222 8.53324 18.2666 7.6888C18.4 7.46657 18.5333 7.15546 18.5777 6.79991C18.6666 6.44435 18.7111 6.04435 18.6666 5.64435C18.6222 5.24435 18.4888 4.79991 18.2222 4.44435C17.9555 4.04435 17.6 3.77769 17.1555 3.59991C16.7111 3.46657 16.2666 3.51102 15.9555 3.64435C15.8222 3.6888 15.6888 3.77769 15.6 3.82213C15.5555 3.59991 15.4666 3.2888 15.2444 2.93324C15.1111 2.66657 14.8888 2.39991 14.5777 2.0888C14.2666 1.77769 13.7333 1.42213 13.0222 1.37769C12.6666 1.37769 12.1777 1.42213 11.7777 1.6888C11.3777 1.91102 11.0666 2.26657 10.8444 2.66657C10.6222 3.06657 10.4888 3.46657 10.4444 3.91102C10.4 4.35546 10.4888 4.75546 10.5777 5.11102C10.7111 5.46657 10.8444 5.82213 11.0222 6.04435C10.7111 6.17768 10.3111 6.39991 9.86663 6.93324C9.42218 7.46657 8.88885 8.26657 8.8444 9.64435C8.8444 10.0444 8.97774 10.5332 9.28885 10.9777C9.59996 11.4666 10.0888 11.7777 10.5777 11.911C11.0666 12.0888 11.5555 12.0888 12 12.0444C12.4444 11.9999 12.8888 11.911 13.2888 11.7332C13.4666 11.6444 13.6888 11.5555 13.8666 11.4666C14.4888 13.111 15.1555 14.6221 16 16.0888C15.6 16.2666 15.1555 16.5332 14.7555 16.8444C14.1333 17.3332 13.5555 17.911 13.1111 18.5332C12.6666 19.1555 12.4 19.7777 12.2666 20.2666C12.2222 20.4443 12.2222 20.5777 12.1777 20.711C12.0888 20.6666 11.9111 20.6221 11.7333 20.6221C11.3777 20.5777 10.8444 20.6221 10.0888 20.8444C9.33329 21.111 8.35551 21.5555 7.37774 22.5332C6.8444 23.0666 6.26662 23.911 5.91107 24.8888C5.55551 25.8666 5.46662 26.9777 5.59996 27.9555C5.73329 28.9332 6.0444 29.7332 6.39996 30.2666C6.53329 30.4888 6.66662 30.6221 6.75551 30.7555C6.66662 30.7999 6.62218 30.7999 6.53329 30.8443C6.22218 31.0221 5.77773 31.3777 5.33329 32.0443C4.88885 32.711 4.4444 33.6443 4.26662 34.9777C4.22218 35.3332 4.17773 35.7777 4.17773 36.2221V36.5777C4.17773 36.711 4.22218 36.8443 4.22218 36.9777C4.26662 37.2443 4.35551 37.511 4.39996 37.7777C4.75551 38.7999 5.46662 39.6443 6.17773 40.2666C6.88885 40.8888 7.68885 41.2888 8.31107 41.4221C8.48885 41.4666 8.62218 41.4666 8.75551 41.4666C8.8444 41.4666 8.93329 41.4666 9.02218 41.4221C8.66662 42.0443 8.35551 42.6666 8.17774 43.3332C7.6444 45.3332 8.22218 47.2443 9.02218 48.2221C9.42218 48.7555 9.86662 49.0666 10.1777 49.1999H10.2222C10.0444 49.2888 9.82218 49.5555 9.59996 50.0443C9.28885 50.711 9.11107 51.7777 9.37774 52.8888C9.59996 53.9999 10.2222 55.111 11.0222 55.9999C11.8222 56.8443 12.9333 57.4221 13.8222 57.5999C14.6666 57.7777 15.4666 57.6888 16.0444 57.511C16.8444 57.2888 17.6 56.8443 18.1333 56.1777C18.4888 56.5332 19.5555 57.1555 21.0222 57.511C21.9555 57.7332 22.9777 57.8221 24.0444 57.6888C25.1111 57.5555 26 57.1999 26.6222 56.8443C27.8222 56.1777 28.5333 55.4666 29.0666 54.8888C29.5555 54.311 29.7777 53.8221 29.9111 53.511C29.9555 53.4221 29.9555 53.3332 30 53.2443C30.8 54.5777 31.6 55.5999 32.6222 56.6666C33.1111 57.1999 33.6444 57.5999 34.2222 57.9555C34.8 58.311 35.4222 58.5332 36.0889 58.5777C36.7555 58.6221 37.3777 58.4888 37.9111 58.1777C38.4 57.8666 38.7555 57.511 39.0222 57.111C39.2889 56.7555 39.4222 56.3555 39.5555 56.0443C39.6444 55.6888 39.7333 55.3777 39.7333 55.111C40.5333 55.7332 41.9555 56.2666 43.4666 56.2666C44.0889 56.2666 44.7555 56.1777 45.4222 55.9999C46.0889 55.8221 46.7111 55.511 47.2889 55.1555C48.4444 54.4443 49.2889 53.3332 49.6889 52.3999C50.4444 50.711 50.4444 49.2888 50.2666 48.2666C50.1333 47.4666 49.9111 46.9332 49.6889 46.5332C49.7777 46.5332 49.9555 46.4888 50.1333 46.4443C50.5333 46.311 51.1111 46.0888 51.6444 45.511C52.7555 44.4443 53.4222 42.1777 52.5777 39.911C52.2666 39.111 51.7777 38.3555 51.1555 37.7332C51.7333 37.5555 52.5333 37.1999 53.3333 36.4443C53.7777 35.9999 54.2222 35.3332 54.4444 34.4888C54.6666 33.6888 54.7111 32.7999 54.5333 32.0443C54.3555 31.2888 54 30.6666 53.6889 30.311C53.6444 30.2666 53.6 30.2221 53.5555 30.1332C53.7777 29.9999 53.9555 29.8666 54.1777 29.6888C54.8 29.2444 55.4666 28.3999 55.7333 27.0666ZM13.5111 10.4444C13.3333 10.4888 13.1555 10.5332 12.9333 10.5777C12.3555 10.6666 11.6 10.6221 11.1555 10.3999C10.7111 10.1777 10.7111 9.95546 10.6666 9.64435C10.6666 9.33324 10.7555 8.97768 10.8444 8.71102C10.9333 8.44435 11.0666 8.17768 11.2 7.99991C11.4666 7.59991 11.6444 7.33324 11.7777 7.15546C11.8222 7.11102 11.8222 7.06657 11.8666 7.02213C11.9555 7.06657 12.0444 7.11102 12.0888 7.06657C12.2222 7.02213 12.1777 6.71102 12.0888 6.31102C12 5.91102 11.8666 5.37768 11.8222 4.84435C11.8222 4.57769 11.8222 4.31102 11.9111 4.13324C12 3.91102 12.0888 3.6888 12.2222 3.55546C12.3555 3.37769 12.4888 3.2888 12.6222 3.24435C12.7555 3.19991 12.8 3.19991 12.9333 3.19991C12.9777 3.19991 13.0222 3.19991 13.0666 3.24435C13.2444 3.2888 13.4666 3.46657 13.6444 3.64435C13.7333 3.73324 13.7777 3.82213 13.8666 3.91102C14.1333 4.22213 14.3111 4.4888 14.4444 4.62213C14.7111 4.8888 14.8888 4.8888 15.0666 4.84435C15.1111 4.97768 15.1555 5.02213 15.2 5.06657C15.3333 5.06657 15.4666 4.84435 15.7333 4.75546C15.8666 4.71102 16 4.66657 16.1777 4.66657C16.3555 4.66657 16.5333 4.71102 16.6222 4.79991C16.8444 4.97769 16.9777 5.37768 16.9777 5.77768C16.9777 6.17768 16.8 6.53324 16.6222 6.8888C16.3111 7.46657 15.9111 7.99991 15.6888 8.44435C15.4666 8.84435 15.3333 9.15546 15.2888 9.37768C15.2444 9.55546 15.2444 9.6888 15.2888 9.77768C15.2444 9.77768 15.2 9.77768 15.1555 9.77768C15.0222 9.82213 14.8 9.91102 14.5777 9.99991C14.2666 10.1332 13.9111 10.311 13.5111 10.4444ZM19.1555 17.0666C19.2888 17.0221 19.3777 17.0221 19.4666 17.0221C19.5555 17.0221 19.6444 16.9777 19.7333 16.9777C19.9111 16.9332 20.0444 16.8888 20.1777 16.8888C20.6222 16.7555 20.7111 16.5332 20.7555 16.311C21.0222 16.3999 21.5111 15.5555 22.2666 14.7999C23.0222 13.9999 24.0889 13.3777 24.8 13.111C25.4222 12.8444 25.9111 12.7999 26.3111 12.7555C26.7111 12.711 26.9777 12.711 27.1555 12.6666C27.5555 12.6221 27.6444 12.3999 27.7333 12.1777C27.7777 12.0444 27.8222 11.911 27.7777 11.7777C27.9111 11.6888 28.1333 11.511 28.3555 11.3777C28.8 11.0666 29.4666 10.6666 30.2222 10.3999C30.9777 10.1332 31.8666 10.0444 32.6666 10.1332C33.4666 10.1777 34.1777 10.4444 34.7111 10.6666C35.6889 11.111 36.3555 11.6444 36.8444 12.0444C37.3333 12.4444 37.6444 12.7555 37.8666 12.9777C38.3555 13.3777 38.5333 13.2888 38.7555 13.1999C38.9333 13.111 39.1111 12.9777 39.0222 12.5332C39.1111 12.5332 39.1555 12.4888 39.2444 12.4888C39.6444 12.3999 40.1777 12.4444 40.6666 12.711C41.1555 12.9777 41.6444 13.4221 42.0889 13.9555C42.5333 14.4888 42.8889 14.9777 43.2 15.3777C43.9111 16.3999 44.2666 17.1999 44.6222 17.8666C43.9111 17.8666 43.1555 17.911 42.3555 18.0888C40.9333 18.3999 39.2444 19.111 37.6889 20.1777C36.1333 21.2444 34.7111 22.5777 33.4222 23.7777C32.1333 24.9777 31.0222 26.1777 30.4 27.1999C30.1777 27.5555 30 27.8666 29.9111 28.1332C29.8222 28.0443 29.6889 27.911 29.5555 27.8221C29.2444 27.5999 28.8889 27.4221 28.4444 27.3777C28.5333 26.9332 28.5333 25.911 28.6666 24.7555C28.7555 23.9999 28.8889 23.1999 29.0666 22.4443C29.2444 21.6888 29.4666 21.0221 29.6444 20.4888C30 19.511 30.3111 18.7999 30.5777 18.311C30.7111 18.0444 30.8 17.8221 30.8889 17.6444C30.9777 17.4666 31.0222 17.2888 31.0666 17.1555C31.2444 16.6221 31.1111 16.4444 30.8889 16.311C30.7111 16.1777 30.4889 16.0444 30 16.3999C29.8666 16.4888 29.7333 16.6221 29.6 16.7999C29.4222 16.9777 29.2889 17.1999 29.0666 17.4666C28.7111 17.9999 28.2666 18.7999 27.8666 19.911C27.6444 20.5332 27.4222 21.3332 27.3333 22.1777C27.2 23.0666 27.2 23.9555 27.2889 24.7999C27.4222 26.0443 27.7333 27.0221 28 27.4666C27.6889 27.511 27.3333 27.5999 27.0666 27.7777C26.7111 27.9999 26.4444 28.2666 26.2222 28.5777C26.0889 28.711 26 28.8888 25.9111 29.0666C25.7777 28.8444 25.6444 28.5332 25.4666 28.2666C24.8444 27.111 23.8666 25.5555 22.8 23.8666C21.7333 22.1777 20.4889 20.3555 19.4222 18.6221C19.1555 18.1777 18.8888 17.7332 18.6222 17.3332C18.8 17.111 18.9777 17.0666 19.1555 17.0666ZM30.3111 31.3332V31.4666C30.2222 31.5999 30.1333 31.7777 30 32.0443C29.8666 32.3555 29.6444 32.8888 29.1111 33.3777C28.9777 33.511 28.8444 33.5999 28.6666 33.6888C28.5777 33.7332 28.4889 33.7777 28.4 33.8221C28.3555 33.8221 28.3111 33.8666 28.2666 33.8666C28.2222 33.8666 28.1777 33.8666 28.1333 33.911C27.9555 33.9555 27.7777 33.9555 27.6889 33.911C27.5555 33.8666 27.4222 33.7332 27.2889 33.4666C27.1555 33.1999 27.0222 32.7999 26.9333 32.3555C26.8889 31.911 26.8889 31.3332 26.9777 30.8443C27.0666 30.311 27.2 29.8221 27.4666 29.3777C27.6 29.1555 27.7777 28.9777 27.9111 28.8444C28.0889 28.711 28.1777 28.6666 28.3555 28.6666C29.0666 28.5777 29.8666 29.6444 30.1777 30.2221C30.3555 30.5777 30.4889 30.8443 30.5777 31.0666C30.3111 31.0666 30.3111 31.1999 30.3111 31.3332ZM9.15551 41.111C9.06663 41.0666 9.02218 41.0221 8.93329 41.0221C8.8444 40.9777 8.75551 40.9332 8.62218 40.8443C8.17774 40.5777 7.6444 40.0888 7.15551 39.4221C6.66662 38.7999 6.22218 38.0443 6.0444 37.3332C5.99996 37.1555 5.95551 36.9777 5.95551 36.8443C5.95551 36.7555 5.95551 36.711 5.95551 36.6221C5.95551 36.5332 5.95551 36.4444 5.95551 36.3555C5.95551 35.9999 5.99996 35.6443 6.0444 35.3777C6.22218 34.311 6.53329 33.5555 6.75551 33.0221C7.02218 32.4888 7.2444 32.1777 7.37774 31.9555C7.51107 31.7332 7.59996 31.5999 7.59996 31.4666C7.59996 31.3332 7.55551 31.2443 7.51107 31.111C7.46662 31.0221 7.37774 30.8888 7.2444 30.8443H7.19996C7.19996 30.6666 7.11107 30.4444 7.06662 30.1332C6.97774 29.5999 6.8444 28.8443 6.88885 28.0443C6.93329 27.2443 7.15551 26.3999 7.46662 25.6888C7.77774 24.9777 8.26662 24.3999 8.66662 23.9999C9.42218 23.2444 10.1333 22.8443 10.6666 22.5777C11.2 22.311 11.6 22.1777 11.8666 22.0443C12.4 21.8221 12.4444 21.5999 12.4444 21.3332C12.4444 21.2888 12.4444 21.1999 12.4444 21.1555C12.5777 21.0666 12.7111 20.9332 12.8444 20.711C13.1555 20.3999 13.5111 19.911 14 19.511C14.4888 19.0666 15.0222 18.6666 15.6 18.3555C16.0444 18.0888 16.4444 17.911 16.8444 17.7777C18.3555 19.9999 20.0889 22.311 21.7333 24.4443C22.9777 26.0443 24.0889 27.4666 24.8889 28.4888C25.2 28.8443 25.4222 29.1999 25.6444 29.4221C25.5555 29.5999 25.5111 29.7777 25.4222 29.9555C25.2889 29.8666 25.2 29.7777 25.0666 29.6888C24.4 29.1999 23.4666 28.5777 22.1333 27.9555C21.3777 27.6444 20.4 27.2888 19.3333 27.0666C18.2666 26.8444 17.1111 26.711 16.0444 26.6666C14.9777 26.6666 14.0444 26.7555 13.3777 26.9332C12.7111 27.111 12.3111 27.2443 12.3111 27.3777C12.3111 27.511 12.7555 27.5555 13.4222 27.6444C14.0888 27.7332 14.9777 27.7777 15.9555 27.9555C16.9333 28.1332 17.9555 28.3555 18.9333 28.6666C19.9111 28.9777 20.7555 29.3332 21.4222 29.6443C22.6222 30.1777 23.5111 30.711 24.1777 31.111C24.4889 31.2888 24.8 31.4666 25.0222 31.5999C25.0666 31.6443 25.1555 31.6888 25.2 31.6888C25.2 32.0443 25.2 32.3555 25.2444 32.6666C24.1777 32.711 22.8444 32.9777 21.8222 33.2888C20.4 33.6888 18.5333 34.311 16.2222 35.5555C14.9777 36.2221 13.4222 37.1999 11.8666 38.4443C11.1111 39.0666 10.3555 39.7777 9.73329 40.6221C9.59996 40.7999 9.46663 40.9777 9.37774 41.1555C9.2444 41.111 9.19996 41.111 9.15551 41.111ZM28.8889 52.8443C28.6666 53.0221 28.3555 53.3777 27.9111 53.7777C27.4222 54.2221 26.8 54.7555 25.8222 55.2888C25.2889 55.5555 24.5777 55.911 23.8222 56.0888C23.0222 56.2666 22.1333 56.311 21.2889 56.2666C20.0444 56.2221 18.9777 55.9555 18.4444 55.9555C18.6666 55.6443 18.7555 55.3777 18.8444 55.1555C18.9777 54.711 18.9333 54.4888 18.8444 54.3555C18.7555 54.2221 18.6666 54.1777 18.5333 54.1777C18.4 54.1332 18.3111 54.1332 18.1777 54.1777C18.0444 54.2221 17.9111 54.3555 17.7333 54.5777C17.5111 54.7999 17.2444 55.111 16.7111 55.4221C16.1777 55.7332 15.3333 56.0888 14.3111 55.8666C13.7333 55.7332 12.9777 55.4221 12.3111 54.8443C11.6444 54.2666 11.0666 53.4221 10.7111 52.6221C10.3555 51.7777 10.3111 50.9332 10.4 50.3555C10.4444 49.911 10.5333 49.5555 10.5777 49.4221C10.7555 49.4666 10.8888 49.511 10.8888 49.4666C10.9777 49.3332 10.2666 48.9777 9.77774 47.9555C9.2444 47.0221 8.97774 45.3777 9.55551 43.8221C10.1333 42.2666 11.4666 40.8888 12.8888 39.8221C14.3555 38.7555 15.8666 37.8666 17.0666 37.2444C19.2444 36.0888 20.9777 35.4666 22.3111 34.9777C23.8222 34.4443 24.8889 34.1777 25.5555 33.911C25.6444 34.0888 25.6889 34.2666 25.7777 34.3999C25.8222 34.4888 25.9111 34.5777 25.9555 34.6666C25.7333 34.711 25.4666 34.7555 25.1555 34.8443C24.2222 35.1555 23.0222 35.7332 21.7777 36.8443C21.1111 37.4666 20.3111 38.2666 19.6 39.2888C18.8888 40.2666 18.2222 41.4221 17.7777 42.4888C16.8444 44.6666 16.7111 46.5777 16.9333 46.6221C17.2 46.6666 17.7777 44.9332 18.9333 43.0666C19.5111 42.1332 20.1777 41.1555 20.9333 40.311C21.6444 39.4666 22.4 38.7555 23.0222 38.2221C24.1333 37.2443 25.0666 36.7555 25.7777 36.4443C26.2222 36.2666 26.5777 36.1332 26.8889 36.0443C26.8444 36.3999 26.8 36.8443 26.8 37.3332C26.7111 38.7555 26.7111 40.711 26.9333 42.9332C27.1555 45.111 27.6444 47.511 28.4444 49.6443C28.8444 50.711 29.2889 51.6888 29.7777 52.6221C29.4666 52.4888 29.2889 52.5332 28.8889 52.8443ZM51.9111 43.111C51.8666 43.511 51.7777 43.911 51.6444 44.2666C51.5111 44.6221 51.3777 44.9332 51.1555 45.1555C50.8 45.6888 50.3555 45.9999 50.0444 46.1777C49.8666 46.2666 49.7333 46.3555 49.6444 46.3999C49.6 46.3555 49.5555 46.311 49.5555 46.2666C49.2889 45.8666 49.0666 45.7332 48.9333 45.6888C48.8 45.6443 48.6666 45.6888 48.5777 45.7777C48.4889 45.8666 48.4 45.911 48.3555 46.0888C48.3111 46.2221 48.3555 46.4443 48.4444 46.8443C48.5333 47.1999 48.6666 47.7332 48.7111 48.5332C48.7555 49.3332 48.7111 50.4443 48.1333 51.6888C47.8222 52.3555 47.2889 53.1999 46.4444 53.8221C45.6 54.4443 44.5333 54.8888 43.4666 55.0221C42.4 55.1999 41.4222 55.0666 40.7111 54.9332C40.3555 54.8443 40.0444 54.7555 39.8666 54.711C39.8666 54.6221 39.8666 54.5332 39.8666 54.4443C39.8222 53.5999 39.6889 53.1999 39.6 53.0221C39.4666 52.7999 39.3777 52.7999 39.2444 52.7999C39.1111 52.7999 39.0222 52.8443 38.8889 53.0221C38.8 53.2443 38.7111 53.6443 38.6222 54.3555C38.5777 54.711 38.4889 55.1555 38.2666 55.5555C38.0889 55.9999 37.7333 56.4888 37.2444 56.711C37.0222 56.8443 36.7111 56.8888 36.4 56.8443C36.0889 56.7999 35.6889 56.6666 35.2889 56.3999C34.8889 56.1777 34.4444 55.8221 34.0444 55.3777C33.6 54.9332 33.2 54.4443 32.7555 53.8666C31.8222 52.6221 30.7555 50.9332 29.9111 48.9332C29.0666 46.9332 28.4889 44.711 28.0889 42.6221C27.5555 39.7777 27.4222 37.2443 27.2444 35.8221C27.4666 35.7777 27.6 35.7332 27.7333 35.6888C28.0444 35.6888 28.3111 35.6888 28.5333 35.5999C29.3777 35.3777 29.9555 34.9332 30.3555 34.4888L30.4 34.4443C30.4889 34.9332 31.1111 36.1777 31.9555 37.5999C33.0222 39.3332 34.5333 41.2444 35.6 42.3555C37.5555 44.3999 38.7111 45.2443 39.3777 45.5999C40.0444 45.9555 40.2222 45.7777 40.3555 45.5999C40.5333 45.4221 40.6222 45.1999 40.2222 44.6221C39.8222 44.0443 38.8 43.0666 36.9333 41.111C35.9111 40.0443 34.3111 38.311 33.0222 36.8443C31.9111 35.5555 30.9777 34.4443 30.6222 34.2666C31.2444 33.4666 31.3333 32.7555 31.3777 32.311C31.3777 32.1777 31.3777 32.0443 31.3777 31.9555C32.0444 32.0888 33.3777 32.2666 35.4222 32.6221C36.8889 32.8888 38.9777 33.3332 41.6444 34.311C43.1111 34.8443 44.9777 35.5999 46.8444 36.6221C47.7777 37.1555 48.7555 37.6888 49.5555 38.311C50.3555 38.9332 51.0666 39.6888 51.4666 40.5332C51.8666 41.3332 52 42.2666 51.9111 43.111ZM53.9555 26.7555C53.7777 27.5999 53.3777 28.1777 53.0666 28.5777C52.7555 28.9777 52.4889 29.1999 52.3111 29.3332C51.9555 29.6888 51.9555 29.8666 52.0444 30.1332C52.0889 30.2666 52.1333 30.3555 52.2222 30.4443C52.3111 30.5332 52.5333 30.5777 52.8889 30.4888C52.9777 30.4888 53.0222 30.4443 53.1111 30.4443C53.1111 30.5332 53.1555 30.6221 53.1555 30.711C53.2444 31.111 53.3777 31.6888 53.3333 32.2666C53.3333 32.8443 53.2 33.511 52.9333 33.9999C52.7111 34.5332 52.3555 34.9332 52.0889 35.2444C51.5555 35.7777 51.0222 36.0443 50.6222 36.2666C50.3111 36.4443 50.0444 36.5332 49.8666 36.6221C49.1555 36.0888 48.4 35.5999 47.6889 35.1999C45.7777 34.0443 43.8222 33.1999 42.2666 32.6221C39.4666 31.5999 37.2 31.1999 35.5111 30.9777C33.8222 30.7555 32.6666 30.7555 31.9111 30.7999C31.4222 30.8444 31.1111 30.8888 30.8889 30.9332C30.9333 30.711 30.8889 30.3555 30.8 29.9555C30.7555 29.7332 30.6666 29.511 30.5333 29.2888C30.4444 29.0666 30.3111 28.8444 30.1333 28.5777C30.1333 28.5777 30.1333 28.5332 30.0889 28.5332C30.2666 28.311 30.5333 27.9999 30.8444 27.6444C31.6 26.7999 32.8 25.8221 34.1777 24.7555C35.5555 23.6888 37.0222 22.4888 38.4889 21.5555C39.9555 20.6221 41.4666 20.0443 42.6222 19.8221C43.6889 19.5999 44.6666 19.5555 45.4666 19.6888C46.2666 19.8221 46.9333 20.0444 47.5111 20.311C48.6222 20.8444 49.2 21.4666 49.5555 21.8666C49.8222 22.1332 49.9555 22.311 50.0889 22.4443C50.0889 22.4888 50.0444 22.4888 50.0889 22.4888C50.1333 22.6221 50.4444 22.6666 50.9333 22.7555C51.4222 22.8888 52 23.111 52.5333 23.511C53.0666 23.911 53.5555 24.5332 53.7777 25.111C54.0444 25.6888 54.0444 26.311 53.9555 26.7555Z" fill="#26848B"/>
<path d="M41.8225 26.8443C41.3336 26.6666 40.2669 26.3999 38.2225 26.5777C37.6447 26.6221 36.9336 26.711 36.2225 26.8888C35.467 27.0666 34.7114 27.2888 34.0447 27.5999C32.667 28.1332 31.6892 28.8443 31.7781 29.0666C31.867 29.2888 33.0225 29.0666 34.3558 28.8443C35.7336 28.6221 37.3336 28.4888 38.3558 28.3999C40.2225 28.2666 41.2003 28.311 41.6892 28.1777C42.1781 28.0443 42.2669 27.8221 42.2669 27.5999C42.3114 27.2888 42.3114 27.0666 41.8225 26.8443Z" fill="#26848B"/>
</svg>
