<svg width="38" height="38" viewBox="0 0 38 38" fill="none" xmlns="http://www.w3.org/2000/svg"> <path d="M12.585 36.5095V36.7359C12.585 37.1133 12.8868 37.4152 13.2642 37.4906H19.0001H24.7359H24.9623C25.3397 37.3397 25.5661 36.9623 25.4151 36.585C23.6793 31.2265 21.1133 23.3774 19.0001 18.0189C20.2076 18.1699 21.5661 17.7925 22.5472 16.8869C23.5284 16.0567 24.2076 14.6982 24.2076 13.3397C24.2831 11.9812 23.7548 10.5472 22.7736 9.56611C21.7925 8.58498 20.3585 7.9812 19.0001 7.9812C17.5661 7.9812 16.2076 8.58498 15.2265 9.56611C14.2453 10.5472 13.717 11.9812 13.7925 13.3397C13.868 14.6982 14.4718 16.0567 15.4529 16.8869C16.434 17.7171 17.7925 18.1699 19.0001 18.0189C17.7925 17.868 16.6604 17.2642 15.9812 16.3586C15.2265 15.5284 14.9246 14.3963 14.9246 13.3397C15.0001 11.151 16.8868 9.33969 19.0001 9.41516C21.1133 9.33969 23.0001 11.151 23.0755 13.3397C23.151 14.3963 22.7736 15.5284 22.0189 16.3586C21.2642 17.2642 20.2076 17.7925 19.0001 18.0189C16.8868 23.4529 14.2453 31.302 12.585 36.5095ZM19.0001 17.9435C20.2076 23.5284 22.3208 31.0001 23.7548 35.9812H19.0001H14.2453C15.7548 30.7737 17.7925 23.5284 19.0001 17.9435Z" fill="#26848B"></path> <path d="M31.8301 0.509521C33.264 2.39631 34.3961 4.43405 35.2263 6.62273C35.981 8.81141 36.4339 11.0756 36.3584 13.3397C36.3584 15.6039 35.981 17.868 35.2263 20.0567C34.4716 22.2454 33.264 24.2831 31.8301 26.1699C33.7169 24.7359 35.2263 22.7737 36.2829 20.5095C37.3395 18.3209 37.8678 15.8303 37.8678 13.3397C37.8678 10.8491 37.3395 8.43405 36.2829 6.1699C35.2263 3.98122 33.7169 1.94348 31.8301 0.509521Z" fill="#26848B"></path> <path d="M6.16957 26.0944C4.73561 24.2076 3.60353 22.1699 2.77335 19.9812C2.0941 17.868 1.64127 15.6039 1.64127 13.3397C1.64127 11.0756 2.01863 8.81141 2.77335 6.62273C3.52806 4.43405 4.73561 2.39631 6.16957 0.509521C4.28278 1.94348 2.77335 3.90575 1.71674 6.1699C0.660138 8.35858 0.131836 10.8491 0.131836 13.3397C0.131836 15.8303 0.660138 18.2454 1.71674 20.5095C2.77335 22.6982 4.28278 24.6605 6.16957 26.0944Z" fill="#26848B"></path> <path d="M32.1321 18.7738C32.9623 17.1134 33.3397 15.2266 33.3397 13.3398C33.3397 11.453 32.8869 9.56624 32.0567 7.90586C31.2265 6.24548 30.0189 4.73605 28.585 3.67944C29.6416 5.18888 30.4718 6.69831 31.0001 8.35869C31.5284 9.94359 31.8303 11.6794 31.8303 13.3398C31.8303 15.0002 31.5284 16.7361 31.0001 18.321C30.4718 19.9059 29.6416 21.4908 28.585 23.0002C30.0944 21.8681 31.302 20.4342 32.1321 18.7738Z" fill="#26848B"></path> <path d="M9.33941 3.67944C7.82997 4.73605 6.62242 6.17001 5.8677 7.90586C5.03752 9.56624 4.66016 11.453 4.66016 13.3398C4.66016 15.2266 5.11299 17.1134 5.94318 18.7738C6.77337 20.4342 7.98091 21.9436 9.41488 23.0002C8.35827 21.4908 7.52808 19.9813 6.99978 18.321C6.47148 16.7361 6.16959 15.0002 6.16959 13.3398C6.16959 11.6794 6.47148 9.94359 6.99978 8.35869C7.52808 6.69831 8.35827 5.18888 9.33941 3.67944Z" fill="#26848B"></path> <path d="M25.4902 19.7548C27.6034 18.4718 28.9619 15.9058 28.8865 13.2643C28.8865 10.6982 27.6034 8.0567 25.4902 6.77368C26.094 7.83029 26.6223 8.88689 26.9242 9.9435C27.6034 12.0567 27.528 14.3963 26.9242 16.5095C26.5468 17.6416 26.094 18.6982 25.4902 19.7548Z" fill="#26848B"></path> <path d="M12.5096 6.84912C10.3964 8.13214 9.03787 10.7737 9.11334 13.3397C9.11334 15.9057 10.3964 18.5472 12.5096 19.8303C11.302 17.7171 10.6228 15.7548 10.6228 13.3397C10.6228 10.9246 11.302 8.96233 12.5096 6.84912Z" fill="#26848B"></path> </svg>