<svg width="38" height="28" viewBox="0 0 38 28" fill="none" xmlns="http://www.w3.org/2000/svg"> <path d="M2.97751 25.1298C3.30528 25.2748 3.6536 25.38 4.01116 25.4206C4.39544 25.4593 4.67362 25.4465 4.96388 25.4507L6.99687 25.46C6.81302 25.8505 6.80583 26.2509 7.0136 26.6552C7.12879 26.8626 7.28078 27.0699 7.58547 27.2773C7.89015 27.0699 8.0421 26.8626 8.15733 26.6552C8.26387 26.4478 8.31367 26.2404 8.31252 26.033C8.31176 25.8439 8.26435 25.6546 8.17606 25.4655L18.9976 25.5152L29.8259 25.4644C29.7374 25.654 29.6899 25.8435 29.6892 26.033C29.688 26.2404 29.7378 26.4478 29.8443 26.6552C29.9595 26.8626 30.1115 27.0699 30.4162 27.2773C30.7209 27.0699 30.8728 26.8626 30.988 26.6552C31.0946 26.4478 31.1444 26.2404 31.1433 26.033C31.1425 25.8417 31.0947 25.6503 31.0043 25.4589L33.0314 25.4494C33.3229 25.4452 33.598 25.4578 33.9826 25.4206C34.3399 25.3796 34.6884 25.2765 35.0165 25.1321C35.669 24.8345 36.231 24.3412 36.593 23.7233C36.9697 23.131 37.1218 22.3358 37.0913 21.7128L37.0831 19.9586C37.08 17.0186 37.0484 15.4944 36.8879 4.17065C36.9057 3.56145 36.754 2.83435 36.3942 2.28197C36.0491 1.71006 35.5189 1.25987 34.9129 0.994066C34.608 0.865426 34.2862 0.77354 33.9571 0.741757C33.6133 0.711395 33.3291 0.728263 33.0377 0.733767C28.3598 0.853707 23.682 0.924374 19.0041 1.08826C23.682 1.25206 28.3598 1.32281 33.0377 1.44266C33.3308 1.45127 33.6328 1.44879 33.8709 1.47764C34.1242 1.50889 34.3681 1.58817 34.5983 1.69213C35.0547 1.90884 35.4492 2.26306 35.6949 2.70136C35.9536 3.14792 36.0484 3.61365 36.0228 4.17065C35.8608 15.6018 35.8306 17.1028 35.8276 19.9586L35.8194 21.7128C35.8226 22.0277 35.8055 22.1944 35.7505 22.4335C35.701 22.6551 35.6071 22.8649 35.4894 23.0583C35.2579 23.4492 34.894 23.7579 34.4831 23.9413C34.0468 24.1361 33.6747 24.1425 33.0314 24.1281L18.9976 24.0623L4.96388 24.1269C4.66981 24.1279 4.36183 24.1345 4.16417 24.114C3.93934 24.0916 3.72192 24.0256 3.51462 23.938C3.10429 23.7542 2.74101 23.4447 2.51058 23.0535C2.39406 22.8597 2.29973 22.6501 2.25104 22.4285C2.19719 22.1885 2.17971 22.0242 2.18339 21.7063L2.17509 19.9522C2.17112 16.7818 2.13649 15.1077 2.00566 5.91843L1.98062 4.16417C1.95532 3.6093 2.05147 3.14268 2.31101 2.69746C2.55768 2.26005 2.95243 1.90697 3.40893 1.69106C3.63931 1.58746 3.88336 1.50987 4.13643 1.47809C4.37426 1.44959 4.67797 1.45358 4.97032 1.44479C9.64823 1.32397 14.3261 1.25312 19.0041 1.08826C14.3261 0.923309 9.64823 0.852553 4.97032 0.731725C4.67824 0.725955 4.39588 0.711129 4.0516 0.73936C3.72241 0.771409 3.4001 0.861519 3.09474 0.989538C2.48786 1.25454 1.95669 1.70358 1.60984 2.27487C1.24869 2.82681 1.09461 3.5531 1.11192 4.16417L1.08693 5.91843C0.954833 15.1967 0.921499 16.7585 0.917499 19.9522L0.909198 21.7063C0.878347 22.3266 1.02812 23.1242 1.4036 23.7172C1.76409 24.3362 2.32544 24.8311 2.97751 25.1298Z" fill="#26848B"></path> <path d="M4.69693 8.68362L4.60598 13.0572L4.53576 17.4308C4.53484 17.5095 4.51571 19.1455 4.51658 19.0709C4.52005 19.2377 4.50083 19.4535 4.54916 19.7284C4.69978 20.7127 5.48276 21.5592 6.46398 21.7835C6.5849 21.813 6.70914 21.8322 6.83272 21.8437C7.07809 21.8615 7.1405 21.855 7.70776 21.8608C7.81511 21.8612 15.4361 21.8907 15.3615 21.8905C16.1468 21.8875 12.522 21.9012 23.0153 21.8615C23.2163 21.8573 23.3376 21.8678 23.6042 21.8516C23.8526 21.8352 24.1009 21.7829 24.3336 21.6917C25.2764 21.3454 25.95 20.4045 25.9723 19.4095L25.9515 17.1933L25.8818 12.8197L25.7909 8.44614L25.7613 7.35274C25.7391 6.97179 25.7713 6.66924 25.6964 6.19001C25.5326 5.30587 24.8076 4.5786 23.9475 4.41524C23.4915 4.33144 23.1394 4.39847 22.7778 4.39776L21.6844 4.43868C18.8316 4.54823 17.8026 4.56876 15.124 4.71327C17.8026 4.85779 18.8446 4.87886 21.6844 4.98795L22.7778 5.02888C23.1422 5.0517 23.5287 5.03039 23.7873 5.11002C24.3601 5.25917 24.8045 5.76885 24.8735 6.33224C24.9049 6.57522 24.8696 7.00624 24.8671 7.35274L24.8376 8.44614L24.7467 12.8197L24.677 17.1933L24.6672 17.9153C23.2043 17.6839 21.7414 17.5462 20.2785 17.453C18.5999 17.3369 16.9214 17.3059 15.2428 17.2915C13.5642 17.3042 11.8856 17.3352 10.2071 17.4507C8.74221 17.5438 7.27741 17.6824 5.81257 17.9157L5.80689 17.4308L5.73666 13.0572L5.64575 8.68362L5.59084 6.51538C5.58654 5.94516 5.96465 5.38675 6.51418 5.16347C6.78105 5.03527 7.08245 5.04255 7.47028 5.02702L8.56368 4.98636C11.4309 4.87676 12.4168 4.85819 15.124 4.71327C13.6662 4.63533 12.2083 4.56936 10.7505 4.5216C10.6758 4.51882 7.25236 4.39142 7.47028 4.39953C7.13483 4.3887 6.68548 4.34298 6.268 4.4987C5.43766 4.7684 4.80857 5.58215 4.76028 6.47845L4.69693 8.68362ZM10.2071 18.5859C11.8856 18.7015 13.5642 18.7324 15.2428 18.7451C16.9214 18.7307 18.5999 18.6997 20.2785 18.5836C21.7405 18.4904 23.2024 18.3529 24.6644 18.1216L24.6477 19.3505C24.626 19.8221 24.2925 20.2532 23.8553 20.4C23.748 20.4403 23.6343 20.4601 23.5194 20.4641C23.4222 20.4711 23.1785 20.4648 23.0153 20.4658C22.9075 20.4654 15.2552 20.4364 15.3615 20.4368C15.1784 20.4375 7.17751 20.4685 7.70776 20.4665C6.95989 20.4679 7.00767 20.4859 6.7724 20.4451C6.3206 20.3568 5.93419 19.9665 5.85207 19.5032C5.82588 19.3948 5.83019 19.2774 5.82606 19.0709C5.82521 18.9976 5.81411 18.0481 5.81497 18.1213C7.27901 18.3544 8.74301 18.4929 10.2071 18.5859Z" fill="#26848B"></path> <path d="M13.8105 14.897C15.7102 14.3781 17.8215 12.2455 18.3391 10.3684C16.461 10.8861 14.3292 12.998 13.8105 14.897Z" fill="#26848B"></path> <path d="M14.9907 11.129C15.0874 10.8681 15.1595 10.5826 15.1241 10.1896C14.7311 10.1541 14.4455 10.2262 14.1847 10.323C13.6927 10.5231 13.3152 10.8918 13.1105 11.3943C13.0132 11.6546 12.9419 11.9409 12.9785 12.3351C13.3728 12.3718 13.659 12.3004 13.9193 12.2031C14.421 11.9989 14.7904 11.6214 14.9907 11.129Z" fill="#26848B"></path> <path d="M32.6704 17.1589C32.1314 16.7543 31.4433 16.602 30.8646 16.7662C32.0337 17.0722 32.6225 18.1145 32.501 18.9651C32.4025 19.8344 31.6422 20.4493 30.8675 20.4365C30.0944 20.4495 29.3364 19.8396 29.2366 18.9682C29.1148 18.1178 29.6941 17.0742 30.8646 16.7662C30.2859 16.6005 29.5965 16.7537 29.0578 17.1603C28.5242 17.5709 28.1473 18.2418 28.1015 18.9682C28.0303 19.6945 28.3187 20.4547 28.8265 21.0103C29.3396 21.568 30.1062 21.8939 30.8703 21.8906C31.6343 21.8903 32.3983 21.5626 32.9089 21.0046C33.4162 20.4499 33.7039 19.6894 33.6317 18.9628C33.5856 18.2357 33.2044 17.5666 32.6704 17.1589Z" fill="#26848B"></path> <path d="M27.9721 11.8801C27.9727 11.9181 27.9718 12.0566 27.9938 12.1666C28.0115 12.2804 28.0466 12.3913 28.0904 12.4973C28.27 12.9209 28.6506 13.2435 29.093 13.3458C29.2026 13.3735 29.3153 13.3846 29.4264 13.3857L29.6235 13.3802L29.9905 13.3675C30.4798 13.3547 30.9691 13.3271 31.4583 13.2972L32.1922 13.255L32.2849 13.2496C32.3353 13.2457 32.3856 13.243 32.4354 13.2349C32.535 13.2185 32.6335 13.1935 32.7262 13.1543C33.0975 13.0058 33.3774 12.6654 33.4644 12.2932C33.5132 12.1031 33.4957 11.8981 33.4857 11.8035L33.4252 11.0696C33.326 10.091 33.2303 9.1124 33.07 8.13388C32.9098 9.1124 32.8141 10.091 32.7148 11.0696L32.6543 11.8035C32.645 11.9526 32.635 11.9962 32.6106 12.0416C32.5874 12.0896 32.5503 12.1286 32.5104 12.1579C32.4707 12.1887 32.4233 12.203 32.3806 12.2118C32.3593 12.2174 32.337 12.2168 32.3156 12.217L32.1922 12.2088L31.4583 12.1666C30.3014 12.096 30.1709 12.1052 29.6235 12.0835L29.4537 12.0764C29.4428 12.0732 29.4328 12.0717 29.4246 12.0659C29.3905 12.0504 29.3665 12.0122 29.3634 11.9819L29.396 9.31126L29.3579 6.37553L29.3321 5.6416L29.3252 5.46156C29.3259 5.44043 29.3351 5.4193 29.3476 5.39853C29.36 5.37731 29.3794 5.36044 29.4008 5.34828C29.4112 5.34064 29.4234 5.33771 29.4359 5.33292L29.4563 5.32804L29.547 5.32333L30.2809 5.28081L31.7488 5.1899L32.1157 5.16042L32.2902 5.1464C32.3182 5.14293 32.3472 5.13983 32.3757 5.14356C32.4914 5.15004 32.6106 5.22505 32.6813 5.33958C32.7182 5.40794 32.7391 5.43901 32.7506 5.56508L32.7882 5.93209C32.8331 6.30714 32.8828 6.94209 33.07 8.13388C33.1469 7.64453 33.2152 7.15528 33.2716 6.66602L33.3518 5.93209L33.3895 5.56508C33.4069 5.44709 33.4001 5.23038 33.3433 5.07156C33.2314 4.73224 32.9459 4.44629 32.5851 4.33505C32.4958 4.3054 32.4022 4.2896 32.3082 4.28187L32.1157 4.26616L31.7488 4.23659L30.2809 4.14577L29.547 4.10316L29.4541 4.09863C29.4 4.0997 29.3457 4.0997 29.2915 4.10556C29.1831 4.11728 29.0745 4.13867 28.9709 4.17587C28.7627 4.24734 28.5712 4.36772 28.4181 4.52663C28.2646 4.68493 28.1446 4.87944 28.0782 5.09393C28.0456 5.201 28.0224 5.31197 28.0158 5.42321L28.0063 5.6416L27.9806 6.37553L27.9424 9.31126L27.9593 10.7791C27.9602 10.8524 27.9729 11.9533 27.9721 11.8801Z" fill="#26848B"></path> </svg>