<svg width="60" height="60" viewBox="0 0 60 60" fill="none" xmlns="http://www.w3.org/2000/svg">
<path d="M51.7066 1.27953C51.59 1.07293 51.3831 0.87762 48.9297 2.09431C48.3205 2.4118 47.5701 2.82423 46.6805 3.42829C45.7945 4.03235 44.7561 4.8327 43.7234 6.0406C43.2153 6.64965 42.7232 7.36948 42.3004 8.21008C41.8817 9.05221 41.5644 10.0042 41.3258 11.0259C41.1531 11.7774 41.0243 12.5676 40.9162 13.3878C36.6388 13.4844 28.3616 13.6814 24.1701 13.9386C26.0582 11.4983 26.3547 11.1049 28.0324 8.99307C28.2477 8.72234 28.518 8.41364 28.7486 7.95574C28.8722 7.70488 28.9781 7.39042 29.0014 7.04081C29.0231 6.69055 28.9582 6.33921 28.8215 6.02313C27.4903 3.01424 17.9881 1.08767 12.2467 6.99969C10.6107 8.65995 9.46348 10.7182 8.8521 12.8071C7.53713 17.2776 8.23728 22.7425 12.3376 25.8954C12.9564 26.3608 13.3407 26.5531 13.3733 26.51C13.4167 26.454 13.1055 26.1633 12.5784 25.6214C9.21936 22.1019 8.63337 17.4566 10.0729 13.1914C10.7031 11.3137 11.8076 9.4947 13.3021 8.06685C17.3068 4.18861 23.6328 4.17799 26.6265 6.18719C26.9128 6.37523 27.104 6.59105 27.1595 6.73417C27.2133 6.88543 27.2155 6.95162 27.1235 7.15876C26.9187 7.58218 27.5311 6.59439 22.6143 13.0519C22.6086 13.0595 22.6035 13.0662 22.5979 13.0738C22.598 12.9549 22.5966 12.829 22.5934 12.6947C22.5644 11.4831 22.0973 8.89281 21.5975 8.90475C21.0979 8.91668 20.7549 11.5263 20.7839 12.7379C20.8179 14.1626 20.9991 14.6824 21.257 14.8702C21.1256 15.0473 20.9912 15.228 20.8643 15.3995C20.681 15.0941 20.2555 14.6773 19.3647 13.9583C18.8425 13.5393 17.9534 12.9356 17.1329 12.5033C16.3136 12.0662 15.5566 11.8415 15.4255 12.0554C15.2949 12.2679 15.7567 12.84 16.3468 13.5134C16.9404 14.1839 17.6949 14.9389 18.2297 15.3684C19.1068 16.0767 19.6836 16.3945 20.0592 16.4913C19.8124 16.8271 19.5762 17.1493 19.3476 17.4618C19.0102 17.3934 18.4797 17.3887 17.6094 17.4077C17.0113 17.4215 16.0689 17.4883 15.2497 17.549C14.4329 17.6158 13.7352 17.6915 13.6813 17.9379C13.6279 18.1793 14.2533 18.5527 15.0948 18.8193C15.9324 19.0919 16.9769 19.2331 17.6402 19.2175C17.7983 19.214 17.945 19.2073 18.0831 19.1984C13.7793 25.1305 13.3597 25.8976 13.7065 26.1767C14.3224 26.6731 18.1982 21.6472 19.1157 20.4829C19.074 21.342 19.0308 22.267 18.9859 23.2741C18.8795 26.1425 18.632 29.572 18.8596 33.4137C19.0544 36.6882 21.4684 54.1477 22.2035 55.8795C22.4586 56.4922 22.8961 57.1176 23.499 57.5361C25.9788 59.2886 39.3093 58.8413 41.9102 58.7762C42.1858 58.7623 42.5156 58.7515 42.8904 58.6656C43.2554 58.5841 43.7294 58.3899 44.0652 57.98C44.3978 57.5718 44.492 57.1426 44.5528 56.8244C44.6342 56.2689 44.7152 55.7165 44.7957 55.1675C46.4572 43.5784 49.6226 24.9247 47.9348 15.0571C47.8795 14.7445 47.7566 14.3018 47.4132 13.9424C47.079 13.5882 46.6537 13.4309 46.3202 13.3629C45.7877 13.2546 45.5531 13.2878 42.7327 13.348C42.8228 12.6633 42.9253 12.0161 43.0557 11.4152C43.2598 10.4933 43.5223 9.67037 43.8582 8.95933C44.1979 8.25099 44.5942 7.63413 45.0152 7.09539C45.8725 6.02638 46.7748 5.25371 47.5634 4.64205C48.3536 4.02942 49.0342 3.57141 49.5814 3.19587C51.8096 1.73059 51.8355 1.50794 51.7066 1.27953ZM20.5232 18.6789C21.3532 17.5996 22.3029 16.365 23.372 14.9751C27.4182 15.1442 36.6654 15.0746 40.7211 15.0421C40.6187 15.9527 40.5114 16.9076 40.3986 17.9119C40.2197 19.508 40.0032 21.365 39.7601 23.373C36.7483 23.4901 33.3733 23.5497 31.6503 23.554C25.2623 23.5814 21.3518 23.2993 19.69 23.347C19.69 23.3292 19.6902 23.3101 19.6902 23.2922C19.6993 21.9804 19.7045 20.7933 19.7061 19.7298C19.9676 19.3951 20.2377 19.0481 20.5232 18.6789ZM43.0837 54.9282C43.011 55.4573 42.9378 55.9897 42.8642 56.5251C42.8295 56.7449 42.7722 56.8695 42.7484 56.8929C42.7313 56.9184 42.6717 56.9682 42.4986 57.0111C41.4182 57.2743 26.2774 57.6607 24.3446 56.3262C23.9925 56.087 23.7295 55.7419 23.5334 55.3005C23.0069 54.1146 20.1782 36.9931 19.8689 33.3395C19.5673 29.7938 19.676 26.542 19.688 23.7654C22.7592 24.6123 28.377 25.0824 31.619 25.2216C35.7536 25.406 42.2059 25.2547 46.0475 24.417C46.2526 24.3682 46.4235 24.3216 46.5711 24.2765C46.3857 32.0432 45.2848 38.7696 43.0837 54.9282ZM45.9658 15.0407C46.104 15.0715 46.1527 15.1119 46.1591 15.1223C46.1654 15.1284 46.1697 15.1341 46.1858 15.1717C46.2003 15.2085 46.2181 15.272 46.2325 15.3578C46.3385 15.9614 46.6288 19.4078 46.5919 23.1764C46.4104 23.1582 46.188 23.1467 45.9092 23.1447C45.0594 23.1215 43.7099 23.2009 41.5493 23.2979C41.8065 21.3998 42.026 19.6419 42.1968 18.1182C42.3161 17.0313 42.4289 16.0038 42.5363 15.0264C45.6844 14.9966 45.72 14.9848 45.9658 15.0407Z" fill="#26848B"/>
</svg>
