<svg width="38" height="38" viewBox="0 0 38 38" fill="none" xmlns="http://www.w3.org/2000/svg"> <path fill-rule="evenodd" clip-rule="evenodd" d="M19 0.509393C21.3396 0.584865 23.6792 1.11317 25.8679 2.0943C28.0566 2.99996 29.9434 4.43392 31.5283 6.0943C32.2075 6.77354 32.8113 7.52826 33.3396 8.35845C30.7735 9.64147 28.283 11.0754 25.7924 12.4339L25.1132 12.8113L23.9056 13.566L21.8679 14.6981L18.0188 17.0377L15.8301 18.3962L14.6226 19.0754L14.1698 19.3773L10.6981 21.566L9.56599 22.4717C7.52826 23.8302 5.49052 25.1886 3.52826 26.5471C3.30184 26.1698 3.1509 25.7924 2.99995 25.4151C2.01882 23.2264 1.49052 20.9622 1.49052 18.6226C1.41505 14.0188 3.22637 9.41505 6.47165 6.0943C8.05656 4.43392 10.0188 3.07543 12.132 2.0943C14.3207 1.11317 16.6603 0.584865 19 0.509393C14.2452 0.35845 9.41505 2.24524 5.94335 5.566C2.47165 8.88675 0.358443 13.7169 0.282972 18.6226C0.132028 23.5283 2.24524 28.4339 5.71694 31.9056C9.18863 35.4528 14.0943 37.4905 19 37.4905C23.9811 37.4905 28.8113 35.4528 32.283 31.9056C35.7547 28.4339 37.7924 23.5283 37.7169 18.6226C37.6415 13.7169 35.6037 8.88675 32.132 5.566C28.5849 2.24524 23.7547 0.35845 19 0.509393ZM10.5471 23.1509C10.4717 23.2264 10.4717 23.2264 10.3962 23.2264L3.60373 26.849C4.2075 27.9811 4.96222 28.9622 5.79241 29.9434C8.05656 28.3585 10.3207 26.849 12.6603 25.3396L16.4339 22.9245L20.2075 20.5849L24.0566 18.3207L27.9056 16.0566C30.3962 14.6981 32.8868 13.3396 35.3773 12.0566C34.9245 10.849 34.3207 9.71694 33.6415 8.66034C31.3018 10.3207 28.8868 11.9056 26.4717 13.4905L22.6226 15.9056L18.7735 18.2452L14.9245 20.5849L11 22.849C10.9245 22.9245 10.7735 23 10.6226 23.0754L10.5471 23.1509ZM12.6603 26.6226C12.7358 26.5849 12.8301 26.5283 12.9245 26.4717C13.0188 26.4151 13.1132 26.3585 13.1886 26.3207L17.0377 24.0566L20.8868 21.7924L24.6603 19.4528L27.0754 17.9434L28.132 17.6415L28.5849 17.3396C30.9245 15.8301 33.2641 14.2452 35.5283 12.6603C36.283 14.6226 36.5849 16.7358 36.5849 18.849C36.5094 20.9622 35.9811 23.2264 35.1509 25.3396C34.2452 27.4528 32.9622 29.3396 31.3773 31C28.132 34.2452 23.6037 36.0566 19.0754 36.0566C14.5471 36.0566 10.0188 34.2452 6.77354 31C6.54712 30.7735 6.32071 30.5471 6.16977 30.3207C8.05656 29.3396 9.94335 28.3585 11.8301 27.3018L12.6603 26.6226Z" fill="#26848B"></path> <path fill-rule="evenodd" clip-rule="evenodd" d="M32.8805 16.0029H29.4856L27.5928 16.979H31.5888L32.1146 20.8698H20.8628C20.372 21.2455 19.2959 21.9969 18.9174 21.9969H32.8805V16.0029ZM20.8628 16.0029H5.11914V21.9969H10.978L12.6605 20.8698H6.24597V16.979H18.9174L20.8628 16.0029Z" fill="#26848B"></path> </svg>