<svg width="38" height="39" viewBox="0 0 38 39" fill="none" xmlns="http://www.w3.org/2000/svg"> <path d="M2.69216 25.5386C2.99985 25.8463 3.30754 26.2309 3.69216 26.4616C4.1537 26.7693 4.69216 26.8463 5.1537 26.9232C5.61524 26.9232 6.1537 26.8463 6.61524 26.6155C7.07677 26.3847 7.46139 26.077 7.76908 25.7693C8.38447 25.1539 8.99985 24.8463 9.69216 24.8463C10.4614 24.8463 10.9229 25.2309 11.5383 25.8463C11.846 26.1539 12.2306 26.5386 12.6922 26.8463C13.1537 27.1539 13.7691 27.2309 14.3075 27.2309C14.846 27.2309 15.4614 27.1539 15.9229 26.8463C16.4614 26.6155 16.7691 26.2309 17.1537 25.9232C17.7691 25.3078 18.2306 25.0001 18.9229 25.0001C19.6152 25.0001 20.0768 25.2309 20.6922 25.9232C20.9999 26.2309 21.3845 26.6155 21.9229 26.8463C22.4614 27.1539 22.9999 27.2309 23.5383 27.2309C24.0768 27.2309 24.6152 27.077 25.1537 26.8463C25.6152 26.5386 25.9999 26.2309 26.3076 25.8463C26.9229 25.2309 27.3845 24.8463 28.1537 24.8463C28.9229 24.7693 29.4614 25.1539 30.0768 25.7693C30.3845 26.077 30.7691 26.3847 31.2306 26.6155C31.6922 26.8463 32.2306 26.9232 32.6922 26.9232C33.1537 26.9232 33.6922 26.7693 34.0768 26.5386C34.4614 26.3078 34.846 25.9232 35.0768 25.6155C35.3845 25.3078 35.6152 25.0001 35.9999 24.7693C36.3845 24.5386 36.7691 24.3847 37.2306 24.3847C36.7691 24.3847 36.3076 24.3847 35.9229 24.6155C35.5383 24.7693 35.1537 25.077 34.846 25.3847C34.5383 25.6924 34.1537 25.9232 33.846 26.077C33.4614 26.2309 33.0768 26.3078 32.6922 26.2309H32.6152C33.0768 21.5386 33.3075 15.2309 33.3075 10.4616C33.3075 8.23087 33.3075 7.15395 33.3075 4.38472V3.92318C33.3075 3.76933 33.3075 3.69241 33.3075 3.53856C33.4614 2.76933 34.0768 2.23087 34.846 2.15395C35.3845 2.07702 35.9229 2.23087 36.3076 2.61549C36.6922 3.0001 36.9999 3.53856 36.9999 4.15395C37.0768 4.84626 37.1537 5.53856 37.2306 6.15395C37.3076 5.46164 37.3845 4.76933 37.4614 4.15395C37.6152 3.46164 37.3845 2.61549 36.846 2.0001C36.3076 1.38472 35.5383 1.0001 34.6922 1.0001C33.846 1.0001 32.9999 1.38472 32.4614 2.07702C32.1537 2.38472 31.9999 2.84626 31.846 3.23087C31.7691 3.46164 31.7691 3.69241 31.7691 3.84626V4.38472C31.7691 7.0001 31.6922 8.0001 31.7691 10.3078C30.846 10.077 29.9229 10.0001 28.9999 9.92318C26.6922 9.69241 24.3845 9.69241 21.9229 9.92318C20.9999 10.0001 20.0768 10.1539 19.1537 10.3078C19.1537 9.92318 19.2306 8.23087 19.1537 5.53856V3.69241C19.1537 3.23087 19.3845 2.84626 19.6922 2.53856C19.9999 2.23087 20.4614 2.07702 20.9999 2.07702C21.4614 2.07702 21.9229 2.30779 22.3075 2.69241C22.6922 3.07702 22.846 3.53856 22.846 4.23087C22.9229 4.84626 22.9999 5.46164 23.0768 6.07702C23.1537 5.46164 23.2306 4.84626 23.3075 4.23087C23.3075 3.92318 23.3845 3.53856 23.3075 3.23087C23.2306 2.84626 23.0768 2.53856 22.9229 2.23087C22.5383 1.61549 21.846 1.15395 21.0768 1.0001C20.3075 0.846256 19.4614 1.07702 18.846 1.53856C18.2306 2.0001 17.7691 2.76933 17.6922 3.61549V3.92318C17.6922 4.0001 17.6922 4.69241 17.6922 4.61549V9.30779C17.6922 13.6924 17.9229 19.3078 18.3845 23.6155C18.0768 23.6924 17.6922 23.7693 17.3845 23.9232C16.846 24.2309 16.5383 24.5386 16.2306 24.8463C15.6152 25.4616 15.1537 25.7693 14.4614 25.7693C13.7691 25.7693 13.3075 25.5386 12.6152 24.9232C12.3075 24.6155 11.9229 24.2309 11.4614 24.0001C10.9999 23.7693 10.3845 23.6155 9.92293 23.6924C9.38447 23.6924 8.84601 23.8463 8.38447 24.077C7.92293 24.3078 7.53831 24.6924 7.30754 25.0001C6.53831 25.6924 5.92293 26.1539 5.1537 26.1539C4.76908 26.1539 4.38447 26.1539 3.99985 26.0001C3.61524 25.8463 3.30754 25.5386 2.99985 25.3078C2.69216 25.0001 2.30754 24.6924 1.92293 24.5386C1.53831 24.3847 1.07677 24.3078 0.615234 24.3078C1.07677 24.3847 1.46139 24.4616 1.846 24.6924C2.1537 24.9232 2.38447 25.2309 2.69216 25.5386ZM18.9229 15.077C19.9229 15.3078 20.846 15.4616 21.846 15.5386C24.3075 15.7693 26.6152 15.7693 28.9229 15.5386C29.846 15.4616 30.846 15.3078 31.7691 15.077C31.846 17.6924 31.9229 18.6155 31.9229 19.9232C30.9229 19.6924 29.9229 19.5386 28.846 19.4616C26.5383 19.2309 24.3075 19.2309 21.7691 19.4616C20.6922 19.5386 19.6922 19.6924 18.6152 20.0001C18.6922 18.9232 18.7691 17.8463 18.7691 16.8463C18.846 16.2309 18.846 15.6155 18.9229 15.077ZM21.846 11.0001C24.3075 11.2309 26.6152 11.2309 28.9229 11.0001C29.846 10.9232 30.7691 10.7693 31.6922 10.6155C31.6922 12.0001 31.6922 13.3847 31.7691 14.8463C30.846 14.6155 29.846 14.5386 28.9229 14.3847C26.6152 14.1539 24.3075 14.1539 21.846 14.3847C20.846 14.4616 19.9229 14.6155 18.9229 14.8463C18.9999 13.4616 18.9999 12.0001 18.9999 10.6155C19.9229 10.7693 20.846 10.9232 21.846 11.0001ZM18.6152 20.1539C19.6922 20.3847 20.6922 20.5386 21.7691 20.6924C24.2306 20.9232 26.5383 20.9232 28.846 20.6924C29.846 20.6155 30.9229 20.4616 31.9229 20.2309C31.9999 22.2309 32.1537 24.2309 32.3845 26.2309C31.6922 26.1539 31.1537 25.7693 30.6152 25.1539C30.3076 24.8463 29.9999 24.4616 29.5383 24.2309C29.0768 23.9232 28.5383 23.8463 27.9999 23.8463C27.4614 23.8463 26.9229 23.9232 26.4614 24.1539C25.9999 24.3847 25.6152 24.7693 25.3076 25.077C24.6922 25.6924 24.2306 26.0001 23.4614 26.0001C22.7691 26.0001 22.3075 25.6924 21.6922 25.077C21.3845 24.7693 20.9999 24.3847 20.5383 24.1539C19.9999 23.8463 19.4614 23.7693 18.9229 23.7693C18.7691 23.7693 18.6152 23.7693 18.3845 23.8463C18.4614 22.3847 18.5383 21.2309 18.6152 20.1539Z" fill="#26848B"></path> <path d="M2.69216 31.4616C2.99985 31.7693 3.30754 32.154 3.69216 32.3847C4.07677 32.6155 4.61524 32.7693 5.07677 32.7693C5.53831 32.7693 6.07677 32.6924 6.53831 32.4616C6.99985 32.2309 7.38447 31.9232 7.69216 31.6155C8.30754 31.0001 8.92293 30.6924 9.61524 30.6924C10.3845 30.6924 10.846 31.077 11.4614 31.6924C11.7691 32.0001 12.1537 32.3847 12.6152 32.6924C13.0768 33.0001 13.6922 33.077 14.2306 33.077C14.7691 33.077 15.3845 33.0001 15.846 32.6924C16.3845 32.4616 16.6922 32.077 17.0768 31.7693C17.6922 31.1539 18.1537 30.8463 18.846 30.8463C19.5383 30.8463 19.9999 31.077 20.6152 31.7693C20.9229 32.077 21.3075 32.4616 21.846 32.6924C22.3845 33.0001 22.9229 33.077 23.4614 33.077C23.9999 33.077 24.5383 32.9232 25.0768 32.6924C25.5383 32.3847 25.9229 32.077 26.2306 31.6924C26.846 31.077 27.3075 30.6924 28.0768 30.6924C28.846 30.6155 29.3845 31.0001 29.9999 31.6155C30.3075 31.9232 30.6922 32.2309 31.1537 32.4616C31.6152 32.6924 32.1537 32.7693 32.6152 32.7693C33.0768 32.7693 33.6152 32.6155 33.9999 32.3847C34.3845 32.154 34.7691 31.7693 34.9999 31.4616C35.3075 31.1539 35.5383 30.8463 35.9229 30.6155C36.3075 30.3847 36.6922 30.2309 37.1537 30.2309C36.6922 30.2309 36.2306 30.2309 35.846 30.4616C34.9999 30.8463 34.4614 31.6155 33.6922 31.9232C33.3075 32.077 32.9229 32.154 32.5383 32.077C31.7691 32.077 31.1537 31.6155 30.6152 31.0001C30.3075 30.6924 29.9999 30.3078 29.5383 30.077C29.0768 29.7693 28.5383 29.6924 27.9999 29.6924C27.4614 29.6924 26.9229 29.7693 26.4614 30.0001C25.9999 30.2309 25.6152 30.6155 25.3075 30.9232C24.6922 31.5386 24.2306 31.8463 23.4614 31.8463C22.7691 31.8463 22.3075 31.5386 21.6922 30.9232C21.3845 30.6155 20.9999 30.2309 20.5383 30.0001C19.9999 29.6924 19.4614 29.6155 18.9229 29.6155C18.3845 29.6155 17.7691 29.7693 17.3075 30.0001C16.7691 30.3078 16.4614 30.6155 16.1537 30.9232C15.5383 31.5386 15.0768 31.8463 14.3845 31.8463C13.6922 31.8463 13.2306 31.6155 12.5383 31.0001C12.2306 30.6924 11.846 30.3078 11.3845 30.077C10.9229 29.8462 10.3075 29.6924 9.84601 29.7693C9.30754 29.7693 8.76908 29.9232 8.30754 30.1539C7.846 30.3847 7.46139 30.7693 7.23062 31.077C6.53831 31.6155 5.92293 32.077 5.1537 32.077C4.76908 32.077 4.38447 32.077 3.99985 31.9232C3.61523 31.7693 3.30754 31.4616 2.99985 31.2309C2.69216 30.9232 2.30754 30.6155 1.92293 30.4616C1.53831 30.3078 1.07677 30.2309 0.615234 30.2309C1.07677 30.3078 1.46139 30.3847 1.846 30.6155C2.1537 30.8463 2.38447 31.1539 2.69216 31.4616Z" fill="#26848B"></path> <path d="M2.69193 37.3847C2.99962 37.6924 3.30732 38.077 3.69193 38.3078C4.07655 38.5386 4.61501 38.6924 5.07655 38.6924C5.53809 38.6924 6.07655 38.6155 6.53809 38.3847C6.99963 38.154 7.38424 37.8463 7.69193 37.5386C8.30732 36.9232 8.9227 36.6155 9.61501 36.6155C10.3842 36.6155 10.8458 37.0001 11.4612 37.6155C11.7689 37.9232 12.1535 38.3078 12.615 38.6155C13.0766 38.9232 13.6919 39.0001 14.2304 39.0001C14.7689 39.0001 15.3842 38.9232 15.8458 38.6155C16.3842 38.3847 16.6919 38.0001 17.0765 37.6924C17.6919 37.077 18.1535 36.7693 18.8458 36.7693C19.5381 36.7693 19.9996 37.0001 20.615 37.6924C20.9227 38.0001 21.3073 38.3847 21.8458 38.6155C22.3842 38.9232 22.9227 39.0001 23.4612 39.0001C23.9996 39.0001 24.5381 38.8463 25.0766 38.6155C25.5381 38.3078 25.9227 38.0001 26.2304 37.6155C26.8458 37.0001 27.3073 36.6155 28.0766 36.6155C28.8458 36.5386 29.3842 36.9232 29.9996 37.5386C30.3073 37.8463 30.6919 38.154 31.1535 38.3847C31.615 38.6155 32.1535 38.6924 32.615 38.6924C33.0766 38.6924 33.615 38.5386 33.9996 38.3078C34.3842 38.077 34.7689 37.6924 34.9996 37.3847C35.3073 37.077 35.5381 36.7693 35.9227 36.5386C36.3073 36.3078 36.6919 36.154 37.1535 36.154C36.6919 36.154 36.2304 36.154 35.8458 36.3847C35.4612 36.5386 35.0766 36.8463 34.7689 37.154C34.4612 37.4617 34.0766 37.6924 33.7689 37.8463C33.3842 38.0001 32.9996 38.077 32.615 38.0001C31.8458 38.0001 31.2304 37.5386 30.6919 36.9232C30.3842 36.6155 30.0766 36.2309 29.615 36.0001C29.1535 35.6924 28.615 35.6155 28.0766 35.6155C27.5381 35.6155 26.9996 35.6924 26.5381 35.9232C26.0766 36.154 25.6919 36.5386 25.3842 36.8463C24.7689 37.4617 24.3073 37.7693 23.5381 37.7693C22.8458 37.7693 22.3842 37.4617 21.7689 36.8463C21.4612 36.5386 21.0766 36.154 20.615 35.9232C20.0766 35.6155 19.5381 35.5386 18.9996 35.5386C18.4612 35.5386 17.8458 35.6924 17.3842 35.9232C16.8458 36.2309 16.5381 36.5386 16.2304 36.8463C15.615 37.4617 15.1535 37.7693 14.4612 37.7693C13.7689 37.7693 13.3073 37.5386 12.615 36.9232C12.3073 36.6155 11.9227 36.2309 11.4612 36.0001C10.9996 35.7693 10.3842 35.6155 9.9227 35.6924C9.38424 35.6924 8.84578 35.8463 8.38424 36.077C7.9227 36.3078 7.53809 36.6924 7.30732 37.0001C6.53809 37.5386 5.9227 38.0001 5.15347 38.0001C4.76886 38.0001 4.38424 38.0001 3.99962 37.8463C3.61501 37.6924 3.30732 37.3847 2.99962 37.154C2.69193 36.8463 2.30732 36.5386 1.9227 36.3847C1.46116 36.154 0.999624 36.077 0.538086 36.154C0.999624 36.2309 1.38424 36.3078 1.76886 36.5386C2.15347 36.7693 2.38424 37.077 2.69193 37.3847Z" fill="#26848B"></path> </svg>