<svg width="38" height="36" viewBox="0 0 38 36" fill="none" xmlns="http://www.w3.org/2000/svg"> <path d="M2.51079 29.7355L2.6978 29.7453C4.70649 29.7537 13.3997 29.7901 14.8362 29.7961C14.6041 30.3666 14.3734 30.9377 14.1589 31.5151C13.8557 32.3187 13.5426 33.1183 13.2459 33.9243C11.59 34.0308 9.93408 34.1841 8.27814 34.4629C9.97639 34.7489 11.6746 34.9036 13.3729 35.0102C13.4873 35.0925 13.6217 35.1491 13.7734 35.1458C14.2392 35.1356 14.7029 35.1128 15.1683 35.096C16.4458 35.1483 17.7232 35.1794 19.0007 35.1898C20.7878 35.1771 22.5749 35.1461 24.362 35.0304C26.1491 34.9239 27.9362 34.7657 29.7233 34.4629C27.9362 34.1601 26.1491 34.0019 24.362 33.8954C24.2623 33.889 24.1625 33.8882 24.0627 33.8822C23.3221 31.301 23.3584 31.339 22.8704 29.797C48.1964 29.6892 25.1157 29.7882 35.3033 29.744L35.4902 29.7342C36.256 29.6579 36.9042 29.0736 37.0659 28.3066C37.0914 28.1831 37.1033 28.056 37.1045 27.9317C37.104 27.8343 37.099 26.6494 37.0993 26.7241C37.0706 21.6483 37.1012 21.4539 37.012 15.131C36.9971 13.971 36.846 2.23718 36.8472 2.32972C36.8446 2.22287 36.8332 2.11625 36.8109 2.01105C36.7649 1.801 36.6739 1.60054 36.5462 1.42795C36.2929 1.081 35.886 0.850669 35.4603 0.815424C35.0658 0.803883 34.7962 0.819508 34.458 0.823858C29.3055 0.943753 24.1531 1.01446 19.0006 1.17831C24.1531 1.3421 29.3055 1.41286 34.458 1.53271L35.3875 1.55273C35.7088 1.58919 35.9854 1.83598 36.0491 2.16992C36.0584 2.22283 36.0623 2.27654 36.0628 2.33091C36.0468 3.57687 35.9967 7.47793 35.9977 7.40229C35.7609 25.5762 35.8593 18.9501 35.8109 26.7241C35.8105 26.8214 35.8054 28.0064 35.8058 27.9317C35.8038 27.9686 35.8006 28.0018 35.7935 28.0363C35.7462 28.2443 35.5647 28.4103 35.3576 28.4279C10.4432 28.3253 22.3588 28.3744 19.0005 28.3606C15.6337 28.3742 27.5684 28.3259 2.6436 28.4267C2.43817 28.4092 2.25622 28.2446 2.20876 28.036C2.20166 28.0016 2.19851 27.9685 2.19656 27.9316C2.19614 27.8343 2.19104 26.6493 2.19136 26.724C2.16589 21.8936 2.18543 20.5023 2.10547 15.131C2.10288 14.9314 1.94172 2.48595 1.94283 2.57182L1.93981 2.33091C1.9403 2.27663 1.94416 2.22305 1.95348 2.17023C2.01587 1.8429 2.28629 1.59128 2.61373 1.55406L3.54315 1.53484C8.69562 1.41401 13.8481 1.34321 19.0006 1.17831C13.8481 1.0134 8.69562 0.942598 3.54315 0.821771C3.2049 0.817155 2.93541 0.803305 2.5407 0.814048C2.11466 0.849293 1.7073 1.07985 1.45379 1.42711C1.32595 1.59987 1.23486 1.80051 1.18883 2.01074C1.16646 2.11603 1.15505 2.22278 1.15243 2.32972L1.14919 2.57182C1.14755 2.69849 1.0825 7.72285 1.08665 7.40229C0.954818 17.601 0.921206 19.3492 0.917214 22.8597C0.916719 22.9752 0.895592 27.9088 0.896529 27.6901L0.895508 27.9316C0.896618 28.056 0.908558 28.1833 0.934082 28.3069C1.09601 29.0758 1.74611 29.6593 2.51079 29.7355ZM22.8727 31.7446C23.2164 32.4164 23.5799 33.1328 23.9419 33.8769C22.2948 33.7821 20.6478 33.7478 19.0007 33.7361C17.7016 33.7466 16.4025 33.7784 15.1033 33.8327C14.9945 33.8282 14.8853 33.8238 14.7767 33.8198C15.0179 33.2273 15.2559 32.6335 15.498 32.0414C15.805 31.3014 16.0848 30.5509 16.3701 29.8025L19.0005 29.8134L21.9004 29.8011C22.207 30.4374 22.5211 31.0766 22.8727 31.7446Z" fill="#26848B"></path> <path d="M5.64065 24.8531C5.8119 24.9096 5.99066 24.9476 6.17026 24.957C6.37125 24.9688 6.43584 24.9621 6.57531 24.9656L7.30617 24.9721L19.0003 25.0137L30.6944 24.974L31.4253 24.9675C31.5649 24.964 31.6293 24.9707 31.8305 24.9589C32.0102 24.9494 32.1892 24.9114 32.3606 24.8549C33.0512 24.6273 33.5845 24.0179 33.7262 23.3095C33.7603 23.1483 33.7714 22.9197 33.7672 22.8105C33.7657 22.6412 33.7437 20.1777 33.7444 20.2523L33.6721 14.4053L33.5776 8.55824C33.5731 8.33688 33.5234 5.90987 33.5252 6.00014C33.5254 5.8861 33.512 5.69736 33.4791 5.55283C33.3415 4.93444 32.8643 4.41673 32.268 4.23491C31.9688 4.13255 31.641 4.15377 31.4253 4.15803L30.6944 4.17707C26.7964 4.29346 22.8984 4.36395 19.0003 4.52371C22.8984 4.68346 26.7964 4.75395 30.6944 4.87039L31.4253 4.88943C31.6941 4.89458 31.8647 4.89107 32.0289 4.95637C32.3651 5.07382 32.6189 5.38202 32.6792 5.72053C32.7079 5.86262 32.6871 6.1179 32.6859 6.36559C32.6837 6.47537 32.6388 8.66634 32.641 8.55824L32.5466 14.4053L32.4743 20.2523C32.4736 20.3256 32.4537 22.5656 32.4547 22.445L32.4514 22.8105C32.4513 22.945 32.4438 22.96 32.4321 23.0383C32.3759 23.2868 32.1781 23.5033 31.9364 23.5751C31.8761 23.5924 31.8147 23.6059 31.7508 23.6064C31.7088 23.6114 31.5293 23.6059 31.4253 23.6062L30.6944 23.5996L19.0003 23.56L7.30617 23.6016L6.57531 23.6081C6.47126 23.6078 6.29193 23.6133 6.24967 23.6083C6.18566 23.6078 6.12409 23.5942 6.06368 23.5768C5.82127 23.5048 5.62311 23.2878 5.56674 23.0386C5.55502 22.9603 5.54761 22.945 5.54739 22.8105C5.54674 22.7372 5.53702 21.6409 5.53767 21.7141L5.5247 20.2523L5.45191 14.4053L5.35745 8.55824C5.35595 8.48502 5.31033 6.24498 5.31279 6.36559C5.31168 6.11794 5.29082 5.86266 5.31967 5.72017C5.38013 5.38104 5.63443 5.0724 5.97121 4.95477C6.13572 4.88943 6.30666 4.89298 6.57531 4.88788L7.30617 4.86834C11.2042 4.75284 15.1023 4.6824 19.0003 4.52371C15.1023 4.36502 11.2042 4.29457 7.30617 4.17911L6.57531 4.15958C6.35949 4.15532 6.03207 4.13419 5.73311 4.23646C5.13741 4.41819 4.66071 4.93546 4.52324 5.55323C4.49044 5.69762 4.47703 5.88606 4.47725 6.00014C4.47164 6.27602 4.42366 8.63291 4.42518 8.55824L4.33072 14.4053L4.25788 20.2523C4.25723 20.3256 4.23742 22.5656 4.23848 22.445L4.23524 22.8105C4.23098 22.9197 4.24208 23.1481 4.27617 23.3092C4.41777 24.0169 4.95057 24.6257 5.64065 24.8531Z" fill="#26848B"></path> <path d="M19.6151 26.1415C19.2105 25.9311 18.7828 25.9368 18.386 26.1435C18.1812 26.2595 17.9763 26.4104 17.7715 26.7133C17.9763 27.0163 18.1812 27.1672 18.386 27.2833C18.7824 27.4897 19.2102 27.4959 19.6151 27.2852C19.8199 27.17 20.0248 27.018 20.2297 26.7133C20.0248 26.4087 19.8199 26.2567 19.6151 26.1415Z" fill="#26848B"></path> <path d="M16.7121 17.9215C15.6995 19.0848 14.7235 20.2846 13.8496 21.5866C15.1516 20.7128 16.3514 19.7367 17.5147 18.7241C18.6844 17.718 19.7942 16.652 20.8911 15.573C21.9688 14.4748 23.0348 13.365 24.0407 12.195C25.053 11.0315 26.0296 9.83223 26.9047 8.53149C25.604 9.40663 24.4047 10.3832 23.2412 11.3955C22.0712 12.4014 20.9614 13.4674 19.8632 14.5451C18.7843 15.642 17.7183 16.7518 16.7121 17.9215Z" fill="#26848B"></path> <path d="M20.1552 9.49561C17.6429 10.6425 14.4105 13.865 13.2656 16.3852C15.7768 15.2445 19.0043 12.0169 20.1552 9.49561Z" fill="#26848B"></path> </svg>