<svg width="20" height="14" viewBox="0 0 20 14" fill="none" xmlns="http://www.w3.org/2000/svg">
<path d="M10.25 4.625C10.9462 4.625 11.6139 4.90156 12.1062 5.39384C12.5984 5.88613 12.875 6.55381 12.875 7.25C12.875 7.94619 12.5984 8.61387 12.1062 9.10616C11.6139 9.59844 10.9462 9.875 10.25 9.875C9.55381 9.875 8.88613 9.59844 8.39384 9.10616C7.90156 8.61387 7.625 7.94619 7.625 7.25C7.625 6.55381 7.90156 5.88613 8.39384 5.39384C8.88613 4.90156 9.55381 4.625 10.25 4.625ZM10.25 0.6875C14.625 0.6875 18.3612 3.40875 19.875 7.25C18.3612 11.0912 14.625 13.8125 10.25 13.8125C5.875 13.8125 2.13875 11.0912 0.625 7.25C2.13875 3.40875 5.875 0.6875 10.25 0.6875ZM2.5325 7.25C3.97625 10.19 6.96 12.0625 10.25 12.0625C13.54 12.0625 16.5237 10.19 17.9675 7.25C16.5237 4.31 13.54 2.4375 10.25 2.4375C6.96 2.4375 3.97625 4.31 2.5325 7.25Z" fill="#181D24" fill-opacity="0.2"/>
</svg>
