<svg width="32" height="38" viewBox="0 0 32 38" fill="none" xmlns="http://www.w3.org/2000/svg"> <path d="M31.8657 34.1557C31.8331 28.8431 31.8493 23.5304 31.7619 18.2177L31.6658 10.5187C31.6775 10.4789 31.692 10.44 31.6928 10.3966C31.7231 8.71285 31.8124 3.74579 31.8107 3.83589C31.8093 3.59171 31.8364 3.3774 31.7943 3.02251C31.7102 2.37895 31.3531 1.77517 30.8279 1.38836C30.4237 1.08758 29.9411 0.924547 29.4589 0.908159L29.0769 0.901323L27.6237 0.885875C23.7485 0.831277 19.8734 0.844327 15.9982 0.822754C12.123 0.839533 8.24779 0.831232 4.37261 0.879306L2.91944 0.894842L2.53534 0.902077C1.343 0.943942 0.347236 1.85486 0.195006 3.02157C0.153458 3.37766 0.178582 3.59166 0.175386 3.83589L0.187283 4.56246C0.194459 4.96781 0.296991 10.7595 0.290576 10.3972L0.29071 10.4013C0.292707 10.4771 0.315213 10.5461 0.347839 10.6093C0.199968 22.2991 0.165729 24.0713 0.16167 27.7515C0.160678 27.9899 0.135184 34.1197 0.136812 33.7283C0.137878 34.0749 0.1286 34.3596 0.138144 34.7572C0.154745 35.2089 0.309264 35.6552 0.561218 36.0306C0.817743 36.4039 1.17343 36.7074 1.58781 36.8944C1.79435 36.9871 2.01337 37.0564 2.23766 37.088C2.34948 37.1088 2.46223 37.113 2.57498 37.1182C9.09001 37.1453 -8.09272 37.0773 16.7805 37.177C18.5297 37.1698 25.8483 37.1396 28.7341 37.1277C29.0751 37.1138 29.351 37.1574 29.854 37.0786C30.7947 36.8925 31.5102 36.2087 31.7683 35.3321C31.8319 35.1136 31.8625 34.8871 31.8666 34.6615L31.8657 34.1557ZM30.5444 34.1557L30.5413 34.6461C30.5372 34.7523 30.523 34.857 30.4926 34.9575C30.4307 35.1566 30.3169 35.3435 30.1575 35.4819C30.0025 35.6256 29.8057 35.7166 29.6023 35.7564C29.4489 35.7889 29.0556 35.7706 28.7341 35.7735C27.3772 35.7679 18.7511 35.7323 16.7805 35.7242C-2.85554 35.8034 22.1921 35.7031 2.59664 35.7801C2.54364 35.7766 2.49002 35.7779 2.43839 35.7669C2.33328 35.7548 2.23269 35.7218 2.13628 35.6804C1.94305 35.5963 1.77588 35.4549 1.65346 35.2825C1.53627 35.1072 1.46041 34.9046 1.45207 34.6913L1.44412 33.7283C1.44337 33.5476 1.41762 27.3563 1.41926 27.7515C1.41557 24.4073 1.39782 23.6317 1.23633 10.8649C3.65941 10.8038 6.08253 10.7603 8.5056 10.6671C11.0773 10.5753 13.649 10.5064 16.2207 10.3753C13.649 10.2442 11.0773 10.1754 8.5056 10.0835C6.10352 9.99117 3.70144 9.94749 1.29937 9.8873C1.30065 9.81435 1.41269 3.42891 1.40555 3.83589C1.40994 3.59641 1.40395 3.32351 1.42805 3.19922C1.5161 2.63084 2.01221 2.20502 2.57707 2.20153L2.91944 2.20277L4.37261 2.21831C8.24779 2.26638 12.123 2.25808 15.9982 2.27486C19.8734 2.25328 23.7485 2.26634 27.6237 2.21174L29.0769 2.19629L29.4214 2.19482C30.0024 2.19908 30.4875 2.64066 30.5737 3.19829C30.5972 3.32382 30.5932 3.59637 30.5993 3.83589C30.6006 3.90884 30.7156 10.3063 30.7083 9.89928C28.3765 9.95748 26.0447 10.0038 23.7128 10.0927C21.2154 10.1804 18.718 10.2491 16.2207 10.3753C18.718 10.5016 21.2154 10.5702 23.7128 10.6579C26.0552 10.7472 28.3976 10.7936 30.74 10.8521L30.6481 18.2177C30.5608 23.5304 30.5769 28.8431 30.5444 34.1557Z" fill="#26848B"></path> <path d="M6.08194 5.39031C5.60943 5.17983 5.10986 5.18566 4.64644 5.39226C4.40723 5.50829 4.16797 5.65917 3.92871 5.96213C4.16797 6.26513 4.40723 6.41601 4.64644 6.53204C5.43198 6.88226 6.27699 6.6279 6.79971 5.96213C6.56045 5.65744 6.32119 5.5055 6.08194 5.39031Z" fill="#26848B"></path> <path d="M11.4384 5.39032C10.9659 5.17984 10.4664 5.18564 10.0029 5.39227C9.76367 5.5083 9.52441 5.65918 9.28516 5.96214C9.52441 6.26514 9.76367 6.41602 10.0029 6.53205C10.4659 6.73848 10.9656 6.74465 11.4384 6.53401C11.6777 6.41882 11.9169 6.26687 12.1562 5.96214C11.9169 5.65745 11.6777 5.50551 11.4384 5.39032Z" fill="#26848B"></path> <path d="M27.2639 8.38181C27.8123 8.40524 28.4377 7.99815 28.5979 7.42819C28.6421 7.28779 28.6656 7.1406 28.6633 6.99575L28.6533 6.74154C28.6502 6.66801 28.5859 5.17093 28.5899 5.26418C28.573 5.09581 28.6007 4.97196 28.5354 4.66031C28.469 4.39521 28.3081 4.16204 28.1009 3.99824C27.8926 3.83493 27.6314 3.73998 27.3723 3.73626C27.1541 3.73958 27.029 3.75401 26.8528 3.76236L25.8679 3.8229C24.5547 3.92211 23.2415 4.01782 21.9283 4.17806C23.2415 4.33835 24.5547 4.43405 25.8679 4.53326L26.8528 4.59377C27.0048 4.60424 27.2082 4.61179 27.3181 4.62471C27.3874 4.63745 27.4449 4.67473 27.4877 4.72232C27.5782 4.85526 27.5614 4.8407 27.5438 5.26418C27.5396 5.36241 27.4765 6.83126 27.4803 6.74154L27.4693 6.97973C27.466 6.99931 27.4577 7.01524 27.4497 7.03002C27.4025 7.0907 27.3778 7.12302 27.2639 7.11068L25.294 7.05959L21.3545 7.01941L17.4149 7.05763L16.43 7.08333L15.9771 7.09501C15.9506 7.09878 15.9262 7.09226 15.9003 7.07779C15.8028 7.23972 15.8295 6.26933 15.7834 5.67522C15.7803 5.60206 15.7489 4.87061 15.752 4.94378C15.7482 4.91767 15.7507 4.89273 15.7549 4.86725C15.7838 4.76302 15.8502 4.67087 16.0189 4.65476L17.9887 4.53517C19.3019 4.43516 20.6151 4.33959 21.9283 4.17806C20.6151 4.01657 19.3019 3.921 17.9887 3.82099L16.0189 3.70141C15.5251 3.64952 14.9416 3.99682 14.763 4.52323C14.715 4.65294 14.6856 4.79108 14.6809 4.92939L14.6697 5.18281C14.6656 5.27727 14.602 6.74985 14.6058 6.66013C14.6096 6.83063 14.569 6.94173 14.628 7.29161C14.6901 7.58436 14.8513 7.85362 15.0767 8.05031C15.3019 8.24673 15.5961 8.37244 15.898 8.39273L16.43 8.4092L17.4149 8.4349L21.3545 8.47312L25.294 8.43294L27.2639 8.38181Z" fill="#26848B"></path> <path d="M15.9976 15.1433C18.1054 15.3011 20.0977 16.2334 21.443 17.7548C22.66 19.0721 23.3663 20.789 23.4743 22.5281C22.3032 22.8544 21.1567 23.1111 20.0098 23.2408C18.6873 23.3824 17.3679 23.3799 16.0766 23.1994C14.7854 23.0179 13.5233 22.6819 12.3176 22.1358C11.707 21.8564 11.0615 21.5418 10.3665 21.3144C9.84104 21.1503 9.29324 21.0574 8.75582 21.0698C9.07151 19.8526 9.68049 18.7012 10.5536 17.7563C11.898 16.2345 13.8897 15.3022 15.9976 15.1433C13.8798 14.9703 11.6813 15.7748 10.0493 17.2521C8.42405 18.7426 7.41406 20.9371 7.37354 23.2006C7.29728 25.4637 8.2172 27.7464 9.81375 29.3843C11.4129 31.0264 13.6978 31.9806 15.9976 31.9832C18.2967 31.9785 20.5828 31.027 22.18 29.3829C23.7772 27.7457 24.695 25.4629 24.6194 23.2006C24.5791 20.9377 23.5692 18.7435 21.9443 17.2536C20.3132 15.7759 18.1152 14.9713 15.9976 15.1433ZM21.209 28.4117C19.8291 29.7663 17.9237 30.5485 15.9976 30.5296C14.072 30.5464 12.1655 29.767 10.7876 28.4103C9.38499 27.0715 8.5708 25.1627 8.50857 23.2006C8.4905 22.556 8.5649 21.9092 8.71081 21.2765C9.85063 21.6951 10.7236 22.4272 11.7736 23.1271C12.9961 23.9281 14.4237 24.4411 15.8784 24.64C17.3357 24.8518 18.8257 24.7277 20.2266 24.355C21.4077 24.0345 22.5163 23.5018 23.4798 22.7866C23.4836 22.9246 23.4926 23.0626 23.4887 23.2005C23.4271 25.1635 22.6109 27.0721 21.209 28.4117Z" fill="#26848B"></path> </svg>