<svg width="50" height="50" viewBox="0 0 50 50" fill="none" xmlns="http://www.w3.org/2000/svg">
<path d="M2.3076 43.9424C2.49991 44.2308 2.69221 44.4232 2.88452 44.6155C3.07683 44.8078 3.26914 45.0001 3.5576 45.1924C4.42298 45.8655 5.38452 46.3462 6.24991 46.6347C8.17298 47.4039 10.0961 47.7885 12.0191 48.077C13.9422 48.3655 15.8653 48.4616 17.8845 48.3655C21.7307 48.2693 25.673 47.7885 29.3268 46.2501C30.1922 45.8655 31.1538 45.3847 31.923 44.7116C32.6922 44.0385 33.4614 43.1732 33.4614 42.0193C33.3653 40.0962 33.2691 38.1732 33.173 36.3462C33.0768 38.2693 32.9807 40.1924 32.8845 42.0193C32.7884 42.8847 32.2114 43.5578 31.4422 44.0385C30.673 44.5193 29.9038 44.9039 29.0384 45.1924C27.3076 45.8655 25.4807 46.1539 23.5576 46.4424C21.7307 46.6347 19.8076 46.7308 17.9807 46.7308C14.2307 46.6347 10.4807 46.1539 7.11529 44.9039C6.24991 44.6155 5.48068 44.1347 4.8076 43.6539C4.13452 43.1732 3.74991 42.5962 3.74991 42.0193V39.4232C4.13452 39.7116 4.61529 40.0001 4.99991 40.1924C5.67298 40.4808 6.24991 40.7693 6.92298 40.9616C10.3845 42.2116 14.3268 42.5001 17.9807 42.4039C20.8653 42.3078 23.7499 41.9232 26.5384 41.1539C27.8845 40.7693 29.3268 40.1924 30.5768 39.5193C31.1538 39.1347 31.8268 38.7501 32.3076 38.1732C32.7884 37.5962 33.173 36.9232 33.173 36.2501C33.173 37.0193 32.6922 37.5962 32.1153 38.077C31.6345 38.5578 30.9614 38.8462 30.3845 39.2308C29.1345 39.8078 27.7884 40.1924 26.3461 40.4808C21.1538 41.4424 14.9038 41.3462 9.61529 40.0962C8.84606 39.9039 8.17298 39.7116 7.40375 39.4232C6.82683 39.2308 6.24991 38.9424 5.76914 38.6539C4.61529 38.077 3.5576 37.1155 3.65375 36.3462C3.65375 35.577 4.61529 34.6155 5.76914 34.0385C6.92298 33.4616 8.26914 32.9809 9.51914 32.5962C11.8268 31.9232 14.3268 31.5385 16.8268 31.4424H17.8845C18.3653 31.4424 18.8461 31.3462 19.3268 31.3462C21.7307 31.3462 24.0384 31.4424 26.3461 31.9232C27.6922 32.2116 29.1345 32.5962 30.3845 33.2693C30.9614 33.6539 31.6345 33.9424 32.1153 34.5193C32.5961 35.0001 33.0768 35.6732 33.0768 36.3462C33.0768 35.577 32.6922 35.0001 32.2114 34.4232C31.7307 33.9424 31.0576 33.5578 30.4807 33.1732C29.2307 32.5001 27.8845 32.0193 26.4422 31.6347C24.9999 31.2501 23.4614 30.9616 21.923 30.6732C24.423 29.9039 26.6345 28.5578 28.3653 26.6347C31.0576 23.8462 32.5961 20.0001 32.5961 16.1539C32.5961 18.077 32.2114 20.0001 31.4422 21.7308C30.673 23.4616 29.6153 25.0962 28.173 26.4424C25.673 28.8462 22.4038 30.1924 19.0384 30.2885C17.7884 30.1924 18.173 30.1924 16.4422 30.1924C13.2691 29.8078 10.2884 28.1732 8.07683 25.9616C5.57683 23.3655 4.13452 19.8078 4.13452 16.1539C4.13452 12.5962 5.57683 9.03854 8.07683 6.34623C10.5768 3.84623 14.1345 2.21162 17.8845 2.11546C21.6345 2.01931 25.3845 3.36547 28.173 6.05777C29.5191 7.40393 30.673 8.94239 31.4422 10.7693C32.2114 12.5001 32.5961 14.4232 32.5961 16.3462C32.5961 12.5001 31.0576 8.65393 28.3653 5.86546C25.673 3.077 21.923 1.25008 17.8845 1.15393C13.9422 0.961619 9.8076 2.50008 6.92298 5.28854C5.48068 6.73085 4.23068 8.46162 3.46144 10.2885C2.69221 12.2116 2.21144 14.2308 2.21144 16.2501C2.21144 18.2693 2.59606 20.2885 3.46144 22.2116C4.23068 24.1347 5.48068 25.7693 6.92298 27.2116C8.46144 28.6539 10.2884 29.8078 12.3076 30.4808C11.2499 30.577 10.1922 30.7693 9.13452 30.9616C7.69221 31.2501 6.24991 31.7308 4.90375 32.4039C4.23068 32.7885 3.5576 33.1732 2.88452 33.7501C2.3076 34.327 1.63452 35.1924 1.63452 36.2501V36.5385V42.0193C1.73068 42.6924 2.01914 43.4616 2.3076 43.9424V43.9424Z" fill="#26848B"/>
<path d="M14.4231 18.654C13.5577 19.7117 12.6924 20.8655 12.0193 22.1155C13.2693 21.4425 14.4231 20.5771 15.4808 19.7117C17.5962 17.9809 19.5193 16.154 21.3462 13.8463C22.2116 12.7886 23.077 11.6348 23.7501 10.3848C22.5001 11.0578 21.3462 11.9232 20.2885 12.7886C17.9808 14.6155 16.1539 16.5386 14.4231 18.654V18.654Z" fill="#26848B"/>
<path d="M19.3268 19.6153C19.0384 20.0961 18.7499 20.673 18.5576 21.4422C19.2307 21.3461 19.8076 21.0576 20.3845 20.673C21.4422 19.9999 22.3076 19.1345 22.8845 18.173C23.173 17.6922 23.4615 17.1153 23.6538 16.3461C22.9807 16.4422 22.4038 16.7307 21.8268 17.1153C20.8653 17.6922 19.9999 18.5576 19.3268 19.6153Z" fill="#26848B"/>
<path d="M16.9229 12.4037C17.1152 11.9229 17.3075 11.4422 17.4037 10.8652C16.8268 10.9614 16.346 11.1537 15.8652 11.346C14.9999 11.8268 14.3268 12.4998 13.846 13.3652C13.6537 13.846 13.4614 14.3268 13.3652 14.9037C13.9422 14.8075 14.4229 14.6152 14.9037 14.4229C15.8652 13.9422 16.5383 13.1729 16.9229 12.4037Z" fill="#26848B"/>
<path d="M34.9037 16.3463C34.9998 16.7309 35.096 17.0194 35.1922 17.3078L35.4806 18.1732C35.5768 18.5578 36.8268 22.1155 38.7498 26.8271V26.9232C38.846 27.0194 38.9421 27.2117 39.0383 27.2117C38.9421 30.8655 38.846 34.4232 38.846 38.0771C38.846 41.2501 38.846 43.0771 38.9422 45.2886C38.9422 45.8655 39.1345 46.5386 39.4229 47.1155C40.096 48.2694 41.346 48.9425 42.6921 48.9425C43.9421 48.9425 45.1921 48.1732 45.7691 47.0194C46.0575 46.4425 46.1537 45.7694 46.1537 45.1925C46.1537 43.2694 46.1537 42.1155 45.8652 37.6925C45.5768 33.9425 45.2883 30.2886 44.9998 26.8271C45.1921 26.8271 45.2883 26.7309 45.3845 26.5386C45.7691 24.8078 46.2498 23.0771 46.7306 21.2501C47.0191 20.3848 47.2114 19.5194 47.4037 18.654L48.1729 16.0578L47.3075 18.654C47.0191 19.5194 46.7306 20.3848 46.4421 21.2501C45.8652 22.8848 45.2883 24.4232 44.7114 25.9617C43.1729 25.8655 41.7306 25.8655 40.1921 25.7694C39.5191 23.5578 38.7498 21.3463 37.9806 19.2309L36.7306 15.8655C36.4422 15.0001 36.6345 13.9425 37.4037 13.2694C37.6922 12.9809 38.2691 12.6925 38.7498 12.404C39.2306 12.1155 39.8075 12.0194 40.3845 11.8271C41.5383 11.5386 42.7883 11.4425 43.9421 11.5386C44.5191 11.6348 45.1921 11.7309 45.7691 11.9232C46.346 12.1155 46.9229 12.3078 47.4037 12.7886C48.2691 13.654 48.6537 15.0001 48.2691 16.154C48.6537 15.0001 48.3652 13.5578 47.4998 12.6925C47.1152 12.2117 46.4421 11.9232 45.8652 11.7309C45.2883 11.5386 44.7114 11.3463 44.0383 11.154C42.7883 10.8655 41.5383 10.8655 40.1921 10.9617C39.5191 11.0578 38.9421 11.154 38.2691 11.3463C37.596 11.5386 37.0191 11.7309 36.346 12.2117C35.096 13.0771 34.5191 14.8078 34.9037 16.3463V16.3463ZM44.4229 45.0963C44.4229 45.4809 44.3268 45.7694 44.2306 46.0578C43.9421 46.6348 43.3652 47.0194 42.6921 47.0194C42.0191 47.0194 41.4421 46.6348 41.1537 46.154C40.9614 45.8655 40.8652 45.5771 40.8652 45.2886C40.7691 42.8848 40.7691 41.2501 40.5768 38.0771C40.4806 34.5194 40.1921 30.9617 39.9037 27.3078C41.5383 27.2117 43.1729 27.0194 44.8075 26.9232C44.6152 30.8655 44.5191 34.5194 44.4229 38.1732V45.0963Z" fill="#26848B"/>
</svg>
