<svg width="50" height="50" viewBox="0 0 50 50" fill="none" xmlns="http://www.w3.org/2000/svg">
<path d="M44.244 20.4727C39.8884 17.0393 32.693 12.4816 27.5056 12.0175C26.4443 11.9135 25.3764 12.0738 24.4166 12.3373C23.4466 12.5969 22.5568 12.9478 21.6636 13.2704C19.8954 13.954 18.2468 14.743 16.7176 15.5612C13.6577 17.2007 11.0824 18.9649 8.97032 20.4955C6.85927 22.0313 5.20811 23.3438 4.07481 24.2596C2.94292 25.1776 2.33519 25.708 2.36611 25.7487C2.39819 25.7908 3.06795 25.3409 4.25818 24.5021C5.44961 23.6654 7.1557 22.4302 9.30705 20.9766C9.43975 20.8872 9.57938 20.7946 9.71549 20.7037C10.1328 21.0726 11.8166 21.9812 13.7778 23.1386C16.0965 24.4938 18.7942 26.1914 20.5048 27.2772C23.626 29.2602 25.1898 30.3169 26.0563 30.7643C26.259 30.8728 26.4193 30.9464 26.5515 30.9967C22.2351 34.572 21.3173 35.6554 20.0558 35.8766C17.6366 36.2968 3.75128 26.577 3.71388 26.5527C2.98323 26.073 2.55177 25.8502 2.52411 25.8918C2.49388 25.9368 2.86622 26.2424 3.53274 26.7969C3.74347 26.9703 3.9847 27.1734 4.25018 27.3968C4.16961 27.4604 4.06511 27.6398 3.89683 28.1091C3.76701 28.4746 3.59064 29.0115 3.37923 29.8183C3.18044 30.6272 2.90142 31.6976 2.79906 33.1816C2.74318 33.9206 2.75658 34.7747 2.95775 35.7283C3.15993 36.671 3.62143 37.7536 4.53883 38.6156C5.16256 39.1975 17.0891 47.7662 22.3012 47.7053C22.4519 47.7085 22.6032 47.7116 22.7552 47.7149C22.9067 47.714 23.0564 47.6941 23.2082 47.6839C23.8166 47.6425 24.4088 47.496 24.9954 47.3269C26.1562 46.9551 27.2528 46.3952 28.3168 45.7617C28.3538 45.7396 45.6164 34.9656 45.9312 34.7009C46.7296 34.0289 47.4528 33.1579 47.8818 32.1311C49.3046 28.8483 48.7425 24.0867 44.244 20.4727ZM26.6826 29.9009C25.9679 29.2265 24.4758 28.0129 21.3098 26.0017C19.575 24.9004 16.7471 23.3221 14.2707 22.1928C12.3327 21.2988 10.6255 20.6878 9.93775 20.555C11.4273 19.5638 13.1135 18.4891 14.9998 17.4335C15.0284 17.4785 15.0625 17.528 15.1065 17.5863C15.2623 17.7798 15.5075 18.0331 15.8274 18.3221C16.4637 18.9059 17.3902 19.6371 18.4295 20.4214C20.5099 21.9861 23.0519 23.7365 24.6959 24.8036C27.9682 26.9209 29.5419 27.8268 30.3362 28.1576C30.3025 28.1796 30.2683 28.2017 30.2346 28.2238C29.7211 28.5628 29.2067 28.9171 28.7067 29.2895C28.1897 29.6723 27.6817 30.0704 27.1793 30.4765C27.0958 30.3373 26.9435 30.1545 26.6826 29.9009ZM4.46862 28.2424C4.50368 27.9284 4.50951 27.7329 4.49841 27.6054C6.82895 29.5621 17.4591 37.4452 20.2469 37.0246C22.4236 36.7043 24.7845 33.8069 29.525 30.4129C30.4832 29.7223 31.3743 29.1792 32.5022 28.4659C33.4825 27.8621 34.4487 27.3425 35.413 27.0405C35.8941 26.8888 36.3724 26.7915 36.8409 26.7529C38.0052 26.666 39.3926 27.1498 40.1923 28.0648C42.7946 31.0283 36.1539 33.94 31.3431 36.9273C19.9555 44.1253 26.9486 39.7832 22.0984 42.6022C21.9761 42.525 21.7795 42.4483 21.3948 42.2684C20.972 42.0689 20.3329 41.7341 19.3966 41.1411C6.15514 32.7517 4.63615 31.8197 3.98382 31.5453C4.05421 30.9469 4.14063 30.4297 4.20454 29.9915C4.33368 29.1859 4.42668 28.6281 4.46862 28.2424ZM46.5602 31.5578C46.2195 32.3548 45.663 33.0198 44.9966 33.578C44.7642 33.7711 26.4199 45.2979 24.5487 45.9044C24.052 46.0476 23.5599 46.1728 23.0775 46.2048C22.9571 46.2129 22.8365 46.2316 22.7177 46.2323L22.3635 46.2252C17.9195 46.4012 5.64918 37.9302 5.38173 37.6915C4.67514 37.0562 4.29015 36.2473 4.09047 35.4606C3.89459 34.6698 3.84398 33.9088 3.86471 33.2256C3.87465 32.7252 3.90732 32.2667 3.95018 31.8461C6.10851 34.1869 17.8511 42.7131 21.0851 43.2889C21.6608 43.3932 22.0162 43.3115 22.1751 43.2118C22.1843 43.2059 22.1876 43.2001 22.1957 43.1943C22.2088 43.1925 22.219 43.1921 22.2328 43.1901C22.7018 43.1178 23.6069 42.8885 25.1611 42.106C26.5798 41.3961 29.1725 39.8262 32.0683 38.1129C38.8469 34.0287 41.9821 32.7017 42.2575 29.8313C42.292 29.3468 42.2632 28.8289 42.084 28.3549C41.9123 27.8845 41.6601 27.4385 41.3299 27.0743C39.9836 25.5501 37.6573 24.7558 34.963 25.633C33.8149 26.0057 32.7537 26.603 31.7401 27.2436C31.5419 27.3687 31.3485 27.4982 31.1526 27.6261C30.756 27.1085 29.4176 26.0623 25.5168 23.5382C23.8742 22.472 21.2456 20.8666 19.0251 19.5367C17.9138 18.8786 16.9071 18.2825 16.1755 17.8492C15.8089 17.638 15.5133 17.4653 15.3042 17.3555C15.2742 17.3385 15.2489 17.3259 15.222 17.3118C15.8315 16.9739 16.4569 16.6383 17.107 16.3093C18.6297 15.5397 20.262 14.8014 22.0007 14.1687C23.7461 13.5731 25.5754 12.8604 27.4043 13.0793C32.3021 13.5989 39.2409 18.1418 43.4085 21.5028C47.1635 24.5841 47.8674 28.6147 46.5602 31.5578Z" fill="#26848B"/>
<path d="M9.22464 10.0985C9.58818 9.88942 9.56318 9.70206 9.52176 9.49807C9.48033 9.2939 9.42488 9.11269 9.02969 9.04994C8.63271 8.97597 7.90275 9.04759 6.47437 9.1447C6.36469 9.15229 6.24443 9.16079 6.11876 9.16966C5.99601 8.65678 5.85877 8.12926 5.71774 7.64387C5.55434 7.09537 5.4261 6.63548 5.36373 6.28572C5.29569 5.93868 5.27661 5.69798 5.17403 5.66579C5.07958 5.63414 4.89652 5.83868 4.77795 6.24612C4.65358 6.65013 4.63314 7.23281 4.66533 7.81694C4.68694 8.28117 4.72291 8.77722 4.76692 9.26116C4.31115 9.2901 3.84161 9.31668 3.40143 9.33495C2.34586 9.38685 1.46417 9.41253 1.42626 9.62068C1.38874 9.82196 2.22431 10.1726 3.31395 10.398C3.82088 10.5068 4.38005 10.5804 4.9184 10.6235C4.946 10.8291 4.97415 11.0242 5.00256 11.1953C5.52256 14.3255 5.8665 14.3357 6.27736 14.2675C6.68831 14.1991 7.01051 14.0783 6.49051 10.9481C6.47534 10.8568 6.45737 10.7575 6.43863 10.656C6.48154 10.6538 6.52835 10.6529 6.56902 10.6501C8.10222 10.5457 8.86066 10.2956 9.22464 10.0985Z" fill="#26848B"/>
<path d="M19.1009 5.77313C19.4561 5.64401 19.4768 5.45575 19.4822 5.2476C19.4875 5.03944 19.4795 4.85064 19.119 4.70669C18.759 4.56871 18.0419 4.46056 16.6402 4.52458C16.3471 4.5376 15.9904 4.57232 15.6071 4.62459C15.5467 4.38099 15.4813 4.14046 15.412 3.91224C15.1308 2.97691 14.7958 2.24738 14.5925 2.2868C14.3869 2.32659 14.3498 3.11923 14.3578 4.07409C14.3606 4.32203 14.366 4.58118 14.3734 4.84142C14.1388 4.89169 13.9072 4.94631 13.687 5.00599C12.7004 5.26894 11.9335 5.6035 11.9708 5.80659C12.0084 6.01311 12.8314 6.052 13.8221 6.06393C14.0178 6.06538 14.2208 6.0661 14.4251 6.06646C14.4419 6.35925 14.4608 6.63124 14.4819 6.85838C14.6028 8.15088 14.7111 8.80843 14.8668 9.14137C15.0185 9.4743 15.2075 9.48136 15.4156 9.47268C15.6237 9.46418 15.8115 9.44356 15.9321 9.09037C16.0487 8.73772 16.1081 8.04852 15.9834 6.71479C15.9653 6.5202 15.9358 6.29559 15.8979 6.05489C16.1989 6.04928 16.4789 6.04151 16.7131 6.03102C18.0579 5.96971 18.7454 5.90804 19.1009 5.77313Z" fill="#26848B"/>
</svg>
