<svg width="50" height="50" viewBox="0 0 50 50" fill="none" xmlns="http://www.w3.org/2000/svg">
<path d="M7.59616 48.077C7.98077 48.1732 8.36539 48.1732 8.65385 48.1732H9.61539C14.7115 47.9809 19.7115 47.8847 24.8077 47.6924C19.7115 47.5001 14.7115 47.4039 9.61539 47.2116H8.65385C8.26923 47.2116 8.07693 47.2116 7.88462 47.1155C7.40385 46.9232 7.01923 46.6347 6.73077 46.1539C6.44231 45.6732 6.44231 45.2886 6.53847 44.7116L6.82693 42.8847L8.07693 35.3847L9.23077 27.8847L9.8077 24.1347C10.5769 26.827 12.0192 29.327 14.0385 31.2501C16.7308 33.8463 20.2885 35.3847 24.0385 35.577C24.0385 35.8655 24.1346 36.1539 24.2308 36.3463C24.4231 36.827 24.6154 37.4039 25 37.8847C25.3846 37.4039 25.5769 36.827 25.7692 36.3463C25.8654 36.0578 25.8654 35.7693 25.9615 35.577C29.7115 35.3847 33.2692 33.8463 35.9615 31.2501C37.9808 29.327 39.4231 26.827 40.1923 24.1347C40.1923 24.2309 40.8654 28.3655 40.7692 28.1732L41.9231 35.6732L43.1731 43.1732L43.4615 45.0001C43.5577 45.9616 42.8846 47.0193 41.8269 47.2116C41.7308 47.2116 41.5385 47.2116 41.4423 47.2116H40.9615H40C34.9039 47.4039 29.9039 47.5001 24.8077 47.6924C29.9039 47.8847 34.9039 47.9809 40 48.1732H40.9615H41.4423H42.0192C42.7885 48.077 43.4615 47.6924 43.9423 47.0193C44.4231 46.4424 44.7115 45.6732 44.6154 44.8078C44.5192 44.1347 44.4231 43.5578 44.4231 42.8847L43.4615 35.3847L42.5 27.8847C42.5 27.7886 41.6346 21.827 41.7308 22.2116L41.6346 21.7309C41.5385 21.0578 41.25 20.4809 40.7692 20.0001C40.1923 19.327 39.4231 18.9424 38.5577 18.8463C38.3654 18.8463 38.1731 18.8463 37.9808 18.8463C36.6346 18.8463 35 18.8463 35.0962 18.8463C35.0962 15.577 34.6154 12.2116 33.2692 9.03856C32.5962 7.3078 31.6346 5.67318 30.2885 4.23087C29.0385 2.88472 27.1154 1.82703 25 1.82703C22.8846 1.82703 20.9615 2.98087 19.6154 4.32703C18.2692 5.67318 17.3077 7.40395 16.6346 9.13472C15.2885 12.3078 14.8077 15.577 14.8077 18.9424C14.6154 18.9424 11.6346 18.9424 11.8269 18.9424C10.9615 18.9424 10.0962 19.2309 9.51923 19.8078C8.84616 20.3847 8.46154 21.2501 8.36539 22.0193L8.07693 23.9424L7.59616 27.6924L6.63462 35.1924L5.67308 42.6924L5.48077 44.6155C5.38462 45.2886 5.48077 46.1539 5.96154 46.827C6.25 47.4039 6.92308 47.8847 7.59616 48.077ZM34.7115 29.904C32.3077 32.1155 29.1346 33.4616 25.8654 33.6539C25.8654 33.5578 25.8654 33.3655 25.7692 33.2693C25.5769 32.7886 25.3846 32.2116 25 31.7309C24.6154 32.2116 24.4231 32.7886 24.2308 33.2693C24.2308 33.3655 24.1346 33.5578 24.1346 33.6539C20.8654 33.4616 17.6923 32.1155 15.2885 29.904C12.7885 27.6924 11.1539 24.5193 10.6731 21.0578C10.9615 20.7693 11.3462 20.6732 11.8269 20.6732C11.9231 20.6732 17.5962 20.6732 17.5 20.6732H25.0962C25.1923 20.6732 37.5 20.6732 37.4039 20.6732H38.2692C38.6539 20.6732 38.9423 20.8655 39.2308 21.1539C38.8462 24.5193 37.2115 27.6924 34.7115 29.904ZM16.6346 14.6155C17.0192 12.8847 17.5 11.2501 18.2692 9.71164C18.9423 8.17318 19.9038 6.73087 20.9615 5.57703C22.1154 4.42318 23.5577 3.65395 25 3.65395C26.4423 3.65395 27.8846 4.42318 29.0385 5.57703C30.1923 6.73087 31.0577 8.17318 31.7308 9.71164C32.4039 11.2501 32.9808 12.8847 33.3654 14.6155C33.6539 15.9616 33.8462 17.404 33.9423 18.8463C33.8462 18.8463 24.6154 18.8463 25.1923 18.8463C24.9039 18.8463 15.6731 18.8463 16.1538 18.8463C16.1538 17.404 16.3462 16.0578 16.6346 14.6155Z" fill="#26848B"/>
</svg>
