<svg width="50" height="50" viewBox="0 0 50 50" fill="none" xmlns="http://www.w3.org/2000/svg">
<path d="M2.51183 46.0339C2.51538 46.1283 2.54135 46.223 2.59195 46.3104L2.63801 46.3899L2.66026 46.4287C2.79775 46.6654 3.07596 46.7985 3.35844 46.739C4.41546 46.5164 5.44118 46.1943 6.42185 45.7752C7.40208 45.3575 8.35139 44.8739 9.23785 44.2926C10.9968 43.1423 12.5924 41.677 13.6263 39.8736C16.4136 41.6816 19.5314 43.0119 22.7794 43.8427C27.1683 44.9276 31.8256 44.9913 36.2802 44.0405C38.5116 43.5824 40.6896 42.8522 42.7633 41.8937C43.7898 41.39 44.8233 40.9641 45.8445 40.1297C46.3444 39.719 46.7955 39.1513 47.0821 38.5439C47.3681 37.9354 47.5287 37.3024 47.6095 36.6917C47.7729 35.4558 47.6889 34.3382 47.6602 33.1968C47.5929 32.0584 47.4901 30.922 47.3238 29.7939C46.9904 27.539 46.4683 25.3088 45.7168 23.156C44.2173 18.8518 41.9893 14.7952 38.9913 11.3307C37.441 9.59516 35.7259 8.12893 33.9155 6.75087C33.0038 6.0726 32.0634 5.42696 31.0664 4.85251C30.0668 4.28255 29.0294 3.75205 27.8374 3.43339C26.6526 3.07866 25.1903 3.2252 24.104 3.91523C23.0062 4.58751 22.2523 5.56645 21.6518 6.55595C21.0478 7.57734 20.5913 8.54519 20.1613 9.69454C19.8152 10.9679 20.0826 12.1965 20.5378 13.2838C20.775 13.829 21.0819 14.3446 21.4763 14.8069C21.8725 15.278 22.3891 15.6441 22.9301 15.8924C24.0234 16.3927 25.2004 16.5041 26.3301 16.4741C28.3639 16.4289 30.3674 15.9154 32.1531 15.0072C32.466 15.7069 32.9274 16.3438 33.4052 16.8706C34.0584 17.6387 34.7638 18.2612 35.2333 18.9695C35.7327 19.6671 36.1198 20.448 36.3578 21.276C36.8773 22.923 36.8478 24.7181 36.2493 26.3738C35.7086 27.8458 34.7387 29.1934 33.4297 30.2938C33.3498 30.1556 33.2705 30.017 33.1831 29.8834C32.2162 28.3947 30.7863 27.1566 29.0859 26.473C25.679 25.0836 21.5786 26.0566 19.4883 28.5868C18.5941 25.2953 15.618 22.6427 12.1792 22.1822C10.1459 21.9164 8.04228 22.4084 6.29723 23.4771C4.5468 24.5298 3.08528 26.1534 2.36307 28.1396C2.33089 28.2292 2.31141 28.329 2.31025 28.4296C2.30863 29.132 2.26616 30.3745 2.31962 37.2137C2.32406 38.6757 2.36978 40.1378 2.39281 41.5998C2.41534 43.1535 2.46445 44.5944 2.51183 46.0339ZM4.07161 37.2137C4.09403 34.346 4.11284 31.4784 4.08176 28.6108C5.2462 25.5247 8.63432 23.261 12.0497 23.4742C15.5144 23.6841 18.8471 26.4191 19.7419 30.0995C19.7138 29.6136 19.6336 29.1304 19.5093 28.6557C20.9867 27.9514 22.4852 27.559 23.9798 27.463C25.5153 27.3695 27.0325 27.6034 28.4022 28.1571C31.327 29.3569 33.4188 31.8819 34.4849 34.8439C34.6441 33.3856 34.2811 31.8628 33.5595 30.5215C35.2197 29.9141 36.6701 28.6044 37.5377 26.955C38.0518 26.0356 38.33 24.9767 38.4341 23.9157C38.5242 22.8488 38.3875 21.773 38.0958 20.7454C37.7691 19.7276 37.2725 18.7609 36.6005 17.9232C35.8997 17.0888 35.1169 16.4593 34.4065 15.8654C33.7036 15.2546 33.0862 14.661 32.6992 13.8562C32.2813 13.0576 32.0665 12.104 31.7827 11.1623C31.6682 12.1374 31.63 13.1279 31.8582 14.1559C31.9188 14.4226 32.0078 14.6824 32.1159 14.9346C30.2683 15.6777 28.2895 16.0475 26.3325 15.9825C25.2478 15.9463 24.155 15.7576 23.2442 15.2655C22.3248 14.7918 21.7356 13.9261 21.3719 12.9441C21.0085 11.9846 20.8604 10.8911 21.1529 10.0099C21.5444 9.09373 22.0792 8.0568 22.6538 7.19143C23.241 6.31452 23.9327 5.51125 24.7644 5.04427C25.5927 4.57474 26.5334 4.49906 27.4743 4.79858C29.4016 5.40238 31.2433 6.7052 32.9647 8.00026C34.6725 9.34153 36.3292 10.8155 37.7177 12.4254C40.4665 15.7633 42.6252 19.6282 44.0072 23.7409C44.6956 25.7987 45.2344 27.9089 45.5575 30.0557C45.723 31.1283 45.8275 32.2089 45.8991 33.2915C45.9361 34.3708 46.013 35.4874 45.8829 36.4637C45.7611 37.4629 45.4466 38.2699 44.75 38.857C44.0611 39.4628 43.032 39.9522 42.0738 40.4362C40.1256 41.3811 38.0706 42.1146 35.9604 42.6319C27.5118 44.7325 18.1489 42.9762 10.8589 37.8271C11.7344 38.5661 12.6593 39.2463 13.6224 39.8713C12.2879 41.453 10.6096 42.6501 8.81582 43.5607C7.25615 44.3554 5.58872 44.9128 3.90077 45.2443C3.94055 44.0295 3.98083 42.8147 3.99842 41.5998C4.02151 40.1378 4.06717 38.6757 4.07161 37.2137Z" fill="#26848B"/>
</svg>
