<svg width="50" height="50" viewBox="0 0 50 50" fill="none" xmlns="http://www.w3.org/2000/svg">
<path d="M17.1154 22.8844C17.8846 22.4037 18.6538 21.9229 19.4231 21.4421C20.1923 20.9613 21.0577 20.4806 21.9231 19.9037C20.8654 19.7113 19.9038 19.8075 18.9423 19.9998C17.9808 20.2883 17.0192 20.6729 16.1538 21.1537C15.2885 21.7306 14.5192 22.4037 13.8462 23.1729C13.2692 24.1344 12.6923 24.9998 12.5 25.9614C13.3654 25.4806 14.1346 24.9037 14.9038 24.4229C15.6731 23.846 16.4423 23.3652 17.1154 22.8844Z" fill="#26848B"/>
<path d="M46.3462 34.7114C46.0577 34.7114 45.8654 34.7114 45.6731 34.7114C45.577 32.3076 45.0962 29.8076 44.1346 27.596C43.077 25.096 41.5385 22.7883 39.6154 20.9614C36.0577 17.4999 31.1539 15.4807 26.3462 15.3845C26.6346 15.2883 26.9231 15.1922 27.1154 14.9999C27.6923 14.5191 28.1731 13.846 28.1731 12.9807C28.2693 12.2114 27.9808 11.346 27.4039 10.673C26.827 9.99989 25.9616 9.71143 25.0962 9.71143C24.2308 9.71143 23.3654 10.096 22.7885 10.673C22.2116 11.346 21.9231 12.1153 22.0193 12.9807C22.1154 13.7499 22.5 14.5191 23.077 14.9999C23.3654 15.1922 23.5577 15.2883 23.8462 15.3845C18.9423 15.4807 14.1346 17.4037 10.5769 20.9614C8.65387 22.7883 7.11541 25.096 6.05772 27.596C5.09618 29.8076 4.61541 32.3076 4.51926 34.7114C4.32695 34.7114 4.13464 34.7114 3.84618 34.7114C2.40387 34.9037 1.25003 36.1537 1.34618 37.596C1.34618 38.9422 2.50003 40.2883 3.84618 40.3845H4.71156H5.48079H7.01926L13.0769 40.1922C17.1154 39.9999 21.1539 39.9037 25.1923 39.7114C21.1539 39.5191 17.1154 39.423 13.0769 39.2307L7.01926 39.0383L3.84618 38.9422C3.1731 38.846 2.59618 38.2691 2.69233 37.596C2.69233 36.923 3.26926 36.346 3.84618 36.346H5.09618H5.19233C11.8269 36.4422 18.3654 36.4422 25 36.4422H34.9039L44.8077 36.346H44.9039H46.1539C46.7308 36.346 47.3077 36.923 47.3077 37.596C47.3077 38.2691 46.827 38.846 46.1539 38.9422L43.1731 39.0383L37.1154 39.2307C33.0769 39.423 29.0385 39.5191 25 39.7114C29.0385 39.9037 33.0769 39.9999 37.1154 40.1922L43.1731 40.3845H44.7116H45.4808H46.3462C47.6923 40.2883 48.8462 39.0383 48.8462 37.596C48.8462 36.1537 47.6923 34.8076 46.3462 34.7114ZM23.4616 12.9807C23.5577 12.1153 24.327 11.6345 25 11.6345C25.6731 11.6345 26.4423 12.2114 26.5385 12.9807C26.7308 13.7499 26.1539 14.9037 25 15.2883C23.75 14.9037 23.2693 13.846 23.4616 12.9807ZM11.25 21.6345C12.9808 19.8076 15.0962 18.2691 17.4039 17.1153C19.5193 16.1537 21.827 15.5768 24.1346 15.3845C24.4231 15.3845 24.7116 15.3845 24.9039 15.2883C25.1923 15.3845 25.4808 15.3845 25.6731 15.3845C27.9808 15.5768 30.2885 16.1537 32.4039 17.1153C34.7116 18.173 36.827 19.7114 38.5577 21.6345C40.2885 23.4614 41.6346 25.673 42.5962 28.0768C43.3654 30.1922 43.75 32.4037 43.8462 34.6153H41.827L37.0193 34.5191H35.0962H34.8077H32.7885H24.9039H15.1923C15.0962 34.5191 15.0962 34.5191 15 34.5191H12.7885L7.9808 34.6153C7.30772 34.6153 6.73079 34.6153 6.05772 34.6153C6.05772 32.4037 6.44233 30.1922 7.30772 28.0768C8.1731 25.673 9.51926 23.4614 11.25 21.6345Z" fill="#26848B"/>
</svg>
