<svg width="30" height="36" viewBox="0 0 30 36" fill="none" xmlns="http://www.w3.org/2000/svg"><path d="M29.7037 13.2915L29.6127 6.94206L29.5541 3.76735L29.5467 3.37051C29.5365 3.22691 29.5367 3.06964 29.5086 2.92231C29.4712 2.62144 29.3713 2.33198 29.2506 2.05703C28.9965 1.50998 28.5874 1.04123 28.0829 0.722206C27.5775 0.403625 26.9848 0.236233 26.3959 0.241826L24.8037 0.280223C20.6317 0.390074 19.219 0.408093 15.2796 0.553261C19.219 0.698428 20.6306 0.716439 24.8037 0.826343L26.386 0.869223C26.8574 0.889509 27.3123 1.04638 27.6911 1.31298C28.0667 1.58234 28.3694 1.94868 28.5444 2.37064C28.6262 2.58234 28.6958 2.80091 28.7135 3.02778C28.7318 3.1412 28.7244 3.25057 28.73 3.37051L28.7226 3.76735L28.6639 6.94206L28.5898 12.1179C26.4172 11.8588 24.2448 11.7112 22.0722 11.613C19.7168 11.4973 17.3614 11.4663 15.006 11.4536C12.6506 11.4682 10.2953 11.4991 7.93989 11.6151C5.77068 11.7137 3.60151 11.8604 1.4323 12.1172L1.35044 6.39497L1.29722 3.23885C1.3029 2.33393 1.89053 1.458 2.74307 1.09192C3.17466 0.893104 3.6123 0.8702 4.16818 0.868868L5.7555 0.827897C9.88203 0.718724 11.3898 0.697823 15.2796 0.553261C11.4377 0.410478 10.1582 0.39546 4.16818 0.237698C3.90274 0.231972 3.64941 0.217856 3.34032 0.234191C3.04558 0.263932 2.75199 0.324967 2.47265 0.432123C1.34898 0.853554 0.520899 1.979 0.462882 3.20201L0.397097 6.39497L0.306233 12.7444L0.236542 19.0937C0.235591 19.211 0.205776 22.8903 0.2076 22.6653C0.214258 22.8163 0.211151 22.9893 0.237518 23.1488C0.27121 23.4758 0.371485 23.7932 0.496929 24.0962C0.75989 24.7004 1.19819 25.2224 1.74453 25.5921C2.29207 25.9611 2.94934 26.1689 3.61017 26.178L4.78848 26.1829C4.21302 27.7096 3.67409 29.2471 3.15424 30.7902L2.27955 33.5086L2.17568 33.8534C2.11327 34.0706 2.10058 34.2967 2.13667 34.5168C2.20494 34.9564 2.4908 35.368 2.88422 35.5823C3.48392 35.9254 4.26991 35.8045 4.74231 35.2796C4.83224 35.1773 4.84858 35.1505 4.88946 35.1001L4.99986 34.96C7.19894 32.1101 9.32834 29.2064 11.3258 26.2007L14.7325 26.2094L18.6756 26.1988C20.6785 29.2037 22.8097 32.1094 25.013 34.9594L25.1234 35.0996C25.1643 35.1499 25.1807 35.1767 25.2705 35.279C25.741 35.8018 26.5259 35.9256 27.1274 35.5815C27.5205 35.3673 27.8062 34.956 27.8745 34.5166C27.9105 34.2967 27.8979 34.0707 27.8355 33.8536L27.7316 33.5089L26.855 30.791C26.3313 29.2477 25.7921 27.7089 25.2146 26.1814L25.8439 26.1797C26.1098 26.1776 26.3524 26.1859 26.7085 26.1567C27.036 26.1146 27.3595 26.0366 27.6647 25.9091C28.8934 25.4105 29.7606 24.1617 29.7925 22.8445L29.7739 19.6408L29.7037 13.2915ZM3.85417 34.0749L3.67076 34.3161C3.66392 34.3262 3.6566 34.3331 3.64568 34.338C3.62402 34.3493 3.59538 34.3512 3.57439 34.3402C3.5474 34.3287 3.53315 34.3112 3.52427 34.2809C3.52063 34.2663 3.52099 34.2495 3.52281 34.2376L3.61842 33.8972L4.34188 31.1354C4.74822 29.4932 5.13596 27.8456 5.48073 26.1854C5.55541 26.1856 10.6517 26.199 10.3311 26.1981C8.07634 28.7497 5.93292 31.3873 3.85417 34.0749V34.0749ZM25.673 31.1346L26.3946 33.897L26.4902 34.2373C26.492 34.2494 26.4924 34.2663 26.4888 34.281C26.4798 34.3116 26.4654 34.3294 26.4382 34.3411C26.4169 34.3523 26.388 34.3503 26.366 34.3389C26.355 34.334 26.3476 34.327 26.3406 34.3168L26.1571 34.0755C24.0814 31.3868 21.9391 28.7497 19.6886 26.1961C19.9438 26.1954 24.3409 26.1837 24.2566 26.1839L24.5391 26.1831C24.8822 27.8439 25.2704 29.4914 25.673 31.1346V31.1346ZM28.5028 19.6408L28.4716 22.7862C28.4398 23.5969 27.8913 24.3495 27.1438 24.6384C26.7524 24.795 26.4311 24.7962 25.8439 24.7854C21.0133 24.7725 18.7574 24.7664 14.7325 24.7557C-1.12611 24.7968 19.1762 24.7452 3.63209 24.7825C3.23277 24.7769 2.84232 24.6605 2.50572 24.4443C2.17187 24.2256 1.89834 23.9125 1.73219 23.5477C1.65513 23.364 1.58597 23.1735 1.56462 22.9727C1.54447 22.8714 1.54909 22.7778 1.5399 22.6653C1.5391 22.5668 1.5091 18.8643 1.51096 19.0937L1.44126 12.7444L1.43412 12.244C3.60271 12.5007 5.7713 12.6474 7.93989 12.7459C10.2953 12.8619 12.6506 12.8928 15.006 12.9073C17.3614 12.8946 19.7168 12.8637 22.0722 12.748C24.2441 12.6498 26.416 12.5022 28.588 12.2432L28.573 13.2915L28.5028 19.6408Z" fill="white"/><path d="M19.3205 4.67793C17.0247 3.70506 12.983 3.71278 10.6924 4.67793C12.9797 5.64171 17.0207 5.65248 19.3205 4.67793Z" fill="white"/><path d="M10.6924 16.0195C12.9716 16.9799 17.0134 16.9972 19.3205 16.0195C17.01 15.0403 12.9664 15.0613 10.6924 16.0195Z" fill="white"/></svg>