<svg width="38" height="38" viewBox="0 0 38 38" fill="none" xmlns="http://www.w3.org/2000/svg"><path d="M34.3953 15.3777C30.9108 12.631 25.1545 8.98476 21.0046 8.61353C20.1556 8.53034 19.3012 8.65852 18.5334 8.86931C17.7573 9.07707 17.0455 9.35774 16.3309 9.61584C14.9164 10.1627 13.5975 10.7939 12.3742 11.4485C9.92628 12.7601 7.86602 14.1714 6.17635 15.3959C4.48752 16.6245 3.16659 17.6746 2.25994 18.4072C1.35443 19.1416 0.86825 19.5659 0.89299 19.5985C0.918651 19.6322 1.45446 19.2722 2.40664 18.6012C3.35979 17.9318 4.72466 16.9437 6.44574 15.7808C6.5519 15.7093 6.66361 15.6352 6.77249 15.5625C7.10633 15.8576 8.45335 16.5844 10.0224 17.5104C11.8773 18.5946 14.0355 19.9526 15.4039 20.8213C17.9009 22.4077 19.1519 23.253 19.8451 23.6109C20.0073 23.6977 20.1355 23.7566 20.2413 23.7968C16.7882 26.6571 16.054 27.5238 15.0447 27.7008C13.1094 28.0369 2.00112 20.2611 1.9712 20.2417C1.38668 19.8579 1.04152 19.6796 1.01938 19.7129C0.995203 19.7489 1.29307 19.9934 1.82629 20.437C1.99488 20.5758 2.18786 20.7382 2.40024 20.9169C2.33579 20.9678 2.25218 21.1114 2.11756 21.4868C2.0137 21.7792 1.87261 22.2087 1.70348 22.8541C1.54445 23.5013 1.32123 24.3576 1.23934 25.5448C1.19464 26.136 1.20536 26.8193 1.3663 27.5821C1.52804 28.3363 1.89724 29.2024 2.63116 29.892C3.13015 30.3575 12.6714 37.2124 16.8411 37.1637C16.9616 37.1663 17.0827 37.1688 17.2043 37.1714C17.3255 37.1707 17.4453 37.1548 17.5666 37.1467C18.0534 37.1135 18.5271 36.9963 18.9964 36.8611C19.9251 36.5636 20.8023 36.1157 21.6535 35.6089C21.6832 35.5912 35.4933 26.972 35.745 26.7602C36.3838 26.2226 36.9623 25.5259 37.3055 24.7044C38.4438 22.0781 37.9941 18.2689 34.3953 15.3777ZM20.3462 22.9202C19.7744 22.3807 18.5808 21.4098 16.0479 19.8009C14.6601 18.9198 12.3978 17.6572 10.4166 16.7537C8.86622 16.0386 7.50048 15.5497 6.9503 15.4435C8.14196 14.6506 9.49092 13.7908 10.9999 12.9463C11.0228 12.9823 11.0501 13.0219 11.0853 13.0685C11.2099 13.2233 11.4061 13.426 11.662 13.6572C12.1711 14.1242 12.9123 14.7092 13.7437 15.3366C15.408 16.5884 17.4416 17.9887 18.7568 18.8424C21.3747 20.5363 22.6336 21.261 23.2691 21.5256C23.2421 21.5432 23.2147 21.5609 23.1878 21.5785C22.777 21.8498 22.3654 22.1332 21.9654 22.4311C21.5518 22.7374 21.1455 23.0558 20.7435 23.3807C20.6767 23.2693 20.5549 23.1231 20.3462 22.9202ZM2.57499 21.5934C2.60304 21.3423 2.60771 21.1859 2.59883 21.0839C4.46326 22.6492 12.9674 28.9557 15.1976 28.6192C16.939 28.3629 18.8277 26.045 22.6201 23.3298C23.3867 22.7774 24.0995 22.3429 25.0018 21.7722C25.7861 21.2892 26.5591 20.8735 27.3305 20.6319C27.7154 20.5105 28.098 20.4327 28.4728 20.4019C29.4043 20.3323 30.5142 20.7193 31.1539 21.4513C33.2358 23.8222 27.9232 26.1515 24.0746 28.5413C14.9645 34.2997 20.5589 30.8261 16.6788 33.0813C16.581 33.0195 16.4237 32.9581 16.1159 32.8142C15.7777 32.6546 15.2664 32.3868 14.5174 31.9124C3.92421 25.2009 2.70902 24.4553 2.18715 24.2358C2.24347 23.757 2.3126 23.3433 2.36373 22.9927C2.46705 22.3482 2.54144 21.902 2.57499 21.5934ZM36.2483 24.2458C35.9757 24.8833 35.5305 25.4153 34.9974 25.8619C34.8114 26.0164 20.136 35.2378 18.639 35.723C18.2417 35.8376 17.848 35.9377 17.4621 35.9634C17.3658 35.9699 17.2693 35.9848 17.1742 35.9853L16.8909 35.9797C13.3357 36.1205 3.51944 29.3436 3.30548 29.1527C2.74021 28.6445 2.43221 27.9974 2.27247 27.368C2.11577 26.7353 2.07528 26.1265 2.09186 25.58C2.09982 25.1796 2.12595 24.8129 2.16024 24.4764C3.88691 26.349 13.281 33.17 15.8682 33.6306C16.3287 33.7141 16.613 33.6487 16.7402 33.569C16.7475 33.5642 16.7502 33.5596 16.7566 33.5549C16.7672 33.5535 16.7753 33.5532 16.7864 33.5516C17.1615 33.4937 17.8856 33.3103 19.129 32.6843C20.264 32.1164 22.3381 30.8605 24.6547 29.4898C30.0776 26.2225 32.5857 25.1609 32.8061 22.8645C32.8337 22.477 32.8107 22.0626 32.6673 21.6834C32.5299 21.3071 32.3282 20.9503 32.064 20.659C30.9869 19.4396 29.1259 18.8042 26.9705 19.5059C26.052 19.8041 25.2031 20.2819 24.3922 20.7944C24.2336 20.8945 24.0789 20.9981 23.9221 21.1004C23.6049 20.6863 22.5342 19.8493 19.4135 17.8301C18.0995 16.9771 15.9966 15.6928 14.2202 14.6289C13.3311 14.1024 12.5257 13.6255 11.9405 13.2789C11.6472 13.1099 11.4107 12.9717 11.2434 12.8839C11.2194 12.8703 11.1992 12.8602 11.1777 12.8489C11.6653 12.5787 12.1656 12.3101 12.6857 12.047C13.9038 11.4312 15.2097 10.8407 16.6007 10.3344C17.997 9.85803 19.4604 9.28786 20.9236 9.46292C24.8418 9.87865 30.3928 13.513 33.7269 16.2018C36.7309 18.6668 37.294 21.8912 36.2483 24.2458Z" fill="white"/><path d="M6.37981 7.078C6.67064 6.91075 6.65064 6.76087 6.61751 6.59767C6.58436 6.43434 6.54 6.28937 6.22385 6.23917C5.90626 6.18 5.3223 6.23729 4.17959 6.31498C4.09185 6.32105 3.99564 6.32785 3.89511 6.33494C3.79691 5.92464 3.68712 5.50262 3.57429 5.11431C3.44357 4.67551 3.34098 4.3076 3.29108 4.0278C3.23665 3.75017 3.22139 3.5576 3.13932 3.53185C3.06376 3.50653 2.91731 3.67016 2.82246 3.99611C2.72296 4.31932 2.70661 4.78547 2.73236 5.25277C2.74965 5.62415 2.77842 6.021 2.81364 6.40815C2.44902 6.4313 2.07338 6.45256 1.72124 6.46718C0.876787 6.5087 0.171437 6.52924 0.141109 6.69576C0.111089 6.85679 0.779546 7.13731 1.65125 7.31758C2.0568 7.40468 2.50414 7.46356 2.93482 7.49799C2.9569 7.66249 2.97942 7.81859 3.00215 7.95546C3.41815 10.4597 3.6933 10.4678 4.02199 10.4132C4.35075 10.3585 4.6085 10.2619 4.19251 7.75768C4.18037 7.68462 4.16599 7.6052 4.151 7.52403C4.18533 7.5223 4.22278 7.52157 4.25531 7.51926C5.48188 7.43578 6.08863 7.23569 6.37981 7.078Z" fill="white"/><path d="M14.2808 3.61841C14.565 3.51511 14.5815 3.3645 14.5858 3.19798C14.5901 3.03146 14.5837 2.88042 14.2953 2.76525C14.0073 2.65487 13.4336 2.56835 12.3123 2.61957C12.0778 2.62998 11.7924 2.65776 11.4858 2.69957C11.4374 2.50469 11.3852 2.31227 11.3297 2.12969C11.1048 1.38143 10.8367 0.797806 10.6741 0.829345C10.5096 0.861174 10.48 1.49529 10.4863 2.25918C10.4886 2.45753 10.4929 2.66485 10.4988 2.87304C10.3112 2.91326 10.1258 2.95695 9.94968 3.00469C9.16044 3.21505 8.5469 3.4827 8.57673 3.64517C8.60685 3.81039 9.26522 3.8415 10.0578 3.85105C10.2143 3.8522 10.3767 3.85278 10.5402 3.85307C10.5536 4.0873 10.5688 4.3049 10.5856 4.48661C10.6823 5.52061 10.769 6.04665 10.8935 6.313C11.0149 6.57935 11.1661 6.58499 11.3326 6.57804C11.4991 6.57124 11.6493 6.55475 11.7458 6.2722C11.839 5.99008 11.8866 5.43872 11.7868 4.37174C11.7724 4.21606 11.7488 4.03638 11.7184 3.84381C11.9592 3.83933 12.1832 3.83311 12.3706 3.82472C13.4464 3.77567 13.9964 3.72634 14.2808 3.61841Z" fill="white"/></svg>