<svg width="38" height="34" viewBox="0 0 38 34" fill="none" xmlns="http://www.w3.org/2000/svg"><path d="M34.5074 16.1108C34.5381 14.2175 34.7082 5.3057 34.6852 3.84237C34.6529 3.087 34.3391 2.33887 33.8108 1.79133C33.2889 1.23846 32.5613 0.878951 31.7987 0.801536L31.5127 0.785023L31.2816 0.782138C31.1842 0.781231 29.8433 0.768747 29.918 0.769442L26.2817 0.754039L19.009 0.732422L11.7364 0.75475L8.10005 0.77144C8.00269 0.77234 6.66178 0.784737 6.73646 0.784061L6.50537 0.786887L6.21959 0.8034C5.45734 0.880771 4.73016 1.24001 4.20859 1.79257C3.68044 2.33976 3.36679 3.08745 3.33452 3.84246C3.31175 5.29206 3.47866 14.0194 3.51243 16.0924C2.39866 16.4307 1.45792 17.309 1.10671 18.4211C0.996005 18.7719 0.926713 19.1382 0.926758 19.5051L0.931774 20.4261L0.952237 22.2444C1.0122 26.3605 0.997867 25.3764 1.05846 29.5355L1.05855 29.5391C1.06441 29.8072 1.28649 30.0197 1.55455 30.0139C2.28014 29.9979 3.00582 29.9844 3.7314 29.9703C3.71764 30.3068 3.70259 30.6432 3.69687 30.9797L3.68768 31.7113C3.69602 31.8424 3.66246 31.9 3.71533 32.2302C3.77184 32.4961 3.91291 32.7426 4.11333 32.9225C4.3109 33.1051 4.56982 33.2239 4.83789 33.2571C4.89715 33.2661 4.98864 33.2677 5.02157 33.2678L5.11302 33.2671L5.29594 33.2657L6.02748 33.2511C6.51518 33.245 7.00289 33.213 7.49059 33.1934C8.34696 33.162 8.65985 33.1253 9.68524 33.0496L9.86812 33.0331C9.92263 33.0255 9.98517 33.0247 10.1107 33.0045C10.5439 32.9229 10.8738 32.5818 10.939 32.1591C10.9652 31.9303 10.9318 31.8248 10.9195 31.6864L10.8105 30.9031L10.6213 29.8108C12.9493 29.7388 16.6492 29.6616 20.0932 29.5176C17.0034 29.3884 13.9136 29.3196 10.8239 29.2294C9.92498 29.2009 9.02615 29.1834 8.12726 29.1623C7.96995 29.1431 7.82249 29.1201 7.66207 29.1025C6.61852 28.9819 5.51536 28.8918 4.41078 28.8528C4.21547 28.846 4.04328 28.9336 3.92094 29.0687C3.29989 29.0566 2.67893 29.0445 2.05788 29.0314C2.06874 28.2706 2.01854 31.7874 2.16411 21.5908C4.86998 21.854 7.57586 22.003 10.2817 22.1021C13.1908 22.2177 16.0999 22.2487 19.009 22.2614C21.9181 22.2468 24.8272 22.2159 27.7363 22.0999C30.4512 22 33.1661 21.8514 35.881 21.588C36.0464 31.8468 35.9893 28.3085 36.0017 29.074C34.4485 29.1036 32.8953 29.1463 31.3421 29.1851C31.1264 29.1578 30.9208 29.1269 30.699 29.1025C29.6555 28.9819 28.5524 28.8918 27.4478 28.8528C27.1571 28.8427 26.9134 29.0338 26.8276 29.2993C24.5828 29.3616 22.338 29.4237 20.0932 29.5176C22.3209 29.6108 24.5487 29.6725 26.7765 29.7344C26.7567 30.1495 26.7409 30.5646 26.7339 30.9797L26.7247 31.7113C26.733 31.8424 26.6994 31.9 26.7523 32.2302C26.8719 32.7928 27.3399 33.1908 27.8749 33.2571C27.9341 33.2661 28.0257 33.2677 28.0586 33.2678L28.15 33.2671L28.3329 33.2657L29.0645 33.2511C29.5522 33.245 30.0399 33.213 30.5276 33.1934C31.3856 33.1619 31.7084 33.1244 32.7222 33.0496L32.9051 33.0331C32.9596 33.0255 33.0222 33.0247 33.1477 33.0045C33.5818 32.9228 33.9109 32.581 33.976 32.1591C34.0022 31.9303 33.9688 31.8248 33.9565 31.6864L33.8475 30.9031L33.6748 29.9057C34.6044 29.9257 35.5339 29.9549 36.4635 29.9722H36.4646C36.711 29.9762 36.914 29.7797 36.918 29.5333C37.1233 16.9118 37.0027 24.2888 37.0631 20.4261L37.0735 19.5055C37.0742 19.1403 37.0047 18.7757 36.8948 18.4267C36.546 17.3222 35.6129 16.449 34.5074 16.1108ZM4.53289 9.33177L4.58416 5.69545C4.59255 5.10507 4.58918 4.44824 4.60724 3.91242C4.63601 3.4581 4.82923 3.01931 5.15146 2.69957C5.46977 2.37691 5.89928 2.17729 6.34486 2.13952L6.51305 2.13308L6.73646 2.13445L7.19101 2.13867L8.10005 2.14706L11.7364 2.16371L19.009 2.18608L26.2817 2.16446L29.918 2.14906C30.0154 2.14815 31.3563 2.13562 31.2816 2.13632L31.505 2.13494L31.673 2.14138C32.5769 2.21791 33.3477 2.94376 33.4092 3.91251C33.4272 4.44815 33.4239 5.10511 33.4324 5.69545L33.483 9.33177L33.5986 15.9563C30.6174 15.8907 13.2289 15.8422 4.44904 15.9361C4.43848 15.9362 4.42822 15.9389 4.41766 15.9391L4.53289 9.33177ZM5.0229 31.8229C5.02317 31.8229 5.0233 31.8232 5.02357 31.8232H5.02157C4.9937 31.8216 5.0229 31.8229 5.0229 31.8229ZM10.3303 31.0562L10.2212 31.7361C10.1938 32.0142 10.1637 32.031 10.086 32.0712C10.0522 32.0862 10.0176 32.0847 9.99077 32.0755C9.99525 32.0703 9.93541 32.0649 9.86812 32.0579L9.68524 32.0414L8.95366 31.986C8.46595 31.944 7.97829 31.9155 7.49059 31.8976C7.00289 31.878 6.51518 31.846 6.02748 31.8399L5.29594 31.8253L5.13494 31.824C5.11964 30.5536 5.12614 30.9721 5.09566 30.1353C5.82036 30.0878 6.551 30.0224 7.31907 29.9306L7.68648 29.8838C8.63343 29.8624 9.5803 29.8421 10.5273 29.8131C10.4646 30.2553 10.3943 30.6747 10.3303 31.0562ZM27.7363 20.9692C24.8272 20.8531 21.9181 20.8222 19.009 20.8077C16.0999 20.8204 13.1908 20.8513 10.2817 20.967C7.57626 21.0661 4.87083 21.2149 2.16535 21.4781C2.16622 21.4034 2.18939 19.4043 2.18794 19.5289C2.19096 19.2885 2.24347 19.054 2.31716 18.8291C2.62354 17.9228 3.53156 17.2701 4.47665 17.2771L19.009 17.328L33.5418 17.2598C34.494 17.2528 35.4088 17.9103 35.7175 18.8235C35.7919 19.0501 35.8443 19.2864 35.848 19.5286L35.864 20.4261L35.8794 21.4809C33.165 21.2176 30.4507 21.069 27.7363 20.9692ZM28.0599 31.8229C28.0602 31.8229 28.0603 31.8232 28.0606 31.8232H28.0586C28.0307 31.8216 28.0599 31.8229 28.0599 31.8229ZM33.3673 31.0562L33.2582 31.7361C33.2307 32.0142 33.2006 32.031 33.123 32.0712C33.0891 32.0862 33.0546 32.0847 33.0277 32.0755C33.0323 32.0703 32.9724 32.0649 32.9051 32.0579L32.7222 32.0414C31.7631 31.9706 31.4006 31.9296 30.5276 31.8976C30.0399 31.878 29.5522 31.846 29.0645 31.8399L28.3329 31.8253L28.172 31.824C28.1566 30.5526 28.1629 30.9674 28.1326 30.1353C28.8573 30.0878 29.588 30.0224 30.3561 29.9306L31.0446 29.8429C31.8801 29.8643 32.7157 29.8845 33.5512 29.9027C33.4916 30.3107 33.4269 30.7008 33.3673 31.0562Z" fill="white"/><path d="M10.5737 11.3317C11.0767 11.9371 11.56 12.5573 12.0851 13.1461L12.1446 13.2131C12.3805 13.4746 12.7993 13.4401 12.99 13.1461C13.7315 12.0024 14.438 10.8323 15.0709 9.60702C15.5793 10.3734 16.1152 11.1193 16.6365 11.8762L18.4273 14.3294C18.7229 14.7301 19.3079 14.7179 19.5907 14.3294C20.1865 13.5108 20.7918 12.6994 21.3799 11.875C21.902 11.1186 22.4369 10.3718 22.9455 9.60542C23.5777 10.8322 24.284 12.0032 25.0263 13.1474C25.2234 13.4476 25.6432 13.4737 25.8763 13.2128L25.9347 13.1474C26.4602 12.5589 26.9419 11.9376 27.4458 11.3329C27.9339 10.7164 28.4097 10.0906 28.8906 9.46866C29.0841 9.21839 29.0938 8.858 28.8906 8.59677C28.4079 7.97616 27.9347 7.3485 27.4443 6.73375C26.9413 6.12833 26.4579 5.50821 25.9329 4.91934L25.8734 4.85241C25.6388 4.59204 25.2194 4.62415 25.028 4.91934C24.2802 6.0728 23.5681 7.25293 22.9311 8.48948C21.6849 7.00444 20.4001 5.54834 19.009 4.17188C19.9102 5.83904 20.9118 7.43106 21.9508 8.99494C21.3834 9.67236 20.8375 10.3659 20.2809 11.0514C19.8513 11.5973 19.4314 12.1504 19.0094 12.7021L17.7386 11.0502C17.1815 10.3657 16.6369 9.67183 16.0698 8.99489C17.1087 7.43155 18.1093 5.83958 19.009 4.17188C17.6169 5.54692 16.3318 7.00213 15.0861 8.48686C14.4506 7.25036 13.7394 6.07058 12.9917 4.91806C12.7949 4.6183 12.3751 4.59143 12.1417 4.85267L12.0834 4.91806C11.5578 5.50653 11.076 6.1278 10.5721 6.73255C10.084 7.34908 9.60818 7.97483 9.12727 8.59677C8.93382 8.84703 8.9241 9.20743 9.12727 9.46866C9.61 10.0893 10.0832 10.7169 10.5737 11.3317ZM25.4162 6.18604C25.723 6.64533 26.0367 7.09943 26.3453 7.55731C26.6944 8.0538 27.0546 8.54199 27.4119 9.03232C27.0542 9.52259 26.6947 10.0117 26.3437 10.507C26.0362 10.9646 25.7227 11.4176 25.4162 11.8759C24.6705 11.0314 23.8947 10.2096 23.0672 9.42631C23.0792 9.40794 23.0922 9.39023 23.1041 9.3718L23.1416 9.3145C23.2635 9.12686 23.2551 8.87433 23.1041 8.69363C23.0901 8.67685 23.0757 8.66033 23.0617 8.64355C23.8909 7.8576 24.6685 7.03303 25.4162 6.18604ZM12.6018 6.18954C13.3485 7.03524 14.1254 7.85831 14.9543 8.64244C14.9403 8.65913 14.926 8.6756 14.912 8.69229C14.7683 8.86479 14.746 9.11772 14.8748 9.31583L14.912 9.37314C14.9241 9.39178 14.9373 9.40967 14.9495 9.42827C14.1228 10.2123 13.3474 11.0347 12.6017 11.8794C12.295 11.4201 11.9813 10.966 11.6727 10.5081C11.3236 10.0116 10.9634 9.52339 10.606 9.03311C10.9637 8.54279 11.3232 8.0538 11.6743 7.5585C11.9817 7.1009 12.2953 6.6479 12.6018 6.18954Z" fill="white"/></svg>