<svg width="38" height="40" viewBox="0 0 38 40" fill="none" xmlns="http://www.w3.org/2000/svg"><path d="M34.9234 23.308C35.1541 23.308 35.4618 23.2311 35.6926 23.1541C36.6926 22.7695 37.3849 21.7695 37.308 20.7695C37.308 19.7695 36.6157 18.7695 35.6926 18.4618C35.4618 18.3849 35.2311 18.308 34.9234 18.308C34.6926 18.308 34.5388 18.308 34.308 18.308H33.1541C28.4618 18.4618 28.5388 18.4618 28.2311 18.4618C28.1541 17.0003 27.7695 15.4618 26.9234 14.1541C26.1541 12.9234 25.1541 11.8465 23.8465 11.0772C24.4618 10.308 24.9234 9.38492 25.1541 8.46184C25.3849 7.23107 25.308 6.0003 24.8465 4.76953C24.0003 2.38492 21.5388 0.769531 19.0003 0.769531C16.4618 0.769531 14.0003 2.38492 13.1541 4.76953C12.6926 5.92338 12.6157 7.23107 12.8465 8.46184C13.0772 9.46184 13.5388 10.3849 14.1541 11.0772C12.9234 11.8465 11.8465 12.9234 11.1541 14.1541C10.3849 15.4618 9.92338 17.0003 9.84645 18.4618C9.53876 18.4618 8.92338 18.4618 4.92338 18.308H3.76953C3.53876 18.308 3.38492 18.308 3.15415 18.308C2.92338 18.308 2.61569 18.3849 2.38492 18.4618C1.46184 18.7695 0.769531 19.7695 0.769531 20.7695C0.769531 21.7695 1.38492 22.8465 2.38492 23.2311C2.61569 23.308 2.92338 23.3849 3.15415 23.3849H3.76953H4.23107C4.07722 25.7695 4.0003 28.2311 3.84645 30.6157C3.76953 33.2311 3.69261 35.8465 3.61569 38.4618C3.61569 38.7695 3.84645 39.0772 4.23107 39.0772C4.53876 39.0772 9.15415 39.2311 19.0003 39.2311C23.9234 39.2311 28.8465 39.1541 33.7695 39.0772C34.0772 39.0772 34.3849 38.7695 34.3849 38.4618C34.308 35.8465 34.2311 33.2311 34.1541 30.5388C34.0003 28.1541 33.9234 25.6926 33.7695 23.308H34.2311C34.4618 23.308 34.6157 23.3849 34.9234 23.308ZM3.15415 22.0003C3.0003 22.0003 2.92338 22.0003 2.76953 21.9234C2.30799 21.7695 1.92338 21.2311 1.92338 20.6926C1.92338 20.1541 2.23107 19.6157 2.76953 19.3849C3.07722 19.2311 3.38492 19.308 3.69261 19.2311H4.84645L9.53876 19.0772C12.6926 18.9234 15.7695 18.8465 18.9234 18.6926C15.9234 18.5388 12.8465 18.4618 9.84645 18.308C10.1541 16.8465 10.7695 15.4618 11.6157 14.3849C12.5388 13.1541 13.7695 12.1541 15.1541 11.5388C15.4618 11.3849 15.5388 10.9234 15.308 10.6926C13.9234 9.23107 13.5388 7.0003 14.3849 5.23107C14.7695 4.38492 15.4618 3.61569 16.2311 3.07722C17.8465 2.0003 20.0003 2.0003 21.6926 3.07722C22.4618 3.61569 23.1541 4.38492 23.5388 5.23107C24.308 7.0003 24.0003 9.23107 22.6157 10.6926C22.3849 10.9234 22.4618 11.3849 22.7695 11.5388C23.4618 11.8465 24.1541 12.2311 24.6926 12.6926C25.308 13.1541 25.8465 13.6926 26.308 14.308C27.1541 15.4618 27.7695 16.7695 28.0772 18.2311C25.0772 18.3849 22.0003 18.4618 19.0003 18.6157C22.1541 18.7695 25.2311 18.8465 28.3849 19.0003L33.0772 19.1541H34.2311H34.7695C34.9234 19.1541 35.0772 19.2311 35.1541 19.2311C35.6926 19.4618 36.0003 20.0003 36.0003 20.5388C36.0003 21.0772 35.6157 21.6157 35.0772 21.7695C34.9234 21.8465 34.8465 21.8465 34.6926 21.8465C34.6157 21.8465 34.308 21.8465 34.1541 21.8465C34.0003 21.8465 27.9234 21.7695 28.308 21.7695L19.0003 21.9234L9.61569 22.0003C9.46184 22.0003 3.46184 22.0772 3.76953 22.0772L3.15415 22.0003ZM33.3849 30.5388C33.308 32.9234 33.2311 35.3849 33.1541 37.7695C28.4618 37.7695 23.6926 37.6926 19.0003 37.6926C14.308 37.6926 9.53876 37.7695 4.84645 37.8465C4.76953 35.4618 4.69261 33.0003 4.61569 30.6157C4.46184 28.2311 4.38492 25.7695 4.23107 23.3849C4.30799 23.3849 9.84645 23.4618 9.53876 23.4618H19.0003L28.3849 23.3849C28.5388 23.3849 33.9234 23.308 33.6926 23.308C33.5388 25.7695 33.4618 28.1541 33.3849 30.5388Z" fill="white"/><path d="M19.6157 25.4605C19.308 24.999 18.6926 25.0759 18.385 25.4605C17.308 26.9221 16.1542 28.8452 15.6157 30.5375C16.4619 29.9221 17.1542 29.3067 17.7696 28.5375C18.2311 28.0759 18.6157 27.6144 19.0003 27.0759C19.385 27.5375 19.7696 28.0759 20.2311 28.5375C20.9234 29.2298 21.6157 29.9221 22.4619 30.5375C22.1542 29.5375 21.6926 28.6913 21.2311 27.8452C20.6926 27.0759 20.1542 26.2298 19.6157 25.4605Z" fill="white"/><path d="M20.2314 32.5391C19.7698 33.0006 19.3852 33.4621 19.0006 34.0006C18.616 33.5391 18.2314 33.0006 17.7698 32.5391C17.0775 31.8468 16.3852 31.1544 15.5391 30.5391C16.0775 32.2314 17.2314 34.1544 18.3083 35.616C18.616 36.0775 19.2314 36.0006 19.5391 35.616C20.616 34.1544 21.7698 32.2314 22.3083 30.5391C21.616 31.1544 20.9237 31.8468 20.2314 32.5391Z" fill="white"/><path d="M27.0771 28.3096C26.6155 27.6942 26.154 27.0788 25.6155 26.5404L25.5386 26.4635C25.3078 26.1558 24.8463 26.2327 24.6155 26.5404C23.7694 27.8481 23.0002 29.1558 22.3848 30.6173C23.3078 29.7711 24.2309 28.8481 25.0001 27.925C25.3078 28.3865 25.5386 28.7711 25.8463 29.2327C26.154 29.6942 26.5386 30.1558 26.8463 30.6173C26.5386 31.0788 26.154 31.5404 25.8463 32.0019C25.5386 32.4634 25.3078 32.8481 25.0001 33.3096C24.154 32.3865 23.3078 31.4635 22.3848 30.6173C23.0002 32.0019 23.7694 33.3865 24.6155 34.6942C24.8463 35.0019 25.2309 35.0788 25.5386 34.7711L25.6155 34.6942C26.154 34.1558 26.6155 33.5404 27.0771 32.925C27.5386 32.3096 28.0002 31.6942 28.4617 31.0788C28.6925 30.8481 28.6925 30.4635 28.4617 30.1558C28.0002 29.5404 27.5386 28.925 27.0771 28.3096Z" fill="white"/><path d="M12.4619 26.4635C11.9234 27.0788 11.385 27.6942 10.9234 28.3096C10.4619 28.925 10.0003 29.5404 9.5388 30.1558C9.30803 30.3865 9.30803 30.7711 9.5388 31.0788C10.0003 31.6942 10.4619 32.3096 10.9234 32.925C11.385 33.5404 11.8465 34.1558 12.385 34.6942L12.4619 34.7711C12.6926 35.0788 13.1542 35.0019 13.385 34.6942C14.2311 33.3865 15.0003 32.0788 15.6157 30.6173C14.6926 31.4635 13.7696 32.3865 13.0003 33.3096C12.6926 32.8481 12.4619 32.4634 12.1542 32.0019C11.8465 31.5404 11.4619 31.0788 11.1542 30.6173C11.4619 30.1558 11.8465 29.6942 12.1542 29.2327C12.4619 28.7711 12.6926 28.3865 13.0003 27.925C13.8465 28.8481 14.6926 29.7711 15.6157 30.6173C15.0003 29.2327 14.2311 27.8481 13.385 26.5404C13.1542 26.2327 12.6926 26.1558 12.4619 26.4635Z" fill="white"/></svg>