<svg width="46" height="48" viewBox="0 0 46 48" fill="none" xmlns="http://www.w3.org/2000/svg"><path d="M18.9712 5.73077C19.6442 5.53846 20.4135 5.34616 21.0865 4.96154C20.4135 4.57692 19.6442 4.38462 18.9712 4.19231C18.2981 4.09615 17.5288 4 16.8558 4C16.1827 4 15.4135 4.09615 14.7404 4.19231C14.0673 4.38462 13.2981 4.57692 12.625 4.96154C13.2981 5.34616 14.0673 5.53846 14.7404 5.73077C16.1827 6.01923 17.625 6.01923 18.9712 5.73077Z" fill="#26848B"/><path d="M12.625 41.9808C14.9327 43.2308 18.875 43.2308 21.0865 41.9808C18.875 40.7308 14.8365 40.7308 12.625 41.9808Z" fill="#26848B"/><path d="M45.0273 41.1154L44.9312 40.4423C44.9312 40.3461 44.9312 40.1538 44.835 40.0577C44.6427 39.1923 43.9696 38.6154 43.1043 38.4231C42.912 38.4231 42.8158 38.3269 42.6235 38.3269C42.5273 38.3269 42.335 38.3269 42.2389 38.3269C42.1427 36.8846 42.1427 35.5385 42.0466 34.0961C41.9504 32.3654 41.8543 30.6346 41.7581 28.9038V29C41.8543 27.5577 41.3735 26.2115 40.6043 25.0577C40.412 24.7692 40.2196 24.4808 39.9312 24.2885L39.2581 23.6154C38.2966 22.6538 36.2773 20.4423 33.3927 17.75C33.4889 14.7692 33.4889 11.7885 33.585 8.80768C33.585 8.51922 33.4889 8.32692 33.2966 8.13461C33.2966 7.26922 33.2966 6.30768 33.2966 5.4423V4.48076C33.2966 2.65384 32.0466 0.923068 30.0273 0.538452C29.2581 0.442298 28.6812 0.442298 28.0081 0.442298L20.5081 0.346144L5.70042 0.249991C5.02734 0.249991 4.54657 0.153837 3.68119 0.346144C2.14273 0.634606 0.796574 1.6923 0.315805 3.32691C0.123498 3.61538 0.0273438 3.99999 0.0273438 4.38461V5.34615V12.8461V27.8461C0.0273438 28.2308 0.123497 41.8846 0.123497 40.9231V41.8846V42.9423C0.315805 44.4808 1.3735 45.9231 2.8158 46.5C3.20042 46.6923 3.58504 46.6923 3.96965 46.7885H5.02734H6.85427C9.35427 46.7885 11.8543 46.6923 14.3543 46.6923L28.7773 46.5C28.7773 46.5962 28.8735 46.7885 28.9696 46.8846C29.2581 47.3654 29.835 47.75 30.412 47.8461C30.7004 47.9423 30.9889 47.8461 31.2773 47.8461L31.8543 47.75C33.4889 47.3654 35.1235 46.9808 36.7581 46.5C35.0273 46.5962 33.3927 46.6923 31.662 46.7885L30.9889 46.8846C30.7966 46.8846 30.7004 46.8846 30.6043 46.8846C30.3158 46.7885 30.1235 46.5961 30.0273 46.4038C29.9312 46.3077 29.9312 46.2115 29.9312 46.0192C29.9312 45.8269 29.6427 43.3269 29.6427 43.5192V43.2308C29.6427 43.1346 29.6427 43.0385 29.6427 42.9423C29.6427 42.6538 29.835 42.3654 30.1235 42.2692C30.2196 42.2692 30.2196 42.2692 30.5081 42.1731C30.7004 42.2692 30.8927 42.2692 31.085 42.2692L32.1427 41.9808L36.8543 41.3077L39.4504 40.8269L41.4696 40.5385C41.5658 40.5385 41.5658 40.5385 41.662 40.4423H41.8543L42.4312 40.3461H42.6235H42.7196C42.912 40.3461 43.0081 40.4423 43.1043 40.6346C43.1043 40.6346 43.1043 40.7308 43.2004 40.7308C43.2004 40.8269 43.2004 40.8269 43.3927 41.5961C43.3927 41.6923 43.8735 44.1923 43.8735 44C43.9696 44.2885 43.7773 44.6731 43.3927 44.8654C43.2966 44.8654 43.2966 44.8654 43.2004 44.9615C43.1043 44.9615 41.5658 45.3461 41.662 45.3461C40.0273 45.7308 38.3927 46.1154 36.7581 46.5961C38.4889 46.5 40.1235 46.4038 41.8543 46.3077C41.9504 46.3077 43.4889 46.1154 43.3927 46.1154C43.4889 46.1154 43.6812 46.1154 43.7773 46.0192C44.0658 45.9231 44.3543 45.8269 44.5466 45.5385C45.0273 45.1538 45.3158 44.5769 45.2196 43.9038L45.1235 42.5577L45.0273 41.1154ZM1.85427 27.8461C1.85427 22.8461 1.95042 17.8461 1.85427 12.8461V9.48076C6.85427 9.57691 11.8543 9.67307 16.8543 9.67307H24.835C27.2389 9.67307 29.5466 9.67307 31.9504 9.57692C31.9504 11.5961 32.0466 13.6154 32.0466 15.6346C31.7581 15.4423 31.3735 15.3461 31.085 15.4423C30.412 15.7308 29.7389 15.9231 28.9696 16.4038C28.2004 16.8846 27.6235 17.4615 27.1427 18.1346C26.085 19.6731 25.7004 21.9808 26.7581 24.1923L27.2389 25.1538C27.5273 25.6346 28.2004 26.9808 29.0658 28.5192C29.3543 29.2885 29.6427 30.0577 29.9312 30.8269C29.2581 31.8846 28.7773 33.0385 28.4889 34.1923C28.2966 35.1538 28.2966 36.2115 28.4889 37.1731L22.335 37.0769H15.2196C12.8158 37.0769 10.5081 37.0769 8.10427 37.1731C5.98888 37.1731 3.96965 37.2692 1.85427 37.2692V27.8461ZM38.2966 24.4808L38.8735 25.1538C39.0658 25.3461 39.162 25.6346 39.3543 25.8269C39.835 26.7885 40.1235 27.8461 40.0273 28.9038C40.0273 30.6346 40.1235 32.3654 40.2196 34.0961C40.3158 35.5385 40.3158 36.9808 40.412 38.4231C40.1235 38.4231 39.9312 38.5192 39.6427 38.5192L36.5658 39L31.5658 39.8654H31.3735C31.2773 39.8654 31.1812 39.8654 31.085 39.8654C30.7966 39.3846 30.5081 38.8077 30.2196 38.2308C30.2196 38.1346 30.2196 38.1346 30.1235 38.0385C30.1235 37.9423 30.1235 37.75 30.1235 37.6538C29.3543 35.5385 29.6427 33.0385 30.8927 31.0192C30.9889 30.9231 30.9889 30.7308 30.8927 30.6346C30.5081 29.8654 30.0273 29 29.6427 28.2308C29.162 26.5961 28.585 25.1538 28.3927 24.5769L28.0081 23.5192C27.4312 21.8846 27.6235 20.4423 28.4889 19.1923C28.8735 18.7115 29.2581 18.3269 29.835 18.0385C30.1235 17.8461 30.412 17.75 30.7966 17.5577C32.1427 21.2115 33.9696 25.6346 35.7966 29.0961C35.412 26.8846 34.835 24.6731 34.2581 22.4615C33.9696 21.5 33.6812 20.5385 33.3927 19.4808C33.3927 18.9038 33.3927 18.3269 33.3927 17.75C35.7966 21.2115 37.5273 23.4231 38.2966 24.4808ZM1.85427 4.48076C1.85427 4.28845 1.95042 3.99999 1.95042 3.80768C2.23888 2.84614 3.00811 2.17307 3.96965 2.07691C4.35427 1.98076 5.1235 2.07691 5.70042 1.98076L20.6043 1.88461L28.1043 1.78845C28.6812 1.78845 29.3543 1.6923 29.835 1.78845C30.3158 1.88461 30.7966 2.07691 31.1812 2.46153C31.5658 2.74999 31.8543 3.23076 32.0466 3.71153C32.1427 3.99999 32.1427 4.1923 32.1427 4.48076C32.1427 4.86538 32.1427 5.15384 32.2389 7.84615C29.7389 7.84615 27.335 7.84615 24.835 7.74999C22.1427 7.74999 19.5466 7.74999 16.8543 7.74999C11.8543 7.74999 6.85427 7.84615 1.85427 7.9423V5.24999C1.85427 5.05768 1.85427 4.67307 1.85427 4.48076ZM6.85427 45.0577H5.02734C4.35427 45.0577 3.96965 45.0577 3.48888 44.8654C2.6235 44.4808 1.95042 43.6154 1.85427 42.75V39C3.96965 39.0961 5.98888 39.0961 8.10427 39.0961C10.5081 39.0961 12.8158 39.0961 15.2196 39.1923H22.335L29.162 39.0961C29.3543 39.5769 29.5466 40.0577 29.7389 40.5385C29.6427 40.5385 29.6427 40.5385 29.5466 40.6346C29.2581 40.7308 28.9696 40.9231 28.6812 41.2115C28.2004 41.6923 27.912 42.3654 28.0081 43.0385C28.0081 43.2308 28.0081 43.3269 28.1043 43.4231C28.1043 43.5192 28.2966 44.4808 28.2966 44.3846L28.4889 45.6346L14.3543 45.1538C11.8543 45.0577 9.35427 45.0577 6.85427 45.0577Z" fill="#26848B"/></svg> 