<svg width="37" height="50" viewBox="0 0 37 50" fill="none" xmlns="http://www.w3.org/2000/svg"><path d="M36.7139 1.06612C36.6167 0.893958 36.4442 0.731197 34.3998 1.7451C33.8921 2.00968 33.2668 2.35338 32.5254 2.85676C31.7871 3.36014 30.9218 4.0271 30.0611 5.03368C29.6377 5.54122 29.2276 6.14108 28.8753 6.84158C28.5264 7.54335 28.262 8.33672 28.0631 9.18814C27.9192 9.81431 27.8119 10.4729 27.7219 11.1564C24.1573 11.2369 17.2597 11.401 13.7667 11.6153C15.3402 9.58176 15.5873 9.2539 16.9853 7.49407C17.1647 7.26847 17.39 7.01122 17.5822 6.62963C17.6852 6.42058 17.7734 6.15853 17.7928 5.86719C17.8109 5.57531 17.7569 5.28252 17.6429 5.01912C16.5336 2.51172 8.61509 0.906243 3.83062 5.83292C2.46725 7.21648 1.51124 8.9317 1.00175 10.6724C-0.0940548 14.3978 0.489403 18.9519 3.90632 21.5794C4.42203 21.9672 4.74224 22.1274 4.76941 22.0915C4.80555 22.0448 4.54627 21.8026 4.10704 21.351C1.3078 18.4181 0.819472 14.547 2.01909 10.9927C2.54429 9.42794 3.46463 7.9121 4.71009 6.72223C8.04732 3.49035 13.319 3.4815 15.8137 5.15584C16.0523 5.31254 16.2117 5.49239 16.2579 5.61166C16.3027 5.73771 16.3046 5.79286 16.2279 5.96548C16.0572 6.31833 16.5676 5.49517 12.4702 10.8764C12.4655 10.8827 12.4613 10.8883 12.4566 10.8947C12.4566 10.7956 12.4555 10.6907 12.4528 10.5787C12.4287 9.56909 12.0394 7.41052 11.623 7.42047C11.2066 7.43041 10.9208 9.60507 10.9449 10.6147C10.9732 11.802 11.1243 12.2352 11.3392 12.3917C11.2296 12.5393 11.1177 12.6898 11.0119 12.8328C10.8591 12.5783 10.5046 12.2309 9.76222 11.6318C9.32708 11.2826 8.58616 10.7795 7.90239 10.4192C7.2197 10.055 6.58887 9.86775 6.47961 10.046C6.37072 10.2231 6.75558 10.6998 7.24732 11.261C7.74202 11.8198 8.37075 12.4489 8.81645 12.8068C9.54735 13.3971 10.028 13.662 10.341 13.7426C10.1353 14.0224 9.93847 14.2909 9.748 14.5514C9.46683 14.4943 9.02478 14.4904 8.29952 14.5062C7.80105 14.5177 7.01573 14.5734 6.33311 14.624C5.65245 14.6797 5.07103 14.7428 5.02612 14.9481C4.98158 15.1492 5.50278 15.4605 6.204 15.6826C6.90198 15.9098 7.77243 16.0274 8.32513 16.0144C8.45695 16.0115 8.57918 16.0059 8.69426 15.9985C5.10776 20.9419 4.75807 21.5812 5.04712 21.8137C5.56034 22.2274 8.79017 18.0392 9.55479 17.0689C9.51998 17.7849 9.48401 18.5557 9.4466 19.3949C9.35789 21.7852 9.15166 24.6431 9.34137 27.8446C9.50368 30.5733 11.5154 45.123 12.1279 46.5661C12.3405 47.0767 12.7051 47.5979 13.2075 47.9466C15.274 49.407 26.3827 49.0342 28.5502 48.98C28.7798 48.9684 29.0547 48.9594 29.367 48.8878C29.6712 48.8199 30.0662 48.6581 30.346 48.3165C30.6231 47.9764 30.7017 47.6187 30.7523 47.3535C30.8202 46.8906 30.8876 46.4302 30.9547 45.9728C32.3393 36.3151 34.9772 20.7705 33.5706 12.5474C33.5246 12.2869 33.4222 11.918 33.136 11.6185C32.8575 11.3234 32.5031 11.1923 32.2252 11.1356C31.7814 11.0453 31.5859 11.073 29.2356 11.1232C29.3107 10.5526 29.3961 10.0132 29.5048 9.51248C29.6748 8.74425 29.8936 8.05849 30.1735 7.46595C30.4566 6.87567 30.7869 6.36162 31.1377 5.91268C31.8521 5.02183 32.604 4.37794 33.2612 3.86822C33.9196 3.3577 34.4868 2.97603 34.9428 2.66307C36.7997 1.44201 36.8212 1.25646 36.7139 1.06612ZM10.7276 15.5656C11.4194 14.6662 12.2108 13.6374 13.1017 12.4791C16.4735 12.62 24.1795 12.562 27.5592 12.5349C27.4739 13.2938 27.3845 14.0895 27.2905 14.9264C27.1414 16.2565 26.961 17.804 26.7584 19.4773C24.2485 19.575 21.4361 19.6246 20.0003 19.6282C14.6769 19.651 11.4182 19.416 10.0333 19.4557C10.0333 19.4409 10.0335 19.4249 10.0335 19.41C10.0411 18.3168 10.0454 17.3276 10.0468 16.4414C10.2647 16.1624 10.4897 15.8732 10.7276 15.5656ZM29.5281 45.7733C29.4675 46.2142 29.4065 46.6579 29.3451 47.1041C29.3162 47.2873 29.2685 47.3911 29.2486 47.4106C29.2344 47.4319 29.1848 47.4734 29.0405 47.5091C28.1402 47.7284 15.5228 48.0504 13.9121 46.9383C13.6187 46.739 13.3996 46.4514 13.2362 46.0836C12.7974 45.0954 10.4402 30.8274 10.1824 27.7828C9.93106 24.8281 10.0217 22.1182 10.0317 19.8044C12.591 20.5101 17.2725 20.9018 19.9742 21.0178C23.4197 21.1715 28.7966 21.0455 31.9979 20.3473C32.1689 20.3067 32.3112 20.2679 32.4343 20.2303C32.2797 26.7025 31.3623 32.3078 29.5281 45.7733ZM31.9299 12.5338C32.045 12.5594 32.0856 12.5931 32.0909 12.6018C32.0962 12.6068 32.0997 12.6116 32.1132 12.6429C32.1252 12.6736 32.1401 12.7265 32.1521 12.798C32.2404 13.301 32.4823 16.173 32.4515 19.3136C32.3003 19.2984 32.115 19.2888 31.8826 19.2871C31.1745 19.2678 30.0499 19.3339 28.2494 19.4147C28.4637 17.833 28.6467 16.3681 28.789 15.0983C28.8884 14.1926 28.9824 13.3364 29.0719 12.5218C31.6953 12.497 31.725 12.4872 31.9299 12.5338Z" fill="#26848B"/></svg>