<svg width="46" height="32" viewBox="0 0 46 32" fill="none" xmlns="http://www.w3.org/2000/svg"><path d="M18.4338 4.27235C18.4072 4.26541 18.3075 4.25159 18.1916 4.26502C17.7617 4.3119 17.3788 4.62526 17.2745 5.09116C17.2609 5.14787 17.2543 5.20579 17.2495 5.26428L17.2394 5.3393C17.1871 5.72482 17.128 6.11034 17.0932 6.4958C17.0387 7.04384 17.0157 7.59182 17.0067 8.13986C16.5084 8.16838 16.0111 8.23996 15.5125 8.28602C14.9523 8.33934 14.3937 8.40748 13.8423 8.54136C11.6208 8.93554 9.43072 9.70586 7.45396 10.8894C6.9502 11.167 6.49754 11.5323 6.01764 11.852C5.55355 12.195 5.13118 12.5945 4.68718 12.9655C3.99504 13.6647 3.33475 14.4018 2.76979 15.2088C1.76504 16.6157 0.988673 18.1848 0.496897 19.8489C0.478087 19.9139 0.47165 19.9858 0.467489 20.057C0.437082 20.1679 0.402403 20.2775 0.374216 20.3891C0.185673 21.0076 0.187116 21.8542 0.456447 22.5315C0.587173 22.8787 0.77788 23.2094 1.0122 23.492C1.22394 23.7436 1.43423 23.9683 1.67221 24.1807C2.1383 24.6069 2.66342 24.9554 3.21207 25.2392C4.31598 25.805 5.51032 26.0836 6.68314 26.1967C7.65327 26.2751 8.5304 26.2543 9.40725 26.2484C9.34172 26.4017 9.28285 26.555 9.23335 26.7083C9.10002 27.157 9.03793 27.6058 9.03688 28.0546C9.03543 28.5034 9.09769 28.9522 9.23086 29.401C9.29639 29.6051 9.37429 29.8093 9.4725 30.0135C9.3516 30.0233 9.23064 30.0272 9.10973 30.0379C8.73497 30.0766 8.36027 30.1017 7.98552 30.1515C7.63895 30.2057 7.3204 30.218 6.97816 30.1894C6.30051 30.1443 5.60914 29.9358 4.99785 29.4604C5.28976 30.1966 5.99722 30.7426 6.76454 31.0562C7.15028 31.2068 7.58252 31.2989 7.98552 31.3431C8.36027 31.3929 8.73497 31.4181 9.10973 31.4567C12.0547 31.7157 14.9571 31.7332 18.1034 31.454C19.6024 31.3203 21.1013 31.1235 22.6003 30.7473C21.279 30.4157 19.9577 30.227 18.6364 30.0946C19.1651 29.062 19.2434 27.8154 18.9144 26.7083C18.86 26.5399 18.7948 26.3714 18.7204 26.203L19.8899 26.1956C22.3607 26.2014 24.7747 24.8693 26.0727 22.7834C26.7331 21.7556 27.118 20.5536 27.1899 19.3414C27.2245 18.6814 27.1899 18.2755 27.2818 17.7734C27.352 17.2908 27.4918 16.8192 27.6851 16.3697C28.4516 14.5674 30.1804 13.1705 32.1569 12.8533C33.1031 12.699 34.2761 12.7551 35.3484 12.7096L38.6289 12.6321L41.9094 12.5365C42.4764 12.5086 42.9576 12.5315 43.595 12.4619C44.2322 12.343 44.7682 11.8742 44.9876 11.2893L44.9934 11.274C45.0018 11.2512 45.0061 11.2264 45.0052 11.2005L44.7726 4.45861L44.5421 11.137C44.3447 11.5542 43.9412 11.8547 43.5016 11.9089C43.0508 11.931 42.4347 11.8876 41.9094 11.8802L38.6289 11.7846L35.3484 11.707L33.7082 11.6726C33.1806 11.6641 32.5797 11.637 31.9878 11.7254C29.6107 11.9956 27.4492 13.6144 26.4379 15.8079C26.1826 16.3547 25.9919 16.9345 25.8852 17.531C25.7567 18.1044 25.7689 18.8008 25.727 19.2299C25.6409 20.1989 25.3004 21.1342 24.7685 21.9389C23.7162 23.561 21.8077 24.565 19.8899 24.5219L13.3289 24.4797L10.0485 24.4698C8.95969 24.4547 7.83055 24.4964 6.8562 24.4073C5.85672 24.305 4.88677 24.0636 4.04304 23.6226C3.3281 23.2544 2.84346 22.8562 2.40463 22.3456C2.28856 22.208 2.20288 22.0589 2.13885 21.8953C2.03726 21.6027 2.00691 21.3373 2.07121 21.0042L8.46226 20.9615L12.0084 20.8971L13.8078 20.8606C14.6778 20.8237 15.4772 20.2698 15.837 19.5164C15.9377 19.3024 15.9733 19.1864 16.0271 19.0528L16.1829 18.6532C16.2973 18.3918 16.4 18.1241 16.5256 17.8672C16.7621 17.346 17.0284 16.8385 17.3049 16.3356C17.8605 15.3309 18.5096 14.3739 19.2383 13.4752C20.4646 11.9318 21.9473 10.5935 23.5609 9.39752C26.9218 9.33982 30.2827 9.2694 33.6436 9.18728C33.7971 9.18278 38.9892 9.03058 38.7694 9.03703L38.9518 9.04324C39.093 9.05156 39.2538 9.05572 39.417 9.02892C39.7486 8.98381 40.0686 8.77579 40.2512 8.51573C40.4414 8.25988 40.5335 7.95915 40.6263 7.72444C40.9075 6.99361 41.3217 6.26774 41.8769 5.70251C42.613 4.93186 43.6754 4.48469 44.7726 4.45861C43.6806 4.39741 42.5438 4.76046 41.6994 5.51508C41.2722 5.88367 40.9305 6.34049 40.6404 6.81973C40.3357 7.27727 40.1608 7.88507 39.8914 8.2338C39.7443 8.41019 39.563 8.50807 39.3491 8.52827C39.1423 8.54952 38.9678 8.50224 38.7694 8.4957C38.634 8.49173 36.8118 8.43831 36.9241 8.4416L33.6436 8.34544C30.1945 8.26116 26.7454 8.18875 23.2964 8.1306C23.1704 7.17673 23.0817 6.22281 23.0833 5.26894C23.0849 6.22037 22.9965 7.17185 22.8711 8.12327C22.1175 8.11096 21.364 8.09448 20.6104 8.08421C20.5712 8.07894 20.5319 8.07145 20.4927 8.0664C20.0575 8.00747 19.6372 7.94572 19.1881 7.93129C19.0575 7.92424 18.9265 7.92829 18.7958 7.92386C18.7829 7.44784 18.7592 6.97182 18.7119 6.4958C18.6772 6.11034 18.6181 5.72482 18.5657 5.3393L18.5612 5.30783C19.8756 5.09108 20.875 4.91121 22.1925 4.83459C22.383 4.83748 22.5833 4.78926 22.7646 4.83592C22.945 4.89468 23.0822 5.07413 23.0833 5.26894C23.0884 5.07429 22.9563 4.88597 22.7707 4.81883C22.5788 4.76096 22.3848 4.78598 22.1925 4.76656C21.807 4.74415 21.4215 4.71091 21.036 4.6678C20.9241 4.6542 20.8122 4.63201 20.7004 4.61731C20.9419 4.3836 21.0881 4.14994 21.2028 3.91618C21.4589 3.34832 21.4693 2.73452 21.2072 2.14843C24.4639 2.11891 28.4387 1.89722 31.6148 1.2526C29.7612 0.876461 27.9076 0.679651 26.054 0.545928C22.1617 0.266653 18.5725 0.284304 14.9323 0.54321C13.0786 0.676377 11.225 0.874186 9.3714 1.2526C11.225 1.63108 13.0786 1.82883 14.9323 1.96205C16.546 2.0768 18.1597 2.13595 19.7735 2.14888C19.5044 2.75066 19.5292 3.36441 19.7781 3.91618C19.8806 4.12514 20.0086 4.3341 20.2064 4.54306C19.712 4.47149 19.2174 4.4049 18.723 4.32001L18.4338 4.27235ZM17.6808 26.2098C17.6077 26.3759 17.5434 26.5421 17.4897 26.7083C17.2386 27.5533 17.2172 28.4912 17.4872 29.401C17.5529 29.6058 17.6311 29.8106 17.7297 30.0154C16.3553 29.9031 14.981 29.8371 13.6066 29.8385C12.5537 29.8351 11.5009 29.8815 10.448 29.9481C10.5314 29.7657 10.602 29.5833 10.6605 29.401C10.9295 28.4949 10.9101 27.5565 10.6581 26.7083C10.6083 26.5543 10.5492 26.4002 10.4832 26.2463L13.3289 26.2377L17.6808 26.2098ZM18.5707 12.882C17.7282 13.75 16.9657 14.701 16.2883 15.713C15.9462 16.2172 15.6365 16.7435 15.3503 17.2825C15.2002 17.5487 15.0733 17.8264 14.9345 18.0988L14.7427 18.5147C14.6796 18.6524 14.6091 18.8129 14.5772 18.863C14.4023 19.1658 14.0743 19.3484 13.7551 19.3359C13.6636 19.3342 8.11055 19.2331 8.46226 19.2395L2.64611 19.2005C2.67541 19.1239 2.69682 19.0447 2.7274 18.9686C2.78377 18.8279 2.84647 18.6901 2.90745 18.5512C3.19106 17.9039 3.45564 17.4182 3.73403 16.9671C4.03288 16.479 4.35239 16.0199 4.62642 15.6647C4.77008 15.4776 4.92045 15.2958 5.07159 15.1144C5.31684 14.8285 5.56647 14.5462 5.83459 14.2812C5.88003 14.2356 5.92741 14.1922 5.97347 14.1473C6.68908 13.4594 7.47626 12.843 8.32759 12.3186C10.0848 11.2218 12.0758 10.4703 14.1506 10.0647C14.6612 9.92803 15.1872 9.85856 15.7143 9.78998C16.3658 9.71073 16.7356 9.6157 17.4695 9.57907C17.6136 9.6613 17.7728 9.71907 17.9508 9.7118C18.7873 9.67756 19.6187 9.58346 20.4927 9.46632C20.5319 9.46128 20.5712 9.45378 20.6104 9.44851C21.471 9.43681 22.3317 9.41833 23.1923 9.4039C21.509 10.3281 19.939 11.4899 18.5707 12.882ZM18.5085 5.3434C18.48 5.36404 18.4513 5.36748 18.4252 5.36338C18.412 5.3611 18.3993 5.35811 18.3878 5.35156C18.3668 5.34523 18.3644 5.33697 18.4338 5.32881L18.5332 5.31244C18.5252 5.32381 18.517 5.33574 18.5085 5.3434Z" fill="#26848B"/></svg>