<svg width="45" height="48" viewBox="0 0 45 48" fill="none" xmlns="http://www.w3.org/2000/svg"><path d="M42.4357 25.8868C42.7188 25.8868 43.0961 25.8868 43.3791 25.6981C44.0395 25.4151 44.5112 24.7547 44.5112 24C44.5112 23.6226 44.4169 23.3396 44.2282 23.0566C44.0395 22.7736 43.8508 22.5849 43.6622 22.3962L41.4923 19.7547L40.3603 18.434C39.9829 17.9623 39.5112 17.5849 39.4169 17.0189C39.4169 17.6792 39.8886 18.0566 40.1716 18.5283L41.2093 19.9434L43.2848 22.7736C43.4735 22.9623 43.6622 23.2453 43.7565 23.434C43.8508 23.6226 43.9452 23.9057 43.9452 24.0943C43.9452 24.566 43.5678 24.9434 43.1905 25.1321C43.0018 25.2264 42.8131 25.2264 42.4357 25.2264C42.2471 25.2264 39.6999 25.1321 39.7942 25.1321C24.7942 24.7547 22.8131 24.8491 11.964 24.6604C11.8697 24.6604 11.7754 24.6604 11.681 24.566C11.5867 24.4717 9.60555 22.8679 9.69989 22.9623C9.51122 22.7736 3.94518 18.3396 4.32254 18.6226L3.00178 17.4906C2.71876 17.3019 2.71876 17.2075 2.62442 17.1132C2.53008 17.0189 2.53008 16.9245 2.53008 16.8302C2.53008 16.7358 2.62442 16.6415 2.62442 16.5472C2.62442 16.5472 2.62442 16.5472 2.71876 16.4528C2.71876 16.4528 2.71876 16.4528 2.8131 16.3585C2.90744 16.2641 7.3414 12.6792 7.24706 12.7736C7.3414 12.6792 11.5867 9.28301 11.3037 9.47169L11.681 9.18867C11.7754 9.09433 11.7754 9.09433 11.8697 9.09433C11.964 9.09433 11.964 9.09433 12.0584 9H12.3414C18.3791 8.90566 24.7942 8.90566 40.1716 8.5283C40.3603 8.5283 42.9074 8.43396 42.8131 8.43396C43.0961 8.43396 43.2848 8.43396 43.4735 8.5283C43.8508 8.71698 44.1339 9.18867 44.0395 9.66037C44.0395 9.84905 43.9452 10.1321 43.7565 10.3207C43.6622 10.4151 41.0206 14 41.115 13.8113L40.0772 15.4151C39.8886 15.6981 39.6999 15.8868 39.6055 16.1698C39.5112 16.4528 39.4169 16.7358 39.4169 17.0189C39.4169 16.7358 39.5112 16.4528 39.6055 16.1698C39.7942 15.9811 39.9829 15.6981 40.1716 15.5094L41.3037 14.1887C41.398 14.0943 44.3225 10.6981 44.1339 10.8868C44.3225 10.6038 44.5112 10.3208 44.6055 9.94339C44.6999 9.28301 44.4169 8.5283 43.7565 8.15094C43.4735 7.96226 43.0961 7.86792 42.7188 7.86792C42.5301 7.86792 39.9829 7.77358 40.0772 7.77358C36.3037 7.67924 32.5301 7.5849 28.6622 7.5849C28.7565 6.26415 28.7565 6.45283 28.8508 5.03773C28.8508 4.75471 28.9452 4.18867 28.8508 3.81132C28.6622 2.86792 28.1905 2.01886 27.5301 1.45283C26.7754 0.886788 25.9263 0.50943 24.9829 0.50943C24.0395 0.50943 23.0961 0.886788 22.4357 1.45283C21.681 2.01886 21.2093 2.86792 21.115 3.81132C21.0206 4.28301 21.0206 4.75471 21.115 5.03773C21.115 6.45283 21.0206 6.26415 21.2093 7.49056C21.115 7.49056 12.2471 7.39622 12.1527 7.39622C11.7754 7.39622 11.4923 7.49056 11.115 7.5849C10.9263 7.67924 10.6433 7.86792 10.549 7.96226C10.4546 8.0566 5.92631 11.6415 6.11499 11.4528C6.02065 11.5472 1.77537 14.9434 2.05839 14.6604C1.68103 14.9434 1.68103 14.9434 1.49235 15.1321C1.39801 15.2264 1.30367 15.3207 1.20933 15.4151C0.548953 16.2641 0.548952 17.3019 1.02065 18.0566C1.20933 18.434 1.68103 18.8113 1.86971 19C1.96405 19.0943 6.20933 22.3962 5.92631 22.2075C6.02065 22.3019 10.2659 25.6981 9.98291 25.4151L10.3603 25.6981C10.4546 25.7924 10.549 25.8868 10.7376 25.9811C11.115 26.2641 11.5867 26.3585 12.0584 26.3585L21.4923 26.2641C21.3037 29.566 21.115 32.7736 21.0206 36.0755C20.9263 39.566 20.832 43.1509 20.832 46.6415C20.832 47.1132 21.2093 47.5849 21.7754 47.5849H28.1905C28.6622 47.5849 29.1339 47.2075 29.1339 46.6415C29.1339 43.1509 29.0395 39.566 28.9452 36.0755C28.8508 32.7736 28.6622 29.4717 28.4735 26.1698C32.2471 26.0755 36.115 26.0755 39.8886 25.9811C40.0772 25.9811 42.6244 25.8868 42.4357 25.8868ZM22.4357 6.07547C22.5301 5.41509 22.5301 4.56603 22.6244 4.09434C22.9074 3.0566 23.9452 2.30188 24.9829 2.30188C26.0206 2.30188 27.0584 3.0566 27.3414 4.09434C27.4357 4.37735 27.4357 4.56603 27.4357 5.03773C27.5301 6.54717 27.5301 6.26415 27.6244 7.5849C27.1527 7.5849 26.681 7.5849 26.2093 7.5849C24.8886 7.5849 23.6622 7.5849 22.3414 7.49056C22.3414 7.01886 22.4357 6.54717 22.4357 6.07547ZM27.4357 36.0755C27.3414 39.283 27.2471 42.4906 27.2471 45.6981C25.7376 45.6981 24.2282 45.6981 22.6244 45.6981C22.6244 42.4906 22.5301 39.283 22.4357 36.0755C22.3414 32.7736 22.1527 29.566 21.964 26.2641H25.9263H27.8131C27.6244 29.4717 27.5301 32.7736 27.4357 36.0755Z" fill="#26848B"/></svg>