<svg width="45" height="46" viewBox="0 0 45 46" fill="none" xmlns="http://www.w3.org/2000/svg"><path d="M10.2866 27.9756C10.1865 31.2136 11.5074 34.4727 13.7953 36.8049C16.0842 39.145 19.3456 40.5019 22.6279 40.5042C25.9094 40.4993 29.1722 39.1457 31.4587 36.803C33.7475 34.4718 35.0657 31.2126 34.9664 27.9754C34.9162 24.7399 33.4869 21.5909 31.1642 19.4424C28.8363 17.3064 25.6827 16.1377 22.6278 16.354C25.6706 16.5499 28.5676 17.8786 30.538 20.0691C32.5462 22.214 33.6217 25.1144 33.553 27.9767C33.4804 30.8377 32.2903 33.6283 30.246 35.5879C28.2316 37.569 25.4442 38.7118 22.6279 38.687C19.8124 38.7093 17.0235 37.5699 15.0115 35.5863C12.9663 33.6276 11.7788 30.837 11.7053 27.9769C11.6363 25.1154 12.7118 22.2152 14.7195 20.0711C16.6886 17.8801 19.585 16.5512 22.6278 16.354C19.5728 16.1364 16.4186 17.3049 14.0895 19.4406C11.7664 21.5899 10.337 24.7392 10.2866 27.9756Z" fill="#26848B"/><path d="M1.57494 4.30221C2.42277 5.73798 3.24037 7.19028 4.11788 8.60974C5.80223 11.4008 7.54296 14.1609 9.43027 16.8404C6.77696 19.8738 5.20126 23.8824 5.16569 27.9733C5.06582 32.5952 6.9533 37.228 10.2241 40.5371C13.4881 43.8619 18.1247 45.787 22.7923 45.7845C27.4591 45.7846 32.0972 43.8629 35.3588 40.5356C38.6305 37.2273 40.5155 32.5944 40.4163 27.9734C40.3803 23.7892 38.7255 19.6973 35.9608 16.6412C37.7945 14.0238 39.493 11.332 41.1358 8.60974C42.0134 7.19028 42.831 5.73798 43.6788 4.30221C43.7896 4.10878 43.8778 3.97306 44.0018 3.72959C44.1547 3.44661 44.2365 3.11624 44.2602 2.78854C44.3055 2.12492 44.0558 1.46729 43.609 0.988775C43.1678 0.502824 42.4846 0.221064 41.8458 0.225059L40.5959 0.215515L35.596 0.265675L33.0463 0.334478C32.4142 0.382529 31.8114 0.701133 31.428 1.19563C31.333 1.31293 31.2452 1.46285 31.1856 1.57893C31.1403 1.67018 30.7233 2.5108 30.7686 2.41955C29.3032 5.35767 27.8929 8.32642 26.6317 11.3768C25.3647 11.1275 24.0765 11.0098 22.7925 11.0736C25.0063 11.1753 27.1805 11.6906 29.1726 12.5805C31.1636 13.4756 32.9619 14.7621 34.4411 16.3322C37.435 19.4508 39.0815 23.7258 39.003 27.9722C38.9308 32.2197 37.1726 36.3851 34.1455 39.3212C31.1558 42.2864 26.994 43.9969 22.7923 43.9674C18.5914 43.9943 14.4282 42.2872 11.4409 39.3193C8.41293 36.3841 6.65739 32.2186 6.58454 27.9721C6.50569 23.7265 8.15225 19.4518 11.1457 16.3339C12.6243 14.7639 14.4222 13.4771 16.4129 12.5817C18.4047 11.6913 20.5787 11.1762 22.7925 11.0736C21.4055 11.0042 20.0138 11.1467 18.6496 11.4417C17.3815 8.36815 15.961 5.37865 14.4851 2.41955C14.4398 2.3283 14.0229 1.48768 14.0682 1.57893C14.0086 1.46285 13.9207 1.31293 13.8257 1.19563C13.4424 0.701133 12.8396 0.382529 12.2074 0.334478L9.65777 0.265675L4.65788 0.215515L3.40793 0.225059C2.76917 0.221064 2.08597 0.502824 1.64474 0.988775C1.19791 1.46729 0.948218 2.12492 0.993551 2.78854C1.01724 3.11624 1.09898 3.44661 1.2519 3.72959C1.37596 3.97306 1.46419 4.10878 1.57494 4.30221ZM26.6648 11.3842C28.5631 8.68753 30.3127 5.90921 32.0071 3.10059C32.0622 3.00966 32.5487 2.20722 32.4936 2.29815C32.5365 2.23323 32.558 2.20471 32.5989 2.16342C32.7439 2.01228 32.9445 1.91962 33.1459 1.92017L35.596 1.98243L40.5959 2.03259L41.8458 2.02304C42.0426 2.02338 42.189 2.08219 42.3186 2.20992C42.4418 2.3361 42.5188 2.52009 42.5077 2.6901C42.5001 2.77511 42.4909 2.86211 42.443 2.94612L42.1705 3.47224C41.4114 4.95684 40.6221 6.42479 39.8927 7.9257C38.4769 10.7614 37.1167 13.6275 35.8902 16.5673C35.6217 16.2741 35.356 15.9778 35.067 15.705C32.7251 13.4974 29.7672 12.0014 26.6648 11.3842ZM2.93513 2.20992C3.0647 2.08219 3.21112 2.02338 3.40793 2.02304L4.65788 2.03259L9.65777 1.98243L12.1079 1.92017C12.3093 1.91962 12.5098 2.01228 12.6549 2.16342C12.6957 2.20471 12.7172 2.23323 12.7602 2.29815C12.8153 2.38908 13.3018 3.19152 13.2466 3.10059C14.9538 5.9304 16.7164 8.72992 18.6312 11.4457C15.6344 12.0973 12.7859 13.5646 10.516 15.703C10.1469 16.0514 9.8002 16.423 9.46456 16.8045C8.21273 13.7811 6.81497 10.838 5.36095 7.9257C4.63158 6.42479 3.84228 4.95684 3.08323 3.47224L2.81073 2.94612C2.76279 2.86211 2.75364 2.77511 2.74609 2.6901C2.73494 2.52009 2.8119 2.3361 2.93513 2.20992Z" fill="#26848B"/><path d="M14.9937 25.7027C14.9809 25.9521 15.0483 26.2193 15.1923 26.4392C15.2647 26.5468 15.3492 26.6471 15.4452 26.7246L15.6292 26.8715C15.8952 27.0786 17.6419 28.4385 17.5354 28.3556C17.6277 28.4275 18.5957 29.1811 18.5034 29.1092C18.4381 29.2555 18.2847 29.752 18.1649 30.0728C18.1117 30.2262 17.3242 32.4981 17.3744 32.3532L17.2406 32.7415C17.1504 33.0065 17.133 33.3413 17.2232 33.6426C17.4042 34.2538 17.9343 34.6806 18.5553 34.7412C18.8656 34.7733 19.1914 34.6991 19.4515 34.5519C19.6086 34.4603 19.6538 34.421 19.7031 34.3866C19.8101 34.3098 21.2669 33.2643 21.1757 33.3298C21.2827 33.253 22.7101 32.2285 22.6189 32.2939L22.8316 32.4497C22.9226 32.5149 25.704 34.5086 25.6131 34.4435C25.667 34.4799 25.8374 34.5993 25.9702 34.6439C26.257 34.7642 26.5966 34.7914 26.8977 34.7192C27.4977 34.5809 27.9858 34.0919 28.0906 33.4505C28.1156 33.2924 28.1133 33.136 28.0931 32.9831C28.0665 32.8319 28.0191 32.6783 28.0063 32.6463L27.8795 32.2643L27.6187 31.5028C27.4779 31.0966 26.7853 29.0977 26.828 29.2208L26.7942 29.1234L27.8186 28.3443C28.0828 28.1384 29.8338 26.7739 29.7235 26.8599C29.8236 26.7899 30.1013 26.5532 30.1944 26.3127C30.3128 26.0632 30.345 25.7837 30.3014 25.5288C30.2266 25.0228 29.8159 24.5573 29.2894 24.4534C29.1771 24.4228 29.0036 24.4222 28.9476 24.4238C26.1981 24.5508 24.9891 24.6066 25.124 24.6004C25.0076 24.6173 24.9143 24.5767 24.8535 24.481C24.8165 24.3872 23.9206 22.1152 23.9777 22.2601C23.7697 21.7554 23.5893 21.2753 23.3587 20.7505C23.203 20.4628 22.8677 20.3137 22.5772 20.3613C22.2806 20.3971 22.0402 20.6281 21.984 20.8927C22.0872 20.6393 22.3411 20.4844 22.5858 20.4975C22.8324 20.5024 23.0447 20.6615 23.1121 20.8676L23.5013 22.4155L23.9029 23.9773C23.9769 24.2506 24.0253 24.4672 24.1204 24.7871C24.2614 25.1953 24.7013 25.4881 25.124 25.4884C25.2154 25.4926 28.987 25.6669 28.7463 25.6558L28.9476 25.665C29.0248 25.6707 28.988 25.67 29.005 25.6755C29.0098 25.6829 29.0101 25.6963 29.0082 25.7225C29.0051 25.7327 28.9984 25.7307 28.998 25.7225C28.9785 25.7306 29.043 25.673 28.9265 25.7573L28.2597 26.2098L26.9262 27.1149L26.2638 27.5736L25.9335 27.8041L25.7527 27.9319C25.271 28.2933 25.0607 28.915 25.2197 29.4978L25.2859 29.7199C25.3836 30.0426 26.0247 32.1612 25.9856 32.032L26.1776 32.6583L23.8999 30.9799L23.5735 30.7446C23.3725 30.5891 23.029 30.4457 22.7277 30.4356C22.4159 30.4154 22.0973 30.4907 21.8264 30.6521C21.659 30.7574 21.6541 30.7718 21.5891 30.8168L21.4273 30.9362C21.3187 31.0163 18.88 32.8159 19.0333 32.7029C19.0907 32.513 19.9458 29.6864 19.9133 29.7938C19.9457 29.6524 19.9969 29.5993 20.0485 29.2494C20.0768 28.9634 20.0184 28.6703 19.8795 28.4202C19.7762 28.2323 19.6347 28.0725 19.4562 27.9445C19.3651 27.8827 16.094 25.6649 16.1851 25.7267C16.1731 25.6848 16.1933 25.6297 16.2188 25.6123C16.1647 25.5882 16.5903 25.579 16.8195 25.5664L18.4294 25.4907L20.0393 25.3967C20.1397 25.3962 20.4148 25.3749 20.5711 25.2784C20.7482 25.1878 20.8963 25.0436 20.9894 24.8704C21.0893 24.6718 21.094 24.5548 21.133 24.4247C21.2976 23.7566 21.5571 22.7634 21.984 20.8927C21.2286 22.6648 20.8537 23.6259 20.5994 24.2519C20.5465 24.3731 20.5003 24.5252 20.464 24.5593C20.3535 24.6791 20.274 24.7215 20.0393 24.6921L18.4294 24.5981C18.3361 24.5937 16.2922 24.4981 16.417 24.504C16.3253 24.4979 16.0596 24.48 15.8213 24.5676C15.3362 24.7349 15.0121 25.2072 14.9937 25.7027ZM18.5531 29.1516L18.532 29.1348C18.5322 29.133 18.5319 29.1334 18.5321 29.1318L18.5645 29.1571L18.5531 29.1516Z" fill="#26848B"/></svg>