<svg width="49" height="44" viewBox="0 0 49 44" fill="none" xmlns="http://www.w3.org/2000/svg"><path d="M4.91196 38.25L5.00811 38.3462C5.00811 38.4423 5.10427 38.5385 5.10427 38.5385C5.20042 38.6346 5.29658 38.8269 5.39273 38.9231C5.68119 39.1154 5.96965 39.3077 6.25811 39.4038C6.54658 39.5 6.93119 39.5 7.31581 39.4038C7.50811 39.4038 7.70042 39.3077 7.79658 39.2115C8.27735 39.2115 10.3927 38.3462 10.2004 38.3462C11.4504 37.8654 12.7966 37.9615 13.8543 38.6346L15.7773 39.8846L17.7004 41.1346C18.3735 41.5192 19.0466 42 19.8158 42.3846C22.8927 43.8269 26.4504 43.8269 29.5273 42.5769C30.2966 42.2885 31.0658 41.9038 31.7389 41.4231C32.412 40.9423 32.9889 40.4615 33.662 39.9808L37.2197 37C37.3158 36.9038 44.5273 30.9423 44.4312 31.0385C44.7197 30.75 45.0081 30.3654 45.2004 29.9808C45.3927 29.5962 45.585 29.1154 45.585 28.6346C45.585 28.1538 45.2966 27.5769 45.0081 27.2885C44.335 26.7115 43.5658 26.4231 42.6043 26.5192C44.6235 24.3077 46.2581 21.8077 47.3158 19.0192C48.4697 15.75 48.5658 12 47.412 8.63461C46.835 7 45.8735 5.36538 44.7197 4.01922C43.4697 2.67307 41.9312 1.61538 40.1043 1.03845C38.2773 0.461532 36.3543 0.557686 34.5273 1.13461C33.085 1.61538 31.835 2.48076 30.6812 3.53846C29.6235 2.48076 28.3735 1.71153 26.9312 1.23076C25.2004 0.65384 23.2773 0.557685 21.4504 1.03845C19.6235 1.51922 18.085 2.57692 16.835 3.92307C13.4697 7.57692 12.1235 13.3462 13.9504 18.7308C14.6235 20.8462 15.6812 22.6731 16.9312 24.4038C16.835 24.3077 16.7389 24.3077 16.5466 24.2115C13.2773 22.9615 9.81581 23.25 6.83504 24.8846L2.79657 27.1923L1.83504 27.7692C1.25811 28.0577 0.873498 28.7308 0.777344 29.4038C0.777344 29.6923 0.777344 30.0769 0.873498 30.3654C0.873498 30.4615 0.969651 30.5577 0.969651 30.5577L1.16196 30.6538C1.16196 30.75 1.83504 32.0962 1.83504 32C1.83504 32 5.10427 38.6346 4.91196 38.25ZM15.7773 8.92307C16.3543 7.48076 17.2197 6.13461 18.2773 4.98076C19.335 3.92307 20.6812 3.05769 22.1235 2.67307C23.5658 2.28846 25.1043 2.28846 26.4504 2.86538C27.8927 3.34615 29.0466 4.30769 30.1043 5.46153C30.4889 5.9423 31.162 5.84615 31.5466 5.46153C33.8543 2.76922 37.0273 1.90384 39.6235 2.76922C42.5081 3.63461 44.8158 6.23076 45.8735 9.11538C47.0273 12.0961 47.0274 15.4615 46.0658 18.5385C45.1043 21.6154 43.2773 24.4038 41.0658 26.9038C40.8735 27 40.6812 27.1923 40.4889 27.2885L40.1043 27.7692C39.7197 28.0577 39.335 28.3462 38.9504 28.5385C38.1812 29.0192 37.3158 29.5 36.5466 29.8846C35.0081 30.5577 33.3735 31.1346 31.7389 31.4231C31.4504 30.8462 30.9697 30.3654 30.3927 30.2692C30.2004 30.2692 30.0081 30.1731 29.912 30.1731C29.5273 30.0769 29.335 30.1731 28.9504 30.0769C28.3735 29.9808 27.7966 29.8846 27.2197 29.7885C24.912 29.1154 22.7004 28.25 20.9697 26.7115C20.9697 26.7115 20.9697 26.7115 20.8735 26.6154C20.7773 26.5192 19.4312 25.6538 19.5273 25.6538C17.7004 23.4423 16.2581 20.8462 15.3927 18.1538C14.5273 15.1731 14.7197 11.8077 15.7773 8.92307ZM2.89273 29.3077L3.85427 28.7308L7.89273 26.3269C9.14273 25.5577 10.4889 25.1731 11.9312 24.9808C13.3735 24.8846 14.8158 25.0769 16.162 25.5577C16.835 25.8462 17.5081 26.1346 18.085 26.5192L20.0081 27.7692H19.912C21.9312 29.5 24.335 30.3654 26.835 30.9423C27.5081 31.0385 28.085 31.1346 28.7581 31.2308H29.6235H30.0081C30.1043 31.2308 30.2004 31.3269 30.2966 31.3269C30.6812 31.5192 30.8735 31.9038 30.6812 32.2885C30.585 32.6731 30.2004 33.0577 29.7197 33.3462C27.6043 34.2115 25.1043 34.6923 22.7966 34.1154C21.6427 33.7308 20.585 33.1538 19.5273 32.5769C18.4697 32 17.412 31.3269 16.4504 30.6538C17.412 31.4231 18.3735 32.1923 19.4312 32.8654C20.4889 33.5385 21.5466 34.2115 22.7004 34.5962C25.2004 35.2692 27.7004 34.9808 30.2004 34.1154C30.7773 33.8269 31.4504 33.3462 31.7389 32.5769C31.835 32.1923 31.835 31.7115 31.7389 31.3269H31.835C32.0273 31.3269 32.1235 31.3269 32.3158 31.2308C33.7581 31.0385 35.2966 30.6538 36.6427 30.1731C37.5081 29.7885 38.3735 29.4038 39.2389 28.9231C39.6235 28.7308 40.1043 28.4423 40.4889 28.1538L41.0658 27.7692C41.2581 27.6731 41.4504 27.5769 41.6427 27.4808H41.7389C41.7389 27.4808 41.7389 27.4808 41.835 27.3846C42.7966 27 43.8543 27.1923 44.5274 27.8654C44.7197 28.0577 44.8158 28.3462 44.8158 28.5385C44.8158 29.0192 44.335 29.6923 43.9504 30.0769L36.5466 35.6538L32.8927 38.4423C32.3158 38.9231 31.6427 39.4038 31.0658 39.7885C30.4889 40.1731 29.8158 40.5577 29.1427 40.75C26.4504 41.8077 23.3735 41.7115 20.7773 40.4615C19.5273 39.8846 18.1812 38.9231 16.9312 38.0577L14.912 36.8077C13.3735 35.8462 11.3543 35.75 9.6235 36.4231C9.52734 36.4231 7.02734 37.4808 7.21965 37.4808H7.1235H7.02734C7.02734 37.4808 6.93119 37.4808 6.93119 37.3846C6.93119 37.3846 6.93119 37.3846 6.93119 37.2885C6.93119 37.2885 6.93119 37.2885 6.83504 37.1923C6.73888 37.0962 3.08504 29.7885 3.18119 29.8846L3.08504 29.5962L2.79657 29.6923C2.79657 29.6923 2.79657 29.5962 2.79657 29.5C2.79657 29.5 2.79657 29.4038 2.89273 29.3077Z" fill="#26848B"/></svg>