<svg width="45" height="50" viewBox="0 0 45 50" fill="none" xmlns="http://www.w3.org/2000/svg"><path d="M40.3605 24.7093C40.3198 24.3316 40.2901 23.887 40.2012 23.3834C40.0864 22.8834 39.979 22.3093 39.8012 21.6686C39.4012 20.4093 38.816 18.8463 37.7012 17.1167C34.4547 12.2309 29.0786 9.12657 22.6864 9.09076C18.2079 9.11585 13.7479 10.8597 10.342 14.1167C10.0716 14.3464 9.84195 14.6242 9.59383 14.8945C9.34937 15.1686 9.09009 15.4315 8.85309 15.7279C8.41233 16.3389 7.90121 16.9316 7.51601 17.6352C6.6457 18.976 5.99013 20.5427 5.50863 22.2168C4.56417 25.5685 4.58641 29.4871 5.91232 33.113C7.6881 38.2627 12.2749 42.8797 18.4345 44.3982C20.2975 44.8537 22.2086 45.0315 24.0494 44.8575C25.8827 44.7019 27.6716 44.3316 29.2716 43.6463C35.8921 40.9095 39.6466 35.0357 40.142 29.1574C40.1938 28.8315 40.1679 28.5315 40.1753 28.2797C40.1753 28.0241 40.1716 27.8093 40.1716 27.6352C40.1679 27.4575 40.1605 27.3204 40.1531 27.2316C40.2309 27.1537 40.2605 27.0611 40.2753 26.9648C40.3161 26.8612 40.3494 26.6722 40.3753 26.3463C40.3901 26.1686 40.4012 25.95 40.4086 25.6797C40.4086 25.5427 40.4198 25.3945 40.4124 25.2352C40.3975 25.0723 40.379 24.8981 40.3605 24.7093ZM40.016 27.6278C39.9975 27.8019 39.9753 28.013 39.9457 28.2648C39.916 28.5131 39.916 28.8019 39.8383 29.1241C38.8648 35.2486 35.0013 40.3933 28.9235 42.7538C27.3975 43.3649 25.705 43.6797 23.979 43.7944C23.7864 43.8093 23.5902 43.8204 23.3976 43.8241C23.4642 43.6241 23.4901 43.313 23.4642 42.8352C23.4235 42.113 22.9975 40.576 22.5827 40.5982C22.1679 40.6241 21.9161 42.1945 21.9568 42.9204C21.9827 43.3315 22.0309 43.6167 22.1013 43.8093C20.9716 43.7501 19.8345 43.5612 18.7197 43.2723C13.038 41.7636 8.81349 37.4361 7.22345 32.6501C6.58267 30.8463 6.29011 28.9649 6.29752 27.139C6.49749 27.1945 6.75307 27.25 7.02344 27.3019C7.42342 27.3834 7.85311 27.4538 8.14567 27.476C8.77533 27.5204 9.09009 27.5019 9.27157 27.4019C9.44938 27.3019 9.50865 27.1242 9.56417 26.9241C9.61974 26.7241 9.66789 26.5389 9.50124 26.3575C9.33825 26.1834 8.96788 26.0205 8.24568 25.9723C7.91233 25.9463 7.41601 25.9908 6.96046 26.1167C6.72717 26.1797 6.50491 26.2649 6.31972 26.3612C6.379 25.0612 6.59009 23.7982 6.93084 22.6167C7.38273 21.0871 7.98639 19.65 8.79011 18.4241C9.1457 17.7797 9.61974 17.2389 10.0197 16.676C10.2383 16.4093 10.479 16.1649 10.7012 15.9167C10.9309 15.6722 11.1382 15.413 11.3864 15.2056C14.4615 12.2636 18.4542 10.6656 22.4901 10.5722C22.4568 10.676 22.4234 10.7908 22.3902 10.913C22.2605 11.3834 22.1568 11.9279 22.1272 12.276C22.0087 13.5426 22.2901 13.6241 22.7123 13.6944C22.9198 13.7278 23.1049 13.7538 23.2679 13.5945C23.4309 13.4389 23.5753 13.0945 23.6308 12.3908C23.6642 12.0056 23.6012 11.3945 23.4568 10.8945C23.4235 10.7834 23.3901 10.6797 23.3494 10.5834C26.7432 10.7028 29.1786 11.6006 31.7086 13.1056C34.0198 14.5278 35.5679 16.2649 36.6642 17.8167C37.7457 19.3945 38.3457 20.8279 38.7864 21.9945C38.9827 22.5871 39.1198 23.1204 39.2642 23.5834C39.3827 24.0538 39.4457 24.4685 39.5272 24.8242C39.5642 25.0019 39.6013 25.1649 39.6346 25.3167C39.6642 25.4685 39.6716 25.6093 39.6901 25.7353C39.7123 25.8797 39.7308 26.0093 39.7457 26.1241C39.5013 26.0723 39.1457 26.0574 38.6197 26.0982C38.1827 26.1315 37.5086 26.2908 36.9568 26.5056C36.4049 26.7167 35.9827 26.9834 36.0198 27.1871C36.0531 27.3945 36.5346 27.5019 37.105 27.5612C37.6716 27.6204 38.3346 27.6352 38.7494 27.5982C39.4753 27.5426 39.8605 27.4426 40.0605 27.3093C40.0494 27.3908 40.0346 27.4982 40.016 27.6278Z" fill="#26848B"/><path d="M44.8231 25.3214C44.8261 24.9834 44.7994 24.584 44.7558 24.1092C44.6628 23.1628 44.4917 21.9098 44.0166 20.3202C43.5381 18.737 42.7728 16.7998 41.3738 14.6532C37.9715 9.52339 32.7999 6.17438 26.9172 5.05261C26.975 4.9677 27.0326 4.85088 27.0907 4.6788C27.1396 4.53422 27.1887 4.35391 27.2385 4.12912C27.5944 2.79769 26.7096 1.1018 24.9916 0.717123C24.7867 0.675619 24.5644 0.652199 24.3299 0.653827C24.1505 0.662146 23.9618 0.670827 23.7657 0.679869C23.3762 0.704283 22.9577 0.730505 22.5262 0.757542C22.3097 0.774541 22.111 0.780961 21.8076 0.830422C20.0681 1.20078 19.2423 2.83631 19.624 4.16303C19.6706 4.34532 19.7303 4.46649 19.7796 4.60194C19.817 4.69616 19.8527 4.7808 19.8875 4.86028C15.0636 5.49066 10.6984 7.63531 7.27485 10.9293C4.73339 13.3491 2.41058 16.8123 1.24494 21.014C0.0666904 25.1915 0.100011 30.0683 1.7344 34.5986C4.14842 41.3874 9.86553 46.8111 17.3397 48.7015C19.6706 49.2683 22.0542 49.4599 24.3525 49.2821C32.0599 48.7801 39.4182 43.8691 42.7397 36.4778C43.9811 33.7463 44.3906 31.328 44.5374 29.6797C44.6064 28.8514 44.6223 28.2063 44.6018 27.7697C44.5875 27.3331 44.5676 27.1049 44.5415 27.1049C44.473 27.1038 44.4661 28.0205 44.2355 29.6442C43.9943 31.2588 43.4978 33.6076 42.2087 36.2272C38.7409 43.355 31.5484 47.8586 24.281 48.2179C22.0888 48.3544 19.8267 48.1388 17.6262 47.5734C10.49 45.6651 5.22205 40.4221 3.04412 34.1336C1.54745 29.8773 1.54867 25.3073 2.66733 21.4144C3.77437 17.4978 5.94867 14.2743 8.32086 12.016C12.2985 8.18906 17.4409 6.20148 22.6617 6.14772C23.8173 6.14157 24.9323 6.21906 25.9979 6.3716C32.1033 7.32744 37.0589 10.6382 40.3362 15.3516C41.7004 17.3489 42.482 19.1589 43.0008 20.6453C43.5167 22.1377 43.7526 23.3226 43.9201 24.2224C44.0011 24.6737 44.0677 25.0551 44.1064 25.3789C44.1488 25.702 44.203 25.9643 44.2245 26.1792C44.3364 27.0377 44.4374 27.1056 44.5415 27.1049C44.6456 27.1043 44.7434 27.0424 44.8111 26.1542C44.8344 25.9317 44.8237 25.6589 44.8231 25.3214ZM22.6493 4.67012C21.903 4.67464 21.1383 4.72221 20.3633 4.80666C20.3626 4.70765 20.3599 4.60004 20.3541 4.48114C20.3342 3.45069 20.5367 2.58711 21.5422 2.24273C21.6893 2.18269 21.847 2.16008 22.0001 2.14272C22.1301 2.13639 22.3659 2.14191 22.577 2.14643C23.0009 2.15023 23.4122 2.15385 23.7949 2.15728C23.9851 2.15629 24.1682 2.15529 24.3423 2.15439C24.4622 2.15882 24.5729 2.17238 24.6754 2.19191C25.3205 2.34179 25.8309 2.83044 25.9778 3.6932C25.9828 3.79067 25.9962 3.87513 25.9941 4.00407C25.9982 4.2342 26.0105 4.42074 26.0295 4.5721C26.0475 4.71524 26.0721 4.82483 26.1011 4.91218C24.9966 4.75313 23.8438 4.6684 22.6493 4.67012Z" fill="#26848B"/><path d="M33.7551 26.8279C32.8329 26.7279 31.1329 26.6722 27.981 26.6427C28.0509 26.5279 32.383 19.2949 32.4255 19.1686C32.5107 18.9945 32.5255 18.8501 32.5366 18.7278C32.5073 17.7634 31.6721 17.3692 31.0403 17.6167C30.9996 17.6278 30.9588 17.6427 30.9181 17.6612C30.9107 17.6649 30.9033 17.6686 30.8996 17.6686C30.6082 17.8142 25.8405 20.977 23.8848 22.2686C23.7959 22.3278 23.707 22.3871 23.6181 22.4501C23.5922 22.1723 23.5662 21.8982 23.5403 21.6316C23.2477 18.6649 22.7995 16.2871 22.5959 16.3093C22.3848 16.3315 22.4588 18.7352 22.4737 21.6871C22.4811 22.1797 22.4811 22.6872 22.4811 23.2019C22.1625 23.4167 21.8403 23.6389 21.5181 23.8796C20.6771 24.5223 20.1534 25.1902 19.5996 26.1019C19.481 26.313 19.3625 26.5241 19.244 26.7316C15.8144 26.8279 12.7773 27.0093 12.7773 27.2945C12.7773 27.4686 15.4477 27.6908 18.6107 27.8649C17.244 30.313 16.0662 32.4945 15.1626 34.1834C14.8526 34.764 14.2845 35.8465 13.9958 36.439C13.9403 36.5464 13.8922 36.6464 13.8477 36.739C13.844 36.7464 13.8403 36.7538 13.8366 36.7612C13.8033 36.8279 13.7737 36.8908 13.7477 36.95C13.7329 36.9797 13.7218 37.0056 13.7107 37.0316C13.6737 37.1168 13.6403 37.1908 13.6107 37.2537C13.5107 37.4797 13.4736 37.6093 13.4996 37.6241H13.507C13.5144 37.6241 13.5255 37.6204 13.5366 37.6093C13.5551 37.5982 13.5811 37.5723 13.6107 37.5352C13.6255 37.5204 13.6403 37.502 13.6551 37.4834C13.6774 37.4612 13.6996 37.4315 13.7255 37.3982C13.7255 37.4019 13.7255 37.4019 13.7292 37.4056C13.7255 37.4204 13.7292 37.4389 13.7366 37.4501V37.4538L13.7403 37.4575C13.744 37.476 13.7514 37.4907 13.7625 37.5094C13.7662 37.5167 13.7737 37.5241 13.7774 37.5315C13.7922 37.5501 13.8069 37.5686 13.8292 37.5833C13.844 37.5945 13.8588 37.602 13.881 37.6093C13.9255 37.6204 13.9848 37.6241 14.0736 37.6056C15.2725 37.3777 20.3901 33.9236 21.3995 33.2315C21.6921 33.0316 21.9922 32.8241 22.307 32.602C22.2144 35.2204 22.1403 36.7056 22.1848 37.5538C22.2218 38.6241 22.4033 38.6834 22.6107 38.7057C22.8181 38.7278 23.0107 38.7019 23.244 37.6501C23.444 36.6945 23.7144 34.8908 23.8477 31.4909C23.881 31.4686 23.9107 31.4464 23.944 31.4204C24.0736 31.3278 24.2033 31.2278 24.3366 31.1241C24.5625 30.95 24.7922 30.7723 25.0329 30.5649C25.7368 29.9544 26.4336 29.0619 26.944 28.2871C26.9773 28.2389 27.0107 28.1908 27.0403 28.1427C30.8033 28.1575 32.7662 28.0463 33.7774 27.8945C34.8255 27.7353 34.8625 27.5464 34.8551 27.3352C34.8514 27.1278 34.7996 26.939 33.7551 26.8279ZM22.4329 30.7427C22.4107 30.7611 22.3885 30.776 22.3662 30.7908C18.56 33.6178 15.1463 35.9548 14.1847 36.8242C14.1773 36.8279 14.1736 36.8316 14.1699 36.839C14.1329 36.8648 14.0995 36.8945 14.0699 36.9242C14.0995 36.8797 14.1329 36.8316 14.1662 36.7834V36.7797C17.0462 32.8224 20.1492 26.1889 22.4774 24.6352C22.9397 24.3212 28.7524 20.7077 30.344 19.7019C30.3699 19.6908 30.3847 19.6834 30.3996 19.6834C30.4033 19.6834 30.407 19.6871 30.407 19.6908L30.3737 19.7352C30.3625 19.7501 30.3515 19.7612 30.3477 19.7686C30.1218 20.139 29.8996 20.5056 29.6885 20.8575C27.0195 25.3129 26.4874 26.2461 25.6366 27.5575C24.6909 28.9332 24.3472 29.3209 22.4329 30.7427Z" fill="#26848B"/></svg>