<svg width="72" height="78" viewBox="0 0 72 78" fill="none" xmlns="http://www.w3.org/2000/svg"><path d="M64.3768 38.5351C64.3116 37.9307 64.2641 37.2195 64.1219 36.4136C63.9383 35.6136 63.7665 34.6952 63.482 33.67C62.842 31.6551 61.9056 29.1544 60.1219 26.387C54.9276 18.5696 46.3257 13.6027 36.0983 13.5454C28.9327 13.5856 21.7967 16.3757 16.3472 21.5869C15.9146 21.9544 15.5471 22.3989 15.1501 22.8314C14.759 23.2699 14.3441 23.6907 13.9649 24.1648C13.2597 25.1425 12.4419 26.0907 11.8256 27.2166C10.4331 29.3618 9.38421 31.8685 8.61381 34.547C7.10267 39.9098 7.13826 46.1795 9.25972 51.981C12.101 60.2205 19.4399 67.6077 29.2952 70.0373C32.276 70.7662 35.3338 71.0506 38.279 70.7721C41.2123 70.5233 44.0745 69.9307 46.6345 68.8343C57.2273 64.4553 63.2345 55.0573 64.0272 45.652C64.1101 45.1306 64.0687 44.6506 64.0805 44.2477C64.0805 43.8388 64.0745 43.4951 64.0745 43.2166C64.0687 42.9321 64.0568 42.7128 64.045 42.5707C64.1694 42.4462 64.2168 42.298 64.2405 42.1439C64.3057 41.9781 64.3591 41.6758 64.4005 41.1544C64.4242 40.8699 64.442 40.5202 64.4538 40.0877C64.4538 39.8685 64.4716 39.6313 64.4597 39.3766C64.436 39.1159 64.4064 38.8372 64.3768 38.5351ZM63.8256 43.2047C63.796 43.4832 63.7605 43.821 63.7131 44.2239C63.6656 44.6211 63.6656 45.0832 63.5412 45.5988C61.9837 55.398 55.8021 63.6294 46.0775 67.4062C43.636 68.384 40.9279 68.8877 38.1664 69.0713C37.8583 69.095 37.5442 69.1128 37.2361 69.1188C37.3427 68.7987 37.3842 68.3011 37.3427 67.5366C37.2775 66.3811 36.596 63.9217 35.9323 63.9573C35.2686 63.9988 34.8657 66.5114 34.9308 67.6729C34.9723 68.3306 35.0494 68.7869 35.162 69.095C33.3546 69.0003 31.5353 68.698 29.7515 68.2358C20.6607 65.8219 13.9016 58.898 11.3575 51.2403C10.3323 48.3543 9.86418 45.344 9.87604 42.4226C10.196 42.5114 10.6049 42.6002 11.0375 42.6833C11.6775 42.8136 12.365 42.9262 12.8331 42.9618C13.8405 43.0328 14.3441 43.0033 14.6345 42.8433C14.919 42.6833 15.0138 42.3989 15.1027 42.0788C15.1916 41.7588 15.2686 41.4625 15.002 41.1721C14.7412 40.8936 14.1486 40.6329 12.9931 40.5558C12.4597 40.5143 11.6656 40.5855 10.9367 40.7869C10.5635 40.8877 10.2079 41.024 9.91156 41.1781C10.0064 39.0981 10.3441 37.0774 10.8893 35.1869C11.6124 32.7396 12.5782 30.4402 13.8642 28.4787C14.4331 27.4478 15.1916 26.5824 15.8316 25.6818C16.1812 25.255 16.5664 24.864 16.922 24.4669C17.2894 24.0758 17.6212 23.661 18.0183 23.3291C22.9384 18.622 29.3267 16.0652 35.7842 15.9158C35.7309 16.0817 35.6775 16.2655 35.6242 16.4611C35.4168 17.2137 35.2508 18.0848 35.2034 18.6418C35.0138 20.6684 35.4642 20.7987 36.1397 20.9113C36.4716 20.9647 36.7679 21.0062 37.0286 20.7514C37.2894 20.5024 37.5205 19.9514 37.6093 18.8255C37.6627 18.2092 37.562 17.2313 37.3308 16.4314C37.2775 16.2536 37.2242 16.0877 37.159 15.9336C42.589 16.1247 46.4857 17.5611 50.5338 19.9692C54.2316 22.2446 56.7086 25.024 58.4627 27.5069C60.1931 30.0314 61.153 32.3248 61.8583 34.1914C62.1723 35.1396 62.3916 35.9929 62.6227 36.7336C62.8123 37.4862 62.9131 38.1499 63.0434 38.7189C63.1027 39.0033 63.162 39.264 63.2153 39.5069C63.2627 39.7498 63.2746 39.9751 63.3042 40.1766C63.3397 40.4077 63.3693 40.615 63.3931 40.7987C63.002 40.7158 62.4331 40.6921 61.5915 40.7574C60.8923 40.8106 59.8138 41.0655 58.9308 41.4091C58.0479 41.7469 57.3724 42.1736 57.4316 42.4995C57.4849 42.8314 58.2553 43.0033 59.1679 43.0981C60.0745 43.1928 61.1353 43.2166 61.799 43.1572C62.9605 43.0684 63.5768 42.9084 63.8968 42.6952C63.879 42.8255 63.8553 42.9972 63.8256 43.2047Z" fill="#26848B"/><path d="M71.5123 39.5144C71.5171 38.9736 71.4744 38.3345 71.4046 37.5749C71.2557 36.0606 70.982 34.0558 70.2219 31.5124C69.4563 28.9793 68.2317 25.8799 65.9934 22.4453C60.5498 14.2376 52.2751 8.87916 42.8628 7.08432C42.9553 6.94847 43.0476 6.76155 43.1405 6.48623C43.2186 6.25489 43.2973 5.96641 43.377 5.60674C43.9464 3.47646 42.5306 0.76302 39.7819 0.147543C39.4541 0.0811368 39.0983 0.0436657 38.7232 0.0462699C38.4362 0.05958 38.1341 0.0734689 37.8204 0.0879366C37.1972 0.126999 36.5276 0.168955 35.8373 0.212213C35.4908 0.239412 35.1728 0.249684 34.6875 0.328822C31.9043 0.9214 30.583 3.53824 31.1937 5.661C31.2683 5.95266 31.3638 6.14653 31.4427 6.36325C31.5026 6.51401 31.5596 6.64942 31.6153 6.77659C23.8971 7.78519 16.9127 11.2166 11.4351 16.487C7.36874 20.3588 3.65223 25.8999 1.78722 32.6225C-0.0979828 39.3065 -0.0446697 47.1093 2.57035 54.3579C6.43278 65.2199 15.5802 73.8979 27.5388 76.9226C31.2683 77.8294 35.082 78.136 38.7594 77.8515C51.0911 77.0482 62.8644 69.1907 68.1788 57.3646C70.1651 52.9942 70.8203 49.125 71.0552 46.4877C71.1655 45.1624 71.1911 44.1302 71.1582 43.4317C71.1354 42.733 71.1034 42.368 71.0617 42.368C70.9521 42.3661 70.941 43.8329 70.5722 46.4308C70.1862 49.0143 69.3918 52.7723 67.3292 56.9637C61.7807 68.3681 50.2727 75.5739 38.6449 76.1488C35.1373 76.3672 31.518 76.0223 27.9973 75.1176C16.5793 72.0643 8.1506 63.6754 4.66591 53.6138C2.27123 46.8038 2.27318 39.4919 4.06304 33.2631C5.83431 26.9966 9.31319 21.8391 13.1087 18.2257C19.4729 12.1026 27.7007 8.92251 36.054 8.83649C37.903 8.82665 39.687 8.95064 41.3919 9.19471C51.1606 10.724 59.0895 16.0212 64.3333 23.5628C66.516 26.7584 67.7664 29.6543 68.5967 32.0327C69.422 34.4204 69.7995 36.3164 70.0675 37.7561C70.197 38.4781 70.3036 39.0882 70.3656 39.6063C70.4333 40.1234 70.5201 40.5431 70.5546 40.8868C70.7335 42.2604 70.8952 42.369 71.0617 42.368C71.2283 42.367 71.3847 42.2679 71.4931 40.8469C71.5304 40.4909 71.5132 40.0544 71.5123 39.5144ZM36.0342 6.47234C34.8401 6.47957 33.6166 6.55567 32.3766 6.6908C32.3755 6.53238 32.3711 6.36022 32.3619 6.16997C32.33 4.52125 32.654 3.13952 34.2628 2.58852C34.4982 2.49245 34.7505 2.45628 34.9955 2.4285C35.2035 2.41838 35.5808 2.4272 35.9184 2.43444C36.5968 2.44051 37.2548 2.4463 37.8671 2.4518C38.1715 2.45021 38.4644 2.44861 38.7429 2.44717C38.9348 2.45426 39.1119 2.47596 39.2759 2.50721C40.3082 2.74701 41.1248 3.52885 41.3598 4.90926C41.3677 5.06522 41.3893 5.20035 41.3858 5.40666C41.3924 5.77486 41.4121 6.07332 41.4425 6.31551C41.4714 6.54453 41.5107 6.71988 41.5571 6.85964C39.7899 6.60515 37.9454 6.46959 36.0342 6.47234Z" fill="#26848B"/><path d="M53.8067 41.9247C52.3311 41.7647 49.6111 41.6757 44.5681 41.6284C44.6799 41.4448 51.6113 29.872 51.6792 29.6699C51.8155 29.3913 51.8392 29.1602 51.857 28.9646C51.8102 27.4215 50.4738 26.7909 49.4629 27.1868C49.3978 27.2046 49.3326 27.2284 49.2674 27.258C49.2556 27.264 49.2437 27.2699 49.2378 27.2699C48.7716 27.5028 41.1432 32.5632 38.014 34.6298C37.8718 34.7246 37.7296 34.8195 37.5874 34.9202C37.5459 34.4758 37.5044 34.0372 37.4629 33.6106C36.9948 28.8639 36.2777 25.0594 35.9518 25.095C35.6141 25.1306 35.7326 28.9765 35.7563 33.6994C35.7682 34.4876 35.7682 35.2995 35.7682 36.1232C35.2585 36.4668 34.7429 36.8224 34.2274 37.2075C32.8819 38.2357 32.0439 39.3044 31.1578 40.7631C30.9681 41.1009 30.7784 41.4387 30.5889 41.7706C25.1015 41.9247 20.2422 42.215 20.2422 42.6714C20.2422 42.9499 24.5148 43.3053 29.5755 43.584C27.3888 47.5009 25.5044 50.9914 24.0585 53.6935C23.5626 54.6225 22.6536 56.3545 22.1918 57.3024C22.1029 57.4743 22.0259 57.6343 21.9548 57.7825C21.9489 57.7943 21.9429 57.8062 21.937 57.8181C21.8837 57.9247 21.8363 58.0254 21.7948 58.1201C21.7711 58.1676 21.7533 58.2091 21.7355 58.2506C21.6763 58.3869 21.6229 58.5054 21.5755 58.6061C21.4155 58.9676 21.3563 59.175 21.3978 59.1987H21.4096C21.4214 59.1987 21.4392 59.1928 21.457 59.175C21.4866 59.1572 21.5281 59.1158 21.5755 59.0565C21.5992 59.0328 21.6229 59.0032 21.6466 58.9736C21.6822 58.938 21.7177 58.8905 21.7592 58.8372C21.7592 58.8432 21.7592 58.8432 21.7651 58.849C21.7592 58.8727 21.7651 58.9024 21.777 58.9202V58.9261L21.7829 58.9321C21.7888 58.9617 21.8007 58.9853 21.8185 59.0151C21.8244 59.0268 21.8363 59.0387 21.8422 59.0505C21.8659 59.0802 21.8895 59.1099 21.9251 59.1334C21.9489 59.1514 21.9726 59.1632 22.0081 59.175C22.0792 59.1928 22.174 59.1987 22.3163 59.169C24.2344 58.8045 32.4226 53.2779 34.0377 52.1705C34.5059 51.8506 34.9859 51.5187 35.4896 51.1633C35.3414 55.3528 35.2229 57.7291 35.2941 59.0861C35.3533 60.7987 35.6437 60.8936 35.9755 60.9292C36.3074 60.9646 36.6155 60.9231 36.9889 59.2402C37.3088 57.7113 37.7414 54.8254 37.9548 49.3855C38.0081 49.3499 38.0555 49.3143 38.1089 49.2728C38.3163 49.1246 38.5237 48.9646 38.7371 48.7987C39.0985 48.5202 39.4659 48.2357 39.8511 47.904C40.9773 46.9271 42.0923 45.4991 42.9089 44.2595C42.9622 44.1824 43.0156 44.1054 43.0629 44.0284C49.0837 44.0521 52.2244 43.8742 53.8422 43.6313C55.5192 43.3765 55.5785 43.0743 55.5666 42.7365C55.5607 42.4046 55.4778 42.1025 53.8067 41.9247ZM35.6911 48.1884C35.6555 48.2179 35.62 48.2417 35.5844 48.2654C29.4945 52.7885 24.0325 56.5277 22.494 57.9187C22.4821 57.9247 22.4763 57.9306 22.4703 57.9425C22.4111 57.9839 22.3577 58.0313 22.3103 58.0788C22.3577 58.0076 22.4111 57.9306 22.4644 57.8535V57.8476C27.0724 51.516 32.0371 40.9024 35.7622 38.4164C36.5019 37.914 45.8023 32.1323 48.3489 30.5232C48.3904 30.5054 48.414 30.4936 48.4377 30.4936C48.4437 30.4936 48.4496 30.4995 48.4496 30.5054L48.3963 30.5765C48.3785 30.6002 48.3608 30.618 48.3548 30.6298C47.9933 31.2224 47.6377 31.8091 47.3 32.372C43.0297 39.5007 42.1782 40.9939 40.817 43.0921C39.3038 45.2933 38.7539 45.9135 35.6911 48.1884Z" fill="#26848B"/></svg>