<svg width="72" height="72" viewBox="0 0 72 72" fill="none" xmlns="http://www.w3.org/2000/svg"><path d="M15.4903 54.1549C15.7782 53.3738 16.1808 52.6334 16.6021 51.9093C16.8195 51.5496 17.0609 51.2037 17.2907 50.8509C17.449 50.8016 17.5891 50.695 17.6705 50.5354C17.8422 50.1986 18.0108 49.8552 18.1819 49.5162C20.5158 46.2112 23.3448 42.927 25.9514 39.9079C33.1765 31.6789 38.4454 26.1805 53.6144 9.85484C55.9979 7.3797 58.0666 4.69841 60.8237 2.91699C62.1772 1.99245 63.6887 1.31045 65.2928 1.00399C66.8716 0.737654 68.6652 0.903491 69.9856 2.04784C68.8908 0.671957 66.9797 0.131475 65.2123 0.206226C63.419 0.289323 61.6796 0.877036 60.1032 1.69255C56.9018 3.37171 54.6199 5.83742 52.0046 8.2666C50.3626 9.82288 48.7642 11.4244 47.1567 13.0166C44.0255 12.6659 40.8905 12.373 37.7567 12.0619C34.2525 11.7588 30.7511 11.4097 27.2444 11.1443C23.7377 10.8776 20.2342 10.5635 16.7251 10.3357L6.19975 9.62171C5.80069 9.5965 5.38592 9.73694 5.08247 10.0434C4.93731 10.1901 0.340562 14.8341 0.631834 14.5399C0.516422 14.6572 0.419742 14.797 0.348897 14.9564C0.0316029 15.6698 0.352803 16.5056 1.06632 16.8229C8.18822 19.99 8.81607 20.1932 16.9611 23.6943C21.7766 25.7139 26.6016 27.7124 31.4616 29.6329C28.9585 32.5061 26.5155 35.4351 24.1941 38.471C23.6976 39.1171 23.2283 39.7856 22.7435 40.4415C20.8399 39.9848 18.9305 39.5684 17.0179 39.1728C14.8623 38.7769 12.7115 38.3483 10.5448 38.0274C10.123 37.9676 9.67152 38.0969 9.34446 38.4188L9.33478 38.4283C8.57732 39.1739 7.80495 39.9044 7.05975 40.6622C6.91707 40.8085 4.67079 43.1114 4.81347 42.9651C4.17302 43.6299 4.3338 44.7249 5.14586 45.173C6.0846 45.6911 7.0419 46.1759 8.00053 46.6583C8.96147 47.1363 9.9058 47.6443 10.8804 48.0977C12.6793 48.9697 14.4998 49.803 16.339 50.6022C16.1887 50.9184 16.0194 51.224 15.8817 51.547C15.5554 52.3552 15.2464 53.1744 15.0668 54.0372C14.9283 54.8625 14.8075 55.9141 15.48 56.5377C14.942 55.8211 15.2339 54.9074 15.4903 54.1549ZM17.9264 21.5432L10.0908 17.8584C8.10165 16.9188 6.0989 16.0095 4.09703 15.0983L6.6677 12.5541L16.547 13.1389C20.0567 13.357 23.5719 13.4887 27.0841 13.6679C30.5961 13.8483 34.1135 13.945 37.6281 14.0878C40.3658 14.1641 43.1029 14.249 45.8419 14.3048C43.0404 17.1098 40.2719 19.9488 37.555 22.8405C35.8037 24.7419 34.0745 26.6663 32.364 28.6082C27.5804 26.1888 22.7577 23.8563 17.9264 21.5432ZM9.28356 44.3481C8.90207 44.1153 8.5134 43.8953 8.13024 43.6657L9.10893 42.7114C9.70294 42.1272 10.2792 41.5253 10.86 40.928C12.789 41.1874 14.727 41.3843 16.6628 41.5967C18.3121 41.7405 19.9643 41.8648 21.6195 41.9685C20.4629 43.5913 19.3398 45.24 18.2966 46.9472C17.8566 47.6922 17.4231 48.4429 17.014 49.208C16.993 49.2336 16.9717 49.2586 16.9506 49.2842C15.3283 48.1666 13.689 47.0796 12.0278 46.032C11.1277 45.4443 10.1973 44.9111 9.28356 44.3481Z" fill="#26848B"/><path d="M70.2906 11.9649C71.1063 10.3886 71.6799 8.64373 71.7564 6.85343C71.8279 5.08603 71.3056 3.19416 69.9821 2.04785C71.065 3.40989 71.2211 5.19096 70.9538 6.77406C70.6533 8.37846 69.9821 9.89285 69.0575 11.2439C68.1612 12.6112 67.0652 13.8532 65.859 14.9768L62.1277 18.4442C45.5544 33.8455 40.3241 38.8671 32.0998 46.0857C29.0956 48.6776 25.7549 51.5551 22.4436 53.8825C22.1253 54.0413 21.8024 54.1972 21.4862 54.357C21.3335 54.4346 21.2284 54.5693 21.1784 54.7229C20.8201 54.9561 20.4686 55.2007 20.1032 55.4214C19.3791 55.8417 18.6388 56.2428 17.858 56.5301C17.1058 56.7854 16.1924 57.0757 15.4766 56.5377C16.0999 57.2093 17.1502 57.0892 17.9746 56.9509C18.8368 56.7723 19.6554 56.4635 20.4631 56.1379C20.7921 55.9978 21.1035 55.8257 21.4254 55.6725C22.2223 57.5152 23.0547 59.3382 23.927 61.1389C24.3783 62.1169 24.8886 63.0621 25.3675 64.0246C25.8524 64.9839 26.3349 65.9445 26.8546 66.8845C27.3173 67.7097 28.4121 67.8484 29.066 67.2107C29.2124 67.068 31.5104 64.8273 31.3641 64.9699C32.1234 64.2263 32.853 63.4529 33.5988 62.6959L33.6133 62.6814C33.9105 62.376 34.0671 61.9403 34.0002 61.4861C33.6807 59.3181 33.2568 57.1654 32.8627 55.0084C32.4681 53.0874 32.0557 51.1691 31.6002 49.257C32.2426 48.7821 32.8978 48.3229 33.5308 47.8367C36.5574 45.5246 39.4777 43.0912 42.3428 40.5981C44.2749 45.4468 46.2741 50.2655 48.2946 55.0747C50.5662 60.3813 52.8327 65.6903 55.1894 70.9589C55.6034 71.8745 56.7904 72.0824 57.4904 71.3884C57.8291 71.0527 62.2507 66.6698 61.9768 66.9413C62.2594 66.6579 62.4285 66.2533 62.3993 65.8225C61.9332 58.8039 61.4392 51.7868 60.8585 44.7755C60.2915 38.1535 59.6991 31.5329 58.9563 24.9221C60.5537 23.3101 62.1603 21.7069 63.7219 20.0603C66.3038 17.284 68.6274 15.1479 70.2906 11.9649ZM30.4289 55.3632C30.6406 57.3005 30.839 59.2398 31.0978 61.1702C30.5007 61.7508 29.8984 62.3264 29.3157 62.9216L28.3591 63.9028C28.1275 63.5177 27.9053 63.1274 27.6715 62.7435C27.1066 61.8287 26.5731 60.8966 25.9806 59.9972C24.9268 58.3307 23.8327 56.6867 22.7059 55.0608C22.7132 55.0548 22.7205 55.0486 22.7279 55.0425C23.517 54.623 24.2921 54.1794 25.0595 53.7263C26.7719 52.6805 28.4257 51.5544 30.0535 50.3948C30.1585 52.0539 30.2847 53.71 30.4289 55.3632ZM58.3748 44.9326C58.6736 51.743 59.0554 58.5484 59.4634 65.352L56.9256 67.9122C54.8218 63.286 52.6664 58.683 50.5054 54.0825C48.1931 49.2448 45.8609 44.4159 43.4534 39.6208C45.3726 37.9308 47.2749 36.2229 49.155 34.4935C52.0798 31.7497 54.9489 28.9507 57.7835 26.1187C57.8919 32.3957 58.1173 38.6652 58.3748 44.9326Z" fill="#26848B"/></svg> 