<svg width="59" height="78" viewBox="0 0 59 78" fill="none" xmlns="http://www.w3.org/2000/svg"><path d="M58.9402 0.706039C58.7847 0.430576 58.5088 0.17016 55.2377 1.79241C54.4254 2.21573 53.4249 2.76565 52.2388 3.57106C51.0574 4.37647 49.6729 5.4436 48.2959 7.05413C47.6184 7.86619 46.9623 8.82597 46.3986 9.94678C45.8403 11.0696 45.4173 12.339 45.0991 13.7013C44.8688 14.7031 44.6971 15.7568 44.553 16.8504C38.8498 16.9792 27.8135 17.2418 22.2248 17.5848C24.7423 14.3311 25.1377 13.8065 27.3745 10.9908C27.6616 10.6298 28.022 10.2182 28.3295 9.60766C28.4944 9.27317 28.6355 8.8539 28.6665 8.38775C28.6955 7.92074 28.609 7.45228 28.4266 7.03084C26.6517 3.01899 13.9822 0.450233 6.32704 8.33292C4.14565 10.5466 2.61603 13.291 1.80085 16.0761C0.0475592 22.0367 0.981091 29.3233 6.44817 33.5272C7.27329 34.1477 7.78562 34.4041 7.8291 34.3467C7.88693 34.272 7.47207 33.8844 6.76931 33.1619C2.29053 28.4691 1.5092 22.2755 3.4286 16.5886C4.26891 14.0849 5.74146 11.6596 7.73419 9.75581C13.0738 4.58481 21.5084 4.57065 25.5 7.24959C25.8818 7.50031 26.1368 7.78807 26.2107 7.9789C26.2824 8.18057 26.2854 8.26883 26.1628 8.54501C25.8896 9.10957 26.7062 7.79252 20.1504 16.4025C20.1429 16.4126 20.1361 16.4216 20.1285 16.4317C20.1287 16.2732 20.1268 16.1053 20.1225 15.9262C20.0839 14.3108 19.4611 10.8571 18.7948 10.873C18.1286 10.8889 17.6713 14.3684 17.7099 15.9838C17.7552 17.8834 17.9969 18.5765 18.3407 18.827C18.1655 19.0631 17.9863 19.304 17.8171 19.5327C17.5727 19.1255 17.0054 18.5697 15.8176 17.6111C15.1214 17.0524 13.9359 16.2474 12.8419 15.671C11.7496 15.0883 10.7402 14.7886 10.5654 15.0738C10.3912 15.3572 11.007 16.12 11.7938 17.0178C12.5853 17.9119 13.5913 18.9186 14.3044 19.4912C15.4738 20.4356 16.2429 20.8594 16.7437 20.9884C16.4146 21.4361 16.0996 21.8658 15.7948 22.2824C15.345 22.1911 14.6377 22.1849 13.4773 22.2102C12.6797 22.2286 11.4232 22.3177 10.331 22.3986C9.24197 22.4877 8.3117 22.5887 8.23983 22.9173C8.16858 23.239 9.00249 23.737 10.1245 24.0925C11.2412 24.4559 12.6339 24.6441 13.5183 24.6233C13.7292 24.6187 13.9247 24.6097 14.1089 24.5978C8.37046 32.5073 7.81097 33.5301 8.27343 33.9022C9.09458 34.5641 14.2623 27.863 15.4857 26.3105C15.43 27.456 15.3725 28.6894 15.3126 30.0321C15.1707 33.8566 14.8407 38.4293 15.1442 43.5517C15.4039 47.9175 18.6226 71.197 19.6028 73.5059C19.9428 74.3229 20.5262 75.1568 21.3301 75.7148C24.6365 78.0514 42.4104 77.455 45.8784 77.3682C46.2457 77.3497 46.6855 77.3354 47.1852 77.2208C47.672 77.1121 48.3039 76.8532 48.7517 76.3067C49.1951 75.7624 49.3207 75.1901 49.4017 74.7659C49.5103 74.0252 49.6183 73.2886 49.7256 72.5567C51.941 57.1045 56.1615 32.233 53.9111 19.0761C53.8374 18.6593 53.6735 18.069 53.2156 17.5899C52.77 17.1176 52.2029 16.9079 51.7584 16.8171C51.0483 16.6728 50.7355 16.7171 46.9749 16.7973C47.0951 15.8844 47.2317 15.0214 47.4057 14.2202C47.6777 12.9911 48.0278 11.8938 48.4757 10.9458C48.9286 10.0013 49.457 9.17884 50.0183 8.46053C51.1614 7.03518 52.3644 6.00494 53.416 5.1894C54.4695 4.37256 55.3769 3.76189 56.1066 3.26116C59.0776 1.30746 59.112 1.01058 58.9402 0.706039ZM17.3623 23.9053C18.469 22.4662 19.7353 20.82 21.1608 18.9667C26.5557 19.1922 38.8852 19.0995 44.2928 19.0562C44.1564 20.2703 44.0133 21.5434 43.8628 22.8825C43.6243 25.0107 43.3356 27.4867 43.0115 30.1639C38.9957 30.3202 34.4958 30.3996 32.1985 30.4054C23.6811 30.4418 18.4671 30.0658 16.2514 30.1294C16.2514 30.1056 16.2517 30.0802 16.2517 30.0563C16.2638 28.3072 16.2708 26.7244 16.2729 25.3064C16.6216 24.8601 16.9816 24.3974 17.3623 23.9053ZM47.4429 72.2376C47.346 72.943 47.2484 73.6529 47.1503 74.3668C47.104 74.6599 47.0276 74.826 46.9958 74.8572C46.9731 74.8912 46.8937 74.9576 46.6629 75.0148C45.2223 75.3657 25.0346 75.881 22.4575 74.1016C21.988 73.7827 21.6374 73.3225 21.3759 72.7339C20.6739 71.1528 16.9024 48.3241 16.4899 43.4527C16.0877 38.7251 16.2327 34.3893 16.2487 30.6872C20.3437 31.8164 27.8341 32.4432 32.1567 32.6288C37.6696 32.8747 46.2725 32.673 51.3948 31.556C51.6682 31.4909 51.896 31.4288 52.0929 31.3686C51.8456 41.7242 50.3778 50.6928 47.4429 72.2376ZM51.2858 19.0543C51.4701 19.0954 51.535 19.1492 51.5435 19.1631C51.5519 19.1712 51.5576 19.1788 51.5791 19.2289C51.5984 19.2779 51.6222 19.3627 51.6414 19.477C51.7827 20.2819 52.1698 24.877 52.1205 29.9019C51.8785 29.8776 51.5821 29.8623 51.2103 29.8595C50.0773 29.8287 48.2779 29.9345 45.3971 30.0638C45.74 27.533 46.0328 25.1893 46.2604 23.1576C46.4195 21.7083 46.57 20.3384 46.7131 19.0352C50.9105 18.9954 50.958 18.9798 51.2858 19.0543Z" fill="#26848B"/></svg>