<svg width="72" height="72" viewBox="0 0 72 72" fill="none" xmlns="http://www.w3.org/2000/svg"><path d="M15.4923 54.1547C15.7802 53.3736 16.1827 52.6332 16.604 51.9091C16.8215 51.5494 17.0629 51.2035 17.2926 50.8507C17.451 50.8013 17.5911 50.6948 17.6724 50.5352C17.8442 50.1983 18.0128 49.8549 18.1839 49.516C20.5177 46.211 23.3467 42.9268 25.9534 39.9077C33.1785 31.6787 38.4473 26.1802 53.6164 9.8546C55.9998 7.37945 58.0685 4.69817 60.8256 2.91674C62.1791 1.9922 63.6907 1.31021 65.2947 1.00374C66.8736 0.737409 68.6672 0.903247 69.9876 2.0476C68.8927 0.671713 66.9816 0.131231 65.2142 0.205982C63.421 0.289079 61.6815 0.876791 60.1052 1.69231C56.9038 3.37147 54.6218 5.83717 52.0066 8.26635C50.3645 9.82264 48.7662 11.4242 47.1586 13.0164C44.0274 12.6657 40.8925 12.3727 37.7587 12.0616C34.2544 11.7585 30.753 11.4095 27.2464 11.144C23.7397 10.8773 20.2361 10.5632 16.727 10.3354L6.2017 9.62146C5.80264 9.59625 5.38787 9.7367 5.08443 10.0432C4.93926 10.1898 0.342515 14.8339 0.633787 14.5396C0.518375 14.657 0.421695 14.7967 0.35085 14.9562C0.0335561 15.6696 0.354756 16.5053 1.06827 16.8226C8.19017 19.9897 8.81803 20.193 16.9631 23.6941C21.7786 25.7136 26.6036 27.7122 31.4635 29.6327C28.9605 32.5059 26.5175 35.4349 24.196 38.4707C23.6996 39.1168 23.2303 39.7853 22.7455 40.4412C20.8419 39.9846 18.9324 39.5682 17.0199 39.1726C14.8643 38.7766 12.7134 38.348 10.5468 38.0272C10.125 37.9673 9.67347 38.0966 9.34641 38.4185L9.33673 38.4281C8.57928 39.1737 7.8069 39.9041 7.0617 40.6619C6.91902 40.8082 4.67275 43.1111 4.81543 42.9649C4.17497 43.6297 4.33575 44.7247 5.14781 45.1728C6.08656 45.6909 7.04385 46.1756 8.00248 46.658C8.96342 47.136 9.90776 47.644 10.8824 48.0975C12.6813 48.9695 14.5018 49.8027 16.341 50.6019C16.1906 50.9182 16.0214 51.2237 15.8836 51.5467C15.5573 52.3549 15.2484 53.1742 15.0688 54.0369C14.9302 54.8622 14.8095 55.9139 15.482 56.5375C14.944 55.8209 15.2359 54.9072 15.4923 54.1547ZM17.9284 21.543L10.0928 17.8581C8.1036 16.9185 6.10085 16.0092 4.09899 15.098L6.66965 12.5538L16.5489 13.1387C20.0587 13.3567 23.5739 13.4885 27.086 13.6676C30.5981 13.848 34.1155 13.9448 37.6301 14.0876C40.3677 14.1639 43.1048 14.2488 45.8438 14.3045C43.0423 17.1096 40.2739 19.9485 37.557 22.8402C35.8057 24.7417 34.0764 26.666 32.3659 28.608C27.5824 26.1886 22.7597 23.856 17.9284 21.543ZM9.28551 44.3478C8.90403 44.1151 8.51536 43.8951 8.13219 43.6655L9.11088 42.7111C9.7049 42.127 10.2812 41.5251 10.8619 40.9277C12.7909 41.1872 14.729 41.3841 16.6648 41.5964C18.314 41.7402 19.9663 41.8645 21.6214 41.9682C20.4648 43.5911 19.3418 45.2397 18.2986 46.9469C17.8586 47.692 17.4251 48.4427 17.016 49.2078C16.9949 49.2333 16.9736 49.2584 16.9526 49.2839C15.3303 48.1664 13.691 47.0794 12.0297 46.0318C11.1296 45.4441 10.1992 44.9109 9.28551 44.3478Z" fill="#26848B"/><path d="M70.2964 11.9649C71.1121 10.3886 71.6857 8.64373 71.7622 6.85343C71.8337 5.08603 71.3114 3.19416 69.988 2.04785C71.0708 3.40989 71.2269 5.19096 70.9597 6.77406C70.6592 8.37846 69.988 9.89285 69.0634 11.2439C68.1671 12.6112 67.0711 13.8532 65.8649 14.9768L62.1336 18.4442C45.5602 33.8455 40.3299 38.8671 32.1056 46.0857C29.1015 48.6776 25.7607 51.5551 22.4495 53.8825C22.1311 54.0413 21.8082 54.1972 21.4921 54.357C21.3394 54.4346 21.2343 54.5693 21.1842 54.7229C20.826 54.9561 20.4744 55.2007 20.109 55.4214C19.3849 55.8417 18.6446 56.2428 17.8639 56.5301C17.1117 56.7854 16.1982 57.0757 15.4824 56.5377C16.1057 57.2093 17.1561 57.0892 17.9805 56.9509C18.8427 56.7723 19.6612 56.4635 20.4689 56.1379C20.7979 55.9978 21.1094 55.8257 21.4313 55.6725C22.2282 57.5152 23.0605 59.3382 23.9329 61.1389C24.3841 62.1169 24.8944 63.0621 25.3734 64.0246C25.8582 64.9839 26.3407 65.9445 26.8604 66.8845C27.3232 67.7097 28.418 67.8484 29.0719 67.2107C29.2182 67.068 31.5162 64.8273 31.3699 64.9699C32.1293 64.2263 32.8588 63.4529 33.6047 62.6959L33.6191 62.6814C33.9164 62.376 34.073 61.9403 34.006 61.4861C33.6865 59.3181 33.2627 57.1654 32.8686 55.0084C32.474 53.0874 32.0616 51.1691 31.6061 49.257C32.2485 48.7821 32.9037 48.3229 33.5367 47.8367C36.5633 45.5246 39.4836 43.0912 42.3486 40.5981C44.2808 45.4468 46.28 50.2655 48.3004 55.0747C50.5721 60.3813 52.8386 65.6903 55.1952 70.9589C55.6092 71.8745 56.7963 72.0824 57.4963 71.3884C57.835 71.0527 62.2566 66.6698 61.9827 66.9413C62.2653 66.6579 62.4344 66.2533 62.4052 65.8225C61.9391 58.8039 61.445 51.7868 60.8643 44.7755C60.2974 38.1535 59.705 31.5329 58.9622 24.9221C60.5596 23.3101 62.1662 21.7069 63.7278 20.0603C66.3097 17.284 68.6332 15.1479 70.2964 11.9649ZM30.4347 55.3632C30.6465 57.3005 30.8448 59.2398 31.1037 61.1702C30.5066 61.7508 29.9043 62.3264 29.3216 62.9216L28.365 63.9028C28.1333 63.5177 27.9111 63.1274 27.6774 62.7435C27.1125 61.8287 26.5789 60.8966 25.9864 59.9972C24.9327 58.3307 23.8386 56.6867 22.7117 55.0608C22.7191 55.0548 22.7264 55.0486 22.7338 55.0425C23.5228 54.623 24.2979 54.1794 25.0653 53.7263C26.7778 52.6805 28.4316 51.5544 30.0594 50.3948C30.1643 52.0539 30.2906 53.71 30.4347 55.3632ZM58.3807 44.9326C58.6794 51.743 59.0612 58.5484 59.4693 65.352L56.9315 67.9122C54.8277 63.286 52.6722 58.683 50.5113 54.0825C48.1989 49.2448 45.8667 44.4159 43.4592 39.6208C45.3785 37.9308 47.2807 36.2229 49.1609 34.4935C52.0857 31.7497 54.9547 28.9507 57.7893 26.1187C57.8977 32.3957 58.1231 38.6652 58.3807 44.9326Z" fill="#26848B"/></svg>