<svg width="73" height="72" viewBox="0 0 73 72" fill="none" xmlns="http://www.w3.org/2000/svg"><path d="M33.7157 54.3322C39.9925 54.8049 46.2888 54.9689 52.5976 54.9503C55.7526 54.9263 58.9085 54.7978 62.0714 54.5604C64.554 54.3569 67.0271 54.1048 69.5272 53.5364C68.7934 55.4515 67.7956 57.2697 66.5884 58.9393C61.7352 59.3356 56.9165 59.3416 52.0822 59.3654C46.9201 59.3388 41.758 59.3097 36.5953 59.1852C31.4319 59.1053 26.2702 58.9505 21.1057 58.8063C16.2926 58.6289 11.4927 58.4851 6.66454 58.0478C5.35603 56.2798 4.21061 54.3896 3.25962 52.3935C3.89057 52.5415 4.51752 52.6616 5.14705 52.7809C6.51148 53.0348 7.87201 53.2083 9.23263 53.3759C11.9526 53.7024 14.6734 53.9082 17.3958 54.0428C22.8384 54.3173 28.278 54.4466 33.7157 54.3322C28.295 53.9055 22.8801 53.5 17.4984 52.8475C14.8096 52.5165 12.1249 52.1673 9.46683 51.7306C6.85017 51.2646 4.09005 50.7871 1.83348 49.8343L1.82363 49.8301C1.59343 49.7335 1.32762 49.7205 1.07487 49.8136C0.545397 50.0089 0.274445 50.5962 0.469566 51.1257C1.76086 54.6284 3.53554 57.9863 5.85079 60.9601C8.16259 63.932 10.9632 66.53 14.1074 68.6207C14.8959 69.1373 15.7005 69.6431 16.5252 70.0945C16.8864 70.2994 17.4392 70.6183 18.0234 70.7837C18.5853 70.9606 19.2263 71.0378 19.7586 71.0336L25.2126 71.057L36.1204 71.0948L47.0284 71.0732C47.231 71.0725 53.537 71.0507 53.164 71.052C53.3776 71.0488 53.6159 71.0582 53.9422 71.0357C54.5397 70.9918 55.1136 70.8638 55.6805 70.6428C56.5784 70.2312 57.4276 69.8677 58.2725 69.4173C61.6215 67.6408 64.7051 65.2802 67.1449 62.3386C69.5856 59.4039 71.3979 55.9629 72.3055 52.2253C72.3544 52.0252 72.3484 51.8082 72.2756 51.5991C72.0748 51.0227 71.4447 50.7184 70.8684 50.9192C68.0934 51.886 64.9557 52.3233 61.8852 52.7321C58.7932 53.1245 55.6706 53.3649 52.5448 53.589C48.0499 53.9279 43.5405 54.0824 39.0244 54.2003C39.4131 51.2702 39.6763 48.3404 39.8729 45.4105C43.26 45.6552 46.6653 45.6339 50.0751 45.4673C51.9288 45.3755 53.7753 45.1632 55.6206 44.9162C57.4664 44.6687 59.3027 44.3272 61.1237 43.9011C61.8406 43.7309 62.1674 42.9113 61.7784 42.2983C60.9837 41.0553 59.048 37.9883 56.4663 34.079C54.7009 31.3612 52.9115 28.6593 51.0949 25.976C49.2883 23.2862 47.4925 20.5888 45.6431 17.9279C43.8439 15.3327 42.0814 12.7124 40.2532 10.1371L40.3353 5.15412C40.3393 4.74751 40.1586 4.33665 39.8106 4.07084C39.6692 3.96289 39.5122 3.89098 39.3505 3.84695C39.2435 2.86665 39.1295 1.88636 38.9964 0.90625C38.8622 1.89435 38.7472 2.88246 38.6394 3.87038C38.3724 3.94673 38.1204 4.08416 37.939 4.32173L37.91 4.35955C35.5861 7.4027 33.3296 10.4954 31.0432 13.5662C28.7518 16.6332 26.5 19.7294 24.2538 22.8295C19.7415 29.0154 15.2966 35.2509 10.9168 41.5339L10.8748 41.5938C10.7967 41.7069 10.739 41.8368 10.7083 41.9796C10.5827 42.5629 10.9537 43.1374 11.5369 43.263C13.8342 43.7576 16.0848 44.1483 18.375 44.4508C20.6579 44.7532 22.9424 45.0245 25.2363 45.1854C27.53 45.3432 29.8247 45.454 32.1193 45.4844C34.1201 45.5412 36.1218 45.4806 38.1183 45.3878C38.3152 48.326 38.5787 51.2639 38.9686 54.2021C37.2184 54.2475 35.4674 54.2894 33.7157 54.3322ZM57.0129 66.9661C56.2453 67.3526 55.4136 67.6912 54.6621 68.0415C54.3816 68.1491 54.058 68.2207 53.7488 68.2395C53.6215 68.2498 53.4047 68.244 53.164 68.2445C53.0175 68.244 46.6223 68.222 47.0284 68.2234L36.1204 68.2017C34.4474 68.208 42.1809 68.179 19.7586 68.263C19.3826 68.2718 19.1108 68.2383 18.8013 68.1543C18.5042 68.0788 18.2594 67.9444 17.8256 67.7125C17.0463 67.3075 16.3017 66.8594 15.5593 66.396C12.2253 64.2773 9.31306 61.5352 6.91853 58.3817C11.4747 59.7972 16.2266 60.5089 20.9386 61.0703C26.1225 61.6795 31.3308 61.9604 36.5409 62.0922C41.752 62.1594 46.9701 62.0645 52.1753 61.6248C56.9323 61.2109 61.7465 60.6325 66.3455 59.2514C65.9789 59.7425 65.6157 60.2372 65.2182 60.6998C62.9524 63.3184 60.1135 65.4007 57.0129 66.9661ZM48.747 27.5719C50.5733 30.2486 52.4267 32.9068 54.304 35.5487C55.8686 37.7862 57.4635 40.0028 59.0641 42.2159C55.1788 43.2565 53.3545 43.571 49.9322 44.1499C46.6171 44.7113 43.2582 45.0131 39.882 45.2816C40.3074 38.8794 40.408 34.1557 40.4501 27.6703C40.4297 24.0985 40.3611 20.527 40.2257 16.9554C40.2392 16.3228 40.2499 15.69 40.262 15.0572C46.0924 23.7408 44.2312 21.0054 48.747 27.5719ZM25.3947 43.8214C23.1474 43.468 20.9073 43.0833 18.6835 42.6273C17.0217 42.2809 15.3577 41.9135 13.718 41.5153C18.0494 35.8881 22.3309 30.2244 26.5483 24.5137C28.8325 21.4414 31.1113 18.3651 33.3503 15.2596C34.8042 13.25 36.2645 11.245 37.717 9.23438L37.7329 10.1957C37.6735 10.3509 37.6371 10.5179 37.6396 10.6942C37.67 12.8285 37.7162 14.9629 37.7621 17.0973C37.631 20.6214 37.5628 24.146 37.5427 27.6703C37.5849 34.1616 37.6857 38.8843 38.1107 45.2809C33.8423 44.9414 29.5968 44.5297 25.3947 43.8214Z" fill="#26848B"/></svg>