<svg width="85" height="84" viewBox="0 0 85 84" fill="none" xmlns="http://www.w3.org/2000/svg"><path d="M72.3779 11.7732C64.5666 4.30155 53.6987 0.056268 43.0006 0.395891C48.2647 0.565702 53.5289 1.75438 58.4534 3.96193C63.2081 6.16948 67.6232 9.22608 71.1893 12.9619C78.4912 20.4336 82.5666 30.7921 82.3968 41.1506C82.227 46.245 81.2081 51.5091 79.1704 56.2638C77.1327 61.0185 74.2459 65.2638 70.6798 68.9997C63.3779 76.3016 53.1893 80.377 43.0006 80.377C32.8119 80.377 22.6232 76.3016 15.3213 68.9997C11.7553 65.4336 8.69869 61.0185 6.83077 56.2638C4.79303 51.5091 3.60435 46.245 3.60435 41.1506C3.43454 30.7921 7.51001 20.4336 14.8119 12.9619C18.3779 9.22608 22.793 6.16948 27.5478 3.96193C32.3025 1.75438 37.5666 0.565702 43.0006 0.395891C32.3025 0.056268 21.4345 4.30155 13.6232 11.7732C5.8119 19.2449 1.05718 30.1129 0.887371 41.1506C0.717559 52.1883 5.30247 63.2261 12.944 71.0374C20.7553 79.0185 31.793 83.6034 42.8308 83.6034C54.0383 83.6034 64.9062 79.0185 72.7176 71.0374C80.5289 63.2261 85.1138 52.1883 84.944 41.1506C84.944 30.1129 80.1893 19.4148 72.3779 11.7732Z" fill="#26848B"/><path d="M43.0003 11.094C43.6796 10.7544 44.0192 10.4148 44.3588 10.0752C44.8683 9.39591 44.8683 8.71667 44.3588 8.03742C44.0192 7.6978 43.6796 7.35818 43.0003 7.01855C42.3211 7.35818 41.9815 7.6978 41.6418 8.03742C41.1324 8.71667 41.1324 9.39591 41.6418 10.0752C41.9815 10.4148 42.3211 10.7544 43.0003 11.094Z" fill="#26848B"/><path d="M43.0003 71.377C42.3211 71.7166 41.9815 72.0562 41.6418 72.3958C41.1324 73.0751 41.1324 73.7543 41.6418 74.4335C41.9815 74.7732 42.3211 75.1128 43.0003 75.4524C43.6796 75.1128 44.0192 74.7732 44.3588 74.4335C44.8683 73.7543 44.8683 73.0751 44.3588 72.3958C44.0192 71.8864 43.6796 71.7166 43.0003 71.377Z" fill="#26848B"/><path d="M74.0755 42.5092C74.7547 43.0186 75.434 43.0186 76.1132 42.5092C76.4528 42.1696 76.7925 41.83 77.1321 41.1507C76.7925 40.4715 76.4528 40.1319 76.1132 39.7922C75.434 39.2828 74.7547 39.2828 74.0755 39.7922C73.7359 40.1319 73.3963 40.4715 73.0566 41.1507C73.3963 41.83 73.7359 42.1696 74.0755 42.5092Z" fill="#26848B"/><path d="M11.9257 39.7922C11.2465 39.2828 10.5673 39.2828 9.88801 39.7922C9.54839 40.1319 9.20876 40.4715 8.86914 41.1507C9.20876 41.83 9.54839 42.1696 9.88801 42.5092C10.2276 42.679 10.5673 42.8488 10.9069 42.8488C11.2465 42.8488 11.5861 42.679 11.9257 42.5092C12.2654 42.1696 12.605 41.83 12.9446 41.1507C12.605 40.4715 12.2654 40.1319 11.9257 39.7922Z" fill="#26848B"/><path d="M65.9247 20.0937C66.2643 20.0937 66.6039 19.9239 66.9435 19.5843C67.1134 19.4145 67.2832 19.0748 67.453 18.5654C67.453 18.056 67.453 17.7163 67.2832 16.8673C66.6039 16.5277 66.0945 16.5277 65.5851 16.6975C64.736 16.8673 64.2266 17.3767 64.2266 18.056C64.2266 18.5654 64.2266 18.905 64.3964 19.7541C65.0756 20.0937 65.5851 20.0937 65.9247 20.0937Z" fill="#26848B"/><path d="M20.0752 62.207C19.7356 62.207 19.3959 62.3768 19.0563 62.7165C18.8865 62.8863 18.7167 63.2259 18.5469 63.7353C18.5469 64.2448 18.5469 64.5844 18.7167 65.4334C19.3959 65.7731 19.9054 65.7731 20.4148 65.6033C21.2638 65.4334 21.7733 64.924 21.7733 64.2448C21.7733 63.7353 21.7733 63.3957 21.6035 62.5466C20.9242 62.207 20.4148 62.207 20.0752 62.207Z" fill="#26848B"/><path d="M65.4153 65.6034C65.9248 65.6034 66.2644 65.6034 67.1135 65.4335C67.4531 64.7543 67.4531 64.2449 67.2833 63.7354C67.1135 62.8864 66.604 62.377 65.9248 62.377C65.4153 62.377 65.0757 62.377 64.2267 62.5468C63.887 63.226 63.887 63.7354 64.0569 64.2449C64.0569 64.5845 64.2267 64.9241 64.5663 65.2637C64.7361 65.2637 65.0757 65.4336 65.4153 65.6034Z" fill="#26848B"/><path d="M20.5849 16.8672C20.0755 16.8672 19.7359 16.8672 18.8868 17.037C18.5472 17.7162 18.5472 18.2257 18.717 18.7351C18.8868 19.5842 19.2264 20.0936 20.0755 20.0936C20.5849 20.0936 20.9246 20.0936 21.7736 19.9238C22.1132 19.2445 22.1132 18.7351 21.9434 18.2257C21.9434 17.8861 21.7736 17.5464 21.434 17.2068C21.2642 17.037 20.9246 16.8672 20.5849 16.8672Z" fill="#26848B"/><path d="M22.4531 41.1507C23.6418 41.83 25.0003 42.1696 26.189 42.5092C28.7361 43.0186 31.4531 43.0186 33.8305 42.5092C34.6795 42.3394 35.5286 42.1696 36.3776 41.83C36.3776 43.3583 37.0569 44.8866 38.0758 46.0752C39.2644 47.4337 41.1324 48.113 42.8305 48.113C44.6984 48.113 46.3965 47.2639 47.5852 46.0752C48.7739 44.7167 49.4531 43.0186 49.2833 41.3205C49.1135 39.6224 48.2644 37.9243 47.0758 37.0752C45.7173 36.0564 44.189 35.7168 42.8305 36.0564C45.038 30.4526 45.038 20.4337 42.8305 14.6602C40.6229 20.4337 40.6229 30.2828 42.8305 36.0564C45.5475 36.7356 47.0758 39.2828 46.7361 41.3205C46.5663 43.3583 44.6984 44.8866 42.8305 44.8866C40.9625 44.8866 39.0946 43.3583 38.9248 41.3205C38.5852 39.2828 40.1135 36.7356 42.8305 36.0564C41.472 35.7168 39.7739 36.0564 38.5852 37.0752C37.3965 37.9243 36.7173 39.2828 36.3776 40.8111C34.3399 39.962 32.1324 39.6224 29.9248 39.6224C28.7361 39.6224 27.3777 39.7922 26.189 39.962C25.0003 40.1318 23.8116 40.4715 22.4531 41.1507Z" fill="#26848B"/></svg>