<svg width="54" height="88" viewBox="0 0 54 88" fill="none" xmlns="http://www.w3.org/2000/svg"><path d="M47.4084 77.3983C46.5471 78.9979 45.6682 80.9315 44.0686 82.1971C38.0041 86.9256 11.3381 84.324 9.86152 83.4627C7.25996 82.0565 7.33027 77.6619 4.53535 73.3904C3.67402 72.0545 2.74238 71.1229 2.0041 70.5955C1.26582 70.0682 0.80879 69.9276 0.738478 69.9979C0.597853 70.1912 2.33809 71.1932 3.67403 73.8651C5.60762 77.7322 5.67793 81.3358 7.40059 83.6737C7.80488 84.201 8.33223 84.6756 8.92988 85.0799C10.1252 85.8885 11.4611 86.1522 12.7268 86.3455C14.801 86.6795 28.7229 87.4705 30.9201 87.4705C35.7893 87.6111 42.0471 87.2069 45.7912 84.201C46.9162 83.2694 47.7248 82.1971 48.3225 81.1951C49.3244 79.4549 51.4514 74.7967 52.717 70.9998C53.7189 67.7303 53.385 67.4666 53.051 67.326C52.8576 67.2557 52.5764 67.2557 52.1193 67.994C50.59 66.992 34.717 70.5252 28.7229 71.2635C28.7229 68.7322 28.4592 63.0018 28.2482 56.2694C29.1447 56.4979 30.0764 56.3924 30.9729 56.3397C32.467 56.3045 33.8908 56.4276 35.3674 56.6033C37.7053 56.867 39.9729 57.4647 42.0998 58.2029C43.3127 58.6072 44.4025 59.2225 45.8264 59.1346C47.8127 59.1346 48.9729 57.3416 48.8322 55.4608C48.7619 54.1248 48.4982 53.1229 48.2346 52.1209C44.5607 38.3924 41.6428 28.2498 32.3088 16.9295C30.5686 14.9256 29.5842 13.9237 28.9689 13.5369C28.8986 13.4666 28.8986 13.4666 28.8283 13.4666C28.9689 11.3397 28.8283 13.2733 29.1623 7.47248C29.6896 8.21076 30.4279 9.00178 31.5705 9.5467C34.7697 11.3397 40.3068 9.74006 42.8381 5.67951L43.1721 5.20491C43.3127 4.94123 43.4357 4.67756 43.5061 4.34358C43.6467 3.67561 43.4357 3.00764 43.1721 2.55061C42.5041 1.61897 41.5725 1.21467 40.6408 1.14436C40.1662 1.14436 39.7092 1.21467 39.3049 1.33772C39.0412 1.47834 38.7775 1.53108 38.4963 1.60139C37.9689 1.74202 37.424 1.86506 36.8264 1.93537C34.6291 2.19905 32.5549 1.79475 31.1662 1.26741C29.5666 0.933421 28.758 0.335765 28.635 0.458812C28.4943 0.458812 28.3713 0.458812 28.2307 0.599437C28.0373 0.599437 27.8967 0.599437 27.7561 0.863109C27.6154 1.12678 27.4221 1.60139 27.4221 2.53303C27.4221 2.72639 27.4221 3.00764 27.4924 3.27131C27.4221 3.46467 27.4221 3.67561 27.3518 3.93928C27.2111 4.80061 27.0881 5.87287 26.8771 7.1385C26.7365 8.33381 26.5432 9.81037 26.4025 11.533C26.3322 11.533 26.3322 11.6033 26.2619 11.6737C25.9279 11.8143 25.3303 12.1483 24.592 12.6053C23.3264 13.4139 21.5334 14.6795 19.4592 16.4725C7.18965 27.2127 -0.404099 42.7342 1.1252 60.0662C1.19551 60.6639 1.26582 61.1912 1.31856 61.8065L1.38887 62.2811C1.38887 62.5447 1.45918 62.8084 1.52949 63.0194C1.72285 63.494 2.05684 63.8807 2.46113 64.1444C2.93574 64.408 3.39277 64.5487 3.92012 64.4783C4.18379 64.4783 4.44746 64.3377 4.6584 64.285L5.0627 64.1444C5.59004 64.0037 6.13496 63.8104 6.66231 63.6697C10.5295 62.5447 14.59 61.7361 18.5979 62.2635C19.5295 62.4041 20.3908 62.5272 21.2697 62.7908C22.1486 63.0545 23.0627 63.5291 23.8713 63.9158C24.6447 64.4256 26.2268 65.4803 26.9299 64.8475L27.0002 64.7772C27.3342 67.7127 27.6682 70.1033 28.0022 71.4393C26.6662 71.5799 25.2775 71.7029 23.801 71.7733C16.7346 71.9666 10.2658 70.8416 4.60567 70.1736C2.4084 69.91 1.00215 69.7693 0.931837 69.9803C0.861525 70.1736 2.19746 70.6483 4.39473 71.2459C10.5998 72.9861 17.4025 74.3045 23.801 74.3045C25.5939 74.3045 27.4045 74.2342 29.0041 74.0408C33.135 73.6365 48.1994 70.701 51.2053 69.4354C51.0646 69.699 50.9416 70.033 50.7307 70.367C50.133 71.8611 49.0607 74.1287 47.4084 77.3983ZM30.4631 2.39241C31.8693 3.32405 34.1369 4.13264 36.7912 4.06233C37.7932 4.04475 38.8303 3.93928 39.7971 3.58772C39.9904 3.51741 40.1311 3.51741 40.3244 3.58772C40.6584 3.65803 40.9924 3.85139 40.9924 3.99201L40.7287 4.326C38.7248 7.26155 33.5217 9.45881 30.7971 5.52131C29.8654 4.11506 29.6018 2.99006 29.3381 2.25178C29.2326 1.97053 29.2326 1.56623 29.1975 1.32014C29.4611 1.6717 29.9357 2.05842 30.4631 2.39241ZM23.3264 60.5936L22.799 60.4002C22.5354 60.3299 22.3244 60.2596 22.0607 60.2069C21.0588 59.9432 20.0568 59.7322 19.0021 59.6092C14.6076 59.0819 10.2658 59.9432 6.06465 61.2791C5.5373 61.4197 4.99238 61.6131 4.46504 61.8065L3.99043 61.8768H3.92012H3.84981C3.84981 61.8768 3.77949 61.8768 3.77949 61.8065V61.7361L3.70918 61.4022C3.63887 60.8748 3.56856 60.3299 3.51582 59.7322C1.77559 43.3319 8.45527 28.5311 20.0568 17.1405C22.5881 14.6795 24.6623 13.0799 25.7873 12.201C25.3127 13.0096 24.6623 14.6092 23.7834 17.7381C22.9221 20.9373 21.7092 25.6658 20.8479 32.8729C20.0393 39.6053 19.8459 46.8651 21.1115 53.5447C21.3752 54.951 21.7092 56.41 22.1838 57.8865C22.4475 58.6248 22.6584 59.3455 22.9924 60.0838L23.3264 60.5936ZM26.3322 60.7342C26.1389 60.4002 25.9982 60.0662 25.8049 59.6619L25.6115 59.1346C25.3479 58.4666 25.0842 57.7987 24.8732 57.1307C24.3986 55.7947 24.135 54.4588 23.8713 53.1229C21.7443 42.2596 23.5373 29.1815 25.7346 18.3182C25.8049 17.8436 25.9279 17.4569 25.9982 17.0526C25.1896 28.9178 25.1896 41.9783 26.1916 55.5135C26.3322 57.6404 26.5256 59.6444 26.7189 61.5779C26.5959 61.2615 26.4729 60.9979 26.3322 60.7342ZM28.7404 15.3299C29.215 15.9979 29.8127 16.9295 30.7443 18.2655C39.674 31.3963 41.4846 37.6014 45.6154 52.9998C45.8791 53.9315 46.09 54.8631 46.1428 55.6717C46.1428 56.076 46.0725 56.41 46.0021 56.4803C46.0021 56.5506 45.9318 56.5506 45.9318 56.5506C45.9318 56.5506 45.7912 56.6209 45.6682 56.6209C45.4045 56.6209 44.9299 56.5506 44.4729 56.4276C43.9982 56.2869 43.4709 56.0936 42.8732 55.9002C40.6057 55.0916 38.1447 54.5643 35.5432 54.3006C34.2775 54.16 33.0119 54.1072 31.676 54.1072H31.1486C30.885 54.1072 30.7443 54.1072 30.551 54.1776C30.217 54.2479 29.9533 54.2479 29.6896 54.2479C29.6193 54.2479 29.6193 54.2479 29.6193 54.2479H29.549C29.4787 54.2479 29.4787 54.2479 29.4084 54.1776C29.4084 54.1072 29.4084 54.1072 29.4084 54.0369C29.4084 54.1072 29.549 53.7029 29.6018 53.4393C29.6721 53.2987 29.7424 53.1053 29.7951 52.8416L29.9357 52.367L30.1994 51.4354C30.5334 50.1697 30.7971 48.9041 31.1311 47.6385C32.8713 40.4315 33.0646 34.7713 31.3947 26.369C30.6564 22.6951 29.7248 19.1092 28.6701 16.033C28.7404 15.7342 28.7404 15.5408 28.7404 15.3299ZM28.0725 50.6619C27.8791 39.3944 28.1428 28.1971 28.5998 18.3885C30.9377 29.3924 31.799 36.9861 29.0744 47.0584C28.7404 48.2713 28.4064 49.4666 28.0725 50.6619Z" fill="#26848B"/></svg>