<svg width="77" height="90" viewBox="0 0 77 90" fill="none" xmlns="http://www.w3.org/2000/svg"><path d="M76.2071 85.4601C74.9279 81.559 73.8808 77.5874 72.6665 73.6664C75.4554 69.9646 74.2686 64.4904 72.4893 60.5635C71.3238 57.991 71.4103 55.9934 71.6738 53.1969C71.8533 51.8897 71.6779 50.5583 71.166 49.3421C70.7705 48.574 70.2815 47.8578 69.7101 47.2097C67.9361 44.9461 67.1628 43.2694 67.7634 40.2731C68.7569 35.3181 68.4285 29.8988 64.9205 25.9746C63.5443 24.5183 62.6104 22.7007 62.2277 20.7339C62.0239 19.5273 61.6783 18.349 61.1979 17.2235C60.1933 15.2238 58.54 13.624 56.5084 12.6856C56.5393 12.5745 56.5473 12.4582 56.5319 12.3438C55.8202 7.06487 51.5954 3.32162 46.9042 1.38996C44.6426 0.458841 42.3746 -0.510725 39.9438 0.308336C37.3672 1.17668 35.2454 3.64816 33.6444 5.71106C33.2609 6.20527 33.8993 6.90514 34.3539 6.42047C35.5932 4.92794 37.024 3.60547 38.6093 2.48731C41.5978 0.678134 44.8326 1.84749 47.6347 3.31962C51.6722 5.44064 53.5344 8.48739 55.0977 12.5807C55.0493 12.6507 55.0153 12.7297 54.9978 12.813C54.9803 12.8963 54.9795 12.9822 54.9955 13.0658C55.0116 13.1494 55.0441 13.2289 55.0912 13.2998C55.1383 13.3707 55.1991 13.4315 55.2699 13.4787C59.2512 15.8252 59.8426 18.402 60.6731 22.4513C61.1362 24.7085 62.205 25.4614 63.7097 27.1854C65.8731 29.6644 66.534 32.7706 66.3892 35.9909C66.2763 38.5033 65.0374 41.1201 65.3209 43.6392C65.4914 45.1546 66.3932 46.2472 67.2588 47.4352C68.9465 49.7513 69.8302 51.3141 69.437 54.2669C69.2411 55.2436 69.1565 56.2394 69.185 57.2352C69.3727 59.7502 71.0238 61.7503 71.7001 64.1164C72.2158 66.1097 72.1702 68.2068 71.5684 70.1758C70.6983 67.5516 69.5834 64.9382 67.2433 63.4351C63.5392 61.056 58.956 59.4411 54.8044 58.0527C53.4081 57.6717 52.0388 57.1979 50.7057 56.6343C50.5806 56.5212 50.4313 56.438 50.2693 56.3912C49.6076 55.9699 49.0427 55.4132 48.6119 54.7578C48.181 54.1023 47.8939 53.363 47.7696 52.5885C47.2097 50.2512 47.3631 47.5102 47.3177 45.0717C51.737 41.467 52.9617 35.3435 52.9513 29.1522C54.6872 28.6384 56.146 26.0877 56.1228 24.448C56.1171 23.9842 56.0193 23.5261 55.8349 23.1004C55.6506 22.6747 55.3833 22.29 55.0488 21.9686C54.7143 21.6472 54.3192 21.3956 53.8865 21.2284C53.4538 21.0611 52.9922 20.9817 52.5285 20.9946C52.4913 20.8758 52.4226 20.7693 52.3297 20.6865C52.2752 20.2628 52.2196 19.8431 52.1625 19.4323C52.0311 18.488 50.4678 18.6569 50.4179 19.5477C49.0559 18.5617 47.8231 17.4018 46.1155 17.3958C44.0675 17.3886 42.5005 17.5243 40.8395 16.0337C39.4404 14.7782 38.1076 13.4344 36.7555 12.1279C36.6521 12.0311 36.5151 11.9782 36.3735 11.9805C36.2318 11.9829 36.0966 12.0402 35.9965 12.1404C35.8963 12.2405 35.839 12.3757 35.8367 12.5174C35.8344 12.659 35.8872 12.796 35.9841 12.8994C38.0382 15.0332 40.1055 18.3336 43.2265 18.888C45.2187 19.2419 46.2912 18.7662 48.0708 19.9216C48.8735 20.4727 49.716 20.9637 50.5912 21.3905C51.5942 30.451 52.8789 42.3812 42.4742 46.1229C36.7212 48.1917 30.0245 46.1195 27.2044 40.463C24.6387 35.3178 25.3685 28.185 25.0873 22.425C25.647 22.4175 26.1978 22.284 26.6988 22.0345C27.1999 21.7849 27.6383 21.4257 27.9815 20.9835C28.3687 20.5321 28.5469 19.8051 28.9304 19.4103C29.6207 18.6985 30.9933 18.8002 31.8829 18.4973C33.113 18.0752 34.1459 17.2172 34.7865 16.0855C35.4271 14.9537 35.6311 13.6266 35.36 12.3547C35.2402 11.7671 34.3187 11.9083 34.3252 12.4947C34.4026 13.2646 34.2766 14.0412 33.9599 14.7471C33.6431 15.453 33.1467 16.0634 32.5202 16.5174C31.259 17.3769 30.1386 16.9178 28.8423 17.3562C28.3229 17.5252 27.8891 17.8888 27.632 18.3706C26.8075 19.6752 26.1453 20.587 24.6288 21.1426C24.5517 21.1175 24.4698 21.1112 24.3898 21.1244C24.3098 21.1376 24.2342 21.1699 24.1693 21.2185C24.1045 21.267 24.0522 21.3305 24.017 21.4035C23.9819 21.4765 23.9648 21.557 23.9672 21.638C23.965 22.1306 23.9556 22.6379 23.9431 23.1518C21.6784 22.7069 20.2734 25.3233 20.323 27.3138C20.3677 29.1046 21.8151 31.982 23.8227 31.6447C23.9599 35.6662 24.5965 39.6243 26.7095 42.7348C27.3462 43.6725 28.1094 44.5177 28.9773 45.2466C28.9151 47.2727 28.8736 49.2994 28.6852 51.3193C28.2737 55.7288 25.848 56.6364 22.2106 57.8159C17.8214 59.2391 12.9667 60.9276 9.06261 63.4356C6.16796 65.2951 5.23708 68.7439 4.20066 71.8791C3.92413 72.7155 3.66855 73.5585 3.41153 74.401C1.95538 71.0078 4.8534 67.827 4.82426 64.3746C4.80733 62.372 4.07584 60.5991 4.60071 58.5728C5.2327 56.2971 6.44283 54.2237 8.11343 52.5542C9.49558 51.1404 10.2777 50.862 10.0686 48.8658C9.55169 43.9293 8.15573 40.0679 11.8823 35.835C13.412 34.0974 14.9217 33.0711 15.0303 30.5764C15.2075 26.5023 13.7883 23.3099 16.5394 19.5475C18.2352 17.2285 21.0361 16.5912 22.2231 13.8611C22.8103 12.5108 22.9787 10.9885 23.6823 9.67834C25.4191 6.4448 29.0053 4.28485 32.3228 6.75062C32.8335 7.13037 33.426 6.31524 32.9914 5.88372C32.1176 5.00193 30.9782 4.43158 29.7487 4.26037C28.5191 4.08916 27.2673 4.32655 26.1858 4.93607C22.3118 6.9187 22.607 10.8471 20.5509 14.0414C19.349 15.9084 16.7371 16.676 15.3697 18.523C14.5588 19.6396 13.9545 20.8924 13.5853 22.2221C13.129 23.8716 12.9531 25.5861 13.0649 27.2939C13.1041 28.0511 13.5178 30.0824 13.4698 30.576C13.2404 32.9368 11.6369 33.6226 10.3735 35.0648C8.27233 37.5928 7.25261 40.8473 7.5355 44.1223C7.63768 46.1173 8.97367 48.7648 7.87351 50.5549C6.73867 52.4011 4.93567 53.5049 3.95407 55.6016C2.06463 59.6385 3.83832 63.045 2.70445 67.0881C1.82671 70.2176 0.37184 72.9638 2.67539 75.7761C2.74403 75.8596 2.83616 75.9207 2.93988 75.9514C1.98564 79.1828 1.09948 82.4353 0.0436217 85.6351C-0.218455 86.4293 0.763792 86.8498 1.29958 86.4499C6.75352 88.2026 12.662 88.5869 18.3239 89.1908C24.8066 89.812 31.3185 90.0759 37.8301 89.9813C50.5101 90.0327 63.167 88.8977 75.6355 86.5911C75.6738 86.5866 75.7118 86.5797 75.7492 86.5704C75.8589 86.549 75.97 86.5321 76.0798 86.5104C76.5904 86.4097 76.584 85.6738 76.2071 85.4601ZM54.6186 25.3856C54.2236 26.1777 53.6379 26.8592 52.9142 27.3688C52.848 25.5857 52.6965 23.8182 52.5034 22.1221C54.028 22.4879 55.3945 23.5942 54.6186 25.3856ZM23.6655 29.714C23.2509 29.6168 22.8703 29.4096 22.5637 29.1141C22.2572 28.8186 22.036 28.4459 21.9237 28.0352C21.3509 26.6899 21.8594 23.9194 23.9153 24.228C23.8615 25.9972 23.7869 27.8582 23.7874 29.7322L23.6655 29.714ZM29.1656 56.2619C30.5986 53.8051 30.3323 49.3157 30.0936 46.0783C31.734 47.0965 33.5599 47.7795 35.4659 48.088C37.3718 48.3965 39.32 48.3242 41.1979 47.8755C42.9858 47.5219 44.6922 46.8379 46.2294 45.8586C45.9904 49.1416 45.7011 53.6495 47.14 56.2619C47.4023 56.7197 47.7525 57.1213 48.1705 57.4434C41.1905 62.1965 33.8867 61.5627 26.3265 58.465C27.4849 58.0546 28.4804 57.2821 29.1656 56.2619ZM1.72003 85.5931C3.11791 80.9417 4.40101 76.2476 6.1027 71.6963C7.40707 68.2078 8.40111 65.9337 11.866 64.0382C14.666 62.561 17.5699 61.2896 20.5545 60.2341C21.7018 59.8101 23.2633 59.4892 24.7707 59.0242C31.9878 65.1206 42.6901 63.6986 49.9231 58.455C51.8609 59.2844 54.2394 59.6755 55.751 60.2341C58.4819 61.2525 61.1581 62.4117 63.769 63.7071C67.4961 65.5422 68.8038 67.9578 70.2026 71.6964C70.3939 72.2075 70.5622 72.7262 70.7435 73.2406C70.6829 73.478 70.6235 73.7171 70.5678 73.9595C70.5412 74.0701 70.5406 74.1854 70.5661 74.2962C70.5916 74.4071 70.6425 74.5106 70.7147 74.5984C70.7869 74.6863 70.8786 74.7563 70.9824 74.8028C71.0862 74.8493 71.1994 74.8711 71.313 74.8665C72.4906 78.3968 73.5013 81.9832 74.572 85.5473C62.5878 86.8798 50.6863 87.9996 38.6105 88.139C26.3 88.281 13.7937 88.1369 1.72003 85.5931Z" fill="#26848B"/><path d="M34.3703 37.1613C33.8922 36.8158 33.2692 37.6123 33.7345 37.9854C34.3271 38.5326 35.0386 38.9349 35.813 39.1606C36.5874 39.3862 37.4037 39.4291 38.1975 39.2857C38.9189 39.1526 39.5981 38.8493 40.1787 38.4009C40.7593 37.9524 41.2245 37.3719 41.5357 36.7076C41.7203 36.2085 41.0606 35.9664 40.7289 36.2379C39.8371 36.9677 39.2123 37.6801 38.0319 37.9396C37.4011 38.0742 36.7491 38.0745 36.1182 37.9404C35.4873 37.8063 34.8918 37.5409 34.3703 37.1613Z" fill="#26848B"/><path d="M37.5135 26.7081C37.5102 26.6231 37.4742 26.5426 37.4128 26.4836C37.3515 26.4246 37.2697 26.3916 37.1846 26.3916C37.0995 26.3916 37.0177 26.4246 36.9564 26.4836C36.8951 26.5426 36.859 26.6231 36.8558 26.7081C36.7866 27.9148 36.5027 29.0995 36.0175 30.2065C35.7437 30.7556 35.5547 31.343 35.457 31.9488C35.3205 33.2072 37.0096 33.8183 38.0657 34.0037C38.1352 34.0205 38.2082 34.0144 38.2739 33.9864C38.3397 33.9584 38.3946 33.9099 38.4305 33.8482C38.4665 33.7864 38.4816 33.7147 38.4735 33.6437C38.4654 33.5727 38.4346 33.5062 38.3857 33.4541C37.8064 32.865 37.1017 32.4141 36.324 32.1352C36.4723 31.2683 37.1319 30.2913 37.3373 29.4616C37.55 28.5601 37.6095 27.6293 37.5135 26.7081Z" fill="#26848B"/><path d="M30.5272 23.4993C30.4117 23.8355 30.3603 24.1905 30.3757 24.5457C30.4129 24.8921 30.5766 25.2126 30.8355 25.4459C30.889 25.4968 30.9562 25.5311 31.0288 25.5446C31.1015 25.5581 31.1765 25.5503 31.2447 25.522C31.313 25.4937 31.3716 25.4463 31.4134 25.3853C31.4553 25.3244 31.4785 25.2527 31.4804 25.1788C31.5044 24.9431 31.5114 24.706 31.5013 24.4693C31.4724 24.2385 31.4852 24.0045 31.539 23.7783C31.5708 23.6459 31.5498 23.5063 31.4806 23.389C31.4113 23.2717 31.2992 23.186 31.168 23.1498C31.0367 23.1136 30.8965 23.1298 30.7769 23.195C30.6574 23.2602 30.5678 23.3693 30.5272 23.4993Z" fill="#26848B"/><path d="M44.6877 24.6568C45.0601 24.2417 44.9147 23.6424 44.8901 23.1247C44.8849 22.9853 44.826 22.8533 44.7255 22.7564C44.6251 22.6596 44.4909 22.6055 44.3514 22.6055C44.2119 22.6055 44.0778 22.6596 43.9773 22.7564C43.8769 22.8533 43.8179 22.9853 43.8128 23.1247C43.788 23.6442 43.6412 24.24 44.015 24.6568C44.1046 24.7452 44.2254 24.7948 44.3513 24.7948C44.4772 24.7948 44.5981 24.7452 44.6877 24.6568Z" fill="#26848B"/><path d="M50.0601 61.2073C46.226 63.4556 42.834 65.4344 38.2197 65.5791C33.8939 65.7149 27.6899 64.5936 24.2069 61.8276C24.0955 61.7232 23.9479 61.6663 23.7953 61.6687C23.6427 61.6712 23.497 61.7329 23.3891 61.8409C23.2811 61.9488 23.2194 62.0944 23.2169 62.247C23.2144 62.3997 23.2713 62.5473 23.3756 62.6587C26.255 66.3411 33.1988 67.2246 37.5874 67.2604C42.2657 67.2986 47.5744 65.6767 50.7973 62.1633C50.8971 62.0575 50.9559 61.9196 50.9631 61.7743C50.9702 61.629 50.9254 61.486 50.8366 61.3708C50.7478 61.2556 50.6208 61.1759 50.4785 61.1459C50.3361 61.116 50.1878 61.1377 50.0601 61.2073Z" fill="#26848B"/></svg>