<svg width="45" height="48" viewBox="0 0 45 48" fill="none" xmlns="http://www.w3.org/2000/svg"><path d="M6.61955 20.5085C6.43087 20.9802 6.24219 21.5462 6.24219 22.1122C6.24219 22.6783 6.33653 23.15 6.61955 23.716C6.90257 23.2443 7.18559 22.7726 7.37426 22.3953C7.56294 22.0179 7.75162 21.5462 7.9403 21.1689C8.12898 20.7915 8.31766 20.3198 8.50634 19.9424C8.69502 19.4707 8.8837 19.0934 8.97804 18.5273C8.412 18.6217 7.9403 18.999 7.56294 19.3764C7.09125 19.5651 6.80823 20.0368 6.61955 20.5085Z" fill="#26848B"/><path d="M31.525 4.18885C27.9401 2.3964 22.4684 4.56621 20.959 8.24545C24.8269 5.5096 27.2797 4.66055 31.525 4.18885Z" fill="#26848B"/><path d="M26.5254 12.2079C32.2801 14.8494 30.865 14.4721 32.5631 15.4155C32.3744 12.8683 28.7895 10.9815 26.5254 12.2079Z" fill="#26848B"/><path d="M17.3728 26.3583C17.1842 25.0376 16.9011 24.2828 16.7125 22.5847C16.4294 20.7923 16.5238 20.0376 16.3351 18.7168C15.3917 19.7545 15.1087 21.3583 15.2974 22.7734C15.486 24.4715 16.4294 25.7923 17.3728 26.3583Z" fill="#26848B"/><path d="M16.8075 41.3574C16.5245 41.3574 16.2414 41.3574 15.9584 41.5461C15.6754 41.6404 15.3924 41.8291 15.1094 42.1121C15.3924 42.3952 15.6754 42.5838 15.9584 42.6782C16.2414 42.7725 16.5245 42.8669 16.8075 42.8669C17.0905 42.8669 17.3735 42.8669 17.6565 42.6782C17.9396 42.5838 18.2226 42.3952 18.5056 42.1121C18.2226 41.8291 17.9396 41.6404 17.6565 41.5461C17.3735 41.4518 17.0905 41.3574 16.8075 41.3574Z" fill="#26848B"/><path d="M34.4498 40.0363C33.8838 39.942 33.3177 39.8477 32.7517 39.8477C32.1857 39.8477 31.6196 39.8477 31.0536 40.0363C30.4875 40.1307 29.9215 40.3194 29.3555 40.6024C29.9215 40.8854 30.4875 41.0741 31.0536 41.1684C31.6196 41.2628 32.1857 41.3571 32.7517 41.3571C33.3177 41.3571 33.8838 41.3571 34.4498 41.1684C35.0158 41.0741 35.5819 40.8854 36.1479 40.6024C35.5819 40.3194 35.0158 40.1307 34.4498 40.0363Z" fill="#26848B"/><path d="M31.0524 44.0938C30.7694 44.0938 30.5807 44.0938 30.2977 44.2824C30.0147 44.3768 29.826 44.5655 29.543 44.8485C29.826 45.1315 30.0147 45.3202 30.2977 45.4145C30.5807 45.5089 30.7694 45.6032 31.0524 45.6032C31.3354 45.6032 31.5241 45.6032 31.8071 45.4145C32.0901 45.3202 32.2788 45.1315 32.5618 44.8485C32.2788 44.5655 32.0901 44.3768 31.8071 44.2824C31.5241 44.1881 31.3354 44.0938 31.0524 44.0938Z" fill="#26848B"/><path d="M23.6003 35.6976C19.355 35.9806 15.1097 36.924 11.1475 38.5278C9.16635 39.3769 7.27956 40.3203 5.4871 41.5467C3.69465 42.7731 2.09088 44.2825 0.770121 46.075C0.675781 46.1693 0.675781 46.358 0.675781 46.5467C0.675781 47.0184 1.05314 47.3014 1.52484 47.3014C5.9588 47.207 10.2984 47.1127 14.7324 47.0184C16.9022 46.924 19.1663 46.8297 21.3362 46.8297C23.506 46.7353 25.7701 46.641 27.9399 46.5467C25.7701 46.4523 23.506 46.358 21.3362 46.2636C19.1663 46.1693 16.9022 46.075 14.7324 46.075C10.8645 45.9806 6.99654 45.8863 3.22295 45.792C4.16635 44.7542 5.29842 43.8108 6.52484 42.9618C8.22295 41.8297 10.0154 40.9806 11.9022 40.2259C13.789 39.4712 15.7701 38.9052 17.7513 38.4335C19.7324 37.9618 21.7135 37.6787 23.789 37.4901C25.8645 37.3014 27.8456 37.3014 29.9211 37.4901C31.9022 37.6787 33.9777 37.9618 35.8645 38.6221C37.7513 39.2825 39.6381 40.1316 41.0531 41.358C41.7135 42.0184 42.2796 42.7731 42.6569 43.6221C42.9399 44.3769 43.0343 45.1316 43.0343 45.8863C40.5814 45.9806 38.223 45.9806 35.7701 46.075C33.1286 46.1693 30.5814 46.2636 27.9399 46.358C30.5814 46.5467 33.1286 46.5467 35.7701 46.641C38.4116 46.7353 40.9588 46.8297 43.6003 46.924C43.8833 46.924 44.072 46.7353 44.1664 46.4523C44.355 45.3203 44.2607 44.1882 43.9777 43.0561C43.6947 42.3957 43.4116 41.8297 43.0343 41.2636C41.9965 36.7353 40.2041 32.3014 37.7513 28.3391C34.4494 23.1504 29.9211 18.8108 24.1663 16.4523C26.1475 16.4523 28.0343 16.7354 29.9211 17.3014C32.4682 18.0561 34.8267 19.4712 36.5248 21.5467C36.6192 21.641 36.7135 21.641 36.8079 21.7354C37.0909 21.8297 37.3739 21.641 37.4682 21.358C37.8456 19.9429 38.0343 18.4335 37.8456 16.924C37.3739 13.8108 35.6758 11.2637 33.223 9.37687C32.3739 8.71649 31.5248 8.24479 30.5814 7.86743C32.5626 6.8297 34.6381 6.07498 36.9022 6.16932C36.9965 6.16932 37.1852 6.16932 37.2796 6.07498C37.5626 5.8863 37.6569 5.4146 37.4682 5.13158C36.2418 3.24479 34.4494 1.73536 32.1852 1.07498C30.2041 0.414603 27.5626 0.603282 25.5814 1.26366C24.5437 1.54668 23.506 2.11272 22.6569 2.67875C19.638 4.75422 17.8456 7.67875 17.3739 10.6033C18.6003 6.26366 21.9965 3.24479 25.8645 2.20706C27.6569 1.64102 30.1097 1.64102 31.8079 2.30139C33.3173 2.77309 34.6381 3.81083 35.5814 5.03724C33.0343 5.22592 30.6758 6.26366 28.6003 7.58441C28.506 7.67875 28.4116 7.77309 28.3173 7.96177C28.223 8.33913 28.4116 8.71649 28.6947 8.90517C30.0154 9.37687 31.2418 9.9429 32.2796 10.792C34.4494 12.3957 36.0531 14.6599 36.5248 17.3957C36.7135 18.4335 36.7135 19.4712 36.5248 20.4146C34.7324 18.7165 32.3739 17.5844 30.1097 17.0184C27.3739 16.358 24.638 16.358 21.9022 16.8297C22.6569 16.7354 23.3173 16.7354 24.072 16.7354C29.2607 19.9429 33.4116 24.2825 36.5248 29.3769C38.1286 31.924 39.5437 34.5655 40.6758 37.3957C41.0531 38.3391 41.4305 39.2825 41.8079 40.2259C40.2984 38.8108 38.4116 37.8674 36.5248 37.207C35.4871 36.8297 34.4494 36.5467 33.4116 36.358C33.1286 34.7542 32.7513 33.1504 32.2796 31.5467C31.7135 29.6599 30.8645 27.8674 29.8267 26.2637C28.789 24.5655 27.5626 23.0561 26.1475 21.7354C24.7324 20.4146 23.1286 19.2825 21.3362 18.5278C21.5248 17.9618 21.7135 17.3957 21.9022 16.8297C20.7701 19.1882 20.0154 21.7354 19.9211 24.3769C19.8267 25.6976 20.0154 27.0184 20.2984 28.3391C20.5814 29.2825 20.8645 30.3203 21.3362 31.1693C19.072 30.8863 16.9965 29.7542 15.4871 28.0561C13.789 26.075 12.9399 23.5278 12.7513 20.8863C12.7513 20.792 12.6569 20.6033 12.5626 20.5089C12.2796 20.2259 11.9022 20.1316 11.6192 20.4146C9.54371 22.0184 7.84559 24.1882 6.80786 26.7354C5.86446 25.4146 5.29842 23.8108 5.20408 22.2071C5.10974 21.1693 5.20408 20.1316 5.29842 19.0938C5.58144 18.0561 5.86446 17.1127 6.4305 16.1693C7.46824 14.3769 9.07201 12.9618 11.0531 12.0184C12.9399 11.075 15.2041 10.792 17.3739 10.6976C15.2041 10.5089 12.9399 10.6976 10.8645 11.5467C8.78899 12.3957 6.9022 13.8108 5.67578 15.792C5.0154 16.7354 4.63805 17.8674 4.35503 18.9052C4.16635 20.0372 3.97767 21.1693 4.07201 22.3014C4.16635 24.5655 5.10974 26.8297 6.61918 28.6221C6.71352 28.7165 6.80786 28.8108 6.99654 28.8108C7.3739 28.9052 7.75125 28.7165 7.84559 28.3391C8.50597 26.075 9.92107 23.9995 11.6192 22.3014C11.9965 24.6599 12.9399 27.0184 14.638 28.8108C15.5814 29.8486 16.8079 30.792 18.1286 31.358C19.4494 31.924 20.9588 32.2071 22.3739 32.2071C22.4682 32.2071 22.5626 32.207 22.6569 32.1127C22.8456 31.924 22.9399 31.641 22.7513 31.4523C22.0909 30.4146 21.5248 29.2825 21.1475 28.0561C20.7701 26.8297 20.5814 25.6033 20.5814 24.2825C20.4871 22.3014 20.7701 20.3203 21.3362 18.4335C22.7513 19.6599 24.072 20.9806 25.2984 22.3014C26.5248 23.7165 27.6569 25.2259 28.6003 26.8297C29.638 28.4335 30.4871 30.1316 31.2418 31.8297C31.9022 33.2448 32.4682 34.7542 33.1286 36.1693C29.8267 35.5089 26.6192 35.4146 23.6003 35.6976Z" fill="#26848B"/></svg>