<svg width="47" height="44" viewBox="0 0 47 44" fill="none" xmlns="http://www.w3.org/2000/svg"><path d="M2.76129 36.6685L2.99505 36.6808C5.50591 36.6913 16.3725 36.7367 18.168 36.7442C17.878 37.4575 17.5895 38.1712 17.3214 38.8931C16.9424 39.8975 16.5511 40.8971 16.1802 41.9046C14.1103 42.0376 12.0404 42.2292 9.97048 42.5778C12.0933 42.9353 14.2161 43.1287 16.3389 43.2618C16.4819 43.3648 16.6499 43.4355 16.8396 43.4314C17.4218 43.4187 18.0015 43.3901 18.5832 43.3692C20.1801 43.4345 21.7768 43.4734 23.3737 43.4863C25.6076 43.4705 27.8414 43.4317 30.0753 43.2872C32.3092 43.154 34.543 42.9563 36.7769 42.5778C34.543 42.1993 32.3092 42.0016 30.0753 41.8684C29.9506 41.8604 29.8259 41.8594 29.7012 41.8519C28.7755 38.6254 28.8209 38.6729 28.2108 36.7453C59.8684 36.6106 31.0174 36.7345 43.7519 36.6792L43.9855 36.6669C44.9428 36.5715 45.7531 35.8412 45.9552 34.8824C45.987 34.7281 46.002 34.5691 46.0034 34.4137C46.0028 34.292 45.9965 32.8109 45.9969 32.9042C45.9611 26.5595 45.9993 26.3166 45.8878 18.4129C45.8691 16.9629 45.6803 2.29562 45.6818 2.41129C45.6785 2.27774 45.6643 2.14446 45.6364 2.01295C45.5789 1.75039 45.4651 1.49981 45.3055 1.28408C44.989 0.850401 44.4803 0.562482 43.9482 0.518426C43.4551 0.503999 43.118 0.52353 42.6953 0.528968C36.2547 0.678836 29.8141 0.767226 23.3735 0.972027C29.8141 1.17677 36.2547 1.26522 42.6953 1.41503L43.8572 1.44006C44.2589 1.48563 44.6046 1.79411 44.6842 2.21154C44.6958 2.27768 44.7007 2.34482 44.7013 2.41279C44.6813 3.97023 44.6187 8.84656 44.6199 8.75201C44.3239 31.4694 44.4469 23.1868 44.3864 32.9042C44.3859 33.0259 44.3796 34.5071 44.38 34.4137C44.3776 34.4599 44.3736 34.5014 44.3647 34.5445C44.3055 34.8045 44.0787 35.012 43.8198 35.034C12.6769 34.9058 27.5713 34.9671 23.3735 34.9498C19.1649 34.9669 34.0832 34.9066 2.9273 35.0325C2.67051 35.0107 2.44308 34.8049 2.38376 34.5441C2.37488 34.5011 2.37094 34.4597 2.3685 34.4137C2.36797 34.292 2.3616 32.8108 2.36201 32.9042C2.33017 26.8662 2.35459 25.1271 2.25464 18.4129C2.25141 18.1634 2.04995 2.60659 2.05134 2.71391L2.04756 2.41279C2.04817 2.34493 2.053 2.27796 2.06465 2.21193C2.14265 1.80277 2.48066 1.48825 2.88996 1.44172L4.05174 1.41769C10.4923 1.26666 16.9329 1.17816 23.3735 0.972027C16.9329 0.765895 10.4923 0.677394 4.05174 0.52636C3.62893 0.520589 3.29207 0.503277 2.79868 0.516705C2.26612 0.560761 1.75692 0.848958 1.44004 1.28303C1.28024 1.49898 1.16638 1.74978 1.10884 2.01257C1.08088 2.14418 1.06662 2.27762 1.06334 2.41129L1.05929 2.71391C1.05724 2.87226 0.975924 9.15271 0.981112 8.75201C0.816325 21.5004 0.77431 23.6857 0.76932 28.0737C0.768702 28.2182 0.742293 34.3851 0.743464 34.1118L0.742188 34.4137C0.743575 34.5692 0.7585 34.7282 0.790405 34.8827C0.99281 35.8439 1.80544 36.5732 2.76129 36.6685ZM28.2137 39.1799C28.6433 40.0197 29.0976 40.9152 29.5502 41.8453C27.4913 41.7268 25.4325 41.6839 23.3737 41.6693C21.7498 41.6824 20.1259 41.7221 18.502 41.79C18.366 41.7845 18.2295 41.7789 18.0937 41.7739C18.3952 41.0333 18.6926 40.291 18.9953 39.5509C19.379 38.6259 19.7288 37.6877 20.0855 36.7522L23.3735 36.7659L26.9983 36.7505C27.3816 37.5459 27.7742 38.3449 28.2137 39.1799Z" fill="#26848B"/><path d="M6.67386 30.5661C6.88792 30.6367 7.11137 30.6842 7.33587 30.696C7.58711 30.7108 7.66784 30.7024 7.84218 30.7067L8.75577 30.7149L23.3735 30.7669L37.9911 30.7173L38.9047 30.7091C39.0791 30.7048 39.1596 30.7132 39.4112 30.6984C39.6358 30.6866 39.8595 30.639 40.0738 30.5684C40.9371 30.2839 41.6037 29.5221 41.7808 28.6367C41.8234 28.4352 41.8373 28.1494 41.832 28.0128C41.8302 27.8012 41.8027 24.7218 41.8035 24.8152L41.7131 17.5063L41.5951 10.1976C41.5894 9.92086 41.5273 6.88709 41.5296 6.99993C41.5299 6.85738 41.513 6.62145 41.472 6.44079C41.2999 5.66781 40.7034 5.02067 39.9581 4.79339C39.584 4.66544 39.1743 4.69197 38.9047 4.69729L37.9911 4.7211C33.1185 4.86658 28.246 4.95469 23.3735 5.15439C28.246 5.35409 33.1185 5.4422 37.9911 5.58774L38.9047 5.61154C39.2407 5.61798 39.4539 5.6136 39.6592 5.69522C40.0794 5.84203 40.3967 6.22728 40.472 6.65042C40.508 6.82803 40.4819 7.14713 40.4804 7.45675C40.4776 7.59396 40.4215 10.3327 40.4243 10.1976L40.3063 17.5063L40.2159 24.8152C40.2151 24.9067 40.1901 27.7068 40.1915 27.556L40.1874 28.0128C40.1871 28.181 40.1778 28.1998 40.1632 28.2976C40.0929 28.6082 39.8457 28.8789 39.5435 28.9686C39.4682 28.9902 39.3914 29.0071 39.3116 29.0078C39.2591 29.014 39.0347 29.0071 38.9047 29.0075L37.9911 28.9993L23.3735 28.9498L8.75577 29.0018L7.84218 29.0099C7.71212 29.0095 7.48795 29.0164 7.43513 29.0101C7.35512 29.0095 7.27816 28.9925 7.20264 28.9708C6.89963 28.8807 6.65194 28.6095 6.58147 28.298C6.56682 28.2001 6.55756 28.1809 6.55728 28.0128C6.55647 27.9213 6.54432 26.5509 6.54513 26.6424L6.52893 24.8152L6.43793 17.5063L6.31985 10.1976C6.31799 10.106 6.26096 7.30598 6.26403 7.45675C6.26265 7.14719 6.23657 6.82808 6.27263 6.64997C6.34821 6.22606 6.66609 5.84026 7.08707 5.69322C7.2927 5.61154 7.50638 5.61598 7.84218 5.6096L8.75577 5.58519C13.6283 5.44081 18.5009 5.35275 23.3735 5.15439C18.5009 4.95603 13.6283 4.86797 8.75577 4.72365L7.84218 4.69923C7.57241 4.69391 7.16314 4.6675 6.78944 4.79534C6.04481 5.0225 5.44894 5.66908 5.2771 6.44129C5.23609 6.62179 5.21933 6.85733 5.21961 6.99993C5.21259 7.34478 5.15263 10.2909 5.15453 10.1976L5.03645 17.5063L4.9454 24.8152C4.94459 24.9067 4.91982 27.7068 4.92115 27.556L4.9171 28.0128C4.91177 28.1494 4.92564 28.4349 4.96826 28.6362C5.14526 29.5209 5.81126 30.2819 6.67386 30.5661Z" fill="#26848B"/><path d="M24.1424 32.1767C23.6367 31.9137 23.1021 31.9209 22.606 32.1792C22.35 32.3242 22.094 32.5128 21.8379 32.8915C22.094 33.2702 22.35 33.4588 22.606 33.6039C23.1016 33.8619 23.6363 33.8696 24.1424 33.6063C24.3985 33.4623 24.6545 33.2724 24.9106 32.8915C24.6545 32.5106 24.3985 32.3207 24.1424 32.1767Z" fill="#26848B"/><path d="M20.5136 21.9016C19.2479 23.3557 18.0279 24.8554 16.9355 26.483C18.5631 25.3907 20.0628 24.1706 21.5169 22.9049C22.979 21.6472 24.3663 20.3147 25.7375 18.9659C27.0845 17.5932 28.4171 16.2059 29.6745 14.7435C30.9398 13.2891 32.1605 11.79 33.2544 10.1641C31.6285 11.258 30.1294 12.4787 28.675 13.7441C27.2126 15.0014 25.8253 16.334 24.4526 17.681C23.1039 19.0522 21.7714 20.4395 20.5136 21.9016Z" fill="#26848B"/><path d="M24.817 11.3691C21.6767 12.8028 17.6362 16.8309 16.2051 19.9811C19.344 18.5553 23.3784 14.5207 24.817 11.3691Z" fill="#26848B"/></svg>