<svg width="50" height="48" viewBox="0 0 50 48" fill="none" xmlns="http://www.w3.org/2000/svg"><path d="M5.44726 43.4453C6.29911 44.4453 7.29911 45.2972 8.37318 45.9638C12.7806 48.5935 18.3732 48.2601 21.8917 45.4824C22.7806 44.7786 23.4473 44.0379 24.188 43.3712C24.9287 42.7046 25.7065 42.149 26.4843 41.7786C27.2991 41.3712 28.151 41.149 28.9658 41.0009C29.8176 40.8527 30.6324 40.8157 31.4473 40.7416C33.0398 40.5564 34.4843 40.3342 35.7435 40.0009C37.0028 39.7046 38.0398 39.2972 38.8547 38.9268C39.6695 38.5564 40.2621 38.1861 40.6695 37.9268C41.0769 37.6675 41.2621 37.5194 41.2621 37.4823C41.225 37.4083 40.4102 37.9638 38.7435 38.6305C37.9287 38.9638 36.8917 39.2972 35.6695 39.5564C34.4473 39.8157 33.0028 40.0009 31.4473 40.149C30.6695 40.2231 29.8176 40.2231 28.9287 40.3712C28.2991 40.4453 27.6695 40.5935 27.0028 40.8157C27.0028 40.7786 27.0028 40.7786 27.0028 40.7416C27.0028 40.6305 26.9658 40.5194 26.3732 40.3712C26.225 40.3342 26.0398 40.2972 25.8176 40.2601C18.9658 38.7416 14.0399 32.3342 15.8917 24.3712C15.9287 24.1861 15.9658 24.0009 16.0398 23.8157C18.3732 15.186 27.4102 11.7046 33.7806 15.4083C37.8917 17.7786 39.188 22.8527 36.5584 27.2601C35.7806 28.6305 34.7065 29.8157 33.4102 30.5935C30.4843 32.2972 27.4473 31.4453 25.7436 29.149C24.9287 28.0749 24.5954 26.7046 24.7436 25.4453C25.188 21.8527 29.0769 21.2231 30.5584 23.0379C30.8176 23.3712 30.9658 23.7416 31.0398 24.112C31.188 24.8527 31.0398 25.5564 30.7806 26.0379C30.5584 26.5194 30.225 26.8157 29.9658 27.0009C29.7065 27.149 29.5584 27.2231 29.5954 27.2601C29.5954 27.2601 29.7806 27.2601 30.0398 27.149C30.3361 27.0379 30.7436 26.7416 31.0398 26.2231C31.3361 25.7046 31.5954 24.9638 31.4473 24.0749C31.3732 23.6305 31.225 23.186 30.9287 22.7786C29.225 20.4453 24.5213 21.186 23.8917 25.3712C23.6695 26.8157 24.0028 28.4453 24.9287 29.7416C27.225 32.9638 31.5584 33.3342 33.9658 31.6305C35.4843 30.7416 36.7065 29.4453 37.5954 27.9268C40.7065 22.9268 39.188 17.0009 34.4843 14.2231C27.4843 10.0749 17.188 13.6675 14.5954 23.4823C14.5213 23.7046 14.4843 23.8898 14.4473 24.112C12.5954 32.3342 17.2991 39.7786 25.2991 41.0379H25.7065H26.2991C26.4473 41.0379 26.5213 41.0379 26.6324 41.0009C26.4843 41.0749 26.3361 41.112 26.188 41.1861C25.2991 41.5935 24.4473 42.1861 23.6695 42.8527C22.8917 43.4824 22.151 44.2601 21.3732 44.8898C19.7436 46.0749 17.6695 46.8157 15.4473 46.8527C13.2621 46.8898 10.9287 46.3712 8.92874 45.112C7.92874 44.4824 7.03985 43.7046 6.29911 42.7786C5.55837 41.8527 4.8917 40.8157 4.37318 39.7046C-0.552741 29.0379 3.07689 14.9268 13.9287 7.07493C19.8176 2.81567 27.3361 0.778636 34.0769 2.22308C35.4843 2.51938 36.7806 2.96382 37.9658 3.55641C39.151 4.14901 40.225 4.85271 41.151 5.66753C43.0028 7.29716 44.3361 9.26012 45.3732 11.186C45.8547 12.149 46.2991 13.112 46.6324 14.0749C49.7065 22.5194 48.7806 27.7786 46.0028 32.112C45.0769 33.5564 44.225 34.5194 43.5213 35.2231C43.188 35.5935 42.8547 35.8527 42.5954 36.112C42.3361 36.3342 42.1139 36.5194 41.9287 36.7046C41.225 37.2972 41.188 37.4453 41.2621 37.5194C41.3361 37.5935 41.4473 37.6675 42.2621 37.1861C42.4843 37.0749 42.7065 36.8898 43.0028 36.7046C43.2991 36.4823 43.6695 36.2231 44.0398 35.8898C44.8176 35.2231 45.8176 34.2231 46.8547 32.7416C50.9287 26.8527 50.3361 20.4083 47.9287 13.6305C47.5584 12.6305 47.1139 11.5935 46.5954 10.5935C45.5213 8.55642 44.1139 6.4453 42.0769 4.63049C41.0769 3.7416 39.8917 2.92678 38.5954 2.29716C37.2991 1.66753 35.8547 1.14901 34.3732 0.815673C27.0769 -0.77692 19.0769 1.55641 13.0399 5.96382C1.92874 14.0009 -2.18237 28.7416 3.33615 40.149C3.92874 41.3342 4.59541 42.4453 5.44726 43.4453Z" fill="#26848B"/></svg>