<svg width="47" height="22" viewBox="0 0 47 22" fill="none" xmlns="http://www.w3.org/2000/svg"><path d="M0.720239 8.19449C0.72035 8.8868 0.768956 9.57916 0.791761 10.2715L0.793536 10.326L0.793592 10.3275C0.797809 10.448 0.834208 10.5574 0.886698 10.6574L0.965766 15.92L0.991179 17.3321L1.00588 18.0381C1.01165 18.2701 1.00932 18.4984 1.03967 18.8054C1.17467 19.9586 1.99388 20.9728 3.06171 21.3561C3.5824 21.5683 4.21239 21.562 4.63919 21.533L6.05127 21.4786L8.87548 21.3478C10.7582 21.2629 12.641 21.1788 14.5238 21.0499C12.641 20.9211 10.7582 20.837 8.87548 20.7521L6.05127 20.6214L4.63919 20.5669C4.12922 20.5567 3.79524 20.5473 3.4368 20.39C2.73789 20.1035 2.23907 19.413 2.18719 18.6818C2.17792 18.5196 2.1837 18.2767 2.18952 18.0381L2.20423 17.3321L2.22958 15.92L2.30294 11.0373C2.50158 11.0274 2.699 11.0157 2.89692 11.0034L12.5068 11.1151L14.3988 11.1243C14.4414 11.1306 14.4795 11.1494 14.5238 11.1494C14.9751 11.1486 15.4262 11.1373 15.8774 11.1316L23.4159 11.1683C34.8707 11.139 33.4988 11.1952 43.4202 11.094C41.9524 12.6712 40.3323 14.1112 38.5602 15.3496C36.2843 16.9101 33.8078 18.2067 31.1768 19.1001C28.5505 20.0012 25.7959 20.5697 22.9987 20.7249L14.5238 21.0499C17.3551 21.1713 20.1715 21.2881 23.015 21.3301C24.4452 21.3561 25.874 21.2266 27.2984 21.0533C28.7138 20.8279 30.1302 20.5536 31.5045 20.1236C34.2764 19.334 36.9081 18.0726 39.3413 16.51C41.7744 14.9406 43.961 12.9905 45.8556 10.7908C45.9747 10.6522 46.0482 10.4718 46.0504 10.2748C46.0553 9.83079 45.6993 9.4668 45.2552 9.46191L45.2339 9.46169C44.0361 9.44849 42.8382 9.44749 41.6403 9.43667C41.7194 9.27065 41.7805 9.10464 41.8281 8.93862C41.9362 8.59028 41.977 8.24188 41.9777 7.89353C41.975 7.54519 41.9346 7.19679 41.8261 6.84844C41.7857 6.70823 41.729 6.5679 41.6676 6.42769C41.9471 6.40422 42.2267 6.37875 42.5062 6.33541C43.2029 6.23554 43.8997 6.08722 44.5963 5.80335C43.8997 5.51954 43.2029 5.37117 42.5062 5.27129C41.8095 5.16326 41.1127 5.12248 40.416 5.12176C39.7193 5.12442 39.0226 5.16482 38.3258 5.27335C37.7672 5.35375 37.2085 5.48503 36.6499 5.6713C36.4584 5.22119 36.2636 4.76898 36.0556 4.31865C36.0085 4.21716 35.9197 4.14747 35.8177 4.09875C35.4694 3.33676 35.1423 2.61732 34.7282 1.80061C34.3913 1.23609 33.7504 0.806518 33.0478 0.753417L31.4762 0.694601C29.4257 0.640447 27.3752 0.5616 25.3246 0.536799C23.2741 0.503396 21.2235 0.454401 19.1729 0.453125C18.8584 0.453624 18.5531 0.622857 18.3948 0.919821C18.3262 1.05056 16.5784 4.3167 13.974 9.4208L12.5068 9.42796L9.59236 9.46186C9.63392 8.32427 9.58027 7.18186 9.28569 6.01376C9.23542 5.82849 9.18332 5.65471 9.10769 5.45645C9.01369 5.22041 8.85767 5.00135 8.66674 4.82463C8.30813 4.46508 7.7041 4.28486 7.28595 4.2888C6.59359 4.2327 5.90129 4.21128 5.20893 4.18143C4.51663 4.14814 3.82426 4.12367 3.13196 4.12106C3.02975 4.12139 2.99385 4.11529 2.83727 4.12084C2.42542 4.13057 1.98862 4.26808 1.6204 4.53105C1.15026 4.86558 0.806354 5.39281 0.721959 5.97364C0.682542 6.18328 0.698409 6.49964 0.698766 6.63671C0.700443 6.7584 0.721525 8.28783 0.720239 8.19449V8.19449ZM35.3081 5.10067C36.092 6.39619 37.017 7.75574 38.0335 9.41159C32.5329 9.38048 40.921 9.39095 22.9782 9.37691C24.1925 7.10172 24.2684 6.90402 24.8027 5.86772C24.9085 5.65704 24.8969 5.68361 24.9527 5.61182C24.9979 5.56343 25.0527 5.52071 25.1144 5.49158C25.1756 5.46233 25.2415 5.44352 25.3066 5.44075L25.8149 5.43498L26.901 5.41639C28.3491 5.37394 29.7972 5.35702 31.2454 5.29354C32.5996 5.23767 33.9539 5.18352 35.3081 5.10067V5.10067ZM40.416 6.48495C40.5803 6.48478 40.7448 6.47369 40.9091 6.46869C40.856 6.59526 40.8025 6.72188 40.7661 6.84844C40.5673 7.48663 40.5613 8.28466 40.764 8.93862C40.8112 9.10303 40.8722 9.26749 40.9501 9.43189C40.0315 9.42413 39.113 9.41808 38.1944 9.4127C37.6512 8.11504 37.3607 7.35515 36.782 5.97753C37.7384 6.27651 38.8435 6.47894 40.416 6.48495ZM19.7135 2.21194C21.5839 2.20356 23.4542 2.16399 25.3246 2.13353C27.3752 2.10873 29.4257 2.02983 31.4762 1.97567L32.9804 1.92352C33.3081 1.91947 33.6353 2.08276 33.8544 2.37973L34.7972 3.99316C33.6132 3.92713 32.4293 3.87659 31.2454 3.82776C29.7972 3.76428 28.3491 3.74736 26.901 3.70486L25.8149 3.68627L25.2371 3.68433C24.669 3.70121 24.094 3.94368 23.663 4.39089C23.4656 4.58077 23.2749 4.92667 23.2211 5.04019L22.7116 5.99989C22.1117 7.11905 21.5454 8.2558 20.968 9.38673L15.969 9.41109C17.2336 7.01984 18.4859 4.62232 19.7135 2.21194V2.21194ZM2.49664 6.63671L2.50025 6.37709C2.5038 6.2887 2.50335 6.30307 2.5109 6.26345C2.53409 6.15974 2.58248 6.05449 2.67447 5.98435C2.74789 5.92614 2.83766 5.89614 2.90752 5.89313C2.92372 5.88797 3.0611 5.88964 3.13196 5.88753C3.82426 5.88498 4.51662 5.86045 5.20893 5.82716C5.90129 5.79736 6.59359 5.77594 7.28595 5.71985C7.55828 5.68772 7.66454 5.71302 7.83488 5.80679C7.90807 5.85412 7.96988 5.91283 8.02714 5.98851C8.09972 6.10326 8.17868 6.24997 8.2472 6.38996C8.67539 7.33273 8.99694 8.39269 9.31365 9.46508L2.75304 9.54137C2.64717 9.53377 2.54119 9.52733 2.43566 9.52056C2.45591 9.07856 2.47505 8.6365 2.47511 8.19449C2.47679 8.0728 2.49793 6.54337 2.49664 6.63671V6.63671Z" fill="#26848B"/></svg>