<svg width="33" height="48" viewBox="0 0 33 48" fill="none" xmlns="http://www.w3.org/2000/svg"><path d="M0.796875 34.5763L0.893028 40.9225V42.5571C0.893028 43.0379 0.893029 43.711 1.08534 44.2879C1.46995 45.4417 2.33534 46.4994 3.39303 46.9802C3.96995 47.2687 4.54687 47.3648 5.1238 47.3648L6.75841 47.2687C10.893 47.0763 12.3353 47.0763 16.3738 46.884C12.4315 46.6917 10.9892 46.6917 6.75841 46.4994L5.1238 46.4033C3.68149 46.3071 2.43149 45.2494 2.14303 43.9033C2.04687 43.4225 2.04687 43.0379 2.04687 42.461V40.8263L2.14303 34.4802L2.23918 28.134V26.4994C2.23918 25.9225 2.23918 25.5379 2.33534 25.1533C2.52764 24.384 3.10457 23.711 3.8738 23.3263C4.25841 23.134 4.64303 23.0379 5.02764 23.0379H6.5661C6.85457 23.0379 16.2776 23.0379 16.1815 23.0379C16.2776 23.0379 26.3738 23.0379 25.7969 23.0379H27.3353C27.7199 23.0379 28.1046 23.134 28.4892 23.3263C29.2584 23.6148 29.8353 24.2879 30.0276 25.1533C30.1238 25.5379 30.1238 25.9225 30.1238 26.4994V28.134L30.2199 34.4802L30.3161 40.8263V42.461C30.3161 43.0379 30.3161 43.4225 30.2199 43.9033C29.9315 45.2494 28.6815 46.3071 27.2392 46.4033L25.9892 46.4994C21.8546 46.5956 20.3161 46.6917 16.3738 46.884C20.3161 47.0763 21.8546 47.0763 25.9892 47.2687L27.6238 47.3648C28.2007 47.3648 28.7776 47.2687 29.3546 46.9802C30.4123 46.4994 31.3738 45.5379 31.6623 44.2879C31.8546 43.711 31.8546 43.0379 31.8546 42.5571V40.9225L31.9507 34.5763L32.0469 28.2302V26.5956C32.0469 26.1148 32.0469 25.4417 31.8546 24.7687C31.5661 23.5187 30.6046 22.3648 29.4507 21.7879C29.1623 21.5956 28.7776 21.4994 28.393 21.4033L28.2969 15.2494L28.2007 11.6917C28.1046 10.4417 27.9123 9.28788 27.4315 8.13404C26.6623 5.9225 25.0276 3.90327 23.1046 2.55712C21.0853 1.21096 18.6815 0.537884 16.3738 0.634038C18.6815 0.730192 20.9892 1.59558 22.8161 2.94173C24.643 4.28788 25.9892 6.21096 26.6623 8.4225C26.9507 9.48019 27.143 10.634 27.143 11.6917L27.0469 15.1533L26.9507 21.3071H25.9892H24.1623C24.1623 18.134 24.2584 14.961 24.2584 11.6917C24.1623 9.6725 23.2969 7.74942 21.8546 6.40327C20.4123 5.05712 18.4892 4.19173 16.4699 4.19173C14.4507 4.19173 12.5276 4.96096 11.0853 6.40327C9.64303 7.74942 8.77764 9.76865 8.68149 11.6917C8.68149 14.961 8.68149 18.134 8.77764 21.3071H6.95072H5.98918L5.89303 15.2494C5.89303 14.0956 5.79687 12.9417 5.79687 11.7879C5.79687 10.634 5.98918 9.57635 6.27764 8.51865C6.95072 6.40327 8.29687 4.48019 10.1238 3.03788C11.9507 1.69173 14.1623 0.826346 16.5661 0.730192C15.4123 0.730192 14.2584 0.826346 13.1046 1.11481C11.9507 1.40327 10.893 1.98019 9.93149 2.65327C7.91226 3.99942 6.3738 5.9225 5.50841 8.23019C5.1238 9.38404 4.83534 10.5379 4.73918 11.7879C4.64303 12.9417 4.64303 14.0956 4.64303 15.3456L4.54687 21.4994C4.16226 21.5956 3.8738 21.6917 3.48918 21.884C2.33534 22.461 1.3738 23.5187 1.08534 24.8648C0.893029 25.5379 0.893028 26.211 0.893028 26.6917V28.3263L0.796875 34.5763ZM12.2392 7.74942C13.393 6.69173 14.8353 6.11481 16.3738 6.11481C17.9123 6.11481 19.3546 6.69173 20.5084 7.74942C21.5661 8.80712 22.2392 10.2494 22.3353 11.7879L22.4315 21.3071H16.3738H10.3161L10.4123 11.7879C10.5084 10.2494 11.1815 8.80712 12.2392 7.74942Z" fill="#26848B"/><path d="M16.374 27.6523C15.3163 27.6523 14.3548 28.1331 13.5855 28.8062C12.9125 29.5754 12.5278 30.537 12.624 31.5947C12.7202 32.5562 13.2009 33.5177 13.874 33.9985C14.6432 34.5754 15.5086 34.7677 16.2778 34.5754C15.8932 35.0562 15.7009 35.537 15.5086 36.0177C15.2202 36.9793 15.2202 38.037 15.5086 38.9985C15.7009 39.4793 15.8932 39.9601 16.2778 40.4408C16.6625 39.9601 16.8548 39.4793 17.0471 38.9985C17.3355 38.037 17.3355 36.9793 17.0471 36.0177C16.8548 35.537 16.6625 35.0562 16.2778 34.5754C14.7394 34.1908 13.874 32.7485 14.0663 31.5947C14.1625 30.4408 15.2202 29.5754 16.2778 29.5754C17.3355 29.5754 18.3932 30.4408 18.4894 31.5947C18.6817 32.7485 17.8163 34.1908 16.2778 34.5754C17.0471 34.7677 18.0086 34.5754 18.6817 33.9985C19.3548 33.4216 19.9317 32.5562 19.9317 31.5947C20.0279 30.6331 19.6432 29.5754 18.9702 28.8062C18.3932 28.1331 17.4317 27.6523 16.374 27.6523Z" fill="#26848B"/></svg>