<svg width="77" height="74" viewBox="0 0 77 74" fill="none" xmlns="http://www.w3.org/2000/svg"><path d="M30.3808 16.6834C30.9161 16.2946 27.4376 10.5918 25.6146 8.08113C22.2876 3.49947 21.7841 3.71877 21.2489 4.10738C20.7135 4.49614 20.3492 4.90702 23.6761 9.48882C25.4992 11.9993 29.8455 17.0721 30.3808 16.6834Z" fill="#26848B"/><path d="M37.1508 1.76177C37.0644 1.13031 36.7782 1.03624 36.4555 0.963861C36.1328 0.89148 35.8362 0.845812 35.4919 1.41868C35.1671 1.99255 34.744 3.19344 34.5313 5.63441C34.4126 6.97044 34.4967 9.09231 34.8385 10.8302C35.1671 12.5732 35.7039 13.9141 36.0244 13.8597C36.3557 13.8048 36.418 12.4004 36.5289 10.7202C36.6264 9.03616 36.8088 7.07499 36.9189 5.82987C37.1167 3.55721 37.2553 2.39654 37.1508 1.76177Z" fill="#26848B"/><path d="M47.3147 9.45448C50.2271 4.93271 49.8371 4.54768 49.281 4.18952C48.7248 3.83135 48.2131 3.63546 45.3007 8.15723C43.7048 10.635 40.7309 16.2427 41.2871 16.6009C41.8432 16.9591 45.7188 11.9322 47.3147 9.45448Z" fill="#26848B"/><path d="M76.1611 67.8447C76.0944 67.5207 76.0029 67.2339 75.1266 67.1972C74.2539 67.1726 72.5824 67.3684 69.4244 68.2343C69.1384 68.3125 68.8201 68.408 68.4898 68.5107C68.4852 68.3754 68.475 68.2257 68.4538 68.0472C67.9855 64.2869 64.614 56.628 61.1594 46.9367C60.8002 45.9136 60.532 45.2768 60.3645 45.2904C60.7261 45.1745 61.0834 44.9927 61.4146 44.728C61.8027 44.4301 62.1538 43.9632 62.3897 43.5341C64.207 40.551 64.9316 37.0536 68.8373 20.9543C68.8837 20.7908 68.9311 20.5091 68.9694 20.2555C68.9908 19.997 69.0047 19.7302 68.976 19.4685C68.7783 17.0925 66.3028 15.0746 63.2989 15.7836C63.2372 15.8072 42.4438 23.0453 38.86 24.0664C38.611 24.1379 38.3933 24.1889 38.027 24.3475C37.6203 24.5273 37.2602 24.795 37.0145 25.1454C36.7657 25.4941 36.6469 25.9184 36.6401 26.3418C36.6316 26.5542 36.6617 26.7672 36.6979 26.9766C36.7381 27.1472 36.7794 27.3122 36.8407 27.4653C37.074 28.0957 37.4731 28.5649 37.8318 28.9168C37.894 28.9767 48.534 38.0947 52.8373 41.4607C56.2222 44.1081 56.5485 43.9946 56.7651 43.7447C56.9818 43.4949 57.0478 43.1556 53.9469 40.1807C47.3929 33.8928 39.2294 27.2301 39.0602 26.64C39.0402 26.5963 39.0361 26.5522 39.0228 26.5157L39.0235 26.5124L39.0269 26.5077L39.0319 26.5062C39.075 26.4856 39.2927 26.4153 39.481 26.3674C45.2048 24.7664 63.7654 17.8753 63.825 17.8512C65.5674 17.4187 66.8694 18.5056 66.9995 19.6677C67.0201 19.7955 67.0122 19.9275 67.009 20.0589C66.9858 20.1939 66.985 20.3034 66.9324 20.5208C63.3307 37.4595 63.1701 39.9664 61.5727 43.0846C61.2052 43.9286 60.6122 44.4362 59.9633 44.668C59.3312 44.8933 58.7164 44.742 58.2488 44.5312C57.7747 44.3238 57.4257 44.0792 57.1785 43.9342C56.9325 43.7838 56.7928 43.7124 56.7651 43.7447C56.7391 43.7752 56.8239 43.9072 57.0229 44.1233C57.2259 44.3347 57.5288 44.6498 58.0229 44.9578C58.4959 45.2616 59.2681 45.5722 60.1585 45.3532C60.2228 45.3374 60.2867 45.3148 60.3508 45.2946C60.1988 45.3449 60.1615 46.0358 60.248 47.1341C60.7838 53.2999 65.4327 65.8545 66.8356 68.548C66.9242 68.7209 67.0045 68.8563 67.0814 68.9762C65.7104 69.4562 64.2 70.0535 62.8796 70.6687C60.722 71.6645 59.0716 72.6744 59.1965 72.9767C59.3238 73.2859 61.1863 72.837 63.4472 72.2647C65.7073 71.6839 68.3759 71.0042 70.0636 70.543C73.1425 69.6988 74.7126 69.25 75.4815 68.8536C76.2532 68.4693 76.2279 68.1686 76.1611 67.8447Z" fill="#26848B"/><path d="M34.4254 26.4569C33.8641 26.2168 33.7503 26.3492 33.6555 26.4793C33.5559 26.616 33.5272 26.771 33.8526 27.1928C34.0003 27.4043 34.2484 27.6842 34.3526 28.0674C34.4749 28.4491 34.4492 28.972 34.0453 29.7429C33.8407 30.1229 33.5511 30.5461 33.1739 31.0077C32.2916 32.0594 21.9198 45.1601 16.4321 44.6287C16.1716 44.6181 15.6011 44.5192 15.3848 44.1979C12.6233 40.4422 9.00825 23.5714 8.70839 20.4799C8.64139 19.843 8.76041 19.2757 8.9424 19.1066C9.07923 18.9108 9.61286 18.7955 10.2409 18.8762C26.3978 20.7558 33.2203 27.1377 33.6555 26.4793C33.8867 26.1573 24.8215 19.1541 10.4801 17.0433C10.058 16.9815 9.6013 16.9544 9.09926 17.0266C8.60549 17.096 8.02049 17.313 7.58046 17.7536C7.13677 18.1902 6.91844 18.7452 6.81702 19.2275C6.70758 19.7227 6.70877 20.1717 6.72607 20.6087C6.99244 24.4522 10.7116 44.196 14.3681 46.4727C14.4039 46.4943 14.4408 46.5125 14.4771 46.533C13.0823 49.6282 11.0205 55.171 10.0017 58.3158C8.50238 62.944 7.97385 65.1101 7.90692 66.1582C6.83421 66.016 5.71429 65.9159 4.67827 65.8948C2.39865 65.8313 0.563785 66.0851 0.554737 66.4091C0.543823 66.7459 2.32763 67.0917 4.47251 67.5762C6.62335 68.0451 9.12644 68.698 10.713 69.1219C13.6093 69.8936 15.0709 70.3571 15.8882 70.4222C16.6982 70.5078 16.8441 70.2433 16.9678 69.9366C17.0916 69.6299 17.1776 69.3418 16.4978 68.8417C15.8126 68.3637 14.3641 67.6157 11.3183 66.804C10.8026 66.666 10.1819 66.5325 9.51233 66.4102C10.0718 65.4163 10.8956 63.3296 12.2807 59.0541C13.297 55.9171 14.8717 50.2388 15.5594 46.9104C15.7823 46.9578 16.0046 46.9995 16.2257 47.0123C22.4944 47.5489 30.9739 37.2707 34.6521 32.1178C35.0462 31.552 35.3641 30.9952 35.5874 30.4439C35.8076 29.8907 35.9284 29.3342 35.9194 28.8149C35.9141 28.2954 35.7635 27.8303 35.5641 27.4962C35.1506 26.8037 34.6899 26.5946 34.4254 26.4569Z" fill="#26848B"/></svg>